mtllib SM_Books2_LOD5.mtl
g SM_Books2_LOD5
#Vertices 20
#Indices 24
#Section 0 Offset 0 NumIndices 24 MaterialIndex 0 MI_Books
v -0.081139 0.126840 0.068755
v -0.021652 -0.181411 0.182803
v -0.020975 -0.139039 -0.066688
v -0.081139 0.126840 0.068755
v -0.020975 -0.139039 -0.066688
v 0.022469 0.088971 -0.037601
v -0.221396 0.159353 0.062766
v -0.109809 -0.208016 0.216826
v -0.112995 -0.148590 -0.148241
v -0.221396 0.159353 0.062766
v -0.112995 -0.148590 -0.148241
v -0.079808 0.121672 -0.097485
v -0.021652 -0.181411 0.182803
v 0.022469 0.088971 -0.037601
v -0.020975 -0.139039 -0.066688
v -0.081139 0.126840 0.068755
v -0.112995 -0.148590 -0.148241
v -0.109809 -0.208016 0.216826
v -0.079808 0.121672 -0.097485
v -0.221396 0.159353 0.062766
vt 0.631348 0.093750
vt 0.798828 0.003418
vt 0.775391 0.190430
vt 0.213867 0.625488
vt 0.365723 0.668945
vt 0.241455 0.697998
vt 0.400635 0.089355
vt 0.157471 0.196777
vt 0.199463 -0.036133
vt 0.215942 0.233887
vt -0.007408 0.177246
vt 0.166138 0.141113
vt 0.785645 0.002930
vt 0.932617 0.169922
vt 0.808594 0.190918
vt 0.955566 0.073730
vt 0.170166 -0.041016
vt 0.208008 0.196777
vt -0.004673 -0.008789
vt -0.040497 0.111816
vt1 0.095337 0.502686
vt1 0.413818 0.369141
vt1 0.369385 0.645996
vt1 -0.013603 0.058594
vt1 0.272949 0.124023
vt1 0.038513 0.167480
vt1 0.681152 0.781860
vt1 0.272949 0.962219
vt1 0.343262 0.570801
vt1 0.616211 0.200684
vt1 0.991699 0.105957
vt1 0.699707 0.044922
vt1 0.389404 0.368164
vt1 0.669434 0.614990
vt1 0.433350 0.645996
vt1 0.712891 0.472656
vt1 0.293945 0.562012
vt1 0.357666 0.962219
vt1 0.000207 0.616943
vt1 -0.059998 0.819336
vn -1.000000 0.000000 0.000000
vn -1.000000 0.000000 0.000000
vn -1.000000 0.000000 0.000000
vn 0.000000 -0.000000 -1.000000
vn 0.000000 -0.000000 -1.000000
vn 0.000000 -0.000000 -1.000000
vn -1.000000 -0.078740 0.000000
vn -1.000000 -0.078740 0.000000
vn -1.000000 -0.078740 0.000000
vn 0.000000 -0.000000 -1.000000
vn 0.000000 -0.000000 -1.000000
vn 0.000000 -0.000000 -1.000000
vn 1.000000 0.000000 0.000000
vn 1.000000 0.000000 0.000000
vn 1.000000 0.000000 0.000000
vn 1.000000 0.000000 0.000000
vn 1.000000 0.078740 -0.000000
vn 1.000000 0.078740 -0.000000
vn 1.000000 0.078740 -0.000000
vn 1.000000 0.078740 -0.000000
tan 0.000000 0.000000 1.000000 1.000000
tan 0.000000 0.000000 1.000000 1.000000
tan 0.000000 0.000000 1.000000 1.000000
tan -1.000000 0.000000 0.000000 1.000000
tan -1.000000 0.000000 0.000000 1.000000
tan -1.000000 0.000000 0.000000 1.000000
tan 0.000000 -0.000000 -1.000000 1.000000
tan 0.000000 -0.000000 -1.000000 1.000000
tan 0.000000 -0.000000 -1.000000 1.000000
tan 1.000000 0.078740 -0.000000 1.000000
tan 1.000000 0.078740 -0.000000 1.000000
tan 1.000000 0.078740 -0.000000 1.000000
tan 0.000000 0.000000 1.000000 1.000000
tan 0.000000 0.000000 1.000000 1.000000
tan 0.000000 0.000000 1.000000 1.000000
tan 0.000000 0.000000 1.000000 1.000000
tan 0.000000 -0.000000 -1.000000 1.000000
tan 0.000000 -0.000000 -1.000000 1.000000
tan 0.000000 -0.000000 -1.000000 1.000000
tan 0.000000 -0.000000 -1.000000 1.000000
f 3/3/3 2/2/2 1/1/1
f 6/6/6 5/5/5 4/4/4
f 9/9/9 8/8/8 7/7/7
f 12/12/12 11/11/11 10/10/10
f 15/15/15 14/14/14 13/13/13
f 16/16/16 13/13/13 14/14/14
f 19/19/19 18/18/18 17/17/17
f 20/20/20 18/18/18 19/19/19
