mtllib SM_Books7_LOD2.mtl
g SM_Books7_LOD2
#Vertices 72
#Indices 90
#Section 0 Offset 0 NumIndices 90 MaterialIndex 0 MI_Books
v -0.155648 0.000277 -0.024395
v 0.123811 -0.006411 -0.084681
v 0.131066 -0.001366 -0.070337
v 0.127507 -0.042796 -0.075054
v 0.160115 -0.037074 0.076145
v 0.123811 -0.006411 -0.084681
v 0.123811 -0.006411 -0.084681
v 0.160115 -0.037074 0.076145
v 0.158427 -0.006280 0.080434
v 0.158427 -0.006280 0.080434
v -0.123827 -0.010427 0.122486
v -0.128350 -0.001366 0.129696
v 0.123811 -0.006411 -0.084681
v 0.158427 -0.006280 0.080434
v 0.131066 -0.001366 -0.070337
v -0.123827 -0.010427 0.122486
v -0.155648 0.000277 -0.024395
v -0.128350 -0.001366 0.129696
v 0.160115 -0.037074 0.076145
v -0.128655 -0.042542 0.127993
v -0.118663 -0.031436 0.115762
v -0.154383 -0.045438 -0.026043
v -0.118663 -0.031436 0.115762
v -0.128655 -0.042542 0.127993
v -0.122515 0.033825 0.042526
v -0.022813 0.000999 0.134455
v -0.125010 -0.000843 0.044288
v -0.022813 0.000999 0.134455
v -0.122515 0.033825 0.042526
v -0.024585 0.042833 0.127126
v -0.125010 -0.000843 0.044288
v 0.039378 0.029284 -0.137844
v -0.122515 0.033825 0.042526
v 0.039378 0.029284 -0.137844
v -0.125010 -0.000843 0.044288
v 0.038904 -0.000237 -0.136184
v 0.131066 -0.001366 -0.070337
v -0.128350 -0.001366 0.129696
v -0.155648 0.000277 -0.024395
v 0.158427 -0.006280 0.080434
v 0.127507 -0.042796 -0.075054
v -0.154383 -0.045438 -0.026043
v -0.128655 -0.042542 0.127993
v 0.160115 -0.037074 0.076145
v -0.118663 -0.031436 0.115762
v 0.158427 -0.006280 0.080434
v 0.160115 -0.037074 0.076145
v -0.123827 -0.010427 0.122486
v -0.155648 0.000277 -0.024395
v -0.118663 -0.031436 0.115762
v -0.154383 -0.045438 -0.026043
v -0.123827 -0.010427 0.122486
v 0.123811 -0.006411 -0.084681
v -0.155648 0.000277 -0.024395
v -0.154383 -0.045438 -0.026043
v 0.127507 -0.042796 -0.075054
v 0.039378 0.029284 -0.137844
v 0.134463 0.042095 -0.047596
v -0.122515 0.033825 0.042526
v -0.024585 0.042833 0.127126
v -0.125010 -0.000843 0.044288
v 0.136726 0.000403 -0.047234
v 0.038904 -0.000237 -0.136184
v -0.022813 0.000999 0.134455
v 0.038904 -0.000237 -0.136184
v 0.136726 0.000403 -0.047234
v 0.039378 0.029284 -0.137844
v 0.134463 0.042095 -0.047596
v -0.022813 0.000999 0.134455
v 0.134463 0.042095 -0.047596
v 0.136726 0.000403 -0.047234
v -0.024585 0.042833 0.127126
vt 0.963379 0.003906
vt 0.777344 0.010254
vt 0.774414 0.000000
vt 0.664551 0.895142
vt 0.667480 0.794922
vt 0.686523 0.901978
vt 0.687988 0.901733
vt 0.670410 0.794434
vt 0.687500 0.792236
vt 0.657227 0.754517
vt 0.471680 0.757690
vt 0.468018 0.751831
vt 0.695801 0.901794
vt 0.696289 0.792114
vt 0.698730 0.891785
vt 0.433350 0.797729
vt 0.425537 0.895325
vt 0.426270 0.793457
vt 0.658691 0.785522
vt 0.468018 0.785889
vt 0.475830 0.779175
vt 0.461426 0.896301
vt 0.453613 0.801270
vt 0.461914 0.795166
vt 0.880859 0.890686
vt 0.858398 0.978210
vt 0.860840 0.889832
vt 0.859375 0.978439
vt 0.882324 0.890991
vt 0.885742 0.975113
vt 0.856445 0.884277
vt 0.696777 0.864868
vt 0.854492 0.863892
vt 0.696777 0.866089
vt 0.856445 0.884583
vt 0.697754 0.882324
vt 0.237061 0.891785
vt 0.426270 0.793457
vt 0.426025 0.895386
vt 0.236938 0.791992
vt 0.655273 0.895203
vt 0.469238 0.896240
vt 0.468018 0.794678
vt 0.658691 0.794556
vt 0.475830 0.779175
vt 0.657227 0.762817
vt 0.659180 0.781372
vt 0.471680 0.765503
vt 0.433594 0.895630
vt 0.453613 0.801270
vt 0.462402 0.896301
vt 0.439941 0.797729
vt 0.777344 0.013672
vt 0.963379 0.009277
vt 0.962402 0.038574
vt 0.775879 0.037109
vt 0.664551 0.890015
vt 0.662598 0.975601
vt 0.506836 0.890625
vt 0.508789 0.975067
vt 0.856445 0.889465
vt 0.698242 0.975876
vt 0.697754 0.889832
vt 0.855469 0.978180
vt 0.689453 0.890076
vt 0.693359 0.975876
vt 0.672363 0.890198
vt 0.667480 0.975388
vt 0.965332 0.493164
vt 0.992188 0.649414
vt 0.965820 0.650146
vt 0.992188 0.496094
vt1 0.491699 0.199707
vt1 0.069885 0.213867
vt1 0.063110 0.190918
vt1 0.906250 0.984268
vt1 0.911621 0.777222
vt1 0.951172 0.998387
vt1 0.954590 0.997917
vt1 0.917969 0.776245
vt1 0.953613 0.771484
vt1 0.891113 0.693848
vt1 0.507324 0.700195
vt1 0.499756 0.687988
vt1 0.970703 0.997971
vt1 0.971191 0.771362
vt1 0.977051 0.977280
vt1 0.428223 0.782837
vt1 0.411865 0.984642
vt1 0.413574 0.774292
vt1 0.894531 0.757690
vt1 0.500000 0.758545
vt1 0.516113 0.744629
vt1 0.486572 0.986649
vt1 0.470215 0.790405
vt1 0.487305 0.777588
vt1 0.868164 0.428223
vt1 0.816406 0.626953
vt1 0.822266 0.426270
vt1 0.819336 0.627441
vt1 0.871094 0.429199
vt1 0.878418 0.619873
vt1 0.812500 0.414062
vt1 0.450928 0.369629
vt1 0.808105 0.367676
vt1 0.450684 0.372559
vt1 0.812500 0.414551
vt1 0.452881 0.409180
vt1 0.022720 0.977280
vt1 0.413574 0.774292
vt1 0.413086 0.984703
vt1 0.022385 0.771240
vt1 0.887207 0.984375
vt1 0.502441 0.986549
vt1 0.500000 0.776611
vt1 0.894531 0.776489
vt1 0.516113 0.744629
vt1 0.891113 0.710938
vt1 0.894531 0.749268
vt1 0.507324 0.716553
vt1 0.428711 0.985260
vt1 0.470215 0.790405
vt1 0.488281 0.986618
vt1 0.441895 0.782959
vt1 0.069885 0.221191
vt1 0.491699 0.211426
vt1 0.489502 0.278320
vt1 0.067017 0.274902
vt1 0.377441 0.426758
vt1 0.372559 0.620850
vt1 0.019623 0.428223
vt1 0.023849 0.619629
vt1 0.812988 0.425781
vt1 0.453369 0.621582
vt1 0.452881 0.426758
vt1 0.810547 0.626709
vt1 0.434326 0.426758
vt1 0.442871 0.621582
vt1 0.395508 0.427246
vt1 0.384277 0.620361
vt1 0.951172 0.083008
vt1 0.597168 0.143555
vt1 0.595215 0.083984
vt1 0.944336 0.144043
vn 0.000000 1.000000 -0.000000
vn 0.000000 1.000000 -0.000000
vn 0.000000 1.000000 -0.000000
vn 0.984252 -0.000000 -0.173228
vn 0.984252 -0.000000 -0.173228
vn 0.984252 -0.000000 -0.173228
vn 0.984252 -0.000000 -0.173228
vn 0.984252 -0.000000 -0.173228
vn 0.984252 -0.000000 -0.173228
vn 0.173228 0.000000 0.984252
vn 0.173228 0.000000 0.984252
vn 0.173228 0.000000 0.984252
vn 0.984252 -0.000000 -0.173228
vn 0.984252 -0.000000 -0.173228
vn 0.984252 -0.000000 -0.173228
vn -0.984252 0.000000 0.173228
vn -0.984252 0.000000 0.173228
vn -0.984252 0.000000 0.173228
vn 0.000000 1.000000 -0.000000
vn 0.000000 1.000000 -0.000000
vn 0.000000 1.000000 -0.000000
vn 0.000000 1.000000 -0.000000
vn 0.000000 1.000000 -0.000000
vn 0.000000 1.000000 -0.000000
vn -0.669291 0.000000 0.740157
vn -0.669291 0.000000 0.740157
vn -0.669291 0.000000 0.740157
vn -0.669291 0.000000 0.740157
vn -0.669291 0.000000 0.740157
vn -0.669291 0.000000 0.740157
vn -0.740157 -0.039370 -0.669291
vn -0.740157 -0.039370 -0.669291
vn -0.740157 -0.039370 -0.669291
vn -0.740157 -0.039370 -0.669291
vn -0.740157 -0.039370 -0.669291
vn -0.740157 -0.039370 -0.669291
vn 0.000000 1.000000 -0.000000
vn 0.000000 1.000000 -0.000000
vn 0.000000 1.000000 -0.000000
vn 0.000000 1.000000 -0.000000
vn 0.000000 -1.000000 0.000000
vn 0.000000 -1.000000 0.000000
vn 0.000000 -1.000000 0.000000
vn 0.000000 -1.000000 0.000000
vn 0.173228 0.000000 0.984252
vn 0.173228 0.000000 0.984252
vn 0.173228 0.000000 0.984252
vn 0.173228 0.000000 0.984252
vn -0.984252 0.000000 0.173228
vn -0.984252 0.000000 0.173228
vn -0.984252 0.000000 0.173228
vn -0.984252 0.000000 0.173228
vn -0.173228 -0.000000 -0.984252
vn -0.173228 -0.000000 -0.984252
vn -0.173228 -0.000000 -0.984252
vn -0.173228 -0.000000 -0.984252
vn -0.023622 1.000000 -0.023622
vn -0.023622 1.000000 -0.023622
vn -0.023622 1.000000 -0.023622
vn -0.023622 1.000000 -0.023622
vn 0.023622 -1.000000 0.023622
vn 0.023622 -1.000000 0.023622
vn 0.023622 -1.000000 0.023622
vn 0.023622 -1.000000 0.023622
vn 0.669291 -0.000000 -0.740157
vn 0.669291 -0.000000 -0.740157
vn 0.669291 -0.000000 -0.740157
vn 0.669291 -0.000000 -0.740157
vn 0.740157 0.039370 0.669291
vn 0.740157 0.039370 0.669291
vn 0.740157 0.039370 0.669291
vn 0.740157 0.039370 0.669291
tan 0.173228 0.000000 0.984252 1.000000
tan 0.173228 0.000000 0.984252 1.000000
tan 0.173228 0.000000 0.984252 1.000000
tan 0.173228 0.000000 0.984252 1.000000
tan 0.173228 0.000000 0.984252 1.000000
tan 0.173228 0.000000 0.984252 1.000000
tan 0.173228 0.000000 0.984252 1.000000
tan 0.173228 0.000000 0.984252 1.000000
tan 0.173228 0.000000 0.984252 1.000000
tan 0.000000 0.984252 -0.000000 1.000000
tan 0.000000 0.984252 -0.000000 1.000000
tan 0.000000 0.985616 -0.000000 1.000000
tan 0.173228 0.000000 0.984252 1.000000
tan 0.173228 0.000000 0.984252 1.000000
tan 0.173228 0.000000 0.984252 1.000000
tan 0.173228 0.000000 0.984252 1.000000
tan 0.173228 0.000000 0.984252 1.000000
tan 0.173228 0.000000 0.984252 1.000000
tan -0.173228 -0.000000 -0.984252 1.000000
tan -0.173228 -0.000000 -0.984252 1.000000
tan -0.173228 -0.000000 -0.984252 1.000000
tan 0.173228 0.000000 0.984252 1.000000
tan 0.173228 0.000000 0.984252 1.000000
tan 0.173228 0.000000 0.984252 1.000000
tan -0.740157 -0.005828 -0.669291 1.000000
tan -0.740157 -0.000000 -0.669291 1.000000
tan -0.740157 -0.005828 -0.669291 1.000000
tan -0.740157 -0.000000 -0.669291 1.000000
tan -0.740157 -0.005828 -0.669291 1.000000
tan -0.740157 -0.000000 -0.669291 1.000000
tan -0.024800 0.959514 -0.029016 1.000000
tan -0.028210 0.977246 -0.026288 1.000000
tan -0.024490 0.964226 -0.029636 1.000000
tan -0.028210 0.977246 -0.026288 1.000000
tan -0.025110 0.954802 -0.028396 1.000000
tan -0.024800 0.959514 -0.029016 1.000000
tan 0.173228 0.000000 0.984252 1.000000
tan 0.173228 0.000000 0.984252 1.000000
tan 0.173228 0.000000 0.984252 1.000000
tan 0.173228 0.000000 0.984252 1.000000
tan 0.173228 0.000000 0.984252 1.000000
tan 0.173228 0.000000 0.984252 1.000000
tan 0.173228 0.000000 0.984252 1.000000
tan 0.173228 0.000000 0.984252 1.000000
tan 0.000000 0.985616 -0.000000 1.000000
tan 0.000000 0.984252 -0.000000 1.000000
tan 0.000000 0.984252 -0.000000 1.000000
tan 0.000000 0.984252 -0.000000 1.000000
tan 0.173228 0.000000 0.984252 1.000000
tan 0.173228 0.000000 0.984252 1.000000
tan 0.173228 0.000000 0.984252 1.000000
tan 0.173228 0.000000 0.984252 1.000000
tan 0.000000 0.984252 -0.000000 1.000000
tan 0.000000 0.984252 -0.000000 1.000000
tan 0.000000 0.984252 -0.000000 1.000000
tan 0.000000 0.984252 -0.000000 1.000000
tan -0.740157 -0.033294 -0.669291 1.000000
tan -0.740157 -0.033294 -0.669291 1.000000
tan -0.740157 -0.033294 -0.669291 1.000000
tan -0.740157 -0.033294 -0.669291 1.000000
tan -0.740157 -0.033294 -0.669291 1.000000
tan -0.740157 -0.033294 -0.669291 1.000000
tan -0.740157 -0.033294 -0.669291 1.000000
tan -0.740157 -0.033294 -0.669291 1.000000
tan -0.740157 -0.005828 -0.669291 1.000000
tan -0.740157 -0.000000 -0.669291 1.000000
tan -0.740157 -0.005828 -0.669291 1.000000
tan -0.740157 -0.005828 -0.669291 1.000000
tan -0.669291 0.000000 0.740157 1.000000
tan -0.669291 0.000000 0.740157 1.000000
tan -0.669291 0.000000 0.740157 1.000000
tan -0.669291 0.000000 0.740157 1.000000
f 3/3/3 2/2/2 1/1/1
f 6/6/6 5/5/5 4/4/4
f 9/9/9 8/8/8 7/7/7
f 12/12/12 11/11/11 10/10/10
f 15/15/15 14/14/14 13/13/13
f 18/18/18 17/17/17 16/16/16
f 21/21/21 20/20/20 19/19/19
f 24/24/24 23/23/23 22/22/22
f 27/27/27 26/26/26 25/25/25
f 30/30/30 29/29/29 28/28/28
f 33/33/33 32/32/32 31/31/31
f 36/36/36 35/35/35 34/34/34
f 39/39/39 38/38/38 37/37/37
f 40/40/40 37/37/37 38/38/38
f 43/43/43 42/42/42 41/41/41
f 44/44/44 43/43/43 41/41/41
f 47/47/47 46/46/46 45/45/45
f 48/48/48 45/45/45 46/46/46
f 51/51/51 50/50/50 49/49/49
f 52/52/52 49/49/49 50/50/50
f 55/55/55 54/54/54 53/53/53
f 56/56/56 55/55/55 53/53/53
f 59/59/59 58/58/58 57/57/57
f 60/60/60 58/58/58 59/59/59
f 63/63/63 62/62/62 61/61/61
f 64/64/64 61/61/61 62/62/62
f 67/67/67 66/66/66 65/65/65
f 68/68/68 66/66/66 67/67/67
f 71/71/71 70/70/70 69/69/69
f 72/72/72 69/69/69 70/70/70
