mtllib SM_Books3_2_LOD2.mtl
g SM_Books3_2_LOD2
#Vertices 70
#Indices 90
#Section 0 Offset 0 NumIndices 90 MaterialIndex 0 MI_Books
v 0.073444 -0.125482 -0.054933
v 0.138416 0.094198 -0.061921
v 0.077947 -0.121904 -0.070147
v 0.077947 -0.121904 -0.070147
v -0.028084 -0.101478 -0.062635
v 0.073444 -0.125482 -0.054933
v -0.028084 -0.101478 -0.062635
v 0.072151 -0.120384 0.071012
v 0.073444 -0.125482 -0.054933
v 0.072151 -0.120384 0.071012
v -0.028084 -0.101478 -0.062635
v -0.015716 -0.090994 0.063257
v 0.120040 0.091405 -0.056951
v 0.032374 0.117040 0.067625
v 0.019873 0.126272 -0.061562
v 0.032374 0.117040 0.067625
v 0.120040 0.091405 -0.056951
v 0.126247 0.096159 0.070790
v 0.019873 0.126272 -0.061562
v 0.138416 0.094198 -0.061921
v 0.120040 0.091405 -0.056951
v 0.138416 0.094198 -0.061921
v 0.126247 0.096159 0.070790
v 0.120040 0.091405 -0.056951
v -0.028084 -0.101478 -0.062635
v -0.031073 -0.094005 0.069884
v -0.015716 -0.090994 0.063257
v -0.031073 -0.094005 0.069884
v 0.032374 0.117040 0.067625
v -0.015716 -0.090994 0.063257
v 0.073444 -0.125482 -0.054933
v 0.072151 -0.120384 0.071012
v 0.138416 0.094198 -0.061921
v 0.126247 0.096159 0.070790
v 0.019873 0.126272 -0.061562
v -0.031073 -0.094005 0.069884
v -0.028084 -0.101478 -0.062635
v 0.032374 0.117040 0.067625
v 0.019873 0.126272 -0.061562
v 0.077947 -0.121904 -0.070147
v 0.138416 0.094198 -0.061921
v -0.028084 -0.101478 -0.062635
v -0.015716 -0.090994 0.063257
v 0.032374 0.117040 0.067625
v 0.072151 -0.120384 0.071012
v 0.126247 0.096159 0.070790
v -0.035568 -0.115199 0.069986
v -0.024809 0.109929 -0.061921
v -0.029405 -0.118961 -0.059967
v -0.036931 0.103582 0.068926
v -0.136348 0.108606 -0.060339
v -0.129471 -0.115715 0.069835
v -0.139740 -0.121388 -0.063637
v -0.127682 0.104525 0.066782
v -0.024809 0.109929 -0.061921
v -0.136348 0.108606 -0.060339
v -0.139740 -0.121388 -0.063637
v -0.029405 -0.118961 -0.059967
v -0.139740 -0.121388 -0.063637
v -0.129471 -0.115715 0.069835
v -0.029405 -0.118961 -0.059967
v -0.035568 -0.115199 0.069986
v -0.127682 0.104525 0.066782
v -0.035568 -0.115199 0.069986
v -0.129471 -0.115715 0.069835
v -0.036931 0.103582 0.068926
v -0.136348 0.108606 -0.060339
v -0.024809 0.109929 -0.061921
v -0.036931 0.103582 0.068926
v -0.127682 0.104525 0.066782
vt 0.425293 0.677002
vt 0.428711 0.525146
vt 0.434570 0.673828
vt 0.436523 0.672119
vt 0.505371 0.677490
vt 0.440430 0.676514
vt 0.238892 0.798096
vt 0.304932 0.711670
vt 0.305664 0.793091
vt 0.304932 0.711670
vt 0.238770 0.797974
vt 0.244873 0.716064
vt 0.014450 0.794312
vt 0.073975 0.713379
vt 0.083252 0.797363
vt 0.073730 0.713135
vt 0.014420 0.794312
vt 0.011414 0.711182
vt 0.512695 0.521973
vt 0.432129 0.521240
vt 0.443604 0.516602
vt -0.001934 0.797485
vt 0.005646 0.711182
vt 0.009209 0.794312
vt 0.231812 0.797729
vt 0.230469 0.711670
vt 0.239746 0.716309
vt 0.230469 0.711670
vt 0.087219 0.705322
vt 0.226074 0.702637
vt 0.312500 0.792969
vt 0.315430 0.711182
vt 0.461670 0.797485
vt 0.460693 0.711182
vt 0.083435 0.797363
vt 0.230469 0.711670
vt 0.234497 0.797729
vt 0.087158 0.713379
vt 0.512695 0.523926
vt 0.436279 0.672607
vt 0.432129 0.525146
vt 0.505859 0.676025
vt 0.226074 0.697266
vt 0.087219 0.700195
vt 0.230591 0.637207
vt 0.085449 0.638184
vt 0.503906 0.145020
vt 0.589844 -0.000977
vt 0.588379 0.146973
vt 0.504395 0.002441
vt 0.588867 0.371582
vt 0.503906 0.225586
vt 0.590820 0.221680
vt 0.505859 0.368652
vt 0.861328 0.733887
vt 0.860352 0.806274
vt 0.710449 0.808350
vt 0.712402 0.736816
vt 0.590820 0.222168
vt 0.504395 0.215820
vt 0.588379 0.150879
vt 0.503906 0.154785
vt 0.493896 0.368652
vt 0.433838 0.225586
vt 0.494873 0.225586
vt 0.434814 0.368164
vt 0.588867 0.375000
vt 0.589844 0.447266
vt 0.504883 0.439941
vt 0.506348 0.380859
vt1 0.546875 0.158203
vt1 0.934570 0.166992
vt1 0.554688 0.182129
vt1 0.559570 0.187012
vt1 0.544922 0.361816
vt1 0.547852 0.196289
vt1 0.517578 1.001668
vt1 0.658691 0.817017
vt1 0.660156 0.990929
vt1 0.658691 0.817139
vt1 0.517578 1.001584
vt1 0.530273 0.826782
vt1 0.038879 0.993664
vt1 0.165894 0.820923
vt1 0.185791 1.000153
vt1 0.165405 0.820679
vt1 0.038818 0.993622
vt1 0.032410 0.816284
vt1 0.943359 0.380371
vt1 0.944824 0.175781
vt1 0.957031 0.204590
vt1 0.003937 1.000492
vt1 0.020111 0.816406
vt1 0.027725 0.993622
vt1 0.502441 1.000984
vt1 0.499756 0.817505
vt1 0.519531 0.827148
vt1 0.499756 0.817505
vt1 0.194092 0.803589
vt1 0.490479 0.797852
vt1 0.674805 0.990852
vt1 0.681152 0.816040
vt1 0.993164 1.000463
vt1 0.991211 0.815918
vt1 0.186035 1.000191
vt1 0.499756 0.817505
vt1 0.508301 1.000820
vt1 0.194092 0.820801
vt1 0.937988 0.379883
vt1 0.558105 0.186523
vt1 0.935059 0.175293
vt1 0.548828 0.362793
vt1 0.490479 0.786743
vt1 0.194214 0.792969
vt1 0.500000 0.658447
vt1 0.190308 0.660400
vt1 0.675293 0.426758
vt1 0.995605 0.614746
vt1 0.670410 0.611816
vt1 0.986816 0.428223
vt1 0.179932 0.612549
vt1 0.499268 0.426758
vt1 0.507324 0.617188
vt1 0.185669 0.431641
vt1 0.420898 0.026855
vt1 0.418457 0.211426
vt1 0.037476 0.216797
vt1 0.041809 0.034180
vt1 0.505859 0.617188
vt1 0.520020 0.427734
vt1 0.662109 0.611816
vt1 0.653320 0.427246
vt1 0.185669 0.404297
vt1 0.498291 0.273438
vt1 0.499268 0.406738
vt1 0.187012 0.275391
vt1 0.172119 0.612549
vt1 0.013985 0.614990
vt1 0.030548 0.428711
vt1 0.159546 0.431641
vn 0.968504 -0.244094 0.000000
vn 0.968504 -0.244094 0.000000
vn 0.968504 -0.244094 0.000000
vn -0.244094 -0.968504 0.000000
vn -0.244094 -0.968504 0.000000
vn -0.244094 -0.968504 0.000000
vn -0.244094 -0.968504 0.000000
vn -0.244094 -0.968504 0.000000
vn -0.244094 -0.968504 0.000000
vn -0.244094 -0.968504 0.000000
vn -0.244094 -0.968504 0.000000
vn -0.244094 -0.968504 0.000000
vn 0.244094 0.968504 -0.000000
vn 0.244094 0.968504 -0.000000
vn 0.244094 0.968504 -0.000000
vn 0.244094 0.968504 -0.000000
vn 0.244094 0.968504 -0.000000
vn 0.244094 0.968504 -0.000000
vn 0.244094 0.968504 -0.000000
vn 0.244094 0.968504 -0.000000
vn 0.244094 0.968504 -0.000000
vn 0.244094 0.968504 -0.000000
vn 0.244094 0.968504 -0.000000
vn 0.244094 0.968504 -0.000000
vn -0.244094 -0.968504 0.000000
vn -0.244094 -0.968504 0.000000
vn -0.244094 -0.968504 0.000000
vn 0.000000 0.000000 1.000000
vn 0.000000 0.000000 1.000000
vn 0.000000 0.000000 1.000000
vn 0.968504 -0.244094 0.000000
vn 0.968504 -0.244094 0.000000
vn 0.968504 -0.244094 0.000000
vn 0.968504 -0.244094 0.000000
vn -0.968504 0.244094 -0.000000
vn -0.968504 0.244094 -0.000000
vn -0.968504 0.244094 -0.000000
vn -0.968504 0.244094 -0.000000
vn 0.000000 -0.000000 -1.000000
vn 0.000000 -0.000000 -1.000000
vn 0.000000 -0.000000 -1.000000
vn 0.000000 -0.000000 -1.000000
vn 0.000000 0.000000 1.000000
vn 0.000000 0.000000 1.000000
vn 0.000000 0.000000 1.000000
vn 0.000000 0.000000 1.000000
vn 1.000000 0.000000 0.000000
vn 1.000000 0.000000 0.000000
vn 1.000000 0.000000 0.000000
vn 1.000000 0.000000 0.000000
vn -1.000000 0.000000 0.000000
vn -1.000000 0.000000 0.000000
vn -1.000000 0.000000 0.000000
vn -1.000000 0.000000 0.000000
vn 0.000000 -0.000000 -1.000000
vn 0.000000 -0.000000 -1.000000
vn 0.000000 -0.000000 -1.000000
vn 0.000000 -0.000000 -1.000000
vn 0.000000 -1.000000 0.000000
vn 0.000000 -1.000000 0.000000
vn 0.000000 -1.000000 0.000000
vn 0.000000 -1.000000 0.000000
vn 0.000000 0.000000 1.000000
vn 0.000000 0.000000 1.000000
vn 0.000000 0.000000 1.000000
vn 0.000000 0.000000 1.000000
vn 0.000000 1.000000 -0.000000
vn 0.000000 1.000000 -0.000000
vn 0.000000 1.000000 -0.000000
vn 0.000000 1.000000 -0.000000
tan 0.244094 0.968504 -0.000000 1.000000
tan 0.244094 0.968504 -0.000000 1.000000
tan 0.244094 0.968504 -0.000000 1.000000
tan 0.068634 -0.017298 -0.968504 1.000000
tan 0.015252 -0.003844 -0.968504 1.000000
tan 0.076260 -0.019220 -0.968504 1.000000
tan 0.000000 0.000000 0.968504 1.000000
tan 0.000000 0.000000 0.968504 1.000000
tan 0.000000 0.000000 0.968504 1.000000
tan 0.000000 0.000000 0.968504 1.000000
tan 0.000000 0.000000 0.968504 1.000000
tan 0.000000 0.000000 0.968504 1.000000
tan 0.000000 0.000000 0.968504 1.000000
tan 0.000000 0.000000 0.968504 1.000000
tan 0.000000 0.000000 0.968504 1.000000
tan 0.000000 0.000000 0.968504 1.000000
tan 0.000000 0.000000 0.968504 1.000000
tan 0.000000 0.000000 0.968504 1.000000
tan 0.007626 -0.001922 0.968504 1.000000
tan 0.007626 -0.001922 0.968504 1.000000
tan 0.015252 -0.003844 0.968504 1.000000
tan 0.000000 0.000000 0.968504 1.000000
tan 0.000000 0.000000 0.968504 1.000000
tan 0.000000 0.000000 0.968504 1.000000
tan 0.000000 0.000000 0.968504 1.000000
tan 0.000000 0.000000 0.972348 1.000000
tan 0.000000 0.000000 0.968504 1.000000
tan 0.968504 -0.244094 0.000000 1.000000
tan 0.968504 -0.244094 0.000000 1.000000
tan 0.968504 -0.244094 0.000000 1.000000
tan 0.000000 0.000000 0.968504 1.000000
tan 0.000000 0.000000 0.968504 1.000000
tan 0.000000 0.000000 0.968504 1.000000
tan 0.000000 0.000000 0.968504 1.000000
tan 0.000000 0.000000 0.968504 1.000000
tan 0.000000 0.000000 0.972348 1.000000
tan 0.000000 0.000000 0.968504 1.000000
tan 0.000000 0.000000 0.968504 1.000000
tan 0.259843 0.968504 -0.000000 1.000000
tan 0.165354 0.984252 -0.000000 1.000000
tan 0.244094 0.968504 -0.000000 1.000000
tan 0.251969 0.968504 -0.000000 1.000000
tan 0.968504 -0.244094 0.000000 1.000000
tan 0.968504 -0.244094 0.000000 1.000000
tan 0.968504 -0.244094 0.000000 1.000000
tan 0.968504 -0.244094 0.000000 1.000000
tan 0.000000 1.000000 -0.000000 1.000000
tan 0.000000 1.000000 -0.000000 1.000000
tan 0.000000 1.000000 -0.000000 1.000000
tan 0.000000 1.000000 -0.000000 1.000000
tan 0.000000 -1.000000 0.000000 1.000000
tan 0.000000 -1.000000 0.000000 1.000000
tan 0.000000 -1.000000 0.000000 1.000000
tan 0.000000 -1.000000 0.000000 1.000000
tan 1.000000 0.000000 0.000000 1.000000
tan 1.000000 0.000000 0.000000 1.000000
tan 1.000000 0.000000 0.000000 1.000000
tan 1.000000 0.000000 0.000000 1.000000
tan 1.000000 0.000000 0.000000 1.000000
tan 1.000000 0.000000 0.000000 1.000000
tan 1.000000 0.000000 0.000000 1.000000
tan 1.000000 0.000000 0.000000 1.000000
tan 0.000000 -1.000000 0.000000 1.000000
tan 0.000000 -1.000000 0.000000 1.000000
tan 0.000000 -1.000000 0.000000 1.000000
tan 0.000000 -1.000000 0.000000 1.000000
tan -1.000000 0.000000 0.000000 1.000000
tan -1.000000 0.000000 0.000000 1.000000
tan -1.000000 0.000000 0.000000 1.000000
tan -1.000000 0.000000 0.000000 1.000000
f 3/3/3 2/2/2 1/1/1
f 6/6/6 5/5/5 4/4/4
f 9/9/9 8/8/8 7/7/7
f 12/12/12 11/11/11 10/10/10
f 15/15/15 14/14/14 13/13/13
f 18/18/18 17/17/17 16/16/16
f 21/21/21 20/20/20 19/19/19
f 24/24/24 23/23/23 22/22/22
f 27/27/27 26/26/26 25/25/25
f 30/30/30 29/29/29 28/28/28
f 33/33/33 32/32/32 31/31/31
f 34/34/34 32/32/32 33/33/33
f 37/37/37 36/36/36 35/35/35
f 38/38/38 35/35/35 36/36/36
f 41/41/41 40/40/40 39/39/39
f 42/42/42 39/39/39 40/40/40
f 45/45/45 44/44/44 43/43/43
f 46/46/46 44/44/44 45/45/45
f 49/49/49 48/48/48 47/47/47
f 50/50/50 47/47/47 48/48/48
f 53/53/53 52/52/52 51/51/51
f 54/54/54 51/51/51 52/52/52
f 57/57/57 56/56/56 55/55/55
f 58/58/58 57/57/57 55/55/55
f 61/61/61 60/60/60 59/59/59
f 62/62/62 60/60/60 61/61/61
f 65/65/65 64/64/64 63/63/63
f 66/66/66 63/63/63 64/64/64
f 69/69/69 68/68/68 67/67/67
f 70/70/70 69/69/69 67/67/67
