mtllib SM_Books3_LOD5.mtl
g SM_Books3_LOD5
#Vertices 10
#Indices 12
#Section 0 Offset 0 NumIndices 12 MaterialIndex 0 MI_Books
v 0.007258 0.161655 0.033808
v 0.017244 -0.170324 0.158887
v -0.003624 -0.140129 -0.089085
v 0.007258 0.161655 0.033808
v -0.003624 -0.140129 -0.089085
v 0.134527 0.095679 -0.063532
v -0.003624 -0.140129 -0.089085
v 0.017244 -0.170324 0.158887
v 0.134527 0.095679 -0.063532
v 0.007258 0.161655 0.033808
vt 0.061890 0.740967
vt 0.272217 0.653320
vt 0.255859 0.814575
vt 0.527344 0.497559
vt 0.484375 0.697266
vt 0.434814 0.524902
vt 0.290039 0.814331
vt 0.271973 0.657715
vt 0.461914 0.798340
vt 0.491699 0.711182
vt1 0.140137 0.879761
vt1 0.588867 0.692627
vt1 0.553711 1.036865
vt1 1.005859 0.416992
vt1 0.495117 0.308105
vt1 0.935547 0.182129
vt1 0.626953 1.036285
vt1 0.588379 0.702148
vt1 0.993652 1.002363
vt1 1.056641 0.816284
vn -0.968504 0.244094 -0.000000
vn -0.968504 0.244094 -0.000000
vn -0.968504 0.244094 -0.000000
vn 0.000000 -0.000000 -1.000000
vn 0.000000 -0.000000 -1.000000
vn 0.000000 -0.000000 -1.000000
vn 0.968504 -0.244094 0.000000
vn 0.968504 -0.244094 0.000000
vn 0.968504 -0.244094 0.000000
vn 0.968504 -0.244094 0.000000
tan 0.000000 0.000000 0.968504 1.000000
tan 0.000000 0.000000 0.968504 1.000000
tan 0.000000 0.000000 0.968504 1.000000
tan 0.267717 0.960630 -0.000000 1.000000
tan 0.204724 0.976378 -0.000000 1.000000
tan 0.244094 0.968504 -0.000000 1.000000
tan 0.000000 0.000000 0.968504 1.000000
tan 0.000000 0.000000 0.968504 1.000000
tan 0.000000 0.000000 0.968504 1.000000
tan 0.000000 0.000000 0.968504 1.000000
f 3/3/3 2/2/2 1/1/1
f 6/6/6 5/5/5 4/4/4
f 9/9/9 8/8/8 7/7/7
f 10/10/10 8/8/8 9/9/9
