mtllib SM_Books3_2_LOD3.mtl
g SM_Books3_2_LOD3
#Vertices 34
#Indices 42
#Section 0 Offset 0 NumIndices 42 MaterialIndex 0 MI_Books
v 0.019873 0.126272 -0.061562
v -0.003624 -0.140129 -0.089085
v 0.134527 0.095679 -0.063532
v 0.072151 -0.120384 0.071012
v -0.003624 -0.140129 -0.089085
v -0.025480 -0.096270 0.072318
v -0.025480 -0.096270 0.072318
v 0.072330 0.139764 0.088805
v 0.072151 -0.120384 0.071012
v 0.134527 0.095679 -0.063532
v 0.072330 0.139764 0.088805
v 0.019873 0.126272 -0.061562
v -0.024809 0.109929 -0.061921
v -0.136348 0.108606 -0.060339
v -0.079084 -0.144604 -0.088937
v -0.136348 0.108606 -0.060339
v -0.024809 0.109929 -0.061921
v -0.082264 0.125572 0.093558
v -0.003624 -0.140129 -0.089085
v 0.072151 -0.120384 0.071012
v 0.134527 0.095679 -0.063532
v 0.072330 0.139764 0.088805
v 0.019873 0.126272 -0.061562
v -0.025480 -0.096270 0.072318
v -0.003624 -0.140129 -0.089085
v 0.072330 0.139764 0.088805
v -0.081255 -0.181503 0.154559
v -0.024809 0.109929 -0.061921
v -0.079084 -0.144604 -0.088937
v -0.082264 0.125572 0.093558
v -0.136348 0.108606 -0.060339
v -0.081255 -0.181503 0.154559
v -0.079084 -0.144604 -0.088937
v -0.082264 0.125572 0.093558
vt 0.512695 0.523926
vt 0.484375 0.697266
vt 0.434814 0.524902
vt 0.304932 0.711670
vt 0.260010 0.815918
vt 0.240112 0.710938
vt 0.230835 0.702148
vt 0.066772 0.678955
vt 0.230591 0.637207
vt 0.006451 0.798828
vt 0.052826 0.700684
vt 0.083252 0.797363
vt 0.861328 0.733887
vt 0.860352 0.806274
vt 0.695312 0.769653
vt 0.588867 0.375000
vt 0.589844 0.447266
vt 0.489502 0.410156
vt 0.290039 0.814331
vt 0.315430 0.711182
vt 0.461914 0.798340
vt 0.479736 0.696777
vt 0.083435 0.797363
vt 0.231079 0.709961
vt 0.255859 0.814575
vt 0.066040 0.697266
vt 0.449707 0.189941
vt 0.589844 -0.000977
vt 0.607422 0.165527
vt 0.486084 -0.011719
vt 0.588867 0.371582
vt 0.450684 0.180664
vt 0.606934 0.206055
vt 0.486816 0.382812
vt1 0.937988 0.379883
vt1 0.495117 0.308105
vt1 0.935547 0.182129
vt1 0.658691 0.817139
vt1 0.562500 1.039795
vt1 0.520020 0.815430
vt1 0.500488 0.796875
vt1 0.150513 0.747559
vt1 0.500000 0.658447
vt1 0.021820 1.003208
vt1 0.120789 0.793701
vt1 0.185791 1.000153
vt1 0.420898 0.026855
vt1 0.418457 0.211426
vt1 -0.001012 0.118164
vt1 0.172119 0.612549
vt1 0.013985 0.614990
vt1 0.094910 0.395020
vt1 0.626953 1.036285
vt1 0.681152 0.816040
vt1 0.993652 1.002363
vt1 1.031250 0.785767
vt1 0.186035 1.000191
vt1 0.500977 0.813843
vt1 0.553711 1.036865
vt1 0.149048 0.786743
vt1 0.576660 0.308105
vt1 0.995605 0.614746
vt1 0.630371 0.653076
vt1 1.018555 0.387695
vt1 0.179932 0.612549
vt1 0.597168 0.310547
vt1 0.541992 0.651611
vt1 0.155151 0.389160
vn 0.000000 -0.000000 -1.000000
vn 0.000000 -0.000000 -1.000000
vn 0.000000 -0.000000 -1.000000
vn -0.244094 -0.968504 0.000000
vn -0.244094 -0.968504 0.000000
vn -0.244094 -0.968504 0.000000
vn 0.000000 0.000000 1.000000
vn 0.000000 0.000000 1.000000
vn 0.000000 0.000000 1.000000
vn 0.244094 0.968504 -0.000000
vn 0.244094 0.968504 -0.000000
vn 0.244094 0.968504 -0.000000
vn 0.000000 -0.000000 -1.000000
vn 0.000000 -0.000000 -1.000000
vn 0.000000 -0.000000 -1.000000
vn 0.000000 1.000000 -0.000000
vn 0.000000 1.000000 -0.000000
vn 0.000000 1.000000 -0.000000
vn 0.968504 -0.244094 0.000000
vn 0.968504 -0.244094 0.000000
vn 0.968504 -0.244094 0.000000
vn 0.968504 -0.244094 0.000000
vn -0.968504 0.244094 -0.000000
vn -0.968504 0.244094 -0.000000
vn -0.968504 0.244094 -0.000000
vn -0.968504 0.244094 -0.000000
vn 1.000000 0.000000 0.000000
vn 1.000000 0.000000 0.000000
vn 1.000000 0.000000 0.000000
vn 1.000000 0.000000 0.000000
vn -1.000000 0.000000 0.000000
vn -1.000000 0.000000 0.000000
vn -1.000000 0.000000 0.000000
vn -1.000000 0.000000 0.000000
tan 0.259843 0.968504 -0.000000 1.000000
tan 0.204724 0.976378 -0.000000 1.000000
tan 0.244094 0.968504 -0.000000 1.000000
tan 0.000000 0.000000 0.968504 1.000000
tan 0.000000 0.000000 0.968504 1.000000
tan 0.000000 0.000000 0.968504 1.000000
tan 0.968504 -0.244094 0.000000 1.000000
tan 0.968504 -0.244094 0.000000 1.000000
tan 0.968504 -0.244094 0.000000 1.000000
tan 0.000000 0.000000 0.968504 1.000000
tan 0.000000 0.000000 0.968504 1.000000
tan 0.000000 0.000000 0.968504 1.000000
tan 1.000000 0.000000 0.000000 1.000000
tan 1.000000 0.000000 0.000000 1.000000
tan 1.000000 0.000000 0.000000 1.000000
tan -1.000000 0.000000 0.000000 1.000000
tan -1.000000 0.000000 0.000000 1.000000
tan -1.000000 0.000000 0.000000 1.000000
tan 0.000000 0.000000 0.968504 1.000000
tan 0.000000 0.000000 0.968504 1.000000
tan 0.000000 0.000000 0.968504 1.000000
tan 0.000000 0.000000 0.968504 1.000000
tan 0.000000 0.000000 0.968504 1.000000
tan 0.000000 0.000000 0.968504 1.000000
tan 0.000000 0.000000 0.968504 1.000000
tan 0.000000 0.000000 0.968504 1.000000
tan 0.000000 1.000000 -0.000000 1.000000
tan 0.000000 1.000000 -0.000000 1.000000
tan 0.000000 1.000000 -0.000000 1.000000
tan 0.000000 1.000000 -0.000000 1.000000
tan 0.000000 -1.000000 0.000000 1.000000
tan 0.000000 -1.000000 0.000000 1.000000
tan 0.000000 -1.000000 0.000000 1.000000
tan 0.000000 -1.000000 0.000000 1.000000
f 3/3/3 2/2/2 1/1/1
f 6/6/6 5/5/5 4/4/4
f 9/9/9 8/8/8 7/7/7
f 12/12/12 11/11/11 10/10/10
f 15/15/15 14/14/14 13/13/13
f 18/18/18 17/17/17 16/16/16
f 21/21/21 20/20/20 19/19/19
f 22/22/22 20/20/20 21/21/21
f 25/25/25 24/24/24 23/23/23
f 26/26/26 23/23/23 24/24/24
f 29/29/29 28/28/28 27/27/27
f 30/30/30 27/27/27 28/28/28
f 33/33/33 32/32/32 31/31/31
f 34/34/34 31/31/31 32/32/32
