mtllib SM_BricksL_LOD5.mtl
g SM_BricksL_LOD5
#Vertices 108
#Indices 156
#Section 0 Offset 0 NumIndices 156 MaterialIndex 0 MI_BricksFence
v 0.062108 -0.340489 -0.340825
v 0.002029 -0.323866 -0.030104
v -0.052692 -0.341640 -0.341422
v 0.062108 -0.340489 -0.340825
v -0.052692 -0.341640 -0.341422
v 0.013000 -0.486061 -0.341639
v -0.058922 0.498453 0.044150
v 0.002494 0.488872 0.596858
v 0.053831 0.503953 0.049507
v -0.063197 0.627359 0.589949
v 0.047565 0.627503 0.601106
v 0.002494 0.488872 0.596858
v 0.013000 -0.486061 -0.341639
v 0.018595 -0.487313 -0.033921
v 0.062108 -0.340489 -0.340825
v 0.002029 -0.323866 -0.030104
v -0.062977 0.208433 0.530427
v 0.055085 0.202015 -0.021824
v 0.038818 0.205045 0.532682
v -0.058248 0.203785 -0.024163
v 0.055180 -0.086549 -0.014897
v -0.050155 -0.087465 0.533790
v 0.055018 -0.081842 0.529007
v -0.058462 -0.093199 -0.015859
v 0.055018 -0.081842 0.529007
v -0.062977 0.208433 0.530427
v 0.038818 0.205045 0.532682
v -0.050155 -0.087465 0.533790
v 0.055085 0.202015 -0.021824
v 0.055180 -0.086549 -0.014897
v 0.055018 -0.081842 0.529007
v 0.038818 0.205045 0.532682
v -0.058248 0.203785 -0.024163
v 0.055180 -0.086549 -0.014897
v 0.055085 0.202015 -0.021824
v -0.058462 -0.093199 -0.015859
v -0.057406 -0.106527 -0.021728
v 0.061489 -0.620839 -0.017773
v 0.056378 -0.098983 -0.020640
v -0.052958 -0.621953 -0.018657
v 0.053990 -0.108195 0.190084
v 0.057225 -0.610164 0.191135
v -0.045125 -0.102528 0.193812
v -0.052561 -0.614176 0.196941
v 0.053990 -0.108195 0.190084
v -0.057406 -0.106527 -0.021728
v 0.056378 -0.098983 -0.020640
v -0.045125 -0.102528 0.193812
v 0.056378 -0.098983 -0.020640
v 0.057225 -0.610164 0.191135
v 0.053990 -0.108195 0.190084
v 0.061489 -0.620839 -0.017773
v -0.052958 -0.621953 -0.018657
v 0.057225 -0.610164 0.191135
v 0.061489 -0.620839 -0.017773
v -0.052561 -0.614176 0.196941
v -0.056015 0.496642 0.273303
v 0.062048 0.490229 -0.278944
v 0.045781 0.493257 0.275556
v -0.051285 0.491996 -0.281288
v 0.062144 0.201661 -0.272018
v -0.043192 0.200746 0.276666
v 0.061979 0.206369 0.271886
v -0.051499 0.195011 -0.272984
v 0.061979 0.206369 0.271886
v -0.056015 0.496642 0.273303
v 0.045781 0.493257 0.275556
v -0.043192 0.200746 0.276666
v 0.062048 0.490229 -0.278944
v 0.062144 0.201661 -0.272018
v 0.061979 0.206369 0.271886
v 0.045781 0.493257 0.275556
v -0.051285 0.491996 -0.281288
v 0.062144 0.201661 -0.272018
v 0.062048 0.490229 -0.278944
v -0.051499 0.195011 -0.272984
v 0.053831 0.503953 0.049507
v 0.002494 0.488872 0.596858
v 0.047565 0.627503 0.601106
v 0.052511 0.624252 0.040084
v -0.059640 0.626491 0.036983
v 0.052511 0.624252 0.040084
v 0.047565 0.627503 0.601106
v -0.063197 0.627359 0.589949
v 0.052511 0.624252 0.040084
v -0.059640 0.626491 0.036983
v -0.058922 0.498453 0.044150
v 0.053831 0.503953 0.049507
v 0.055378 -0.299236 -0.584449
v 0.049358 0.198517 -0.041324
v 0.054432 0.187661 -0.592524
v 0.052323 -0.301525 -0.049444
v -0.063656 0.199767 -0.045717
v 0.052323 -0.301525 -0.049444
v -0.050597 -0.301329 -0.041314
v 0.049358 0.198517 -0.041324
v 0.055378 -0.299236 -0.584449
v -0.059523 0.192379 -0.601567
v -0.057285 -0.309563 -0.584275
v 0.054432 0.187661 -0.592524
v 0.049358 0.198517 -0.041324
v -0.063656 0.199767 -0.045717
v -0.059523 0.192379 -0.601567
v 0.054432 0.187661 -0.592524
v 0.055378 -0.299236 -0.584449
v -0.057285 -0.309563 -0.584275
v 0.052323 -0.301525 -0.049444
v -0.050597 -0.301329 -0.041314
vt 0.324219 0.085449
vt 0.435303 0.104004
vt 0.323975 0.126465
vt 0.328125 0.088379
vt 0.285645 0.090332
vt 0.307617 0.035156
vt 0.752930 0.601318
vt 0.961426 0.623291
vt 0.755371 0.643066
vt 0.992676 0.702881
vt 0.949707 0.690674
vt 0.980469 0.640381
vt 0.324219 0.034668
vt 0.437012 0.034180
vt 0.324463 0.085938
vt 0.432861 0.092773
vt 0.676270 0.721436
vt 0.472412 0.681152
vt 0.674805 0.684082
vt 0.470703 0.722656
vt 0.471680 0.578857
vt 0.679688 0.536377
vt 0.678223 0.578613
vt 0.470459 0.536377
vt 0.675781 0.576904
vt 0.710449 0.692627
vt 0.671875 0.685791
vt 0.716797 0.577393
vt 0.473145 0.682373
vt 0.473633 0.576416
vt 0.675293 0.576660
vt 0.674805 0.684326
vt 0.433350 0.685547
vt 0.474609 0.576172
vt 0.476074 0.682861
vt 0.432129 0.572998
vt 0.755371 0.880127
vt 0.565918 0.837891
vt 0.755859 0.838135
vt 0.564453 0.879761
vt 0.757812 0.763672
vt 0.567871 0.764038
vt 0.759277 0.723877
vt 0.565430 0.722900
vt 0.759766 0.764404
vt 0.790527 0.853149
vt 0.746582 0.844116
vt 0.798828 0.767578
vt 0.756348 0.841797
vt 0.569336 0.763306
vt 0.756348 0.763916
vt 0.566895 0.839355
vt 0.526855 0.841919
vt 0.567871 0.763062
vt 0.569824 0.840210
vt 0.526855 0.760010
vt 0.319824 0.714600
vt 0.115601 0.674561
vt 0.318115 0.677246
vt 0.114014 0.715820
vt 0.114868 0.572021
vt 0.322998 0.529541
vt 0.321533 0.571777
vt 0.113647 0.529541
vt 0.319336 0.570068
vt 0.354004 0.685791
vt 0.314941 0.678955
vt 0.360107 0.570557
vt 0.116333 0.675537
vt 0.116882 0.569580
vt 0.318604 0.569824
vt 0.317871 0.677490
vt 0.076660 0.678711
vt 0.117859 0.569336
vt 0.119385 0.676025
vt 0.075378 0.566162
vt 0.757324 0.641846
vt 0.960938 0.635742
vt 0.958984 0.687744
vt 0.754883 0.685791
vt 0.751953 0.726562
vt 0.754395 0.684082
vt 0.959961 0.687500
vt 0.957031 0.727295
vt 0.756836 0.686035
vt 0.715820 0.686768
vt 0.717773 0.638672
vt 0.758789 0.643066
vt 0.044067 0.306152
vt 0.243408 0.492188
vt 0.042572 0.486328
vt 0.244995 0.305664
vt 0.277588 0.498047
vt 0.244507 0.305664
vt 0.284180 0.307617
vt 0.235840 0.494629
vt 0.045166 0.306641
vt 0.001537 0.490234
vt 0.003656 0.301270
vt 0.044647 0.487305
vt 0.243164 0.486328
vt 0.244751 0.526367
vt 0.037323 0.529297
vt 0.042542 0.485352
vt 0.043365 0.308594
vt 0.041504 0.265625
vt 0.245361 0.307129
vt 0.249390 0.267090
vt1 0.752441 0.096680
vt1 0.931641 0.066406
vt1 0.751953 0.030273
vt1 0.758789 0.091797
vt1 0.689941 0.088379
vt1 0.725586 0.177246
vt1 0.392578 0.190430
vt1 0.729004 0.226074
vt1 0.395752 0.258301
vt1 0.779785 0.354980
vt1 0.709961 0.334961
vt1 0.759766 0.253906
vt1 0.752441 0.178223
vt1 0.934082 0.178711
vt1 0.752441 0.095215
vt1 0.927246 0.084473
vt1 0.889648 0.988518
vt1 0.559570 0.923645
vt1 0.887207 0.928223
vt1 0.557129 0.990662
vt1 0.558594 0.758301
vt1 0.895020 0.689453
vt1 0.892578 0.757690
vt1 0.556641 0.689453
vt1 0.888672 0.754883
vt1 0.944824 0.942139
vt1 0.881836 0.930908
vt1 0.954590 0.755859
vt1 0.561035 0.925537
vt1 0.562012 0.754028
vt1 0.887695 0.754639
vt1 0.886719 0.928589
vt1 0.496826 0.930481
vt1 0.563477 0.753784
vt1 0.565918 0.926147
vt1 0.494873 0.748535
vt1 0.815918 0.668213
vt1 0.509766 0.599854
vt1 0.816895 0.600098
vt1 0.507812 0.667725
vt1 0.820312 0.479980
vt1 0.513184 0.480469
vt1 0.821777 0.415527
vt1 0.508789 0.413574
vt1 0.822754 0.480957
vt1 0.872559 0.624512
vt1 0.801758 0.609863
vt1 0.886230 0.486328
vt1 0.817383 0.606201
vt1 0.515625 0.479492
vt1 0.817383 0.480469
vt1 0.511230 0.602295
vt1 0.446777 0.606445
vt1 0.513184 0.479004
vt1 0.516602 0.603760
vt1 0.447021 0.474121
vt1 0.011482 0.476562
vt1 0.076355 0.146484
vt1 0.071777 0.473633
vt1 0.009338 0.143555
vt1 0.241699 0.145020
vt1 0.310547 0.481445
vt1 0.242310 0.479004
vt1 0.310547 0.143066
vt1 0.245117 0.475586
vt1 0.057861 0.531494
vt1 0.069092 0.468750
vt1 0.244141 0.541260
vt1 0.074463 0.147461
vt1 0.245972 0.148438
vt1 0.245361 0.474609
vt1 0.071411 0.473145
vt1 0.069519 0.083496
vt1 0.246216 0.149902
vt1 0.073853 0.152344
vt1 0.251465 0.081543
vt1 0.399414 0.256348
vt1 0.728027 0.246094
vt1 0.724609 0.330078
vt1 0.395508 0.327148
vt1 0.390625 0.393066
vt1 0.394531 0.324707
vt1 0.726074 0.330078
vt1 0.721680 0.394043
vt1 0.398682 0.327637
vt1 0.332275 0.328613
vt1 0.335449 0.251465
vt1 0.401611 0.257812
vt1 0.079468 0.630127
vt1 0.402344 0.931274
vt1 0.077026 0.921875
vt1 0.405029 0.628906
vt1 0.457764 0.940430
vt1 0.404297 0.629150
vt1 0.468262 0.632080
vt1 0.390137 0.934875
vt1 0.081238 0.630615
vt1 0.010551 0.928101
vt1 0.013985 0.622070
vt1 0.080383 0.923645
vt1 0.401855 0.921448
vt1 0.404541 0.986816
vt1 0.068542 0.991508
vt1 0.076965 0.919922
vt1 0.078308 0.634033
vt1 0.075256 0.564453
vt1 0.405518 0.631348
vt1 0.412109 0.566895
vn 0.078740 0.992126 -0.086614
vn 0.023622 0.992126 0.118110
vn 0.000000 0.992126 -0.133858
vn 0.212598 0.181102 -0.960630
vn -0.031496 0.307086 -0.952756
vn 0.204724 -0.456693 -0.866142
vn 0.000000 -1.000000 -0.015748
vn 0.047244 -1.000000 0.062992
vn 0.118110 -0.992126 -0.062992
vn -0.070866 0.511811 0.858268
vn 0.165354 0.496063 0.850394
vn 0.125984 -0.606299 0.787401
vn 0.976378 -0.220472 -0.007874
vn 0.976378 -0.181102 0.118110
vn 0.968504 0.070866 -0.228346
vn 0.519685 0.629921 0.582677
vn -0.070866 0.992126 0.078740
vn 0.196850 0.976378 -0.102362
vn 0.165354 0.968504 0.173228
vn -0.007874 0.984252 -0.165354
vn 0.251969 -0.960630 -0.125984
vn -0.039370 -0.984252 0.173228
vn 0.283465 -0.952756 0.118110
vn -0.007874 -1.000000 -0.039370
vn 0.299213 -0.188976 0.937008
vn -0.102362 0.267717 0.960630
vn 0.259843 0.244095 0.937008
vn -0.086614 -0.275590 0.960630
vn 0.976378 0.157480 -0.125984
vn 1.000000 -0.055118 -0.015748
vn 0.960630 -0.267716 0.070866
vn 0.771654 0.535433 0.354331
vn -0.062992 0.251968 -0.968504
vn 0.433071 -0.322835 -0.842520
vn 0.472441 0.236220 -0.850394
vn -0.007874 -0.464567 -0.881890
vn -0.047244 0.055118 -1.000000
vn 0.141732 -0.086614 -0.984252
vn 0.133858 0.141732 -0.984252
vn -0.015748 -0.118110 -0.992126
vn 0.173228 0.102362 0.976378
vn 0.228346 -0.070866 0.968504
vn -0.062992 0.094488 0.992126
vn -0.007874 -0.031496 1.000000
vn 0.244094 0.929134 0.267716
vn -0.086614 0.952756 -0.299213
vn 0.251969 0.897638 -0.362205
vn -0.055118 0.960630 0.259842
vn 0.944882 0.236220 -0.228346
vn 0.992126 -0.015748 0.094488
vn 0.984252 0.070866 0.173228
vn 0.968504 -0.141732 -0.220472
vn -0.055118 -0.944882 -0.322834
vn 0.425197 -0.834646 0.354331
vn 0.385827 -0.874016 -0.299212
vn 0.007874 -0.842520 0.535433
vn -0.070866 0.992126 0.078740
vn 0.196850 0.976378 -0.102362
vn 0.165354 0.968504 0.173228
vn -0.007874 0.984252 -0.165354
vn 0.251969 -0.960630 -0.125984
vn -0.039370 -0.984252 0.173228
vn 0.283465 -0.952756 0.118110
vn -0.007874 -1.000000 -0.039370
vn 0.299213 -0.188976 0.937008
vn -0.102362 0.267717 0.960630
vn 0.259843 0.244095 0.937008
vn -0.086614 -0.275590 0.960630
vn 0.976378 0.157480 -0.125984
vn 1.000000 -0.055118 -0.015748
vn 0.960630 -0.267716 0.070866
vn 0.771654 0.535433 0.354331
vn -0.062992 0.251968 -0.968504
vn 0.433071 -0.322835 -0.842520
vn 0.472441 0.236220 -0.850394
vn -0.007874 -0.464567 -0.881890
vn 0.992126 -0.141732 -0.031496
vn 0.929134 -0.370079 0.031496
vn 0.937008 0.236220 0.259842
vn 0.913386 0.370079 -0.173228
vn -0.031496 1.000000 -0.055118
vn 0.118110 0.992126 -0.094488
vn 0.070866 0.992126 0.086614
vn -0.015748 1.000000 0.031496
vn 0.362205 0.259842 -0.897638
vn -0.102362 0.535433 -0.834646
vn 0.007874 -0.598425 -0.795275
vn 0.519685 -0.409449 -0.755905
vn 1.000000 0.007874 -0.007874
vn 0.992126 0.039370 0.078740
vn 1.000000 0.039370 -0.062992
vn 1.000000 -0.039370 0.047244
vn -0.094488 0.086614 0.992126
vn 0.228346 -0.102362 0.968504
vn -0.023622 -0.094488 0.992126
vn 0.228346 0.173228 0.960630
vn 0.307087 -0.133858 -0.944882
vn -0.015748 0.149606 -0.992126
vn -0.023622 -0.330709 -0.944882
vn 0.370079 0.047244 -0.929134
vn 0.125984 0.984252 0.102362
vn -0.039370 0.992126 0.118110
vn -0.031496 0.992126 -0.141732
vn 0.346457 0.913386 -0.196850
vn 0.401575 -0.913386 -0.086614
vn -0.015748 -1.000000 -0.039370
vn 0.314961 -0.944882 0.078740
vn -0.007874 -0.984252 0.181102
tan 0.992126 -0.083514 -0.054684 1.000000
tan 0.984314 -0.038316 0.124992 1.000000
tan 0.992126 -0.003162 -0.023436 1.000000
tan 0.075640 -0.960630 -0.164362 1.000000
tan 0.030008 -0.952756 -0.308078 1.000000
tan 0.047740 -0.866142 0.467977 1.000000
tan -1.000000 -0.000620 0.039370 1.000000
tan -1.000000 -0.047740 -0.007874 1.000000
tan -0.992126 -0.119102 0.015624 1.000000
tan 0.112158 -0.850951 0.516709 1.000000
tan 0.187488 -0.830306 0.447889 1.000000
tan 0.037200 -0.787401 -0.612251 1.000000
tan -0.220162 -0.976378 0.038440 1.000000
tan -0.173662 -0.976378 -0.061504 1.000000
tan 0.099076 -0.960878 0.122016 1.000000
tan 0.808730 -0.587141 -0.086552 1.000000
tan 0.992126 0.065906 0.062496 1.000000
tan 0.976378 -0.202492 -0.053816 1.000000
tan 0.945626 -0.196912 0.198276 1.000000
tan 0.984252 0.000062 -0.046500 1.000000
tan -0.960630 -0.254944 0.022692 1.000000
tan -0.984252 0.043462 0.023250 1.000000
tan -0.952756 -0.289045 -0.045012 1.000000
tan -1.000000 0.006014 0.047244 1.000000
tan 0.088536 -0.929630 -0.215760 1.000000
tan 0.105896 -0.953066 0.276893 1.000000
tan 0.147560 -0.922252 0.199330 1.000000
tan 0.030256 -0.960630 -0.272862 1.000000
tan 0.160456 -0.976378 0.023064 1.000000
tan -0.054622 -1.000000 0.031496 1.000000
tan -0.268275 -0.960630 0.007564 1.000000
tan 0.592535 -0.772955 -0.122388 1.000000
tan 0.030504 -0.968504 -0.253952 1.000000
tan 0.255751 -0.820137 0.445719 1.000000
tan 0.014136 -0.865274 -0.232500 1.000000
tan -0.020832 -0.881890 0.464753 1.000000
tan 1.000000 0.055118 -0.044206 1.000000
tan 0.984252 -0.069750 0.147870 1.000000
tan 0.976502 0.139500 0.152892 1.000000
tan 0.992126 -0.039060 -0.011098 1.000000
tan -0.976378 -0.038440 0.177258 1.000000
tan -0.968504 0.030504 0.230578 1.000000
tan -0.992126 -0.015624 -0.061504 1.000000
tan -1.000000 0.039370 -0.006634 1.000000
tan 0.102424 -0.292516 0.921818 1.000000
tan 0.135036 0.309133 0.945254 1.000000
tan 0.120156 0.325625 0.890570 1.000000
tan 0.068076 -0.255936 0.960630 1.000000
tan 0.258169 -0.124682 0.939302 1.000000
tan -0.093992 0.031248 0.992126 1.000000
tan -0.170996 -0.031000 0.984252 1.000000
tan 0.223820 0.022878 0.968504 1.000000
tan 0.014880 -0.323702 0.944882 1.000000
tan 0.042408 0.384463 0.854734 1.000000
tan -0.004712 -0.299212 0.867940 1.000000
tan -0.006634 0.535371 0.842520 1.000000
tan 0.992126 0.065906 0.062496 1.000000
tan 0.976378 -0.202492 -0.053816 1.000000
tan 0.945626 -0.196912 0.198276 1.000000
tan 0.984252 0.000062 -0.046500 1.000000
tan -0.960630 -0.254944 0.022692 1.000000
tan -0.984252 0.043462 0.023250 1.000000
tan -0.952756 -0.289045 -0.045012 1.000000
tan -1.000000 0.006014 0.047244 1.000000
tan 0.088536 -0.929630 -0.215760 1.000000
tan 0.105896 -0.953066 0.276893 1.000000
tan 0.147560 -0.922252 0.199330 1.000000
tan 0.030256 -0.960630 -0.272862 1.000000
tan 0.160456 -0.976378 0.023064 1.000000
tan -0.054622 -1.000000 0.031496 1.000000
tan -0.268275 -0.960630 0.007564 1.000000
tan 0.592535 -0.772955 -0.122388 1.000000
tan 0.030504 -0.968504 -0.253952 1.000000
tan 0.255751 -0.820137 0.445719 1.000000
tan 0.014136 -0.865274 -0.232500 1.000000
tan -0.020832 -0.881890 0.464753 1.000000
tan -0.140244 -0.992126 0.046872 1.000000
tan -0.369831 -0.929134 -0.007316 1.000000
tan 0.269143 -0.931676 -0.123566 1.000000
tan 0.374171 -0.913386 0.021576 1.000000
tan 1.000000 0.029326 -0.039370 1.000000
tan 0.984314 -0.126852 -0.101556 1.000000
tan 0.984314 -0.079856 0.109368 1.000000
tan 1.000000 0.015004 0.023622 1.000000
tan -0.028272 -0.897638 -0.271250 1.000000
tan 0.000000 -0.834646 -0.535433 1.000000
tan -0.023498 -0.795337 0.598239 1.000000
tan 0.101680 -0.816169 0.511997 1.000000
tan 0.007998 -1.000000 0.015748 1.000000
tan 0.048980 -0.984314 -0.124992 1.000000
tan 0.040858 -1.000000 0.023622 1.000000
tan -0.038626 -1.000000 -0.015748 1.000000
tan 0.109368 -0.984314 0.096348 1.000000
tan 0.053382 -0.968504 -0.114948 1.000000
tan 0.023436 -0.992126 -0.093930 1.000000
tan 0.098332 -0.953066 0.148490 1.000000
tan 0.041478 -0.952136 0.148366 1.000000
tan 0.031248 -0.992126 -0.150102 1.000000
tan -0.022320 -0.944882 0.331267 1.000000
tan 0.044640 -0.934962 -0.029760 1.000000
tan 0.968752 -0.142538 0.178250 1.000000
tan 0.984314 0.024180 0.124992 1.000000
tan 0.984314 0.015624 -0.109368 1.000000
tan 0.913386 -0.361957 -0.071920 1.000000
tan -0.913386 -0.403621 0.021576 1.000000
tan -1.000000 0.013888 0.047244 1.000000
tan -0.944882 -0.316821 -0.022320 1.000000
tan -0.984252 0.005022 -0.015500 1.000000
f 3/3/3 2/2/2 1/1/1
f 6/6/6 5/5/5 4/4/4
f 9/9/9 8/8/8 7/7/7
f 12/12/12 11/11/11 10/10/10
f 15/15/15 14/14/14 13/13/13
f 16/16/16 14/14/14 15/15/15
f 19/19/19 18/18/18 17/17/17
f 17/17/17 18/18/18 20/20/20
f 23/23/23 22/22/22 21/21/21
f 21/21/21 22/22/22 24/24/24
f 27/27/27 26/26/26 25/25/25
f 28/28/28 25/25/25 26/26/26
f 31/31/31 30/30/30 29/29/29
f 29/29/29 32/32/32 31/31/31
f 35/35/35 34/34/34 33/33/33
f 36/36/36 33/33/33 34/34/34
f 39/39/39 38/38/38 37/37/37
f 37/37/37 38/38/38 40/40/40
f 43/43/43 42/42/42 41/41/41
f 44/44/44 42/42/42 43/43/43
f 47/47/47 46/46/46 45/45/45
f 48/48/48 45/45/45 46/46/46
f 51/51/51 50/50/50 49/49/49
f 49/49/49 50/50/50 52/52/52
f 55/55/55 54/54/54 53/53/53
f 56/56/56 53/53/53 54/54/54
f 59/59/59 58/58/58 57/57/57
f 57/57/57 58/58/58 60/60/60
f 63/63/63 62/62/62 61/61/61
f 61/61/61 62/62/62 64/64/64
f 67/67/67 66/66/66 65/65/65
f 68/68/68 65/65/65 66/66/66
f 71/71/71 70/70/70 69/69/69
f 69/69/69 72/72/72 71/71/71
f 75/75/75 74/74/74 73/73/73
f 76/76/76 73/73/73 74/74/74
f 79/79/79 78/78/78 77/77/77
f 79/79/79 77/77/77 80/80/80
f 83/83/83 82/82/82 81/81/81
f 81/81/81 84/84/84 83/83/83
f 87/87/87 86/86/86 85/85/85
f 85/85/85 88/88/88 87/87/87
f 91/91/91 90/90/90 89/89/89
f 92/92/92 89/89/89 90/90/90
f 95/95/95 94/94/94 93/93/93
f 96/96/96 93/93/93 94/94/94
f 99/99/99 98/98/98 97/97/97
f 100/100/100 97/97/97 98/98/98
f 103/103/103 102/102/102 101/101/101
f 101/101/101 104/104/104 103/103/103
f 107/107/107 106/106/106 105/105/105
f 107/107/107 108/108/108 106/106/106
