mtllib SM_BasicPlane.mtl
g SM_BasicPlane
#Vertices 4
#Indices 6
#Section 0 Offset 0 NumIndices 6 MaterialIndex 0 MI_Floor
v 0.500000 -0.000000 -0.500000
v 0.500000 0.000000 0.500000
v -0.500000 -0.000000 -0.500000
v -0.500000 0.000000 0.500000
vt 1.000000 0.000000
vt 1.000000 1.000000
vt 0.000000 0.000000
vt 0.000000 1.000000
vt1 0.997070 0.002930
vt1 0.997070 0.998032
vt1 0.001968 0.002930
vt1 0.001968 0.998032
vn 0.000000 1.000000 -0.000000
vn 0.000000 1.000000 -0.000000
vn 0.000000 1.000000 -0.000000
vn 0.000000 1.000000 -0.000000
tan 0.000000 -0.000000 -1.000000 1.000000
tan 0.000000 -0.000000 -1.000000 1.000000
tan 0.000000 -0.000000 -1.000000 1.000000
tan 0.000000 -0.000000 -1.000000 1.000000
f 3/3/3 2/2/2 1/1/1
f 4/4/4 2/2/2 3/3/3
