mtllib SM_Books4_LOD2.mtl
g SM_Books4_LOD2
#Vertices 98
#Indices 132
#Section 0 Offset 0 NumIndices 132 MaterialIndex 0 MI_Books
v -0.011424 0.106823 -0.103674
v -0.020431 0.111992 0.113524
v -0.057143 0.104947 -0.099826
v -0.057143 0.104947 -0.099826
v -0.020431 0.111992 0.113524
v -0.055618 0.105766 0.111505
v -0.128406 -0.112091 -0.108937
v -0.160576 0.098546 -0.099655
v -0.123224 -0.115395 -0.093658
v -0.039528 -0.103554 -0.099893
v -0.128406 -0.112091 -0.108937
v -0.123224 -0.115395 -0.093658
v -0.123224 -0.115395 -0.093658
v -0.119648 -0.113676 0.112363
v -0.039528 -0.103554 -0.099893
v -0.039528 -0.103554 -0.099893
v -0.119648 -0.113676 0.112363
v -0.046489 -0.095032 0.103529
v -0.058968 0.112887 -0.101144
v -0.072195 0.110149 0.108585
v -0.075538 0.104726 -0.093495
v -0.072195 0.110149 0.108585
v -0.032119 -0.098263 0.108937
v -0.046489 -0.095032 0.103529
v -0.039528 -0.103554 -0.099893
v -0.046489 -0.095032 0.103529
v -0.032119 -0.098263 0.108937
v -0.151211 0.102328 0.111728
v -0.160576 0.098546 -0.099655
v -0.143617 0.093520 -0.093262
v 0.017665 -0.103368 -0.102088
v 0.016193 -0.103492 0.108204
v -0.011424 0.106823 -0.103674
v -0.020431 0.111992 0.113524
v -0.057143 0.104947 -0.099826
v -0.026258 -0.108072 0.109462
v -0.026956 -0.110085 -0.105505
v -0.055618 0.105766 0.111505
v -0.057143 0.104947 -0.099826
v -0.026956 -0.110085 -0.105505
v -0.011424 0.106823 -0.103674
v 0.017665 -0.103368 -0.102088
v -0.026956 -0.110085 -0.105505
v 0.016193 -0.103492 0.108204
v 0.017665 -0.103368 -0.102088
v -0.026258 -0.108072 0.109462
v -0.026258 -0.108072 0.109462
v -0.020431 0.111992 0.113524
v 0.016193 -0.103492 0.108204
v -0.055618 0.105766 0.111505
v 0.112302 -0.115882 -0.100052
v 0.113666 -0.113824 0.109548
v 0.159419 0.093944 -0.104132
v 0.150045 0.094115 0.107376
v 0.019961 -0.093998 -0.103574
v 0.066116 0.113208 0.109197
v 0.029246 -0.094165 0.107189
v 0.067067 0.116005 -0.099645
v 0.159419 0.093944 -0.104132
v 0.067067 0.116005 -0.099645
v 0.019961 -0.093998 -0.103574
v 0.112302 -0.115882 -0.100052
v 0.019961 -0.093998 -0.103574
v 0.029246 -0.094165 0.107189
v 0.112302 -0.115882 -0.100052
v 0.113666 -0.113824 0.109548
v 0.029246 -0.094165 0.107189
v 0.150045 0.094115 0.107376
v 0.113666 -0.113824 0.109548
v 0.066116 0.113208 0.109197
v 0.067067 0.116005 -0.099645
v 0.159419 0.093944 -0.104132
v 0.150045 0.094115 0.107376
v 0.066116 0.113208 0.109197
v -0.032119 -0.098263 0.108937
v -0.058968 0.112887 -0.101144
v -0.039528 -0.103554 -0.099893
v -0.072195 0.110149 0.108585
v -0.160576 0.098546 -0.099655
v -0.119648 -0.113676 0.112363
v -0.123224 -0.115395 -0.093658
v -0.151211 0.102328 0.111728
v -0.058968 0.112887 -0.101144
v -0.160576 0.098546 -0.099655
v -0.128406 -0.112091 -0.108937
v -0.039528 -0.103554 -0.099893
v -0.119648 -0.113676 0.112363
v -0.072195 0.110149 0.108585
v -0.046489 -0.095032 0.103529
v -0.151211 0.102328 0.111728
v -0.143617 0.093520 -0.093262
v -0.075538 0.104726 -0.093495
v -0.072195 0.110149 0.108585
v -0.151211 0.102328 0.111728
v -0.160576 0.098546 -0.099655
v -0.058968 0.112887 -0.101144
v -0.075538 0.104726 -0.093495
v -0.143617 0.093520 -0.093262
vt 0.893555 0.731201
vt 0.898438 0.590088
vt 0.922363 0.728760
vt 0.920898 0.728760
vt 0.900391 0.589844
vt 0.920410 0.591553
vt 0.948242 0.881714
vt 0.954590 0.742432
vt 0.958496 0.884338
vt 0.890625 0.886719
vt 0.948242 0.881653
vt 0.944336 0.891479
vt 0.147705 0.626953
vt 0.149048 0.493164
vt 0.201172 0.631104
vt 0.201782 0.630859
vt 0.149292 0.493164
vt 0.197876 0.498535
vt 0.348389 0.631836
vt 0.356445 0.495605
vt 0.359619 0.626953
vt 0.350098 0.489258
vt 0.212036 0.495117
vt 0.215454 0.486328
vt 0.208740 0.630859
vt 0.202393 0.498535
vt 0.212036 0.495117
vt 0.419922 0.493164
vt 0.425293 0.630859
vt 0.414795 0.626709
vt 0.750000 0.730225
vt 0.750000 0.593262
vt 0.888184 0.731445
vt 0.892090 0.589844
vt 0.570312 0.728760
vt 0.710449 0.592529
vt 0.711914 0.732422
vt 0.569824 0.591309
vt 0.938477 0.481934
vt 0.936035 0.344238
vt 0.966309 0.479004
vt 0.963867 0.343750
vt 0.716797 0.732666
vt 0.744629 0.593506
vt 0.745117 0.730225
vt 0.718262 0.592773
vt 0.750977 0.559814
vt 0.892090 0.583252
vt 0.750000 0.586914
vt 0.891602 0.561523
vt 0.210327 0.424316
vt 0.211670 0.287598
vt 0.350098 0.426758
vt 0.349121 0.289062
vt 0.138184 0.426270
vt 0.000022 0.288086
vt 0.137085 0.289062
vt -0.001768 0.423828
vt 0.989746 0.313477
vt 0.929688 0.315430
vt 0.923340 0.177734
vt 0.983887 0.174316
vt 0.143188 0.426270
vt 0.148926 0.289551
vt 0.204468 0.424316
vt 0.204834 0.288086
vt 0.213257 0.224609
vt 0.348877 0.277344
vt 0.211792 0.280762
vt 0.350342 0.221680
vt 0.416748 0.423828
vt 0.355469 0.426758
vt 0.361084 0.289062
vt 0.416748 0.288086
vt 0.212036 0.495117
vt 0.350586 0.631836
vt 0.209473 0.630859
vt 0.350098 0.495117
vt -0.000365 0.630859
vt 0.140137 0.492676
vt 0.140991 0.626953
vt -0.001920 0.493164
vt 0.882812 0.742432
vt 0.950195 0.742188
vt 0.948242 0.881592
vt 0.891113 0.884644
vt 0.210449 0.432129
vt 0.350098 0.483398
vt 0.215454 0.480957
vt 0.352295 0.432129
vt 0.409668 0.626709
vt 0.364746 0.626953
vt 0.362061 0.495605
vt 0.413330 0.493164
vt 0.950195 0.737305
vt 0.882812 0.738037
vt 0.894043 0.732422
vt 0.938965 0.732666
vt1 0.069580 0.008301
vt1 0.061401 0.250488
vt1 0.020645 0.012695
vt1 0.022934 0.012695
vt1 0.057892 0.250977
vt1 0.024139 0.248047
vt1 0.763672 0.353516
vt1 0.774902 0.114258
vt1 0.780762 0.357910
vt1 0.665039 0.362305
vt1 0.763672 0.353516
vt1 0.757324 0.370605
vt1 0.261230 0.621826
vt1 0.263672 0.392578
vt1 0.353027 0.628662
vt1 0.354004 0.628418
vt1 0.263916 0.392090
vt1 0.347412 0.401855
vt1 0.605469 0.630127
vt1 0.619141 0.395996
vt1 0.624512 0.621582
vt1 0.608398 0.385742
vt1 0.371826 0.395508
vt1 0.377686 0.380371
vt1 0.365967 0.628418
vt1 0.355225 0.401855
vt1 0.371826 0.395508
vt1 0.728027 0.392578
vt1 0.737305 0.628418
vt1 0.719238 0.621338
vt1 0.315918 0.009766
vt1 0.315918 0.244629
vt1 0.079224 0.008301
vt1 0.072083 0.250977
vt1 0.624023 0.012695
vt1 0.383545 0.246094
vt1 0.381592 0.006348
vt1 0.624512 0.248535
vt1 0.031372 0.670654
vt1 0.271729 0.666992
vt1 0.036499 0.718506
vt1 0.272461 0.714600
vt1 0.372559 0.005859
vt1 0.324951 0.244629
vt1 0.323975 0.009766
vt1 0.370117 0.246094
vt1 0.313965 0.302246
vt1 0.072021 0.262207
vt1 0.315674 0.255859
vt1 0.073303 0.299316
vt1 0.368652 0.996590
vt1 0.371094 0.762695
vt1 0.608398 1.001183
vt1 0.606445 0.765137
vt1 0.244995 1.000557
vt1 0.008095 0.763062
vt1 0.243164 0.765259
vt1 0.005032 0.996119
vt1 0.890625 0.966614
vt1 0.787598 0.970276
vt1 0.777344 0.731445
vt1 0.879883 0.724854
vt1 0.253418 1.000538
vt1 0.263428 0.765625
vt1 0.358643 0.996769
vt1 0.359375 0.763062
vt1 0.373779 0.654785
vt1 0.606445 0.745117
vt1 0.371338 0.751099
vt1 0.608398 0.649902
vt1 0.722656 0.996359
vt1 0.617676 1.001171
vt1 0.627441 0.765381
vt1 0.722656 0.763550
vt1 0.371826 0.395508
vt1 0.609375 0.629883
vt1 0.367188 0.628418
vt1 0.608398 0.395996
vt1 0.007439 0.628418
vt1 0.248413 0.391602
vt1 0.249756 0.621582
vt1 0.004772 0.392090
vt1 0.651367 0.114258
vt1 0.766602 0.113770
vt1 0.763672 0.353516
vt1 0.665527 0.358887
vt1 0.369141 0.287598
vt1 0.608398 0.375488
vt1 0.377686 0.371094
vt1 0.612305 0.287598
vt1 0.710449 0.621338
vt1 0.633301 0.621582
vt1 0.628906 0.395996
vt1 0.716797 0.392578
vt1 0.766602 0.105469
vt1 0.651367 0.106934
vt1 0.670898 0.097168
vt1 0.748047 0.097168
vn -0.141732 0.992126 -0.000000
vn -0.141732 0.992126 -0.000000
vn -0.141732 0.992126 -0.000000
vn -0.141732 0.992126 -0.000000
vn -0.141732 0.992126 -0.000000
vn -0.141732 0.992126 -0.000000
vn -0.992126 -0.141732 0.000000
vn -0.992126 -0.141732 0.000000
vn -0.992126 -0.141732 0.000000
vn 0.141732 -0.992126 0.000000
vn 0.141732 -0.992126 0.000000
vn 0.141732 -0.992126 0.000000
vn 0.141732 -0.992126 0.000000
vn 0.141732 -0.992126 0.000000
vn 0.141732 -0.992126 0.000000
vn 0.141732 -0.992126 0.000000
vn 0.141732 -0.992126 0.000000
vn 0.141732 -0.992126 0.000000
vn -0.141732 0.992126 -0.000000
vn -0.141732 0.992126 -0.000000
vn -0.141732 0.992126 -0.000000
vn 0.000000 0.000000 1.000000
vn 0.000000 0.000000 1.000000
vn 0.000000 0.000000 1.000000
vn 0.141732 -0.992126 0.000000
vn 0.141732 -0.992126 0.000000
vn 0.141732 -0.992126 0.000000
vn -0.141732 0.992126 -0.000000
vn -0.141732 0.992126 -0.000000
vn -0.141732 0.992126 -0.000000
vn 0.992126 0.141732 -0.000000
vn 0.992126 0.141732 -0.000000
vn 0.992126 0.141732 -0.000000
vn 0.992126 0.141732 -0.000000
vn -0.992126 -0.141732 0.000000
vn -0.992126 -0.141732 0.000000
vn -0.992126 -0.141732 0.000000
vn -0.992126 -0.141732 0.000000
vn 0.000000 -0.000000 -1.000000
vn 0.000000 -0.000000 -1.000000
vn 0.000000 -0.000000 -1.000000
vn 0.000000 -0.000000 -1.000000
vn 0.141732 -0.992126 0.000000
vn 0.141732 -0.992126 0.000000
vn 0.141732 -0.992126 0.000000
vn 0.141732 -0.992126 0.000000
vn 0.000000 0.000000 1.000000
vn 0.000000 0.000000 1.000000
vn 0.000000 0.000000 1.000000
vn 0.000000 0.000000 1.000000
vn 0.976378 -0.196850 0.000000
vn 0.976378 -0.196850 0.000000
vn 0.976378 -0.196850 0.000000
vn 0.976378 -0.196850 0.000000
vn -0.976378 0.196850 -0.000000
vn -0.976378 0.196850 -0.000000
vn -0.976378 0.196850 -0.000000
vn -0.976378 0.196850 -0.000000
vn 0.000000 -0.000000 -1.000000
vn 0.000000 -0.000000 -1.000000
vn 0.000000 -0.000000 -1.000000
vn 0.000000 -0.000000 -1.000000
vn -0.196850 -0.976378 0.000000
vn -0.196850 -0.976378 0.000000
vn -0.196850 -0.976378 0.000000
vn -0.196850 -0.976378 0.000000
vn 0.000000 0.000000 1.000000
vn 0.000000 0.000000 1.000000
vn 0.000000 0.000000 1.000000
vn 0.000000 0.000000 1.000000
vn 0.196850 0.976378 -0.000000
vn 0.196850 0.976378 -0.000000
vn 0.196850 0.976378 -0.000000
vn 0.196850 0.976378 -0.000000
vn 0.992126 0.141732 -0.000000
vn 0.992126 0.141732 -0.000000
vn 0.992126 0.141732 -0.000000
vn 0.992126 0.141732 -0.000000
vn -0.992126 -0.141732 0.000000
vn -0.992126 -0.141732 0.000000
vn -0.992126 -0.141732 0.000000
vn -0.992126 -0.141732 0.000000
vn 0.000000 -0.000000 -1.000000
vn 0.000000 -0.000000 -1.000000
vn 0.000000 -0.000000 -1.000000
vn 0.000000 -0.000000 -1.000000
vn 0.000000 0.000000 1.000000
vn 0.000000 0.000000 1.000000
vn 0.000000 0.000000 1.000000
vn 0.000000 0.000000 1.000000
vn -0.141732 0.992126 -0.000000
vn -0.141732 0.992126 -0.000000
vn -0.141732 0.992126 -0.000000
vn -0.141732 0.992126 -0.000000
vn -0.141732 0.992126 -0.000000
vn -0.141732 0.992126 -0.000000
vn -0.141732 0.992126 -0.000000
vn -0.141732 0.992126 -0.000000
tan 0.000000 0.000000 0.992126 1.000000
tan 0.000000 0.000000 0.992126 1.000000
tan 0.000000 0.000000 0.992126 1.000000
tan 0.000000 0.000000 0.992126 1.000000
tan 0.000000 0.000000 0.992126 1.000000
tan 0.000000 0.000000 0.992126 1.000000
tan -0.141732 0.992126 -0.000000 1.000000
tan -0.141732 0.992126 -0.000000 1.000000
tan -0.141732 0.992126 -0.000000 1.000000
tan -0.101556 -0.014508 -0.984314 1.000000
tan 0.023436 0.003348 -0.992126 1.000000
tan 0.039060 0.005580 -0.992126 1.000000
tan 0.000000 0.000000 0.992126 1.000000
tan 0.000000 0.000000 0.992126 1.000000
tan 0.000000 0.000000 0.992126 1.000000
tan 0.000000 0.000000 0.992126 1.000000
tan 0.000000 0.000000 0.992126 1.000000
tan 0.000000 0.000000 0.992126 1.000000
tan 0.000000 0.000000 0.992126 1.000000
tan 0.000000 0.000000 0.992126 1.000000
tan 0.000000 0.000000 0.992126 1.000000
tan -0.992126 -0.141732 0.000000 1.000000
tan -0.992126 -0.141732 0.000000 1.000000
tan -0.992126 -0.141732 0.000000 1.000000
tan 0.000000 0.000000 0.992126 1.000000
tan 0.000000 0.000000 0.992126 1.000000
tan 0.000000 0.000000 0.992126 1.000000
tan 0.000000 0.000000 0.992126 1.000000
tan 0.000000 0.000000 0.992126 1.000000
tan 0.000000 0.000000 0.992126 1.000000
tan 0.000000 0.000000 0.992126 1.000000
tan 0.000000 0.000000 0.992126 1.000000
tan 0.000000 0.000000 0.992126 1.000000
tan 0.000000 0.000000 0.992126 1.000000
tan 0.000000 0.000000 0.992126 1.000000
tan 0.000000 0.000000 0.992126 1.000000
tan 0.000000 0.000000 0.992126 1.000000
tan 0.000000 0.000000 0.992126 1.000000
tan 0.133858 -0.992126 0.000000 1.000000
tan 0.173228 -0.984252 0.000000 1.000000
tan 0.141732 -0.992126 0.000000 1.000000
tan 0.133858 -0.992126 0.000000 1.000000
tan 0.000000 0.000000 0.992126 1.000000
tan 0.000000 0.000000 0.992126 1.000000
tan 0.000000 0.000000 0.992126 1.000000
tan 0.000000 0.000000 0.992126 1.000000
tan -0.992126 -0.141732 0.000000 1.000000
tan -0.992126 -0.141732 0.000000 1.000000
tan -0.992126 -0.141732 0.000000 1.000000
tan -0.992126 -0.141732 0.000000 1.000000
tan 0.000000 0.000000 0.976378 1.000000
tan 0.000000 0.000000 0.976378 1.000000
tan 0.000000 0.000000 0.976378 1.000000
tan 0.000000 0.000000 0.976378 1.000000
tan 0.000000 0.000000 0.976378 1.000000
tan 0.000000 0.000000 0.976378 1.000000
tan 0.000000 0.000000 0.976378 1.000000
tan 0.000000 0.000000 0.976378 1.000000
tan -0.196850 -0.984252 0.000000 1.000000
tan -0.196850 -0.976378 0.000000 1.000000
tan -0.165354 -0.984252 0.000000 1.000000
tan -0.188976 -0.984252 0.000000 1.000000
tan 0.000000 0.000000 0.976378 1.000000
tan 0.000000 0.000000 0.976378 1.000000
tan 0.000000 0.000000 0.976378 1.000000
tan 0.000000 0.000000 0.976378 1.000000
tan -0.976378 0.196850 -0.000000 1.000000
tan -0.976378 0.196850 -0.000000 1.000000
tan -0.976378 0.196850 -0.000000 1.000000
tan -0.976378 0.196850 -0.000000 1.000000
tan 0.000000 0.000000 0.976378 1.000000
tan 0.000000 0.000000 0.976378 1.000000
tan 0.000000 0.000000 0.976378 1.000000
tan 0.000000 0.000000 0.976378 1.000000
tan 0.000000 0.000000 0.992126 1.000000
tan 0.000000 0.000000 0.992126 1.000000
tan 0.000000 0.000000 0.992126 1.000000
tan 0.000000 0.000000 0.992126 1.000000
tan 0.000000 0.000000 0.992126 1.000000
tan 0.000000 0.000000 0.992126 1.000000
tan 0.000000 0.000000 0.992126 1.000000
tan 0.000000 0.000000 0.992126 1.000000
tan -0.157480 0.984252 -0.000000 1.000000
tan -0.141732 0.992126 -0.000000 1.000000
tan -0.133858 0.992126 -0.000000 1.000000
tan -0.220472 0.976378 -0.000000 1.000000
tan -0.992126 -0.141732 0.000000 1.000000
tan -0.992126 -0.141732 0.000000 1.000000
tan -0.992126 -0.141732 0.000000 1.000000
tan -0.992126 -0.141732 0.000000 1.000000
tan 0.000000 0.000000 0.992126 1.000000
tan 0.000000 0.000000 0.992126 1.000000
tan 0.000000 0.000000 0.992126 1.000000
tan 0.000000 0.000000 0.992126 1.000000
tan 0.000000 0.000000 0.992126 1.000000
tan 0.000000 0.000000 0.992126 1.000000
tan 0.000000 0.000000 0.992126 1.000000
tan 0.000000 0.000000 0.992126 1.000000
f 3/3/3 2/2/2 1/1/1
f 6/6/6 5/5/5 4/4/4
f 9/9/9 8/8/8 7/7/7
f 12/12/12 11/11/11 10/10/10
f 15/15/15 14/14/14 13/13/13
f 18/18/18 17/17/17 16/16/16
f 21/21/21 20/20/20 19/19/19
f 24/24/24 23/23/23 22/22/22
f 27/27/27 26/26/26 25/25/25
f 30/30/30 29/29/29 28/28/28
f 33/33/33 32/32/32 31/31/31
f 34/34/34 32/32/32 33/33/33
f 37/37/37 36/36/36 35/35/35
f 38/38/38 35/35/35 36/36/36
f 41/41/41 40/40/40 39/39/39
f 42/42/42 40/40/40 41/41/41
f 45/45/45 44/44/44 43/43/43
f 46/46/46 43/43/43 44/44/44
f 49/49/49 48/48/48 47/47/47
f 50/50/50 47/47/47 48/48/48
f 53/53/53 52/52/52 51/51/51
f 54/54/54 52/52/52 53/53/53
f 57/57/57 56/56/56 55/55/55
f 58/58/58 55/55/55 56/56/56
f 61/61/61 60/60/60 59/59/59
f 62/62/62 61/61/61 59/59/59
f 65/65/65 64/64/64 63/63/63
f 66/66/66 64/64/64 65/65/65
f 69/69/69 68/68/68 67/67/67
f 70/70/70 67/67/67 68/68/68
f 73/73/73 72/72/72 71/71/71
f 74/74/74 73/73/73 71/71/71
f 77/77/77 76/76/76 75/75/75
f 78/78/78 75/75/75 76/76/76
f 81/81/81 80/80/80 79/79/79
f 82/82/82 79/79/79 80/80/80
f 85/85/85 84/84/84 83/83/83
f 86/86/86 85/85/85 83/83/83
f 89/89/89 88/88/88 87/87/87
f 90/90/90 87/87/87 88/88/88
f 93/93/93 92/92/92 91/91/91
f 94/94/94 93/93/93 91/91/91
f 97/97/97 96/96/96 95/95/95
f 98/98/98 97/97/97 95/95/95
