mtllib SM_Books2_LOD3.mtl
g SM_Books2_LOD3
#Vertices 74
#Indices 90
#Section 0 Offset 0 NumIndices 90 MaterialIndex 0 MI_Books
v 0.088287 -0.120688 0.105626
v 0.042048 -0.141890 -0.067331
v 0.023208 -0.105208 0.104187
v 0.095182 0.110390 0.124425
v 0.088287 -0.120688 0.105626
v 0.023208 -0.105208 0.104187
v 0.054797 0.095751 -0.040312
v 0.137405 0.080031 -0.034126
v 0.095182 0.110390 0.124425
v 0.054797 0.095751 -0.040312
v 0.042048 -0.141890 -0.067331
v 0.137405 0.080031 -0.034126
v 0.196583 0.082169 -0.035435
v 0.164936 0.110741 0.122259
v 0.137416 0.089569 -0.037085
v 0.137416 0.089569 -0.037085
v 0.137426 -0.143936 -0.065416
v 0.196583 0.082169 -0.035435
v -0.063342 0.089298 -0.034641
v -0.020975 -0.139039 -0.066688
v 0.022469 0.088971 -0.037601
v -0.020975 -0.139039 -0.066688
v -0.055355 -0.114744 0.101988
v 0.012987 -0.111339 0.106466
v -0.055355 -0.114744 0.101988
v -0.022049 0.110343 0.124645
v 0.012987 -0.111339 0.106466
v -0.063342 0.089298 -0.034641
v 0.022469 0.088971 -0.037601
v -0.022049 0.110343 0.124645
v -0.194327 0.112929 -0.093666
v -0.112995 -0.148590 -0.148241
v -0.079808 0.121672 -0.097485
v -0.112995 -0.148590 -0.148241
v -0.165431 -0.114123 0.116836
v -0.072031 -0.105621 0.117544
v -0.165431 -0.114123 0.116836
v -0.139588 0.140655 0.147894
v -0.072031 -0.105621 0.117544
v -0.194327 0.112929 -0.093666
v -0.079808 0.121672 -0.097485
v -0.139588 0.140655 0.147894
v 0.042048 -0.141890 -0.067331
v 0.088287 -0.120688 0.105626
v 0.137405 0.080031 -0.034126
v 0.095182 0.110390 0.124425
v 0.054797 0.095751 -0.040312
v 0.023208 -0.105208 0.104187
v 0.042048 -0.141890 -0.067331
v 0.095182 0.110390 0.124425
v 0.122948 -0.177029 0.179841
v 0.196583 0.082169 -0.035435
v 0.137426 -0.143936 -0.065416
v 0.164936 0.110741 0.122259
v 0.137416 0.089569 -0.037085
v 0.122948 -0.177029 0.179841
v 0.137426 -0.143936 -0.065416
v 0.164936 0.110741 0.122259
v 0.012987 -0.111339 0.106466
v 0.022469 0.088971 -0.037601
v -0.020975 -0.139039 -0.066688
v -0.022049 0.110343 0.124645
v -0.063342 0.089298 -0.034641
v -0.055355 -0.114744 0.101988
v -0.020975 -0.139039 -0.066688
v -0.022049 0.110343 0.124645
v -0.112995 -0.148590 -0.148241
v -0.072031 -0.105621 0.117544
v -0.079808 0.121672 -0.097485
v -0.139588 0.140655 0.147894
v -0.194327 0.112929 -0.093666
v -0.165431 -0.114123 0.116836
v -0.112995 -0.148590 -0.148241
v -0.139588 0.140655 0.147894
vt 0.225464 0.885193
vt 0.197021 1.017517
vt 0.183716 0.886414
vt 0.054688 0.861328
vt 0.175537 0.838257
vt 0.173462 0.880066
vt 0.059357 0.996576
vt 0.004238 0.991455
vt 0.035278 0.870239
vt 0.376709 0.140137
vt 0.507324 0.159668
vt 0.377197 0.198242
vt 0.592285 0.319824
vt 0.624023 0.207031
vt 0.645996 0.320801
vt 0.015625 0.430664
vt 0.124451 0.466797
vt 0.014236 0.481934
vt 0.241333 0.639893
vt 0.365723 0.668945
vt 0.241455 0.697998
vt 0.792480 0.191895
vt 0.770020 0.063477
vt 0.815430 0.060059
vt 0.760742 0.054688
vt 0.641113 0.034668
vt 0.758789 0.010742
vt 0.647461 0.167480
vt 0.590820 0.169434
vt 0.619629 0.045898
vt 0.166382 0.215820
vt -0.007408 0.177246
vt 0.166138 0.141113
vt 0.176758 -0.041016
vt 0.210205 0.130371
vt 0.153076 0.129883
vt 0.222168 0.141113
vt 0.385254 0.171387
vt 0.222778 0.200195
vt 0.375244 -0.005859
vt 0.446533 -0.007812
vt 0.412354 0.149902
vt 0.218506 1.013969
vt 0.234619 0.885132
vt 0.345459 0.991768
vt 0.357666 0.868652
vt 0.064941 0.996300
vt 0.174316 0.886597
vt 0.192383 1.016800
vt 0.052948 0.869385
vt 0.773926 0.166992
vt 0.909180 0.319824
vt 0.791504 0.340820
vt 0.920410 0.207520
vt 0.648926 0.320801
vt 0.783203 0.167969
vt 0.765137 0.339844
vt 0.636230 0.207520
vt 0.824219 0.060547
vt 0.932617 0.169922
vt 0.808594 0.190918
vt 0.944336 0.044922
vt 0.651367 0.167480
vt 0.761719 0.063965
vt 0.775391 0.190430
vt 0.640137 0.045410
vt 0.170166 -0.041016
vt 0.143066 0.131348
vt -0.004673 -0.008789
vt -0.021118 0.153320
vt 0.370605 -0.005859
vt 0.222168 0.131348
vt 0.199463 -0.036133
vt 0.385498 0.151855
vt1 0.266846 0.354492
vt1 0.321289 0.159180
vt1 0.346924 0.352539
vt1 0.593750 0.389648
vt1 0.362305 0.423828
vt1 0.366455 0.361816
vt1 0.584961 0.190430
vt1 0.690430 0.197754
vt1 0.630859 0.376465
vt1 0.037506 0.886108
vt1 0.282471 0.915710
vt1 0.038574 0.973511
vt1 0.953125 0.314941
vt1 0.783691 0.375000
vt1 0.954590 0.416504
vt1 0.332275 0.103516
vt1 0.569336 0.150879
vt1 0.329346 0.170410
vt1 0.038208 0.080078
vt1 0.272949 0.124023
vt1 0.038513 0.167480
vt1 0.401855 0.647949
vt1 0.359375 0.458008
vt1 0.445801 0.453125
vt1 0.341797 0.444336
vt1 0.114014 0.415039
vt1 0.338379 0.379883
vt1 0.125366 0.611328
vt1 0.017883 0.614746
vt1 0.072449 0.432129
vt1 0.699707 0.170410
vt1 0.991699 0.105957
vt1 0.699707 0.044922
vt1 0.305176 0.562988
vt1 0.361572 0.850586
vt1 0.265381 0.850342
vt1 0.381592 0.868896
vt1 0.655762 0.919922
vt1 0.382568 0.967743
vt1 0.638672 0.621582
vt1 0.758789 0.617920
vt1 0.701172 0.883545
vt1 0.280273 0.164551
vt1 0.249512 0.354492
vt1 0.037170 0.197266
vt1 0.013718 0.378906
vt1 0.574219 0.190430
vt1 0.364746 0.352539
vt1 0.330078 0.160645
vt1 0.597168 0.377930
vt1 0.723633 0.658203
vt1 0.953125 0.913574
vt1 0.984375 0.691406
vt1 0.784180 0.935608
vt1 0.954590 0.421875
vt1 0.725586 0.676025
vt1 0.982910 0.641602
vt1 0.784668 0.397461
vt1 0.462891 0.453613
vt1 0.669434 0.614990
vt1 0.433350 0.645996
vt1 0.691895 0.430176
vt1 0.133423 0.611572
vt1 0.343506 0.458984
vt1 0.369385 0.645996
vt1 0.111267 0.430664
vt1 0.293945 0.562012
vt1 0.248535 0.852417
vt1 0.000207 0.616943
vt1 -0.027451 0.889587
vt1 0.630859 0.621338
vt1 0.381592 0.852051
vt1 0.343262 0.570801
vt1 0.655762 0.887268
vn -0.173228 -0.984252 0.000000
vn -0.173228 -0.984252 0.000000
vn -0.173228 -0.984252 0.000000
vn 0.000000 0.000000 1.000000
vn 0.000000 0.000000 1.000000
vn 0.000000 0.000000 1.000000
vn 0.173228 0.984252 -0.000000
vn 0.173228 0.984252 -0.000000
vn 0.173228 0.984252 -0.000000
vn 0.000000 -0.000000 -1.000000
vn 0.000000 -0.000000 -1.000000
vn 0.000000 -0.000000 -1.000000
vn 0.173228 0.984252 -0.000000
vn 0.173228 0.984252 -0.000000
vn 0.173228 0.984252 -0.000000
vn 0.000000 -0.000000 -1.000000
vn 0.000000 -0.000000 -1.000000
vn 0.000000 -0.000000 -1.000000
vn 0.000000 -0.000000 -1.000000
vn 0.000000 -0.000000 -1.000000
vn 0.000000 -0.000000 -1.000000
vn 0.000000 -1.000000 0.000000
vn 0.000000 -1.000000 0.000000
vn 0.000000 -1.000000 0.000000
vn 0.000000 0.000000 1.000000
vn 0.000000 0.000000 1.000000
vn 0.000000 0.000000 1.000000
vn 0.000000 1.000000 -0.000000
vn 0.000000 1.000000 -0.000000
vn 0.000000 1.000000 -0.000000
vn 0.000000 -0.000000 -1.000000
vn 0.000000 -0.000000 -1.000000
vn 0.000000 -0.000000 -1.000000
vn 0.078740 -1.000000 0.000000
vn 0.078740 -1.000000 0.000000
vn 0.078740 -1.000000 0.000000
vn 0.000000 0.000000 1.000000
vn 0.000000 0.000000 1.000000
vn 0.000000 0.000000 1.000000
vn -0.078740 1.000000 -0.000000
vn -0.078740 1.000000 -0.000000
vn -0.078740 1.000000 -0.000000
vn 0.984252 -0.173228 0.000000
vn 0.984252 -0.173228 0.000000
vn 0.984252 -0.173228 0.000000
vn 0.984252 -0.173228 0.000000
vn -0.984252 0.173228 -0.000000
vn -0.984252 0.173228 -0.000000
vn -0.984252 0.173228 -0.000000
vn -0.984252 0.173228 -0.000000
vn 0.984252 -0.173228 0.000000
vn 0.984252 -0.173228 0.000000
vn 0.984252 -0.173228 0.000000
vn 0.984252 -0.173228 0.000000
vn -0.984252 0.173228 -0.000000
vn -0.984252 0.173228 -0.000000
vn -0.984252 0.173228 -0.000000
vn -0.984252 0.173228 -0.000000
vn 1.000000 0.000000 0.000000
vn 1.000000 0.000000 0.000000
vn 1.000000 0.000000 0.000000
vn 1.000000 0.000000 0.000000
vn -1.000000 0.000000 0.000000
vn -1.000000 0.000000 0.000000
vn -1.000000 0.000000 0.000000
vn -1.000000 0.000000 0.000000
vn 1.000000 0.078740 -0.000000
vn 1.000000 0.078740 -0.000000
vn 1.000000 0.078740 -0.000000
vn 1.000000 0.078740 -0.000000
vn -1.000000 -0.078740 0.000000
vn -1.000000 -0.078740 0.000000
vn -1.000000 -0.078740 0.000000
vn -1.000000 -0.078740 0.000000
tan 0.000000 0.000000 0.984252 1.000000
tan 0.000000 0.000000 0.984252 1.000000
tan 0.000000 0.000000 0.984252 1.000000
tan 0.984252 -0.173228 0.000000 1.000000
tan 0.984252 -0.173228 0.000000 1.000000
tan 0.984252 -0.173228 0.000000 1.000000
tan 0.000000 0.000000 0.984252 1.000000
tan 0.000000 0.000000 0.984252 1.000000
tan 0.000000 0.000000 0.984252 1.000000
tan -0.984252 0.173228 -0.000000 1.000000
tan -0.984252 0.173228 -0.000000 1.000000
tan -0.984252 0.173228 -0.000000 1.000000
tan 0.000000 0.000000 0.984252 1.000000
tan 0.000000 0.000000 0.984252 1.000000
tan 0.000000 0.000000 0.984252 1.000000
tan -0.984252 0.173228 -0.000000 1.000000
tan -0.984252 0.173228 -0.000000 1.000000
tan -0.984252 0.173228 -0.000000 1.000000
tan -1.000000 0.000000 0.000000 1.000000
tan -1.000000 0.000000 0.000000 1.000000
tan -1.000000 0.000000 0.000000 1.000000
tan 0.000000 0.000000 1.000000 1.000000
tan 0.000000 0.000000 1.000000 1.000000
tan 0.000000 0.000000 1.000000 1.000000
tan 1.000000 0.000000 0.000000 1.000000
tan 1.000000 0.000000 0.000000 1.000000
tan 1.000000 0.000000 0.000000 1.000000
tan 0.000000 0.000000 1.000000 1.000000
tan 0.000000 0.000000 1.000000 1.000000
tan 0.000000 0.000000 1.000000 1.000000
tan 1.000000 0.078740 -0.000000 1.000000
tan 1.000000 0.078740 -0.000000 1.000000
tan 1.000000 0.078740 -0.000000 1.000000
tan 0.000000 -0.000000 -1.000000 1.000000
tan 0.000000 -0.000000 -1.000000 1.000000
tan 0.000000 -0.000000 -1.000000 1.000000
tan -1.000000 -0.078740 0.000000 1.000000
tan -1.000000 -0.078740 0.000000 1.000000
tan -1.000000 -0.078740 0.000000 1.000000
tan 0.000000 -0.000000 -1.000000 1.000000
tan 0.000000 -0.000000 -1.000000 1.000000
tan 0.000000 -0.000000 -1.000000 1.000000
tan 0.000000 0.000000 0.984252 1.000000
tan 0.000000 0.000000 0.984252 1.000000
tan 0.000000 0.000000 0.984252 1.000000
tan 0.000000 0.000000 0.984252 1.000000
tan 0.000000 0.000000 0.984252 1.000000
tan 0.000000 0.000000 0.984252 1.000000
tan 0.000000 0.000000 0.984252 1.000000
tan 0.000000 0.000000 0.984252 1.000000
tan 0.000000 0.000000 0.984252 1.000000
tan 0.000000 0.000000 0.984252 1.000000
tan 0.000000 0.000000 0.984252 1.000000
tan 0.000000 0.000000 0.984252 1.000000
tan 0.000000 0.000000 0.984252 1.000000
tan 0.000000 0.000000 0.984252 1.000000
tan 0.000000 0.000000 0.984252 1.000000
tan 0.000000 0.000000 0.984252 1.000000
tan 0.000000 0.000000 1.000000 1.000000
tan 0.000000 0.000000 1.000000 1.000000
tan 0.000000 0.000000 1.000000 1.000000
tan 0.000000 0.000000 1.000000 1.000000
tan 0.000000 0.000000 1.000000 1.000000
tan 0.000000 0.000000 1.000000 1.000000
tan 0.000000 0.000000 1.000000 1.000000
tan 0.000000 0.000000 1.000000 1.000000
tan 0.000000 -0.000000 -1.000000 1.000000
tan 0.000000 -0.000000 -1.000000 1.000000
tan 0.000000 -0.000000 -1.000000 1.000000
tan 0.000000 -0.000000 -1.000000 1.000000
tan 0.000000 -0.000000 -1.000000 1.000000
tan 0.000000 -0.000000 -1.000000 1.000000
tan 0.000000 -0.000000 -1.000000 1.000000
tan 0.000000 -0.000000 -1.000000 1.000000
f 3/3/3 2/2/2 1/1/1
f 6/6/6 5/5/5 4/4/4
f 9/9/9 8/8/8 7/7/7
f 12/12/12 11/11/11 10/10/10
f 15/15/15 14/14/14 13/13/13
f 18/18/18 17/17/17 16/16/16
f 21/21/21 20/20/20 19/19/19
f 24/24/24 23/23/23 22/22/22
f 27/27/27 26/26/26 25/25/25
f 30/30/30 29/29/29 28/28/28
f 33/33/33 32/32/32 31/31/31
f 36/36/36 35/35/35 34/34/34
f 39/39/39 38/38/38 37/37/37
f 42/42/42 41/41/41 40/40/40
f 45/45/45 44/44/44 43/43/43
f 46/46/46 44/44/44 45/45/45
f 49/49/49 48/48/48 47/47/47
f 50/50/50 47/47/47 48/48/48
f 53/53/53 52/52/52 51/51/51
f 54/54/54 51/51/51 52/52/52
f 57/57/57 56/56/56 55/55/55
f 58/58/58 55/55/55 56/56/56
f 61/61/61 60/60/60 59/59/59
f 62/62/62 59/59/59 60/60/60
f 65/65/65 64/64/64 63/63/63
f 66/66/66 63/63/63 64/64/64
f 69/69/69 68/68/68 67/67/67
f 70/70/70 68/68/68 69/69/69
f 73/73/73 72/72/72 71/71/71
f 74/74/74 71/71/71 72/72/72
