mtllib SM_Books4_LOD3.mtl
g SM_Books4_LOD3
#Vertices 54
#Indices 66
#Section 0 Offset 0 NumIndices 66 MaterialIndex 0 MI_Books
v -0.057143 0.104947 -0.099826
v 0.001687 -0.146827 -0.141097
v -0.011424 0.106823 -0.103674
v 0.016193 -0.103492 0.108204
v 0.001687 -0.146827 -0.141097
v -0.026258 -0.108072 0.109462
v -0.026258 -0.108072 0.109462
v -0.033460 0.139908 0.147780
v 0.016193 -0.103492 0.108204
v -0.011424 0.106823 -0.103674
v -0.033460 0.139908 0.147780
v -0.057143 0.104947 -0.099826
v 0.157959 0.142867 -0.148362
v 0.019961 -0.093998 -0.103574
v 0.112302 -0.115882 -0.100052
v 0.019961 -0.093998 -0.103574
v 0.084158 -0.147806 0.151383
v 0.112302 -0.115882 -0.100052
v -0.061083 0.112712 -0.102733
v -0.158102 0.099059 -0.099652
v -0.060401 -0.144879 -0.127524
v -0.060401 -0.144879 -0.127524
v -0.119648 -0.113676 0.112363
v -0.035336 -0.100916 0.111230
v -0.119648 -0.113676 0.112363
v -0.115293 0.137866 0.141735
v -0.035336 -0.100916 0.111230
v -0.158102 0.099059 -0.099652
v -0.061083 0.112712 -0.102733
v -0.115293 0.137866 0.141735
v 0.001687 -0.146827 -0.141097
v 0.016193 -0.103492 0.108204
v -0.011424 0.106823 -0.103674
v -0.033460 0.139908 0.147780
v -0.057143 0.104947 -0.099826
v -0.026258 -0.108072 0.109462
v 0.001687 -0.146827 -0.141097
v -0.033460 0.139908 0.147780
v 0.112302 -0.115882 -0.100052
v 0.084158 -0.147806 0.151383
v 0.157959 0.142867 -0.148362
v 0.062978 0.161195 0.153391
v 0.019961 -0.093998 -0.103574
v 0.062978 0.161195 0.153391
v 0.084158 -0.147806 0.151383
v 0.157959 0.142867 -0.148362
v -0.035336 -0.100916 0.111230
v -0.061083 0.112712 -0.102733
v -0.060401 -0.144879 -0.127524
v -0.115293 0.137866 0.141735
v -0.158102 0.099059 -0.099652
v -0.119648 -0.113676 0.112363
v -0.060401 -0.144879 -0.127524
v -0.115293 0.137866 0.141735
vt 0.938477 0.481934
vt 0.949219 0.317871
vt 0.966309 0.479004
vt 0.744629 0.593506
vt 0.731445 0.755737
vt 0.718262 0.592773
vt 0.750977 0.559814
vt 0.911621 0.578125
vt 0.750000 0.586914
vt 0.893555 0.731201
vt 0.905762 0.567383
vt 0.922363 0.728760
vt 0.983887 0.343750
vt 0.923340 0.177734
vt 0.983887 0.174316
vt 0.143188 0.426270
vt 0.190674 0.261230
vt 0.204468 0.424316
vt 0.884277 0.742432
vt 0.948242 0.742188
vt 0.907715 0.909180
vt 0.184692 0.649170
vt 0.149292 0.493164
vt 0.203857 0.494141
vt 0.210449 0.432129
vt 0.371826 0.458008
vt 0.210815 0.486816
vt 0.418457 0.630615
vt 0.354980 0.632812
vt 0.387695 0.473633
vt 0.723145 0.755493
vt 0.750000 0.593262
vt 0.888184 0.731445
vt 0.911621 0.567383
vt 0.570312 0.728760
vt 0.710449 0.592529
vt 0.737793 0.755615
vt 0.549805 0.567383
vt 0.210327 0.424316
vt 0.186279 0.260254
vt 0.380859 0.455078
vt 0.375977 0.260742
vt 0.138184 0.426270
vt -0.029861 0.258789
vt 0.165161 0.258789
vt -0.031708 0.455566
vt 0.210693 0.493652
vt 0.350586 0.632812
vt 0.184082 0.649170
vt 0.372559 0.472656
vt -0.000440 0.630859
vt 0.140137 0.492676
vt 0.166382 0.648193
vt -0.021423 0.472656
vt1 0.031372 0.670654
vt1 0.317139 0.688721
vt1 0.036499 0.718506
vt1 0.324951 0.244629
vt1 0.347656 -0.033203
vt1 0.370117 0.246094
vt1 0.313965 0.302246
vt1 0.038574 0.270996
vt1 0.315674 0.255859
vt1 0.069580 0.008301
vt1 0.048950 0.289551
vt1 0.020645 0.012695
vt1 0.880859 1.019577
vt1 0.777344 0.731445
vt1 0.879883 0.724854
vt1 0.253418 1.000538
vt1 0.335205 0.717285
vt1 0.358643 0.996769
vt1 0.653809 0.114258
vt1 0.763672 0.113770
vt1 0.693848 0.400879
vt1 0.324707 0.659668
vt1 0.263916 0.392090
vt1 0.357666 0.393555
vt1 0.369141 0.287598
vt1 0.645508 0.331543
vt1 0.369385 0.381348
vt1 0.725586 0.628174
vt1 0.616699 0.631592
vt1 0.672852 0.358887
vt1 0.361572 -0.033203
vt1 0.315918 0.244629
vt1 0.079224 0.008301
vt1 0.038971 0.289551
vt1 0.624023 0.012695
vt1 0.383545 0.246094
vt1 0.336426 -0.033203
vt1 0.658691 0.289062
vt1 0.368652 0.996590
vt1 0.327393 0.715576
vt1 0.661133 1.049530
vt1 0.652832 0.716553
vt1 0.244995 1.000557
vt1 -0.043121 0.713623
vt1 0.291260 0.712891
vt1 -0.046326 1.050598
vt1 0.369385 0.393066
vt1 0.609375 0.631592
vt1 0.323730 0.659912
vt1 0.646973 0.356445
vt1 0.007309 0.628174
vt1 0.248413 0.391602
vt1 0.293457 0.658203
vt1 -0.028687 0.357422
vn 0.000000 -0.000000 -1.000000
vn 0.000000 -0.000000 -1.000000
vn 0.000000 -0.000000 -1.000000
vn 0.141732 -0.992126 0.000000
vn 0.141732 -0.992126 0.000000
vn 0.141732 -0.992126 0.000000
vn 0.000000 0.000000 1.000000
vn 0.000000 0.000000 1.000000
vn 0.000000 0.000000 1.000000
vn -0.141732 0.992126 -0.000000
vn -0.141732 0.992126 -0.000000
vn -0.141732 0.992126 -0.000000
vn 0.000000 -0.000000 -1.000000
vn 0.000000 -0.000000 -1.000000
vn 0.000000 -0.000000 -1.000000
vn -0.196850 -0.976378 0.000000
vn -0.196850 -0.976378 0.000000
vn -0.196850 -0.976378 0.000000
vn 0.000000 -0.000000 -1.000000
vn 0.000000 -0.000000 -1.000000
vn 0.000000 -0.000000 -1.000000
vn 0.141732 -0.992126 0.000000
vn 0.141732 -0.992126 0.000000
vn 0.141732 -0.992126 0.000000
vn 0.000000 0.000000 1.000000
vn 0.000000 0.000000 1.000000
vn 0.000000 0.000000 1.000000
vn -0.141732 0.992126 -0.000000
vn -0.141732 0.992126 -0.000000
vn -0.141732 0.992126 -0.000000
vn 0.992126 0.141732 -0.000000
vn 0.992126 0.141732 -0.000000
vn 0.992126 0.141732 -0.000000
vn 0.992126 0.141732 -0.000000
vn -0.992126 -0.141732 0.000000
vn -0.992126 -0.141732 0.000000
vn -0.992126 -0.141732 0.000000
vn -0.992126 -0.141732 0.000000
vn 0.976378 -0.196850 0.000000
vn 0.976378 -0.196850 0.000000
vn 0.976378 -0.196850 0.000000
vn 0.976378 -0.196850 0.000000
vn -0.976378 0.196850 -0.000000
vn -0.976378 0.196850 -0.000000
vn -0.976378 0.196850 -0.000000
vn -0.976378 0.196850 -0.000000
vn 0.992126 0.141732 -0.000000
vn 0.992126 0.141732 -0.000000
vn 0.992126 0.141732 -0.000000
vn 0.992126 0.141732 -0.000000
vn -0.992126 -0.141732 0.000000
vn -0.992126 -0.141732 0.000000
vn -0.992126 -0.141732 0.000000
vn -0.992126 -0.141732 0.000000
tan 0.133858 -0.992126 0.000000 1.000000
tan 0.165354 -0.984252 0.000000 1.000000
tan 0.141732 -0.992126 0.000000 1.000000
tan 0.000000 0.000000 0.992126 1.000000
tan 0.000000 0.000000 0.992126 1.000000
tan 0.000000 0.000000 0.992126 1.000000
tan -0.992126 -0.141732 0.000000 1.000000
tan -0.992126 -0.141732 0.000000 1.000000
tan -0.992126 -0.141732 0.000000 1.000000
tan 0.000000 0.000000 0.992126 1.000000
tan 0.000000 0.000000 0.992126 1.000000
tan 0.000000 0.000000 0.992126 1.000000
tan -0.196850 -0.976378 0.000000 1.000000
tan -0.165354 -0.984252 0.000000 1.000000
tan -0.188976 -0.984252 0.000000 1.000000
tan 0.000000 0.000000 0.976378 1.000000
tan 0.000000 0.000000 0.976378 1.000000
tan 0.000000 0.000000 0.976378 1.000000
tan -0.149606 0.992126 -0.000000 1.000000
tan -0.141732 0.992126 -0.000000 1.000000
tan -0.188976 0.984252 -0.000000 1.000000
tan 0.000000 0.000000 0.992126 1.000000
tan 0.000000 0.000000 0.992126 1.000000
tan 0.000000 0.000000 0.992126 1.000000
tan -0.992126 -0.141732 0.000000 1.000000
tan -0.992126 -0.141732 0.000000 1.000000
tan -0.992126 -0.141732 0.000000 1.000000
tan 0.000000 0.000000 0.992126 1.000000
tan 0.000000 0.000000 0.992126 1.000000
tan 0.000000 0.000000 0.992126 1.000000
tan 0.000000 0.000000 0.992126 1.000000
tan 0.000000 0.000000 0.992126 1.000000
tan 0.000000 0.000000 0.992126 1.000000
tan 0.000000 0.000000 0.992126 1.000000
tan 0.000000 0.000000 0.992126 1.000000
tan 0.000000 0.000000 0.992126 1.000000
tan 0.000000 0.000000 0.992126 1.000000
tan 0.000000 0.000000 0.992126 1.000000
tan 0.000000 0.000000 0.976378 1.000000
tan 0.000000 0.000000 0.976378 1.000000
tan 0.000000 0.000000 0.976378 1.000000
tan 0.000000 0.000000 0.976378 1.000000
tan 0.000000 0.000000 0.976378 1.000000
tan 0.000000 0.000000 0.976378 1.000000
tan 0.000000 0.000000 0.976378 1.000000
tan 0.000000 0.000000 0.976378 1.000000
tan 0.000000 0.000000 0.992126 1.000000
tan 0.000000 0.000000 0.992126 1.000000
tan 0.000000 0.000000 0.992126 1.000000
tan 0.000000 0.000000 0.992126 1.000000
tan 0.000000 0.000000 0.992126 1.000000
tan 0.000000 0.000000 0.992126 1.000000
tan 0.000000 0.000000 0.992126 1.000000
tan 0.000000 0.000000 0.992126 1.000000
f 3/3/3 2/2/2 1/1/1
f 6/6/6 5/5/5 4/4/4
f 9/9/9 8/8/8 7/7/7
f 12/12/12 11/11/11 10/10/10
f 15/15/15 14/14/14 13/13/13
f 18/18/18 17/17/17 16/16/16
f 21/21/21 20/20/20 19/19/19
f 24/24/24 23/23/23 22/22/22
f 27/27/27 26/26/26 25/25/25
f 30/30/30 29/29/29 28/28/28
f 33/33/33 32/32/32 31/31/31
f 34/34/34 32/32/32 33/33/33
f 37/37/37 36/36/36 35/35/35
f 38/38/38 35/35/35 36/36/36
f 41/41/41 40/40/40 39/39/39
f 42/42/42 40/40/40 41/41/41
f 45/45/45 44/44/44 43/43/43
f 46/46/46 43/43/43 44/44/44
f 49/49/49 48/48/48 47/47/47
f 50/50/50 47/47/47 48/48/48
f 53/53/53 52/52/52 51/51/51
f 54/54/54 51/51/51 52/52/52
