mtllib SM_Books3_2_LOD1.mtl
g SM_Books3_2_LOD1
#Vertices 128
#Indices 180
#Section 0 Offset 0 NumIndices 180 MaterialIndex 0 MI_Books
v -0.022368 -0.102768 -0.056359
v 0.069133 -0.112494 0.063302
v 0.067705 -0.113043 -0.056068
v 0.069133 -0.112494 0.063302
v -0.022368 -0.102768 -0.056359
v -0.015716 -0.090994 0.063257
v 0.120040 0.091405 -0.056951
v 0.035079 0.112468 0.063295
v 0.036179 0.113241 -0.056264
v 0.035079 0.112468 0.063295
v 0.120040 0.091405 -0.056951
v 0.120420 0.091309 0.063714
v -0.022368 -0.102768 -0.056359
v -0.031073 -0.094005 0.069884
v -0.015716 -0.090994 0.063257
v 0.077947 -0.121904 -0.070147
v 0.067705 -0.113043 -0.056068
v 0.080250 -0.122339 -0.055709
v -0.036931 0.103582 0.068926
v -0.029164 -0.116112 0.069884
v -0.038889 -0.110312 0.062817
v -0.035954 -0.118190 -0.055134
v -0.038889 -0.110312 0.062817
v -0.029164 -0.116112 0.069884
v -0.131725 -0.118000 -0.055337
v -0.135313 -0.116112 0.069884
v -0.125136 -0.108724 0.063577
v -0.132695 0.107748 -0.055297
v -0.125597 0.101009 0.062393
v -0.135313 0.107129 0.069884
v 0.080250 -0.122339 -0.055709
v 0.080250 -0.122339 0.069884
v 0.135313 0.094005 -0.055709
v 0.135313 0.094005 0.069884
v 0.023990 0.122339 -0.055709
v -0.031073 -0.094005 0.069884
v -0.022368 -0.102768 -0.056359
v 0.023990 0.122339 0.069884
v 0.080250 -0.122339 -0.055709
v 0.135313 0.094005 -0.055709
v 0.077947 -0.121904 -0.070147
v 0.135313 0.094005 -0.069884
v -0.031073 -0.094006 -0.069884
v 0.023990 0.122338 -0.069884
v 0.023990 0.122339 -0.055709
v -0.022368 -0.102768 -0.056359
v 0.023990 0.122338 -0.069884
v 0.077947 -0.121904 -0.070147
v 0.135313 0.094005 -0.069884
v -0.031073 -0.094006 -0.069884
v 0.077947 -0.121904 -0.070147
v -0.031073 -0.094006 -0.069884
v -0.022368 -0.102768 -0.056359
v 0.067705 -0.113043 -0.056068
v -0.015716 -0.090994 0.063257
v 0.035079 0.112468 0.063295
v 0.069133 -0.112494 0.063302
v 0.120420 0.091309 0.063714
v 0.135313 0.094005 -0.055709
v 0.120420 0.091309 0.063714
v 0.120040 0.091405 -0.056951
v 0.135313 0.094005 0.069884
v 0.135313 0.094005 0.069884
v 0.080250 -0.122339 0.069884
v 0.069133 -0.112494 0.063302
v 0.120420 0.091309 0.063714
v 0.067705 -0.113043 -0.056068
v 0.069133 -0.112494 0.063302
v 0.080250 -0.122339 -0.055709
v 0.080250 -0.122339 0.069884
v -0.031073 -0.094005 0.069884
v 0.035079 0.112468 0.063295
v -0.015716 -0.090994 0.063257
v 0.023990 0.122339 0.069884
v 0.036179 0.113241 -0.056264
v 0.035079 0.112468 0.063295
v 0.023990 0.122339 -0.055709
v 0.023990 0.122339 0.069884
v -0.029164 -0.116112 0.069884
v -0.030668 0.107586 -0.055426
v -0.035954 -0.118190 -0.055134
v -0.036931 0.103582 0.068926
v -0.132695 0.107748 -0.055297
v -0.135313 -0.116112 0.069884
v -0.131725 -0.118000 -0.055337
v -0.135313 0.107129 0.069884
v -0.035954 -0.118190 -0.055134
v -0.030668 0.107586 -0.055426
v -0.029165 -0.116112 -0.069884
v -0.029164 0.107129 -0.069884
v -0.135314 -0.116112 -0.069884
v -0.135314 0.107129 -0.069884
v -0.132695 0.107748 -0.055297
v -0.131725 -0.118000 -0.055337
v -0.029164 0.107129 -0.069884
v -0.135314 0.107129 -0.069884
v -0.135314 -0.116112 -0.069884
v -0.029165 -0.116112 -0.069884
v -0.131725 -0.118000 -0.055337
v -0.029165 -0.116112 -0.069884
v -0.135314 -0.116112 -0.069884
v -0.035954 -0.118190 -0.055134
v -0.131725 -0.118000 -0.055337
v -0.125136 -0.108724 0.063577
v -0.035954 -0.118190 -0.055134
v -0.038889 -0.110312 0.062817
v -0.125597 0.101009 0.062393
v -0.038889 -0.110312 0.062817
v -0.125136 -0.108724 0.063577
v -0.036931 0.103582 0.068926
v -0.132695 0.107748 -0.055297
v -0.030668 0.107586 -0.055426
v -0.036931 0.103582 0.068926
v -0.125597 0.101009 0.062393
v -0.135314 0.107129 -0.069884
v -0.029164 0.107129 -0.069884
v -0.030668 0.107586 -0.055426
v -0.132695 0.107748 -0.055297
v -0.135313 -0.116112 0.069884
v -0.135313 0.107129 0.069884
v -0.125136 -0.108724 0.063577
v -0.125597 0.101009 0.062393
v 0.135313 0.094005 -0.069884
v 0.135313 0.094005 -0.055709
v 0.120040 0.091405 -0.056951
v 0.023990 0.122338 -0.069884
v 0.036179 0.113241 -0.056264
v 0.023990 0.122339 -0.055709
vt 0.242676 0.793945
vt 0.301758 0.716064
vt 0.301025 0.793701
vt 0.301758 0.716064
vt 0.242554 0.793945
vt 0.244873 0.716064
vt 0.014450 0.794312
vt 0.071411 0.716064
vt 0.070801 0.793823
vt 0.071350 0.716064
vt 0.014420 0.794312
vt 0.014168 0.715820
vt 0.234863 0.793945
vt 0.230469 0.711670
vt 0.239746 0.716309
vt 0.449463 0.668213
vt 0.445557 0.678223
vt 0.451416 0.673828
vt 0.428711 0.368164
vt 0.424561 0.225098
vt 0.430908 0.229004
vt 0.585449 0.147949
vt 0.508789 0.152832
vt 0.503906 0.145508
vt 0.585449 0.223633
vt 0.503906 0.225098
vt 0.508301 0.218262
vt 0.585449 0.371582
vt 0.508789 0.377930
vt 0.503906 0.370605
vt 0.315674 0.793457
vt 0.315674 0.711670
vt 0.460938 0.793457
vt 0.460938 0.711670
vt 0.085144 0.793457
vt 0.230469 0.711670
vt 0.234619 0.793945
vt 0.085144 0.711670
vt 0.425049 0.673828
vt 0.424561 0.525879
vt 0.434570 0.673828
vt 0.433838 0.525879
vt 0.508789 0.671875
vt 0.509277 0.525879
vt 0.518555 0.525879
vt 0.517578 0.676025
vt 0.509277 0.525879
vt 0.436279 0.672607
vt 0.434082 0.525879
vt 0.508789 0.671875
vt 0.436523 0.672119
vt 0.508789 0.671875
vt 0.501953 0.680176
vt 0.445312 0.678223
vt 0.226074 0.697266
vt 0.089600 0.697998
vt 0.226074 0.640381
vt 0.089294 0.640869
vt 0.000000 0.793457
vt 0.009750 0.715820
vt 0.009209 0.794312
vt 0.000001 0.711670
vt 0.085144 0.626465
vt 0.230469 0.626465
vt 0.225952 0.635986
vt 0.089294 0.635498
vt 0.306152 0.793701
vt 0.306152 0.716064
vt 0.315674 0.793457
vt 0.315674 0.711670
vt 0.230469 0.711670
vt 0.089661 0.702393
vt 0.226074 0.702637
vt 0.085144 0.711670
vt 0.075989 0.793823
vt 0.075745 0.716064
vt 0.085144 0.793457
vt 0.085144 0.711670
vt 0.503906 0.145508
vt 0.585449 0.000000
vt 0.585449 0.146973
vt 0.504395 0.002441
vt 0.585449 0.370605
vt 0.503906 0.225098
vt 0.585449 0.223633
vt 0.503906 0.370605
vt 0.712402 0.727051
vt 0.859375 0.727051
vt 0.713867 0.736572
vt 0.859375 0.736572
vt 0.713867 0.805664
vt 0.859375 0.805664
vt 0.859375 0.815308
vt 0.712891 0.815063
vt 0.859375 0.736572
vt 0.859375 0.805664
vt 0.713867 0.805664
vt 0.713867 0.736572
vt 0.704590 0.803223
vt 0.713867 0.736572
vt 0.713867 0.805664
vt 0.704102 0.740967
vt 0.585449 0.217285
vt 0.508301 0.213379
vt 0.585449 0.155273
vt 0.508789 0.157227
vt 0.492676 0.366699
vt 0.436035 0.229004
vt 0.492188 0.229980
vt 0.434814 0.368164
vt 0.585449 0.377441
vt 0.585449 0.443359
vt 0.504883 0.439941
vt 0.508789 0.381836
vt 0.859375 0.805664
vt 0.859375 0.736572
vt 0.868164 0.737549
vt 0.868652 0.804077
vt 0.503906 0.225098
vt 0.503906 0.370605
vt 0.497559 0.229980
vt 0.497803 0.366211
vt 0.434082 0.525879
vt 0.434082 0.516113
vt 0.443604 0.516602
vt 0.509277 0.525879
vt 0.500000 0.516846
vt 0.509766 0.516602
vt1 0.525879 0.993004
vt1 0.651855 0.826660
vt1 0.650391 0.992424
vt1 0.651855 0.826660
vt1 0.525391 0.992943
vt1 0.530273 0.826782
vt1 0.038879 0.993664
vt1 0.160400 0.826660
vt1 0.159180 0.992676
vt1 0.160400 0.826660
vt1 0.038818 0.993622
vt1 0.038300 0.826050
vt1 0.509277 0.992775
vt1 0.499756 0.817505
vt1 0.519531 0.827148
vt1 0.030273 0.763672
vt1 0.013168 0.797729
vt1 0.039337 0.782593
vt1 0.187134 0.262207
vt1 0.500000 0.252930
vt1 0.491699 0.266602
vt1 0.667969 0.604736
vt1 0.657715 0.437012
vt1 0.673828 0.426758
vt1 0.502930 0.604980
vt1 0.500000 0.426758
vt1 0.514160 0.436523
vt1 0.179688 0.605225
vt1 0.165894 0.437988
vt1 0.182007 0.426758
vt1 0.681641 0.991928
vt1 0.681641 0.817505
vt1 0.991699 0.991936
vt1 0.991699 0.817505
vt1 0.189819 0.991913
vt1 0.499756 0.817505
vt1 0.508789 0.992825
vt1 0.189819 0.817505
vt1 0.554688 0.157715
vt1 0.933105 0.156250
vt1 0.554688 0.182129
vt1 0.933105 0.180176
vt1 0.559570 0.370605
vt1 0.933105 0.372070
vt1 0.933105 0.395508
vt1 0.548828 0.393066
vt1 0.933105 0.371582
vt1 0.558105 0.186523
vt1 0.933105 0.180176
vt1 0.560059 0.370605
vt1 0.559570 0.187012
vt1 0.559570 0.370605
vt1 0.538574 0.352539
vt1 0.543457 0.208984
vt1 0.490479 0.786743
vt1 0.199341 0.788086
vt1 0.490479 0.665283
vt1 0.198486 0.666016
vt1 0.008064 0.991890
vt1 0.028854 0.826294
vt1 0.027725 0.993622
vt1 0.008064 0.817505
vt1 0.189819 0.635742
vt1 0.499756 0.635742
vt1 0.490234 0.656006
vt1 0.198486 0.654785
vt1 0.661621 0.992428
vt1 0.661621 0.826904
vt1 0.681641 0.991928
vt1 0.681641 0.817505
vt1 0.499756 0.817505
vt1 0.199463 0.797241
vt1 0.490479 0.797852
vt1 0.189819 0.817505
vt1 0.170288 0.992676
vt1 0.169678 0.826904
vt1 0.189819 0.991913
vt1 0.189819 0.817505
vt1 0.673828 0.426758
vt1 0.992188 0.605225
vt1 0.670898 0.604736
vt1 0.986816 0.428223
vt1 0.181152 0.605225
vt1 0.500000 0.426758
vt1 0.502441 0.605225
vt1 0.182007 0.426758
vt1 0.042572 0.009277
vt1 0.416748 0.009277
vt1 0.045990 0.033691
vt1 0.416016 0.033691
vt1 0.046051 0.209473
vt1 0.416016 0.209473
vt1 0.416992 0.234375
vt1 0.042938 0.233887
vt1 0.416016 0.033691
vt1 0.416016 0.209473
vt1 0.046051 0.209473
vt1 0.045959 0.033691
vt1 0.022873 0.203613
vt1 0.045868 0.033691
vt1 0.046051 0.209473
vt1 0.021088 0.044434
vt1 0.517090 0.605469
vt1 0.525879 0.436035
vt1 0.652832 0.604980
vt1 0.648438 0.437012
vt1 0.190674 0.401855
vt1 0.491699 0.278320
vt1 0.489502 0.400879
vt1 0.187012 0.275391
vt1 0.166870 0.605225
vt1 0.022232 0.605469
vt1 0.030548 0.428711
vt1 0.156738 0.437500
vt1 0.416016 0.209473
vt1 0.416016 0.033691
vt1 0.438721 0.036133
vt1 0.440186 0.205566
vt1 0.500000 0.426758
vt1 0.182007 0.426758
vt1 0.489502 0.412598
vt1 0.191040 0.413086
vt1 0.933105 0.180176
vt1 0.958008 0.180664
vt1 0.957031 0.204590
vt1 0.933105 0.372070
vt1 0.956055 0.348633
vt1 0.957031 0.372559
vn -0.244094 -0.968504 0.000000
vn -0.244094 -0.968504 0.000000
vn -0.244094 -0.968504 0.000000
vn -0.244094 -0.968504 0.000000
vn -0.244094 -0.968504 0.000000
vn -0.244094 -0.968504 0.000000
vn 0.244094 0.968504 -0.000000
vn 0.244094 0.968504 -0.000000
vn 0.244094 0.968504 -0.000000
vn 0.244094 0.968504 -0.000000
vn 0.244094 0.968504 -0.000000
vn 0.244094 0.968504 -0.000000
vn -0.244094 -0.968504 0.000000
vn -0.244094 -0.968504 0.000000
vn -0.244094 -0.968504 0.000000
vn -0.244094 -0.968504 0.000000
vn -0.244094 -0.968504 0.000000
vn -0.244094 -0.968504 0.000000
vn 0.000000 0.000000 1.000000
vn 0.000000 0.000000 1.000000
vn 0.000000 0.000000 1.000000
vn 0.000000 -1.000000 0.000000
vn 0.000000 -1.000000 0.000000
vn 0.000000 -1.000000 0.000000
vn 0.000000 -1.000000 0.000000
vn 0.000000 -1.000000 0.000000
vn 0.000000 -1.000000 0.000000
vn 0.000000 1.000000 -0.000000
vn 0.000000 1.000000 -0.000000
vn 0.000000 1.000000 -0.000000
vn 0.968504 -0.244094 0.000000
vn 0.968504 -0.244094 0.000000
vn 0.968504 -0.244094 0.000000
vn 0.968504 -0.244094 0.000000
vn -0.968504 0.244094 -0.000000
vn -0.968504 0.244094 -0.000000
vn -0.968504 0.244094 -0.000000
vn -0.968504 0.244094 -0.000000
vn 0.968504 -0.244094 0.000000
vn 0.968504 -0.244094 0.000000
vn 0.968504 -0.244094 0.000000
vn 0.968504 -0.244094 0.000000
vn -0.968504 0.244094 -0.000000
vn -0.968504 0.244094 -0.000000
vn -0.968504 0.244094 -0.000000
vn -0.968504 0.244094 -0.000000
vn 0.000000 -0.000000 -1.000000
vn 0.000000 -0.000000 -1.000000
vn 0.000000 -0.000000 -1.000000
vn 0.000000 -0.000000 -1.000000
vn -0.244094 -0.968504 0.000000
vn -0.244094 -0.968504 0.000000
vn -0.244094 -0.968504 0.000000
vn -0.244094 -0.968504 0.000000
vn 0.000000 0.000000 1.000000
vn 0.000000 0.000000 1.000000
vn 0.000000 0.000000 1.000000
vn 0.000000 0.000000 1.000000
vn 0.244094 0.968504 -0.000000
vn 0.244094 0.968504 -0.000000
vn 0.244094 0.968504 -0.000000
vn 0.244094 0.968504 -0.000000
vn 0.000000 0.000000 1.000000
vn 0.000000 0.000000 1.000000
vn 0.000000 0.000000 1.000000
vn 0.000000 0.000000 1.000000
vn -0.244094 -0.968504 0.000000
vn -0.244094 -0.968504 0.000000
vn -0.244094 -0.968504 0.000000
vn -0.244094 -0.968504 0.000000
vn 0.000000 0.000000 1.000000
vn 0.000000 0.000000 1.000000
vn 0.000000 0.000000 1.000000
vn 0.000000 0.000000 1.000000
vn 0.244094 0.968504 -0.000000
vn 0.244094 0.968504 -0.000000
vn 0.244094 0.968504 -0.000000
vn 0.244094 0.968504 -0.000000
vn 1.000000 0.000000 0.000000
vn 1.000000 0.000000 0.000000
vn 1.000000 0.000000 0.000000
vn 1.000000 0.000000 0.000000
vn -1.000000 0.000000 0.000000
vn -1.000000 0.000000 0.000000
vn -1.000000 0.000000 0.000000
vn -1.000000 0.000000 0.000000
vn 1.000000 0.000000 0.000000
vn 1.000000 0.000000 0.000000
vn 1.000000 0.000000 0.000000
vn 1.000000 0.000000 0.000000
vn -1.000000 0.000000 0.000000
vn -1.000000 0.000000 0.000000
vn -1.000000 0.000000 0.000000
vn -1.000000 0.000000 0.000000
vn 0.000000 -0.000000 -1.000000
vn 0.000000 -0.000000 -1.000000
vn 0.000000 -0.000000 -1.000000
vn 0.000000 -0.000000 -1.000000
vn 0.000000 -1.000000 0.000000
vn 0.000000 -1.000000 0.000000
vn 0.000000 -1.000000 0.000000
vn 0.000000 -1.000000 0.000000
vn 0.000000 -1.000000 0.000000
vn 0.000000 -1.000000 0.000000
vn 0.000000 -1.000000 0.000000
vn 0.000000 -1.000000 0.000000
vn 0.000000 0.000000 1.000000
vn 0.000000 0.000000 1.000000
vn 0.000000 0.000000 1.000000
vn 0.000000 0.000000 1.000000
vn 0.000000 1.000000 -0.000000
vn 0.000000 1.000000 -0.000000
vn 0.000000 1.000000 -0.000000
vn 0.000000 1.000000 -0.000000
vn 0.000000 1.000000 -0.000000
vn 0.000000 1.000000 -0.000000
vn 0.000000 1.000000 -0.000000
vn 0.000000 1.000000 -0.000000
vn 0.000000 0.000000 1.000000
vn 0.000000 0.000000 1.000000
vn 0.000000 0.000000 1.000000
vn 0.000000 0.000000 1.000000
vn 0.244094 0.968504 -0.000000
vn 0.244094 0.968504 -0.000000
vn 0.244094 0.968504 -0.000000
vn 0.244094 0.968504 -0.000000
vn 0.244094 0.968504 -0.000000
vn 0.244094 0.968504 -0.000000
tan 0.000000 0.000000 0.968504 1.000000
tan 0.000000 0.000000 0.968504 1.000000
tan 0.000000 0.000000 0.968504 1.000000
tan 0.000000 0.000000 0.968504 1.000000
tan 0.000000 0.000000 0.968504 1.000000
tan 0.000000 0.000000 0.968504 1.000000
tan 0.000000 0.000000 0.968504 1.000000
tan 0.000000 0.000000 0.968504 1.000000
tan 0.000000 0.000000 0.968504 1.000000
tan 0.000000 0.000000 0.968504 1.000000
tan 0.000000 0.000000 0.968504 1.000000
tan 0.000000 0.000000 0.968504 1.000000
tan 0.000000 0.000000 0.968504 1.000000
tan 0.000000 0.000000 0.972348 1.000000
tan 0.000000 0.000000 0.968504 1.000000
tan 0.625333 -0.157604 -0.739723 1.000000
tan 0.625333 -0.157604 -0.739723 1.000000
tan 0.602455 -0.151838 -0.758819 1.000000
tan 0.000000 -1.000000 0.000000 1.000000
tan 0.000000 -1.000000 0.000000 1.000000
tan 0.000000 -1.000000 0.000000 1.000000
tan 1.000000 0.000000 0.000000 1.000000
tan 1.000000 0.000000 0.000000 1.000000
tan 1.000000 0.000000 0.000000 1.000000
tan 1.000000 0.000000 0.000000 1.000000
tan 1.000000 0.000000 0.000000 1.000000
tan 1.000000 0.000000 0.000000 1.000000
tan -1.000000 0.000000 0.000000 1.000000
tan -1.000000 0.000000 0.000000 1.000000
tan -1.000000 0.000000 0.000000 1.000000
tan 0.000000 0.000000 0.972348 1.000000
tan 0.000000 0.000000 0.972348 1.000000
tan 0.000000 0.000000 0.972348 1.000000
tan 0.000000 0.000000 0.972348 1.000000
tan 0.000000 0.000000 0.972348 1.000000
tan 0.000000 0.000000 0.972348 1.000000
tan 0.000000 0.000000 0.968504 1.000000
tan 0.000000 0.000000 0.972348 1.000000
tan 0.244094 0.968504 -0.000000 1.000000
tan 0.244094 0.968504 -0.000000 1.000000
tan 0.244094 0.968504 -0.000000 1.000000
tan 0.244094 0.968504 -0.000000 1.000000
tan 0.244094 0.968504 -0.000000 1.000000
tan 0.244094 0.968504 -0.000000 1.000000
tan 0.244094 0.968504 -0.000000 1.000000
tan 0.244094 0.968504 -0.000000 1.000000
tan 0.251969 0.968504 -0.000000 1.000000
tan 0.165354 0.984252 -0.000000 1.000000
tan 0.244094 0.968504 -0.000000 1.000000
tan 0.251969 0.968504 -0.000000 1.000000
tan 0.068634 -0.017298 -0.968504 1.000000
tan 0.000000 -0.000000 -0.968504 1.000000
tan 0.015252 -0.003844 -0.968504 1.000000
tan 0.068634 -0.017298 -0.968504 1.000000
tan 0.968504 -0.244094 0.000000 1.000000
tan 0.968504 -0.244094 0.000000 1.000000
tan 0.968504 -0.244094 0.000000 1.000000
tan 0.968504 -0.244094 0.000000 1.000000
tan 0.000000 0.000000 0.972348 1.000000
tan 0.000000 0.000000 0.968504 1.000000
tan 0.000000 0.000000 0.968504 1.000000
tan 0.000000 0.000000 0.972348 1.000000
tan 0.968504 -0.244094 0.000000 1.000000
tan 0.968504 -0.244094 0.000000 1.000000
tan 0.968504 -0.244094 0.000000 1.000000
tan 0.968504 -0.244094 0.000000 1.000000
tan 0.000000 0.000000 0.968504 1.000000
tan 0.000000 0.000000 0.968504 1.000000
tan 0.000000 0.000000 0.972348 1.000000
tan 0.000000 0.000000 0.972348 1.000000
tan 0.968504 -0.244094 0.000000 1.000000
tan 0.968504 -0.244094 0.000000 1.000000
tan 0.968504 -0.244094 0.000000 1.000000
tan 0.968504 -0.244094 0.000000 1.000000
tan 0.000000 0.000000 0.968504 1.000000
tan 0.000000 0.000000 0.968504 1.000000
tan 0.000000 0.000000 0.972348 1.000000
tan 0.000000 0.000000 0.972348 1.000000
tan 0.000000 1.000000 -0.000000 1.000000
tan 0.000000 1.000000 -0.000000 1.000000
tan 0.000000 1.000000 -0.000000 1.000000
tan 0.000000 1.000000 -0.000000 1.000000
tan 0.000000 -1.000000 0.000000 1.000000
tan 0.000000 -1.000000 0.000000 1.000000
tan 0.000000 -1.000000 0.000000 1.000000
tan 0.000000 -1.000000 0.000000 1.000000
tan 0.000000 0.000000 1.000000 1.000000
tan 0.000000 0.000000 1.000000 1.000000
tan 0.000000 0.000000 1.000000 1.000000
tan 0.000000 0.000000 1.000000 1.000000
tan 0.000000 -0.000000 -1.000000 1.000000
tan 0.000000 -0.000000 -1.000000 1.000000
tan 0.000000 -0.000000 -1.000000 1.000000
tan 0.000000 -0.000000 -1.000000 1.000000
tan 1.000000 0.000000 0.000000 1.000000
tan 1.000000 0.000000 0.000000 1.000000
tan 1.000000 0.000000 0.000000 1.000000
tan 1.000000 0.000000 0.000000 1.000000
tan 1.000000 0.000000 0.000000 1.000000
tan 1.000000 -0.000000 -0.015748 1.000000
tan 1.000000 0.000000 0.000000 1.000000
tan 1.000000 -0.000000 -0.015748 1.000000
tan 1.000000 0.000000 0.000000 1.000000
tan 1.000000 0.000000 0.000000 1.000000
tan 1.000000 0.000000 0.000000 1.000000
tan 1.000000 0.000000 0.000000 1.000000
tan 0.000000 -1.000000 0.000000 1.000000
tan 0.000000 -1.000000 0.000000 1.000000
tan 0.000000 -1.000000 0.000000 1.000000
tan 0.000000 -1.000000 0.000000 1.000000
tan -1.000000 0.000000 0.000000 1.000000
tan -1.000000 0.000000 0.000000 1.000000
tan -1.000000 0.000000 0.000000 1.000000
tan -1.000000 0.000000 0.000000 1.000000
tan 1.000000 0.000000 0.000000 1.000000
tan 1.000000 0.000000 0.000000 1.000000
tan 1.000000 0.000000 0.000000 1.000000
tan 1.000000 0.000000 0.000000 1.000000
tan 0.000000 -1.000000 0.000000 1.000000
tan 0.000000 -1.000000 0.000000 1.000000
tan 0.000000 -1.000000 0.000000 1.000000
tan 0.000000 -1.000000 0.000000 1.000000
tan 0.007626 -0.001922 0.968504 1.000000
tan 0.015252 -0.003844 0.972348 1.000000
tan 0.015252 -0.003844 0.968504 1.000000
tan 0.000000 0.000000 0.968504 1.000000
tan 0.007626 -0.001922 0.968504 1.000000
tan 0.007626 -0.001922 0.972348 1.000000
f 3/3/3 2/2/2 1/1/1
f 6/6/6 5/5/5 4/4/4
f 9/9/9 8/8/8 7/7/7
f 12/12/12 11/11/11 10/10/10
f 15/15/15 14/14/14 13/13/13
f 18/18/18 17/17/17 16/16/16
f 21/21/21 20/20/20 19/19/19
f 24/24/24 23/23/23 22/22/22
f 27/27/27 26/26/26 25/25/25
f 30/30/30 29/29/29 28/28/28
f 33/33/33 32/32/32 31/31/31
f 34/34/34 32/32/32 33/33/33
f 37/37/37 36/36/36 35/35/35
f 38/38/38 35/35/35 36/36/36
f 41/41/41 40/40/40 39/39/39
f 40/40/40 41/41/41 42/42/42
f 45/45/45 44/44/44 43/43/43
f 46/46/46 45/45/45 43/43/43
f 49/49/49 48/48/48 47/47/47
f 50/50/50 47/47/47 48/48/48
f 53/53/53 52/52/52 51/51/51
f 54/54/54 53/53/53 51/51/51
f 57/57/57 56/56/56 55/55/55
f 58/58/58 56/56/56 57/57/57
f 61/61/61 60/60/60 59/59/59
f 62/62/62 59/59/59 60/60/60
f 65/65/65 64/64/64 63/63/63
f 63/63/63 66/66/66 65/65/65
f 69/69/69 68/68/68 67/67/67
f 70/70/70 68/68/68 69/69/69
f 73/73/73 72/72/72 71/71/71
f 74/74/74 71/71/71 72/72/72
f 77/77/77 76/76/76 75/75/75
f 78/78/78 76/76/76 77/77/77
f 81/81/81 80/80/80 79/79/79
f 82/82/82 79/79/79 80/80/80
f 85/85/85 84/84/84 83/83/83
f 86/86/86 83/83/83 84/84/84
f 89/89/89 88/88/88 87/87/87
f 88/88/88 89/89/89 90/90/90
f 93/93/93 92/92/92 91/91/91
f 94/94/94 93/93/93 91/91/91
f 97/97/97 96/96/96 95/95/95
f 98/98/98 97/97/97 95/95/95
f 101/101/101 100/100/100 99/99/99
f 102/102/102 99/99/99 100/100/100
f 105/105/105 104/104/104 103/103/103
f 106/106/106 104/104/104 105/105/105
f 109/109/109 108/108/108 107/107/107
f 110/110/110 107/107/107 108/108/108
f 113/113/113 112/112/112 111/111/111
f 114/114/114 113/113/113 111/111/111
f 117/117/117 116/116/116 115/115/115
f 118/118/118 117/117/117 115/115/115
f 121/121/121 120/120/120 119/119/119
f 122/122/122 120/120/120 121/121/121
f 125/125/125 124/124/124 123/123/123
f 125/125/125 123/123/123 126/126/126
f 127/127/127 125/125/125 126/126/126
f 128/128/128 127/127/127 126/126/126
