mtllib SM_Crystalball_LOD4.mtl
g SM_Crystalball_LOD4
#Vertices 66
#Indices 150
#Section 0 Offset 0 NumIndices 150 MaterialIndex 0 MI_Books
v 0.056706 -0.103379 -0.063951
v 0.058835 -0.025635 -0.057697
v 0.000605 -0.025635 -0.071193
v -0.057625 -0.102843 -0.057697
v -0.057625 -0.025635 -0.057697
v 0.056566 -0.025152 0.065008
v 0.058835 -0.102843 0.058764
v 0.000605 -0.102843 0.072260
v -0.057625 -0.025635 0.058764
v -0.063944 -0.103348 0.056531
v -0.057625 -0.102843 -0.057697
v -0.057625 -0.025635 -0.057697
v -0.071122 -0.025635 0.000533
v -0.063944 -0.103348 0.056531
v -0.057625 -0.025635 0.058764
v 0.056706 -0.103379 -0.063951
v 0.058835 -0.102843 0.058764
v 0.072331 -0.102843 0.000533
v 0.000605 -0.102843 0.072260
v -0.063944 -0.103348 0.056531
v -0.057625 -0.102843 -0.057697
v 0.072331 -0.025635 0.000533
v 0.058835 -0.102843 0.058764
v 0.056566 -0.025152 0.065008
v 0.072331 -0.102843 0.000533
v 0.056706 -0.103379 -0.063951
v 0.058835 -0.025635 -0.057697
v 0.056566 -0.025152 0.065008
v -0.057625 -0.025635 0.058764
v -0.071122 -0.025635 0.000533
v -0.057625 -0.025635 -0.057697
v 0.000605 -0.025635 -0.071193
v 0.058835 -0.025635 -0.057697
v 0.072331 -0.025635 0.000533
v 0.066792 0.016210 0.048424
v -0.000726 0.110707 -0.000647
v 0.045441 0.088647 -0.000402
v 0.077136 -0.013717 -0.000273
v -0.000514 -0.055548 -0.000566
v -0.000726 0.110707 -0.000647
v 0.041427 0.084144 -0.030711
v 0.025520 -0.008161 -0.081366
v -0.000514 -0.055548 -0.000566
v -0.000726 0.110707 -0.000647
v -0.021817 -0.000760 -0.074162
v -0.000514 -0.055548 -0.000566
v -0.000726 0.110707 -0.000647
v -0.013035 0.091488 -0.039156
v -0.070943 0.014839 -0.054404
v -0.000514 -0.055548 -0.000566
v -0.000726 0.110707 -0.000647
v -0.070866 -0.016553 0.000234
v -0.000514 -0.055548 -0.000566
v -0.000726 0.110707 -0.000647
v -0.051726 0.074870 0.036531
v -0.025406 -0.009943 0.074065
v -0.000514 -0.055548 -0.000566
v -0.012700 0.092705 0.036925
v -0.000726 0.110707 -0.000647
v 0.017140 0.080917 0.052786
v -0.000726 0.110707 -0.000647
v 0.021915 -0.015442 0.067281
v -0.000514 -0.055548 -0.000566
v 0.066792 0.016210 0.048424
v -0.000514 -0.055548 -0.000566
v -0.000726 0.110707 -0.000647
vt 0.751953 0.504150
vt 0.695312 0.506592
vt 0.696777 0.467773
vt 0.747559 0.418457
vt 0.685547 0.428711
vt 0.619141 0.508057
vt 0.577148 0.514648
vt 0.575684 0.483887
vt 0.611328 0.445312
vt 0.566895 0.450195
vt 0.747559 0.418457
vt 0.685547 0.428711
vt 0.677246 0.380371
vt 0.732910 0.324707
vt 0.669434 0.331543
vt 0.509766 0.524658
vt 0.577148 0.514648
vt 0.546875 0.527588
vt 0.575684 0.483887
vt 0.566406 0.449707
vt 0.503906 0.461914
vt 0.695312 0.549805
vt 0.750977 0.593018
vt 0.694824 0.597656
vt 0.750977 0.549805
vt 0.751465 0.501953
vt 0.695312 0.506592
vt 0.619141 0.512207
vt 0.611328 0.445312
vt 0.645020 0.427734
vt 0.685547 0.428711
vt 0.696777 0.467773
vt 0.695312 0.506592
vt 0.657227 0.517822
vt 0.930664 0.396484
vt 0.921387 0.494629
vt 0.911133 0.454102
vt 0.910156 0.375488
vt 0.918457 0.311523
vt 0.900391 0.494141
vt 0.893066 0.449707
vt 0.874023 0.380371
vt 0.889648 0.312012
vt 0.886230 0.493652
vt 0.857910 0.384277
vt 0.866211 0.311523
vt 0.865234 0.494629
vt 0.857910 0.458984
vt 0.841309 0.395020
vt 0.846680 0.312012
vt 0.847656 0.494141
vt 0.822266 0.372070
vt 0.831543 0.312012
vt 0.820801 0.493164
vt 0.805176 0.439941
vt 0.786621 0.377441
vt 0.802246 0.312500
vt 0.786133 0.460938
vt 0.797363 0.493652
vt 0.769531 0.445801
vt 0.777832 0.494629
vt 0.769531 0.373535
vt 0.777344 0.311523
vt 0.748535 0.396484
vt 0.760742 0.311523
vt 0.757324 0.494629
vt1 0.638184 0.768799
vt1 0.495361 0.774902
vt1 0.499268 0.676758
vt1 0.627441 0.552490
vt1 0.470703 0.578369
vt1 0.304443 0.778198
vt1 0.198730 0.794922
vt1 0.195068 0.716797
vt1 0.284424 0.620117
vt1 0.172974 0.632080
vt1 0.627441 0.552490
vt1 0.470703 0.578369
vt1 0.450439 0.456543
vt1 0.589844 0.317383
vt1 0.430176 0.334473
vt1 0.030319 0.820068
vt1 0.198730 0.794922
vt1 0.122437 0.827637
vt1 0.195068 0.716797
vt1 0.171753 0.631836
vt1 0.014732 0.662354
vt1 0.495361 0.883484
vt1 0.635254 0.991920
vt1 0.494629 1.003902
vt1 0.635254 0.883545
vt1 0.636230 0.763306
vt1 0.495361 0.774902
vt1 0.304199 0.789062
vt1 0.284424 0.620117
vt1 0.369385 0.576416
vt1 0.470703 0.578369
vt1 0.499268 0.676758
vt1 0.495361 0.774902
vt1 0.399658 0.802979
vt1 0.213013 0.563965
vt1 0.001770 0.536865
vt1 0.088379 0.505371
vt1 0.258057 0.503418
vt1 0.395264 0.527100
vt1 0.002249 0.473633
vt1 0.098328 0.451660
vt1 0.246948 0.394531
vt1 0.394531 0.440918
vt1 0.003218 0.431641
vt1 0.239014 0.347656
vt1 0.395020 0.371582
vt1 0.001526 0.368164
vt1 0.077820 0.347168
vt1 0.215942 0.297852
vt1 0.394043 0.312988
vt1 0.002607 0.315918
vt1 0.265137 0.240234
vt1 0.393799 0.268555
vt1 0.004738 0.235352
vt1 0.119385 0.189941
vt1 0.253174 0.133789
vt1 0.393555 0.181152
vt1 0.074341 0.132812
vt1 0.004028 0.166016
vt1 0.106812 0.083008
vt1 0.001121 0.107910
vt1 0.262207 0.082520
vt1 0.395020 0.106445
vt1 0.212769 0.020996
vt1 0.395264 0.057129
vt1 0.001590 0.046875
vn 0.204724 -0.000000 -0.976378
vn 0.228346 -0.000000 -0.976378
vn 0.000000 -0.000000 -1.000000
vn -0.228346 -0.000000 -0.976378
vn -0.228346 -0.000000 -0.976378
vn 0.204724 0.000000 0.976378
vn 0.228346 0.000000 0.976378
vn 0.000000 0.000000 1.000000
vn -0.228346 0.000000 0.976378
vn -0.251969 0.000000 0.968504
vn -0.976378 -0.000000 -0.228346
vn -0.976378 -0.000000 -0.228346
vn -1.000000 0.000000 0.000000
vn -0.976378 0.000000 0.204724
vn -0.976378 0.000000 0.228346
vn 0.000000 -1.000000 0.000000
vn 0.000000 -1.000000 0.000000
vn 0.000000 -1.000000 0.000000
vn 0.000000 -1.000000 0.000000
vn 0.000000 -1.000000 0.000000
vn 0.000000 -1.000000 0.000000
vn 1.000000 0.000000 0.000000
vn 0.976378 0.000000 0.228346
vn 0.968504 0.000000 0.251968
vn 1.000000 0.000000 0.000000
vn 0.968504 -0.000000 -0.251968
vn 0.976378 -0.000000 -0.228346
vn 0.000000 1.000000 -0.000000
vn 0.000000 1.000000 -0.000000
vn 0.000000 1.000000 -0.000000
vn 0.000000 1.000000 -0.000000
vn 0.000000 1.000000 -0.000000
vn 0.000000 1.000000 -0.000000
vn 0.000000 1.000000 -0.000000
vn 0.811024 -0.118110 0.574803
vn 0.015748 1.000000 -0.000000
vn 0.629921 0.771653 -0.000000
vn 0.905512 -0.417323 -0.023622
vn -0.039370 -1.000000 -0.007874
vn -0.007874 1.000000 -0.007874
vn 0.582677 0.692913 -0.417323
vn 0.275591 -0.330709 -0.905512
vn 0.062992 -1.000000 -0.047244
vn 0.007874 1.000000 -0.000000
vn -0.283465 -0.299213 -0.913386
vn 0.023622 -1.000000 0.039370
vn -0.015748 1.000000 0.039370
vn -0.173228 0.818897 -0.543307
vn -0.795276 -0.110236 -0.598425
vn -0.015748 -1.000000 0.007874
vn 0.007874 1.000000 -0.007874
vn -0.874016 -0.480315 0.031496
vn 0.000000 -1.000000 0.000000
vn -0.094488 0.992126 -0.000000
vn -0.685039 0.559055 0.464567
vn -0.299213 -0.377953 0.874016
vn -0.094488 -0.992126 0.062992
vn -0.165354 0.834646 0.527559
vn 0.000000 1.000000 0.007874
vn 0.228346 0.661417 0.716535
vn -0.023622 1.000000 -0.047244
vn 0.283465 -0.464567 0.842520
vn -0.007874 -1.000000 -0.047244
vn 0.803150 -0.110236 0.582677
vn -0.023622 -1.000000 -0.047244
vn 0.007874 1.000000 0.007874
tan -0.976378 -0.030752 -0.204724 1.000000
tan -0.976378 -0.000000 -0.228346 1.000000
tan -1.000000 -0.086614 0.000000 1.000000
tan -0.968690 -0.115320 0.226548 1.000000
tan -0.961002 -0.184512 0.224750 1.000000
tan -0.968690 0.107632 0.203112 1.000000
tan -0.968690 0.099944 0.226548 1.000000
tan -0.992126 0.141732 -0.000000 1.000000
tan -0.968690 0.146072 -0.226548 1.000000
tan -0.953252 0.175398 -0.248000 1.000000
tan -0.226548 -0.146072 0.968690 1.000000
tan -0.226548 -0.146072 0.968690 1.000000
tan 0.000000 -0.157480 0.984252 1.000000
tan 0.203112 -0.146072 0.968690 1.000000
tan 0.226548 -0.146072 0.968690 1.000000
tan -0.984252 0.000000 0.165354 1.000000
tan -0.984252 0.000000 0.165354 1.000000
tan -0.984252 0.000000 0.173228 1.000000
tan -0.992126 0.000000 0.141732 1.000000
tan -0.992126 0.000000 0.133858 1.000000
tan -0.992126 0.000000 0.149606 1.000000
tan 0.000000 -0.000000 -1.000000 1.000000
tan 0.228346 -0.000000 -0.976378 1.000000
tan 0.251969 -0.000000 -0.968504 1.000000
tan 0.000000 -0.000000 -1.000000 1.000000
tan -0.251969 -0.000000 -0.968504 1.000000
tan -0.228346 -0.000000 -0.976378 1.000000
tan -1.000000 -0.000000 -0.078740 1.000000
tan -0.984252 -0.000000 -0.188976 1.000000
tan -0.976378 -0.000000 -0.220472 1.000000
tan -0.984252 -0.000000 -0.157480 1.000000
tan -0.992126 -0.000000 -0.102362 1.000000
tan -0.992126 -0.000000 -0.094488 1.000000
tan -1.000000 -0.000000 -0.047244 1.000000
tan -0.090954 -0.838180 -0.043896 1.000000
tan 0.921260 -0.014508 0.393701 1.000000
tan 0.771654 -0.629921 -0.001116 1.000000
tan -0.417323 -0.905512 0.000000 1.000000
tan -0.913386 0.039184 -0.409449 1.000000
tan 0.913386 0.003968 -0.409449 1.000000
tan 0.676545 -0.657635 -0.147312 1.000000
tan 0.002604 -0.903342 0.330709 1.000000
tan -0.897638 -0.077376 0.440945 1.000000
tan 0.527559 -0.004154 -0.850394 1.000000
tan -0.002356 -0.911154 0.299213 1.000000
tan -0.086614 0.037324 1.000000 1.000000
tan 0.086614 0.040734 -1.000000 1.000000
tan -0.077376 -0.555397 -0.812449 1.000000
tan 0.109368 -0.850270 0.011284 1.000000
tan 0.637795 -0.003968 0.771653 1.000000
tan -0.582677 -0.001798 -0.811023 1.000000
tan 0.480315 -0.873520 0.007564 1.000000
tan 0.944882 0.000000 0.322835 1.000000
tan -0.984314 -0.093744 0.101556 1.000000
tan -0.554653 -0.730857 0.061628 1.000000
tan -0.005952 -0.869304 -0.377953 1.000000
tan 0.843698 -0.113088 -0.515593 1.000000
tan -0.059148 -0.539277 0.834646 1.000000
tan -0.511811 -0.006758 0.858268 1.000000
tan -0.005208 -0.714737 0.661417 1.000000
tan -0.094488 0.044640 0.992126 1.000000
tan 0.013950 -0.838056 -0.466799 1.000000
tan 0.094488 0.046128 -0.992126 1.000000
tan -0.137764 -0.816913 0.035340 1.000000
tan -0.692913 0.050592 -0.724409 1.000000
tan 0.566929 -0.010974 0.826772 1.000000
f 3/3/3 2/2/2 1/1/1
f 1/1/1 4/4/4 3/3/3
f 3/3/3 4/4/4 5/5/5
f 8/8/8 7/7/7 6/6/6
f 6/6/6 9/9/9 8/8/8
f 8/8/8 9/9/9 10/10/10
f 13/13/13 12/12/12 11/11/11
f 14/14/14 13/13/13 11/11/11
f 15/15/15 13/13/13 14/14/14
f 18/18/18 17/17/17 16/16/16
f 19/19/19 16/16/16 17/17/17
f 19/19/19 20/20/20 16/16/16
f 20/20/20 21/21/21 16/16/16
f 24/24/24 23/23/23 22/22/22
f 23/23/23 25/25/25 22/22/22
f 26/26/26 22/22/22 25/25/25
f 22/22/22 26/26/26 27/27/27
f 30/30/30 29/29/29 28/28/28
f 30/30/30 28/28/28 31/31/31
f 31/31/31 28/28/28 32/32/32
f 32/32/32 28/28/28 33/33/33
f 34/34/34 33/33/33 28/28/28
f 37/37/37 36/36/36 35/35/35
f 35/35/35 39/39/39 38/38/38
f 35/35/35 38/38/38 37/37/37
f 41/41/41 40/40/40 37/37/37
f 37/37/37 38/38/38 41/41/41
f 42/42/42 41/41/41 38/38/38
f 38/38/38 43/43/43 42/42/42
f 44/44/44 41/41/41 42/42/42
f 42/42/42 46/46/46 45/45/45
f 42/42/42 48/48/48 47/47/47
f 45/45/45 48/48/48 42/42/42
f 48/48/48 45/45/45 49/49/49
f 50/50/50 49/49/49 45/45/45
f 48/48/48 49/49/49 51/51/51
f 53/53/53 52/52/52 49/49/49
f 49/49/49 55/55/55 54/54/54
f 52/52/52 55/55/55 49/49/49
f 57/57/57 56/56/56 52/52/52
f 55/55/55 52/52/52 56/56/56
f 59/59/59 55/55/55 58/58/58
f 58/58/58 55/55/55 56/56/56
f 61/61/61 58/58/58 60/60/60
f 60/60/60 58/58/58 56/56/56
f 63/63/63 62/62/62 56/56/56
f 62/62/62 60/60/60 56/56/56
f 60/60/60 62/62/62 64/64/64
f 64/64/64 62/62/62 65/65/65
f 64/64/64 66/66/66 60/60/60
