mtllib SM_Crystalball_LOD3.mtl
g SM_Crystalball_LOD3
#Vertices 99
#Indices 294
#Section 0 Offset 0 NumIndices 294 MaterialIndex 0 MI_Books
v 0.058835 -0.102843 -0.057697
v 0.058835 -0.025635 -0.057697
v 0.000605 -0.025635 -0.071193
v 0.000613 -0.102849 -0.071163
v -0.057625 -0.102843 -0.057697
v -0.057625 -0.025635 -0.057697
v 0.058835 -0.025635 0.058764
v 0.058835 -0.102843 0.058764
v 0.000605 -0.102843 0.072260
v 0.000612 -0.025629 0.072230
v -0.057625 -0.025635 0.058764
v -0.057625 -0.102843 0.058764
v 0.072331 -0.025635 0.000533
v 0.058835 -0.102843 0.058764
v 0.058835 -0.025635 0.058764
v 0.072331 -0.102843 0.000533
v 0.058835 -0.102843 -0.057697
v 0.058835 -0.025635 -0.057697
v -0.057625 -0.102843 0.058764
v -0.071122 -0.025635 0.000533
v -0.057625 -0.025635 0.058764
v -0.071122 -0.102843 0.000533
v -0.057625 -0.102843 -0.057697
v -0.057625 -0.025635 -0.057697
v -0.000417 0.105370 -0.000468
v 0.045441 0.088647 -0.000402
v 0.020578 0.098238 0.014835
v 0.047947 0.071840 0.034748
v -0.000417 0.105370 -0.000468
v 0.041427 0.084144 -0.030711
v 0.079101 0.023048 -0.000407
v 0.058896 0.024449 0.042615
v 0.040679 -0.030642 0.029418
v 0.046103 -0.034540 -0.000433
v -0.000613 -0.051272 -0.000336
v 0.038497 -0.031747 -0.028574
v -0.000613 -0.051272 -0.000336
v 0.015048 -0.034395 -0.047727
v -0.000613 -0.051272 -0.000336
v 0.053919 -0.000128 -0.042450
v 0.050329 0.042976 -0.051904
v 0.029241 0.022707 -0.068511
v 0.016731 0.082776 -0.052404
v -0.000417 0.105370 -0.000468
v -0.011680 0.029237 -0.073618
v -0.016526 -0.028900 -0.051301
v -0.000613 -0.051272 -0.000336
v -0.000417 0.105370 -0.000468
v -0.013035 0.091488 -0.039156
v -0.030291 0.055212 -0.062068
v -0.057536 0.005651 -0.046419
v -0.040094 -0.031509 -0.029239
v -0.000613 -0.051272 -0.000336
v -0.041412 0.084614 -0.030052
v -0.000417 0.105370 -0.000468
v -0.047413 -0.033935 -0.000444
v -0.000613 -0.051272 -0.000336
v -0.070062 0.037915 -0.026331
v -0.046442 0.088294 -0.000473
v -0.000417 0.105370 -0.000468
v -0.072545 0.013608 0.012727
v -0.041031 -0.030683 0.028980
v -0.000613 -0.051272 -0.000336
v -0.066445 0.051185 0.027075
v -0.041656 0.084632 0.029423
v -0.000417 0.105370 -0.000468
v -0.051307 0.009501 0.051149
v -0.015894 -0.031613 0.047234
v -0.000613 -0.051272 -0.000336
v -0.022882 0.037128 0.071975
v -0.012700 0.092705 0.036925
v -0.000417 0.105370 -0.000468
v 0.013309 -0.036199 0.041437
v -0.000613 -0.051272 -0.000336
v 0.017140 0.080917 0.052786
v -0.000417 0.105370 -0.000468
v 0.029071 0.016594 0.070954
v -0.000613 -0.051272 -0.000336
v 0.040679 -0.030642 0.029418
v 0.058896 0.024449 0.042615
v 0.047947 0.071840 0.034748
v 0.020578 0.098238 0.014835
v -0.000417 0.105370 -0.000468
v 0.058835 -0.025635 0.058764
v 0.000612 -0.025629 0.072230
v 0.072331 -0.025635 0.000533
v 0.058835 -0.025635 -0.057697
v 0.000605 -0.025635 -0.071193
v -0.057625 -0.025635 -0.057697
v -0.071122 -0.025635 0.000533
v -0.057625 -0.025635 0.058764
v 0.058835 -0.102843 -0.057697
v 0.000613 -0.102849 -0.071163
v 0.072331 -0.102843 0.000533
v 0.058835 -0.102843 0.058764
v 0.000605 -0.102843 0.072260
v -0.057625 -0.102843 0.058764
v -0.071122 -0.102843 0.000533
v -0.057625 -0.102843 -0.057697
vt 0.750977 0.506836
vt 0.695312 0.506592
vt 0.696777 0.467773
vt 0.750977 0.463867
vt 0.747559 0.418457
vt 0.685547 0.428711
vt 0.620117 0.510254
vt 0.577148 0.514648
vt 0.575684 0.483887
vt 0.613770 0.478027
vt 0.611328 0.445312
vt 0.567871 0.453125
vt 0.695312 0.549805
vt 0.750977 0.593018
vt 0.695312 0.593018
vt 0.750977 0.549805
vt 0.750977 0.506836
vt 0.695312 0.506592
vt 0.731934 0.321289
vt 0.677246 0.380371
vt 0.669434 0.331543
vt 0.739746 0.370117
vt 0.747559 0.418457
vt 0.685547 0.428711
vt 0.918457 0.493164
vt 0.911133 0.454102
vt 0.927246 0.471680
vt 0.928223 0.437988
vt 0.900391 0.492676
vt 0.893066 0.449707
vt 0.910645 0.400391
vt 0.928223 0.401367
vt 0.928223 0.356934
vt 0.911133 0.352051
vt 0.918457 0.312988
vt 0.893066 0.354004
vt 0.902832 0.312988
vt 0.875000 0.354004
vt 0.884277 0.314453
vt 0.892090 0.382812
vt 0.888184 0.415039
vt 0.877930 0.399902
vt 0.875000 0.447266
vt 0.886230 0.491699
vt 0.861816 0.404785
vt 0.857422 0.358887
vt 0.865723 0.312988
vt 0.865723 0.493164
vt 0.857910 0.458984
vt 0.853027 0.424316
vt 0.840820 0.387207
vt 0.840332 0.354492
vt 0.846680 0.313965
vt 0.839844 0.450195
vt 0.846680 0.492676
vt 0.822754 0.352539
vt 0.831543 0.313965
vt 0.832031 0.411133
vt 0.822754 0.454102
vt 0.832031 0.492676
vt 0.816895 0.393555
vt 0.804199 0.355469
vt 0.812012 0.313965
vt 0.810547 0.421387
vt 0.804688 0.450684
vt 0.812012 0.492188
vt 0.799805 0.390137
vt 0.786621 0.355469
vt 0.797852 0.314453
vt 0.786133 0.410156
vt 0.786133 0.460938
vt 0.797363 0.491699
vt 0.768555 0.350098
vt 0.777344 0.313477
vt 0.769531 0.445801
vt 0.777344 0.493164
vt 0.767090 0.395508
vt 0.760742 0.313477
vt 0.750977 0.356934
vt 0.751465 0.401367
vt 0.751465 0.437988
vt 0.751953 0.471680
vt 0.760742 0.493164
vt 0.620117 0.510254
vt 0.610352 0.478516
vt 0.657227 0.517822
vt 0.695312 0.506592
vt 0.696777 0.467773
vt 0.685547 0.428711
vt 0.645020 0.427734
vt 0.611328 0.445312
vt 0.513672 0.525635
vt 0.501465 0.495117
vt 0.546875 0.527588
vt 0.577148 0.514648
vt 0.575684 0.483887
vt 0.567871 0.453125
vt 0.534668 0.450195
vt 0.503906 0.461914
vt1 0.635254 0.775146
vt1 0.495361 0.774902
vt1 0.499268 0.676758
vt1 0.635742 0.666748
vt1 0.627441 0.552490
vt1 0.470703 0.578369
vt1 0.307129 0.783813
vt1 0.198730 0.794922
vt1 0.195068 0.716797
vt1 0.290527 0.703125
vt1 0.284424 0.620117
vt1 0.175903 0.640381
vt1 0.495361 0.883484
vt1 0.635254 0.991920
vt1 0.495361 0.991936
vt1 0.635254 0.883545
vt1 0.635254 0.775146
vt1 0.495361 0.774902
vt1 0.587402 0.308594
vt1 0.450439 0.456543
vt1 0.430176 0.334473
vt1 0.607422 0.430664
vt1 0.627441 0.552490
vt1 0.470703 0.578369
vt1 0.004906 0.527100
vt1 0.088379 0.505371
vt1 0.050964 0.553955
vt1 0.123108 0.556152
vt1 0.006126 0.474121
vt1 0.098328 0.451660
vt1 0.204102 0.503662
vt1 0.202393 0.556885
vt1 0.298096 0.557373
vt1 0.308105 0.505127
vt1 0.391846 0.527588
vt1 0.303467 0.451660
vt1 0.391846 0.480469
vt1 0.304199 0.397461
vt1 0.389404 0.424805
vt1 0.241821 0.448242
vt1 0.172607 0.437988
vt1 0.204956 0.406250
vt1 0.103577 0.397461
vt1 0.007320 0.430664
vt1 0.194824 0.358887
vt1 0.293945 0.346191
vt1 0.391602 0.370117
vt1 0.004955 0.370117
vt1 0.077820 0.347168
vt1 0.152710 0.333008
vt1 0.232544 0.296387
vt1 0.302490 0.294434
vt1 0.390381 0.313477
vt1 0.097107 0.292969
vt1 0.006035 0.313965
vt1 0.306885 0.241699
vt1 0.390137 0.268555
vt1 0.181274 0.269531
vt1 0.088928 0.241699
vt1 0.005997 0.269531
vt1 0.219238 0.224609
vt1 0.300781 0.187500
vt1 0.389893 0.210449
vt1 0.159302 0.205566
vt1 0.095947 0.187988
vt1 0.006386 0.210449
vt1 0.226074 0.173828
vt1 0.300781 0.134766
vt1 0.388916 0.166992
vt1 0.182983 0.133301
vt1 0.074341 0.132812
vt1 0.007500 0.166504
vt1 0.312256 0.080566
vt1 0.391357 0.106934
vt1 0.106812 0.083008
vt1 0.004841 0.106445
vt1 0.214233 0.075195
vt1 0.391602 0.057129
vt1 0.298096 0.027832
vt1 0.202271 0.028809
vt1 0.123169 0.029297
vt1 0.050995 0.030762
vt1 0.004932 0.056641
vt1 0.307129 0.783813
vt1 0.281982 0.703857
vt1 0.399658 0.802979
vt1 0.495361 0.774902
vt1 0.499268 0.676758
vt1 0.470703 0.578369
vt1 0.369385 0.576416
vt1 0.284424 0.620117
vt1 0.039703 0.822510
vt1 0.009026 0.745361
vt1 0.122437 0.827637
vt1 0.198730 0.794922
vt1 0.195068 0.716797
vt1 0.175903 0.640381
vt1 0.092407 0.632080
vt1 0.014732 0.662354
vn 0.228346 -0.000000 -0.976378
vn 0.228346 -0.000000 -0.976378
vn 0.000000 -0.000000 -1.000000
vn 0.000000 -0.000000 -1.000000
vn -0.228346 -0.000000 -0.976378
vn -0.228346 -0.000000 -0.976378
vn 0.228346 0.000000 0.976378
vn 0.228346 0.000000 0.976378
vn 0.000000 0.000000 1.000000
vn 0.000000 0.000000 1.000000
vn -0.228346 0.000000 0.976378
vn -0.228346 0.000000 0.976378
vn 1.000000 0.000000 0.000000
vn 0.976378 0.000000 0.228346
vn 0.976378 0.000000 0.228346
vn 1.000000 0.000000 0.000000
vn 0.976378 -0.000000 -0.228346
vn 0.976378 -0.000000 -0.228346
vn -0.976378 0.000000 0.228346
vn -1.000000 0.000000 0.000000
vn -0.976378 0.000000 0.228346
vn -1.000000 0.000000 0.000000
vn -0.976378 -0.000000 -0.228346
vn -0.976378 -0.000000 -0.228346
vn -0.023622 1.000000 -0.000000
vn 0.629921 0.771653 -0.000000
vn 0.314961 0.921260 0.220472
vn 0.685039 0.543307 0.496063
vn 0.015748 1.000000 -0.015748
vn 0.582677 0.692913 -0.417323
vn 1.000000 -0.039370 0.000000
vn 0.811024 -0.023622 0.590551
vn 0.582677 -0.700787 0.417323
vn 0.637795 -0.771653 0.000000
vn -0.023622 -1.000000 0.000000
vn 0.559055 -0.732283 -0.385827
vn -0.023622 -1.000000 0.000000
vn 0.196850 -0.748031 -0.637795
vn -0.007874 -1.000000 0.007874
vn 0.755906 -0.307087 -0.582677
vn 0.692913 0.181102 -0.700787
vn 0.425197 -0.062992 -0.905512
vn 0.220472 0.677165 -0.700787
vn 0.015748 1.000000 -0.023622
vn -0.165354 0.031496 -0.984252
vn -0.212598 -0.685039 -0.692913
vn 0.007874 -1.000000 0.023622
vn 0.007874 1.000000 0.023622
vn -0.173228 0.818897 -0.543307
vn -0.401575 0.354331 -0.842520
vn -0.763780 -0.244095 -0.598425
vn -0.543307 -0.732283 -0.409449
vn -0.023622 -1.000000 -0.007874
vn -0.566929 0.708661 -0.417323
vn -0.015748 1.000000 -0.015748
vn -0.645669 -0.763779 0.000000
vn -0.023622 -1.000000 -0.007874
vn -0.929134 0.118110 -0.354331
vn -0.637795 0.771653 -0.000000
vn -0.023622 1.000000 -0.007874
vn -0.968504 -0.181102 0.188976
vn -0.566929 -0.716535 0.409449
vn -0.023622 -1.000000 0.015748
vn -0.881890 0.283465 0.370079
vn -0.566929 0.708661 0.409449
vn -0.023622 1.000000 0.007874
vn -0.700787 -0.196850 0.685039
vn -0.204724 -0.724409 0.661417
vn -0.023622 -1.000000 0.023622
vn -0.299213 0.125984 0.944882
vn -0.165354 0.834646 0.527559
vn -0.023622 1.000000 0.023622
vn 0.188976 -0.787401 0.582677
vn -0.007874 -1.000000 -0.023622
vn 0.228346 0.661417 0.716535
vn -0.007874 1.000000 -0.023622
vn 0.385827 -0.125984 0.913386
vn -0.007874 -1.000000 -0.023622
vn 0.574803 -0.700787 0.425197
vn 0.811024 -0.023622 0.582677
vn 0.677165 0.543307 0.496063
vn 0.307087 0.921260 0.236220
vn -0.007874 1.000000 -0.023622
vn 0.000000 1.000000 -0.000000
vn 0.000000 1.000000 -0.000000
vn 0.000000 1.000000 -0.000000
vn 0.000000 1.000000 -0.000000
vn 0.000000 1.000000 -0.000000
vn 0.000000 1.000000 -0.000000
vn 0.000000 1.000000 -0.000000
vn 0.000000 1.000000 -0.000000
vn 0.000000 -1.000000 0.000000
vn 0.000000 -1.000000 0.000000
vn 0.000000 -1.000000 0.000000
vn 0.000000 -1.000000 0.000000
vn 0.000000 -1.000000 0.000000
vn 0.000000 -1.000000 0.000000
vn 0.000000 -1.000000 0.000000
vn 0.000000 -1.000000 0.000000
tan -0.976378 -0.038440 -0.228346 1.000000
tan -0.976378 -0.000000 -0.228346 1.000000
tan -1.000000 -0.086614 0.000000 1.000000
tan -1.000000 -0.070866 0.000000 1.000000
tan -0.968690 -0.115320 0.226548 1.000000
tan -0.961002 -0.184512 0.224750 1.000000
tan -0.968690 0.107632 0.226548 1.000000
tan -0.968690 0.099944 0.226548 1.000000
tan -0.992126 0.141732 -0.000000 1.000000
tan -0.992126 0.125984 -0.000000 1.000000
tan -0.968690 0.146072 -0.226548 1.000000
tan -0.961002 0.184512 -0.224750 1.000000
tan 0.000000 -0.000000 -1.000000 1.000000
tan 0.228346 -0.000000 -0.976378 1.000000
tan 0.228346 -0.000000 -0.976378 1.000000
tan 0.000000 -0.000000 -1.000000 1.000000
tan -0.228346 -0.000000 -0.976378 1.000000
tan -0.228346 -0.000000 -0.976378 1.000000
tan 0.226548 -0.146072 0.968690 1.000000
tan 0.000000 -0.157480 0.984252 1.000000
tan 0.226548 -0.146072 0.968690 1.000000
tan 0.000000 -0.157480 0.984252 1.000000
tan -0.226548 -0.146072 0.968690 1.000000
tan -0.226548 -0.146072 0.968690 1.000000
tan 0.913386 0.021576 0.401575 1.000000
tan 0.771654 -0.629921 -0.001116 1.000000
tan 0.877736 -0.369521 0.290161 1.000000
tan 0.573439 -0.766507 0.047616 1.000000
tan 0.921260 -0.020708 -0.393701 1.000000
tan 0.676545 -0.657635 -0.147312 1.000000
tan -0.039370 -1.000000 0.000000 1.000000
tan -0.046686 -0.874388 0.029140 1.000000
tan -0.697377 -0.654349 -0.125116 1.000000
tan -0.771654 -0.637795 0.006076 1.000000
tan -0.913386 0.021576 -0.401575 1.000000
tan -0.714985 -0.624837 0.149916 1.000000
tan -0.913386 0.021576 0.401575 1.000000
tan -0.047120 -0.650195 0.748031 1.000000
tan -0.590551 0.011036 0.811023 1.000000
tan -0.299833 -0.866514 0.067704 1.000000
tan 0.126914 -0.987724 -0.129766 1.000000
tan 0.000496 -0.902164 0.062992 1.000000
tan 0.010664 -0.704259 -0.677165 1.000000
tan 0.519685 -0.028458 -0.858268 1.000000
tan 0.000000 -0.984252 -0.031496 1.000000
tan 0.026970 -0.701283 0.685039 1.000000
tan -0.086614 0.022940 1.000000 1.000000
tan 0.086614 0.022754 -0.992126 1.000000
tan -0.077376 -0.555397 -0.812449 1.000000
tan -0.005580 -0.848844 -0.354331 1.000000
tan 0.226796 -0.926406 0.088412 1.000000
tan 0.640027 -0.674747 0.357493 1.000000
tan 0.629921 -0.021018 0.779527 1.000000
tan -0.647281 -0.685411 -0.284580 1.000000
tan -0.614173 -0.022196 -0.795275 1.000000
tan 0.763780 -0.645669 -0.012028 1.000000
tan 0.944882 -0.024800 0.314961 1.000000
tan -0.118110 -0.923554 0.001860 1.000000
tan -0.771654 -0.637795 0.012152 1.000000
tan -0.937008 -0.024862 -0.346457 1.000000
tan 0.181102 -0.968504 0.000000 1.000000
tan 0.671399 -0.669849 -0.242606 1.000000
tan 0.929134 -0.027652 -0.362205 1.000000
tan -0.283465 -0.878976 -0.002232 1.000000
tan -0.675181 -0.665881 0.217620 1.000000
tan -0.929134 -0.024862 0.370079 1.000000
tan 0.141050 -0.976812 -0.136400 1.000000
tan 0.022816 -0.667865 -0.724409 1.000000
tan 0.543307 -0.032736 -0.842520 1.000000
tan 0.000000 -0.944882 0.125984 1.000000
tan -0.059148 -0.539277 0.834646 1.000000
tan -0.535433 -0.032550 0.842520 1.000000
tan -0.037200 -0.591605 -0.787401 1.000000
tan 0.086614 0.022940 -1.000000 1.000000
tan -0.005208 -0.714737 0.661417 1.000000
tan -0.086614 0.022940 1.000000 1.000000
tan 0.001984 -0.907310 -0.125984 1.000000
tan -0.685039 0.022506 -0.724409 1.000000
tan -0.637733 -0.688077 -0.271932 1.000000
tan 0.004092 -0.868870 -0.040920 1.000000
tan 0.483229 -0.773017 0.186992 1.000000
tan 0.645607 -0.384463 0.660115 1.000000
tan 0.692913 0.022382 0.716535 1.000000
tan -1.000000 -0.000000 -0.078740 1.000000
tan -0.992126 -0.000000 -0.133858 1.000000
tan -1.000000 -0.000000 -0.047244 1.000000
tan -0.992126 -0.000000 -0.094488 1.000000
tan -0.992126 -0.000000 -0.102362 1.000000
tan -0.984252 -0.000000 -0.157480 1.000000
tan -0.976378 -0.000000 -0.220472 1.000000
tan -0.984252 -0.000000 -0.188976 1.000000
tan -0.984252 0.000000 0.157480 1.000000
tan -0.984252 0.000000 0.157480 1.000000
tan -0.984252 0.000000 0.173228 1.000000
tan -0.984252 0.000000 0.165354 1.000000
tan -0.992126 0.000000 0.141732 1.000000
tan -0.992126 0.000000 0.133858 1.000000
tan -0.992126 0.000000 0.133858 1.000000
tan -0.992126 0.000000 0.149606 1.000000
f 3/3/3 2/2/2 1/1/1
f 1/1/1 4/4/4 3/3/3
f 4/4/4 5/5/5 3/3/3
f 3/3/3 5/5/5 6/6/6
f 9/9/9 8/8/8 7/7/7
f 7/7/7 10/10/10 9/9/9
f 10/10/10 11/11/11 9/9/9
f 9/9/9 11/11/11 12/12/12
f 15/15/15 14/14/14 13/13/13
f 14/14/14 16/16/16 13/13/13
f 17/17/17 13/13/13 16/16/16
f 13/13/13 17/17/17 18/18/18
f 21/21/21 20/20/20 19/19/19
f 22/22/22 19/19/19 20/20/20
f 22/22/22 20/20/20 23/23/23
f 20/20/20 24/24/24 23/23/23
f 27/27/27 26/26/26 25/25/25
f 26/26/26 27/27/27 28/28/28
f 30/30/30 29/29/29 26/26/26
f 28/28/28 31/31/31 26/26/26
f 26/26/26 31/31/31 30/30/30
f 28/28/28 32/32/32 31/31/31
f 32/32/32 33/33/33 31/31/31
f 33/33/33 35/35/35 34/34/34
f 34/34/34 31/31/31 33/33/33
f 37/37/37 36/36/36 34/34/34
f 31/31/31 34/34/34 36/36/36
f 39/39/39 38/38/38 36/36/36
f 31/31/31 36/36/36 40/40/40
f 40/40/40 36/36/36 38/38/38
f 31/31/31 40/40/40 41/41/41
f 41/41/41 30/30/30 31/31/31
f 38/38/38 42/42/42 40/40/40
f 41/41/41 40/40/40 42/42/42
f 41/41/41 43/43/43 30/30/30
f 42/42/42 43/43/43 41/41/41
f 44/44/44 30/30/30 43/43/43
f 42/42/42 38/38/38 45/45/45
f 42/42/42 45/45/45 43/43/43
f 38/38/38 47/47/47 46/46/46
f 38/38/38 46/46/46 45/45/45
f 43/43/43 49/49/49 48/48/48
f 43/43/43 45/45/45 50/50/50
f 50/50/50 49/49/49 43/43/43
f 46/46/46 51/51/51 45/45/45
f 51/51/51 50/50/50 45/45/45
f 53/53/53 52/52/52 46/46/46
f 52/52/52 51/51/51 46/46/46
f 49/49/49 50/50/50 54/54/54
f 49/49/49 54/54/54 55/55/55
f 57/57/57 56/56/56 52/52/52
f 51/51/51 52/52/52 56/56/56
f 58/58/58 54/54/54 50/50/50
f 50/50/50 51/51/51 58/58/58
f 60/60/60 54/54/54 59/59/59
f 59/59/59 54/54/54 58/58/58
f 51/51/51 56/56/56 61/61/61
f 61/61/61 58/58/58 51/51/51
f 63/63/63 62/62/62 56/56/56
f 56/56/56 62/62/62 61/61/61
f 58/58/58 64/64/64 59/59/59
f 61/61/61 64/64/64 58/58/58
f 66/66/66 59/59/59 65/65/65
f 59/59/59 64/64/64 65/65/65
f 62/62/62 67/67/67 61/61/61
f 64/64/64 61/61/61 67/67/67
f 62/62/62 69/69/69 68/68/68
f 67/67/67 62/62/62 68/68/68
f 70/70/70 64/64/64 67/67/67
f 68/68/68 70/70/70 67/67/67
f 65/65/65 64/64/64 70/70/70
f 72/72/72 65/65/65 71/71/71
f 71/71/71 65/65/65 70/70/70
f 74/74/74 73/73/73 68/68/68
f 75/75/75 71/71/71 70/70/70
f 76/76/76 71/71/71 75/75/75
f 77/77/77 70/70/70 68/68/68
f 77/77/77 68/68/68 73/73/73
f 77/77/77 75/75/75 70/70/70
f 79/79/79 73/73/73 78/78/78
f 79/79/79 77/77/77 73/73/73
f 80/80/80 77/77/77 79/79/79
f 80/80/80 81/81/81 77/77/77
f 75/75/75 77/77/77 81/81/81
f 81/81/81 82/82/82 75/75/75
f 83/83/83 75/75/75 82/82/82
f 86/86/86 85/85/85 84/84/84
f 86/86/86 87/87/87 85/85/85
f 88/88/88 85/85/85 87/87/87
f 89/89/89 85/85/85 88/88/88
f 90/90/90 85/85/85 89/89/89
f 90/90/90 91/91/91 85/85/85
f 94/94/94 93/93/93 92/92/92
f 94/94/94 95/95/95 93/93/93
f 96/96/96 93/93/93 95/95/95
f 96/96/96 97/97/97 93/93/93
f 97/97/97 98/98/98 93/93/93
f 98/98/98 99/99/99 93/93/93
