mtllib SM_Crystalball_LOD5.mtl
g SM_Crystalball_LOD5
#Vertices 43
#Indices 72
#Section 0 Offset 0 NumIndices 72 MaterialIndex 0 MI_Books
v 0.056706 -0.103379 -0.063951
v 0.067756 -0.024681 -0.056725
v -0.055776 -0.024087 -0.065167
v -0.057625 -0.102843 -0.057697
v 0.056566 -0.025152 0.065008
v 0.066149 -0.103308 0.056565
v -0.062434 -0.105165 0.065429
v -0.066893 -0.023882 0.059241
v 0.066149 -0.103308 0.056565
v 0.056706 -0.103379 -0.063951
v -0.062434 -0.105165 0.065429
v -0.057625 -0.102843 -0.057697
v 0.067756 -0.024681 -0.056725
v 0.066149 -0.103308 0.056565
v 0.056566 -0.025152 0.065008
v 0.056706 -0.103379 -0.063951
v -0.055776 -0.024087 -0.065167
v 0.056566 -0.025152 0.065008
v -0.066893 -0.023882 0.059241
v 0.067756 -0.024681 -0.056725
v -0.057625 -0.102843 -0.057697
v -0.055776 -0.024087 -0.065167
v -0.066893 -0.023882 0.059241
v -0.062434 -0.105165 0.065429
v 0.053579 0.051212 0.072021
v -0.000726 0.110707 -0.000647
v 0.089651 0.045180 -0.010732
v -0.005100 -0.084898 0.002522
v 0.025520 -0.008161 -0.081366
v -0.005100 -0.084898 0.002522
v -0.000726 0.110707 -0.000647
v -0.000726 0.110707 -0.000647
v -0.016681 0.061069 -0.078570
v -0.005100 -0.084898 0.002522
v -0.070943 0.014839 -0.054404
v -0.005100 -0.084898 0.002522
v -0.000726 0.110707 -0.000647
v -0.000726 0.110707 -0.000647
v -0.035556 0.041360 0.080538
v -0.005100 -0.084898 0.002522
v 0.053579 0.051212 0.072021
v -0.005100 -0.084898 0.002522
v -0.000726 0.110707 -0.000647
vt 0.751953 0.504150
vt 0.694824 0.512695
vt 0.690918 0.429199
vt 0.747559 0.418457
vt 0.619141 0.508057
vt 0.577148 0.518555
vt 0.568848 0.451172
vt 0.611328 0.440430
vt 0.576660 0.518799
vt 0.509766 0.524658
vt 0.569336 0.450195
vt 0.503906 0.461914
vt 0.694336 0.509033
vt 0.750977 0.589600
vt 0.694824 0.597656
vt 0.751465 0.501953
vt 0.689453 0.429688
vt 0.619141 0.512207
vt 0.608887 0.438965
vt 0.694824 0.512451
vt 0.747559 0.418457
vt 0.685059 0.435059
vt 0.668457 0.333496
vt 0.733398 0.317383
vt 0.937500 0.416992
vt 0.921387 0.494629
vt 0.907715 0.413574
vt 0.920898 0.292969
vt 0.874023 0.380371
vt 0.887207 0.291992
vt 0.886230 0.493652
vt 0.865234 0.494629
vt 0.859375 0.422363
vt 0.868652 0.292480
vt 0.841309 0.395020
vt 0.842285 0.293457
vt 0.847656 0.494141
vt 0.820801 0.493164
vt 0.788574 0.414062
vt 0.811523 0.309570
vt 0.760254 0.416016
vt 0.779785 0.297363
vt 0.777832 0.494629
vt1 0.638184 0.768799
vt1 0.494385 0.790161
vt1 0.484131 0.579834
vt1 0.627441 0.552490
vt1 0.304443 0.778198
vt1 0.198486 0.805054
vt1 0.178711 0.634766
vt1 0.284424 0.607666
vt1 0.198120 0.805176
vt1 0.030319 0.820068
vt1 0.179321 0.633057
vt1 0.014732 0.662354
vt1 0.492920 0.780640
vt1 0.635742 0.983597
vt1 0.494629 1.003902
vt1 0.636230 0.763306
vt1 0.480469 0.581055
vt1 0.304199 0.789062
vt1 0.278809 0.604004
vt1 0.494873 0.789673
vt1 0.627441 0.552490
vt1 0.470215 0.594482
vt1 0.428711 0.338867
vt1 0.590820 0.298340
vt1 0.168091 0.584473
vt1 0.001770 0.536865
vt1 0.175415 0.496094
vt1 0.434814 0.534912
vt1 0.246948 0.394531
vt1 0.437744 0.434082
vt1 0.003218 0.431641
vt1 0.001526 0.368164
vt1 0.157471 0.351562
vt1 0.436768 0.378418
vt1 0.215942 0.297852
vt1 0.434082 0.300293
vt1 0.002607 0.315918
vt1 0.004738 0.235352
vt1 0.174683 0.140137
vt1 0.399414 0.208496
vt1 0.170166 0.056152
vt1 0.426025 0.113281
vt1 0.001121 0.107910
vn 0.204724 -0.000000 -0.976378
vn 0.259843 -0.000000 -0.968504
vn -0.204724 -0.000000 -0.976378
vn -0.228346 -0.000000 -0.976378
vn 0.204724 0.000000 0.976378
vn 0.251969 0.000000 0.968504
vn -0.228346 0.000000 0.976378
vn -0.259843 0.000000 0.968504
vn 0.000000 -1.000000 0.000000
vn 0.000000 -1.000000 0.000000
vn 0.000000 -1.000000 0.000000
vn 0.000000 -1.000000 0.000000
vn 0.976378 -0.000000 -0.212598
vn 0.976378 0.000000 0.204724
vn 0.968504 0.000000 0.251968
vn 0.968504 -0.000000 -0.251968
vn 0.000000 1.000000 -0.000000
vn 0.000000 1.000000 -0.000000
vn 0.000000 1.000000 -0.000000
vn 0.000000 1.000000 -0.000000
vn -0.976378 -0.000000 -0.228346
vn -0.968504 -0.000000 -0.251968
vn -0.976378 0.000000 0.212598
vn -0.968504 0.000000 0.236220
vn 0.708661 0.047244 0.700787
vn 0.015748 1.000000 -0.000000
vn 0.976378 0.165354 -0.133858
vn -0.181102 -0.984252 0.031496
vn 0.275591 -0.330709 -0.905512
vn -0.078740 -1.000000 0.007874
vn 0.007874 1.000000 -0.000000
vn -0.015748 1.000000 0.039370
vn -0.259843 0.291338 -0.921260
vn 0.086614 -0.984252 0.141732
vn -0.795276 -0.110236 -0.598425
vn -0.047244 -0.992126 0.141732
vn 0.007874 1.000000 -0.007874
vn -0.094488 0.992126 -0.000000
vn -0.456693 0.204724 0.866142
vn -0.267717 -0.960630 0.078740
vn 0.551181 0.118110 0.826772
vn -0.078740 -0.984252 -0.165354
vn -0.023622 1.000000 -0.047244
tan -0.976378 -0.030752 -0.204724 1.000000
tan -0.968504 0.015252 -0.259842 1.000000
tan -0.968690 -0.146072 0.203112 1.000000
tan -0.968690 -0.115320 0.226548 1.000000
tan -0.968690 0.107632 0.203112 1.000000
tan -0.960878 0.083886 0.249984 1.000000
tan -0.961002 0.161448 -0.224750 1.000000
tan -0.960878 0.137268 -0.257797 1.000000
tan -0.984252 0.000000 0.165354 1.000000
tan -0.984252 0.000000 0.165354 1.000000
tan -0.992126 0.000000 0.125984 1.000000
tan -0.992126 0.000000 0.149606 1.000000
tan -0.212598 -0.000000 -0.976378 1.000000
tan 0.204724 -0.000000 -0.976378 1.000000
tan 0.251969 -0.000000 -0.968504 1.000000
tan -0.251969 -0.000000 -0.968504 1.000000
tan -0.992126 -0.000000 -0.141732 1.000000
tan -1.000000 -0.000000 -0.078740 1.000000
tan -0.976378 -0.000000 -0.220472 1.000000
tan -1.000000 -0.000000 -0.086614 1.000000
tan -0.226548 -0.146072 0.968690 1.000000
tan -0.249985 -0.137268 0.960878 1.000000
tan 0.210924 -0.146072 0.968690 1.000000
tan 0.234360 -0.137268 0.960878 1.000000
tan 0.124124 -0.741707 -0.075516 1.000000
tan 0.921260 -0.014508 0.393701 1.000000
tan 0.165354 -0.976378 0.000000 1.000000
tan -0.875752 0.146506 -0.457251 1.000000
tan 0.002604 -0.903342 0.330709 1.000000
tan -0.889764 0.073718 0.464567 1.000000
tan 0.527559 -0.004154 -0.850394 1.000000
tan 0.086614 0.040734 -1.000000 1.000000
tan 0.002294 -0.919214 -0.291338 1.000000
tan -0.093000 0.132432 0.976502 1.000000
tan 0.109368 -0.850270 0.011284 1.000000
tan 0.804638 0.044268 0.578089 1.000000
tan -0.582677 -0.001798 -0.811023 1.000000
tan -0.984314 -0.093744 0.101556 1.000000
tan -0.040300 -0.942402 0.201500 1.000000
tan 0.900118 -0.278133 -0.332817 1.000000
tan 0.002790 -0.917912 0.129270 1.000000
tan 0.100750 0.155992 -0.976502 1.000000
tan -0.094488 0.044640 0.992126 1.000000
f 3/3/3 2/2/2 1/1/1
f 1/1/1 4/4/4 3/3/3
f 7/7/7 6/6/6 5/5/5
f 5/5/5 8/8/8 7/7/7
f 11/11/11 10/10/10 9/9/9
f 11/11/11 12/12/12 10/10/10
f 15/15/15 14/14/14 13/13/13
f 16/16/16 13/13/13 14/14/14
f 19/19/19 18/18/18 17/17/17
f 17/17/17 18/18/18 20/20/20
f 23/23/23 22/22/22 21/21/21
f 24/24/24 23/23/23 21/21/21
f 27/27/27 26/26/26 25/25/25
f 25/25/25 28/28/28 27/27/27
f 27/27/27 30/30/30 29/29/29
f 31/31/31 27/27/27 29/29/29
f 29/29/29 33/33/33 32/32/32
f 29/29/29 34/34/34 33/33/33
f 36/36/36 35/35/35 33/33/33
f 33/33/33 35/35/35 37/37/37
f 35/35/35 39/39/39 38/38/38
f 40/40/40 39/39/39 35/35/35
f 42/42/42 41/41/41 39/39/39
f 43/43/43 39/39/39 41/41/41
