mtllib SM_Carpet_LOD5.mtl
g SM_Carpet_LOD5
#Vertices 124
#Indices 468
#Section 0 Offset 0 NumIndices 468 MaterialIndex 0 MI_Carpet
v -0.499796 -2.709816 -0.009508
v -0.175474 -2.705840 -0.009633
v -0.301588 -2.774053 -0.013962
v -0.756637 -2.649830 -0.010934
v -0.375849 -2.148789 -0.007235
v -0.954064 -2.660121 -0.008877
v -1.010390 -2.491657 -0.008302
v 0.004979 -2.751430 -0.010563
v -1.099157 -2.445467 -0.008514
v 0.281769 -2.711275 -0.008334
v 0.064827 -2.824501 -0.012704
v 0.342240 -2.578515 -0.007947
v -1.252500 -2.415868 -0.012696
v -1.313267 -2.371519 -0.008065
v -1.569232 -2.210999 -0.007999
v -1.497954 -2.344441 -0.008745
v -1.424855 -0.720623 -0.004452
v 1.463067 -1.841303 -0.007462
v 0.431437 -2.587019 -0.008156
v -0.969670 -1.179098 0.009553
v 0.777726 -2.728865 -0.009559
v 0.536003 -2.651124 -0.008426
v 0.654210 -2.828014 -0.009813
v 0.944862 -2.660437 -0.010566
v 1.172961 -2.482718 -0.010800
v 1.304101 -2.448152 -0.012770
v 1.661071 -2.196057 -0.008127
v 1.783326 -2.141882 -0.008931
v 2.369140 -1.358367 -0.008499
v 2.024847 -1.830574 -0.008713
v 2.225870 -1.670904 -0.011218
v 1.920947 -1.223936 -0.006562
v 2.552654 -1.143013 -0.011758
v 2.617189 -1.117720 -0.010644
v 2.626338 -1.034646 -0.012122
v 2.563724 -0.900466 -0.009256
v 2.160166 -0.844421 -0.008372
v 2.632227 -0.815649 -0.009439
v 2.663354 -0.732582 -0.009826
v 2.712276 -0.436259 -0.009253
v 2.748396 -0.614835 -0.020118
v 1.720294 -1.240045 0.008141
v 2.279361 -0.099846 -0.006397
v 2.768759 -0.256405 -0.010181
v 2.739114 -0.164984 -0.009706
v 2.762358 -0.029774 -0.010754
v 2.810853 0.020582 -0.009014
v 2.740171 0.141148 -0.014942
v 2.079128 -0.243232 0.022030
v 2.705189 0.667637 -0.011226
v 2.741120 0.529292 -0.021449
v 2.767139 0.620204 -0.009787
v 2.031952 1.009085 -0.006948
v 2.574516 0.829640 -0.009422
v 2.515945 0.998288 -0.009806
v 2.512312 1.232085 -0.011963
v 2.385908 1.364894 -0.008694
v 2.329504 1.522963 -0.017517
v 2.268651 1.562993 -0.009344
v 2.249722 1.625470 -0.009268
v 2.066988 1.772390 -0.008760
v 1.814705 2.092642 -0.010002
v 2.034988 1.879710 -0.010300
v 1.376626 2.383873 -0.008253
v 1.731855 2.221599 -0.015680
v 0.801895 2.656370 -0.008428
v 1.177824 2.533142 -0.021134
v 0.605601 2.812992 -0.013697
v 0.464695 2.755110 -0.012182
v 0.152680 2.698563 -0.008205
v 0.359740 1.729154 -0.005278
v 1.393741 1.471056 -0.006542
v -0.169983 2.830911 -0.016216
v -0.312376 2.773535 -0.008479
v -0.562641 2.709856 -0.008455
v -0.771518 2.706299 -0.010729
v -0.838708 2.660326 -0.008995
v -1.102130 2.566125 -0.009697
v -1.281160 2.487180 -0.008307
v -1.271880 2.606650 -0.014659
v -0.445555 1.604965 -0.005293
v 0.145732 1.601325 0.006269
v 1.123797 1.333815 0.025460
v -0.143703 1.453589 0.024258
v 1.657948 1.080119 0.000830
v -0.627382 0.907034 0.028009
v 1.540423 0.971265 0.025501
v 1.881631 0.810225 -0.001638
v 2.101500 0.021635 0.023343
v 1.678822 -0.007705 0.026617
v 1.943079 -0.027328 0.001843
v 1.256353 -1.521966 0.025140
v -0.713823 -1.195698 0.027285
v 0.088354 -1.796139 0.024352
v -1.053811 -0.315331 0.027183
v -1.301110 0.055452 0.019242
v -1.062104 0.823475 0.008087
v -1.300211 0.751023 -0.005222
v -1.272210 -0.110412 0.009538
v -2.502348 1.094272 -0.007724
v -1.264173 -0.311794 0.004435
v -1.431681 -0.328437 -0.004537
v -1.339258 -0.502226 0.010003
v -2.476017 1.281274 -0.008312
v -2.320812 1.537681 -0.009644
v -2.496047 -1.123413 -0.007896
v -2.126898 1.666817 -0.007889
v -1.576803 2.237536 -0.008551
v -1.811221 2.152686 -0.009635
v -1.931815 2.032267 -0.008743
v -1.909991 2.212877 -0.009755
v -2.057136 1.880525 -0.009205
v -2.124573 1.753803 -0.010733
v -2.724928 0.547380 -0.008075
v -2.606044 0.936600 -0.008320
v -2.729456 -0.266927 -0.007743
v -2.804598 -0.130833 -0.010965
v -2.758268 -0.746362 -0.008798
v -2.565660 -1.072495 -0.008414
v -2.429443 -1.304174 -0.008821
v -2.264071 -1.484187 -0.008125
v -1.842525 -1.951817 -0.008102
v -2.110137 -1.765771 -0.008364
v -2.239451 -1.715772 -0.008669
vt 0.422607 0.984428
vt 0.475342 0.981964
vt 0.455078 0.993687
vt 0.380615 0.976410
vt 0.439697 0.892090
vt 0.348877 0.979568
vt 0.338379 0.952881
vt 0.503906 0.988541
vt 0.324463 0.946472
vt 0.548828 0.980850
vt 0.514160 1.000000
vt 0.558105 0.959229
vt 0.299316 0.943024
vt 0.287354 0.938538
vt 0.241577 0.915771
vt 0.259277 0.937317
vt 0.250488 0.660400
vt 0.740723 0.838379
vt 0.572266 0.960388
vt 0.333252 0.734131
vt 0.628906 0.983032
vt 0.589844 0.970612
vt 0.608887 0.999175
vt 0.655762 0.971924
vt 0.692383 0.942963
vt 0.714355 0.937500
vt 0.771973 0.897339
vt 0.792480 0.889099
vt 0.891602 0.764648
vt 0.832520 0.839722
vt 0.866699 0.815063
vt 0.818848 0.739746
vt 0.923340 0.731201
vt 0.934570 0.727539
vt 0.937012 0.713867
vt 0.927734 0.691162
vt 0.861328 0.678467
vt 0.939941 0.677979
vt 0.945801 0.664551
vt 0.957031 0.615479
vt 0.961426 0.645508
vt 0.785156 0.741211
vt 0.887695 0.554443
vt 0.968262 0.586182
vt 0.964844 0.570557
vt 0.970703 0.548096
vt 0.979492 0.540283
vt 0.968750 0.518799
vt 0.851562 0.576904
vt 0.969727 0.428711
vt 0.974609 0.452637
vt 0.979980 0.437500
vt 0.858398 0.361328
vt 0.949707 0.399414
vt 0.941895 0.369629
vt 0.944824 0.328613
vt 0.925293 0.303223
vt 0.917969 0.275391
vt 0.907715 0.266602
vt 0.905273 0.255371
vt 0.875977 0.227051
vt 0.835938 0.164062
vt 0.871582 0.207520
vt 0.760254 0.105469
vt 0.822266 0.139648
vt 0.656738 0.045410
vt 0.726074 0.073730
vt 0.622559 0.012695
vt 0.594727 0.021973
vt 0.533691 0.028320
vt 0.564453 0.213379
vt 0.751465 0.270996
vt 0.473633 0.000000
vt 0.445312 0.009766
vt 0.395752 0.020020
vt 0.354492 0.019531
vt 0.340820 0.028320
vt 0.288086 0.044922
vt 0.251465 0.063477
vt 0.252197 0.036621
vt 0.413574 0.231445
vt 0.524414 0.236328
vt 0.699707 0.291992
vt 0.469971 0.262207
vt 0.793457 0.343262
vt 0.384521 0.365723
vt 0.771484 0.362305
vt 0.829590 0.393555
vt 0.859375 0.533203
vt 0.786133 0.532959
vt 0.831055 0.538818
vt 0.707031 0.785889
vt 0.374512 0.731201
vt 0.514160 0.831177
vt 0.311768 0.585449
vt 0.264404 0.522217
vt 0.301270 0.381348
vt 0.258057 0.396484
vt 0.271484 0.551270
vt 0.032654 0.349609
vt 0.274658 0.587158
vt 0.246460 0.592041
vt 0.263428 0.621094
vt 0.032593 0.315918
vt 0.056122 0.264648
vt 0.071289 0.741943
vt 0.089661 0.234375
vt 0.190552 0.112793
vt 0.143799 0.133301
vt 0.120667 0.159668
vt 0.121521 0.119629
vt 0.099609 0.192383
vt 0.088989 0.218750
vt 0.002113 0.455078
vt 0.016174 0.382324
vt 0.016617 0.597900
vt 0.002016 0.576904
vt 0.021057 0.682129
vt 0.059357 0.734863
vt 0.085938 0.771729
vt 0.115723 0.799194
vt 0.191528 0.874390
vt 0.144775 0.845093
vt 0.122681 0.838013
vt1 0.423828 0.976624
vt1 0.475586 0.974197
vt1 0.455811 0.985725
vt1 0.382324 0.968719
vt1 0.440674 0.885742
vt1 0.351318 0.971832
vt1 0.341064 0.945557
vt1 0.504395 0.980682
vt1 0.327148 0.939270
vt1 0.548340 0.973099
vt1 0.514160 0.991936
vt1 0.557129 0.951813
vt1 0.302490 0.935913
vt1 0.290771 0.931519
vt1 0.245728 0.909058
vt1 0.263184 0.930298
vt1 0.254639 0.657715
vt1 0.736816 0.833008
vt1 0.571289 0.952972
vt1 0.335938 0.730225
vt1 0.626465 0.975235
vt1 0.588379 0.963013
vt1 0.607422 0.991127
vt1 0.653320 0.964325
vt1 0.689453 0.935852
vt1 0.710938 0.930481
vt1 0.767578 0.890991
vt1 0.787598 0.882812
vt1 0.885254 0.760376
vt1 0.827148 0.834351
vt1 0.860352 0.809937
vt1 0.813965 0.735840
vt1 0.916992 0.727295
vt1 0.927734 0.723877
vt1 0.930176 0.710449
vt1 0.920898 0.687988
vt1 0.855469 0.675537
vt1 0.932617 0.674805
vt1 0.938477 0.661621
vt1 0.949707 0.613525
vt1 0.954102 0.643066
vt1 0.780762 0.737305
vt1 0.881348 0.553711
vt1 0.960938 0.584717
vt1 0.957031 0.569580
vt1 0.962891 0.547363
vt1 0.971680 0.539551
vt1 0.961426 0.518555
vt1 0.845703 0.575684
vt1 0.961914 0.430176
vt1 0.966797 0.453613
vt1 0.972168 0.438477
vt1 0.852539 0.363281
vt1 0.942383 0.400879
vt1 0.935059 0.371582
vt1 0.937988 0.331543
vt1 0.917969 0.306641
vt1 0.911133 0.278809
vt1 0.900879 0.270508
vt1 0.898438 0.259277
vt1 0.870117 0.231445
vt1 0.830566 0.169922
vt1 0.865723 0.211914
vt1 0.755859 0.111816
vt1 0.817383 0.145020
vt1 0.654297 0.052734
vt1 0.722656 0.080566
vt1 0.620605 0.020508
vt1 0.593262 0.029785
vt1 0.533203 0.035645
vt1 0.563477 0.218262
vt1 0.747559 0.274414
vt1 0.473877 0.008301
vt1 0.446045 0.017578
vt1 0.397461 0.027832
vt1 0.356934 0.027344
vt1 0.343506 0.036133
vt1 0.291504 0.052246
vt1 0.255371 0.070312
vt1 0.256104 0.043945
vt1 0.415039 0.235840
vt1 0.524414 0.240723
vt1 0.696777 0.295410
vt1 0.470459 0.266113
vt1 0.789062 0.345703
vt1 0.386475 0.368164
vt1 0.767090 0.364258
vt1 0.823730 0.395508
vt1 0.853516 0.532715
vt1 0.781738 0.532471
vt1 0.825684 0.538330
vt1 0.704102 0.781250
vt1 0.376465 0.727295
vt1 0.513672 0.825806
vt1 0.314941 0.583984
vt1 0.268066 0.521729
vt1 0.304443 0.383301
vt1 0.261963 0.398438
vt1 0.275146 0.550537
vt1 0.040222 0.352051
vt1 0.278320 0.585693
vt1 0.250488 0.590332
vt1 0.267334 0.618896
vt1 0.040131 0.318848
vt1 0.063293 0.268555
vt1 0.078186 0.738037
vt1 0.096252 0.238770
vt1 0.195557 0.118652
vt1 0.149536 0.138672
vt1 0.126709 0.165527
vt1 0.127563 0.125977
vt1 0.106079 0.197266
vt1 0.095581 0.223633
vt1 0.010147 0.455566
vt1 0.023972 0.384277
vt1 0.024414 0.596436
vt1 0.010048 0.575684
vt1 0.028778 0.679199
vt1 0.066406 0.730957
vt1 0.092590 0.767334
vt1 0.121948 0.794434
vt1 0.196533 0.868286
vt1 0.150513 0.839478
vt1 0.128784 0.832520
vn 0.007874 -0.015748 1.000000
vn 0.007874 -0.007874 1.000000
vn -0.007874 -0.023622 1.000000
vn -0.015748 -0.015748 1.000000
vn 0.000000 -0.015748 1.000000
vn 0.015748 -0.015748 1.000000
vn 0.000000 0.000000 1.000000
vn -0.007874 -0.007874 1.000000
vn -0.007874 -0.015748 1.000000
vn 0.000000 -0.007874 1.000000
vn 0.000000 -0.023622 1.000000
vn 0.000000 0.000000 1.000000
vn 0.023622 -0.023622 1.000000
vn 0.000000 0.000000 1.000000
vn 0.000000 0.000000 1.000000
vn -0.007874 -0.007874 1.000000
vn -0.007874 -0.007874 1.000000
vn 0.015748 -0.023622 1.000000
vn 0.000000 -0.007874 1.000000
vn -0.118110 -0.086614 0.992126
vn 0.007874 -0.007874 1.000000
vn 0.000000 -0.007874 1.000000
vn 0.007874 -0.007874 1.000000
vn 0.000000 -0.015748 1.000000
vn 0.015748 -0.015748 1.000000
vn 0.000000 -0.023622 1.000000
vn 0.007874 -0.007874 1.000000
vn 0.000000 0.000000 1.000000
vn 0.007874 0.000000 1.000000
vn 0.023622 -0.015748 1.000000
vn 0.031496 -0.039370 1.000000
vn 0.007874 -0.007874 1.000000
vn 0.023622 -0.007874 1.000000
vn 0.007874 -0.055118 1.000000
vn 0.015748 0.000000 1.000000
vn 0.015748 0.015748 1.000000
vn 0.031496 -0.015748 1.000000
vn 0.015748 -0.118110 0.992126
vn 0.023622 -0.007874 1.000000
vn 0.015748 0.000000 1.000000
vn 0.070866 0.007874 1.000000
vn 0.118110 -0.110236 0.984252
vn 0.023622 0.000000 1.000000
vn 0.007874 -0.007874 1.000000
vn 0.007874 0.007874 1.000000
vn 0.015748 -0.023622 1.000000
vn 0.007874 0.023622 1.000000
vn 0.047244 0.055118 1.000000
vn 0.055118 0.000000 1.000000
vn 0.039370 0.000000 1.000000
vn 0.055118 -0.047244 1.000000
vn 0.007874 -0.015748 1.000000
vn 0.007874 0.007874 1.000000
vn 0.015748 0.000000 1.000000
vn 0.015748 0.000000 1.000000
vn 0.047244 0.031496 1.000000
vn 0.000000 0.007874 1.000000
vn 0.047244 -0.023622 1.000000
vn 0.015748 -0.023622 1.000000
vn 0.007874 -0.015748 1.000000
vn 0.015748 0.007874 1.000000
vn 0.047244 0.031496 1.000000
vn 0.078740 0.047244 0.992126
vn 0.000000 0.000000 1.000000
vn 0.102362 0.110236 0.984252
vn 0.000000 0.007874 1.000000
vn 0.055118 0.118110 0.992126
vn -0.015748 0.039370 1.000000
vn 0.000000 0.055118 1.000000
vn 0.000000 0.000000 1.000000
vn 0.000000 0.000000 1.000000
vn 0.007874 0.015748 1.000000
vn 0.015748 0.078740 1.000000
vn 0.007874 0.023622 1.000000
vn -0.007874 0.007874 1.000000
vn 0.000000 0.015748 1.000000
vn 0.000000 0.015748 1.000000
vn -0.007874 0.047244 1.000000
vn 0.000000 0.000000 1.000000
vn -0.102362 0.055118 0.992126
vn -0.007874 0.007874 1.000000
vn 0.023622 0.181102 0.984252
vn 0.007874 0.023622 1.000000
vn -0.023622 0.047244 1.000000
vn 0.094488 0.220473 0.968504
vn 0.000000 0.000000 1.000000
vn 0.031496 0.007874 1.000000
vn 0.078740 0.094488 0.992126
vn 0.047244 -0.023622 1.000000
vn 0.007874 0.000000 1.000000
vn 0.015748 0.251969 0.968504
vn 0.007874 -0.015748 1.000000
vn -0.007874 0.000000 1.000000
vn 0.000000 -0.055118 1.000000
vn -0.007874 0.000000 1.000000
vn -0.118110 -0.007874 0.992126
vn -0.118110 0.110236 0.984252
vn 0.000000 0.000000 1.000000
vn -0.110236 0.165354 0.984252
vn 0.000000 0.000000 1.000000
vn -0.125984 -0.220472 0.968504
vn 0.000000 0.000000 1.000000
vn -0.188976 0.267717 0.944882
vn 0.000000 0.000000 1.000000
vn -0.015748 -0.007874 1.000000
vn 0.000000 0.000000 1.000000
vn 0.000000 0.000000 1.000000
vn 0.000000 0.000000 1.000000
vn -0.031496 0.047244 1.000000
vn -0.015748 0.015748 1.000000
vn 0.000000 0.007874 1.000000
vn -0.055118 0.031496 1.000000
vn -0.055118 0.023622 1.000000
vn 0.000000 0.000000 1.000000
vn 0.000000 0.000000 1.000000
vn 0.000000 0.000000 1.000000
vn -0.023622 0.000000 1.000000
vn -0.007874 0.000000 1.000000
vn 0.000000 0.000000 1.000000
vn 0.000000 0.000000 1.000000
vn 0.000000 0.000000 1.000000
vn 0.000000 0.000000 1.000000
vn 0.000000 0.000000 1.000000
vn 0.000000 0.000000 1.000000
tan 0.039370 1.000000 0.015438 1.000000
tan 0.031496 1.000000 0.007626 1.000000
tan 0.031496 1.000000 0.023870 1.000000
tan 0.047244 1.000000 0.016492 1.000000
tan 0.039370 1.000000 0.015748 1.000000
tan 0.047244 1.000000 0.015004 1.000000
tan 0.055118 1.000000 -0.000000 1.000000
tan 0.023622 1.000000 0.008060 1.000000
tan 0.070866 1.000000 0.016306 1.000000
tan 0.023622 1.000000 0.007874 1.000000
tan 0.023622 1.000000 0.023622 1.000000
tan 0.015748 1.000000 -0.000000 1.000000
tan 0.086614 1.000000 0.021576 1.000000
tan 0.102362 0.992126 -0.000000 1.000000
tan 0.070866 1.000000 -0.000000 1.000000
tan 0.173228 0.984252 0.009114 1.000000
tan 0.055118 1.000000 0.008308 1.000000
tan -0.015748 1.000000 0.023870 1.000000
tan 0.007874 1.000000 0.007874 1.000000
tan 0.054684 0.992126 0.093124 1.000000
tan 0.007874 1.000000 0.007812 1.000000
tan 0.007874 1.000000 0.007874 1.000000
tan 0.007874 1.000000 0.007812 1.000000
tan 0.000000 1.000000 0.015748 1.000000
tan 0.000000 1.000000 0.015748 1.000000
tan -0.007874 1.000000 0.023622 1.000000
tan -0.015748 1.000000 0.007998 1.000000
tan -0.023622 1.000000 -0.000000 1.000000
tan -0.047244 1.000000 0.000372 1.000000
tan -0.039370 1.000000 0.016678 1.000000
tan -0.039370 1.000000 0.040610 1.000000
tan -0.031496 1.000000 0.008122 1.000000
tan -0.055118 1.000000 0.009176 1.000000
tan -0.062992 1.000000 0.055614 1.000000
tan -0.055118 1.000000 0.000868 1.000000
tan -0.055118 1.000000 -0.014880 1.000000
tan -0.047244 1.000000 0.017236 1.000000
tan -0.062496 0.992126 0.119102 1.000000
tan -0.062992 1.000000 0.009362 1.000000
tan -0.062992 1.000000 0.000992 1.000000
tan -0.055118 1.000000 -0.003968 1.000000
tan -0.046500 0.984252 0.115816 1.000000
tan -0.062992 1.000000 0.001488 1.000000
tan -0.070866 1.000000 0.008432 1.000000
tan -0.070866 1.000000 -0.007316 1.000000
tan -0.070866 1.000000 0.024738 1.000000
tan -0.078740 1.000000 -0.023002 1.000000
tan -0.078740 1.000000 -0.051398 1.000000
tan -0.055118 1.000000 0.003038 1.000000
tan -0.078740 1.000000 0.003100 1.000000
tan -0.078740 1.000000 0.051584 1.000000
tan -0.078740 1.000000 0.016368 1.000000
tan -0.070866 1.000000 -0.007316 1.000000
tan -0.094488 0.992126 0.001488 1.000000
tan -0.094488 0.992126 0.001488 1.000000
tan -0.086614 1.000000 -0.027404 1.000000
tan -0.094488 0.992126 -0.007812 1.000000
tan -0.086614 0.992126 0.027528 1.000000
tan -0.102362 0.992126 0.025048 1.000000
tan -0.086614 1.000000 0.016430 1.000000
tan -0.094488 0.992126 -0.006324 1.000000
tan -0.094488 0.992126 -0.026784 1.000000
tan -0.101556 0.984314 -0.038812 1.000000
tan -0.086614 1.000000 -0.000000 1.000000
tan -0.077500 0.984252 -0.102176 1.000000
tan -0.078740 1.000000 -0.007874 1.000000
tan -0.070308 0.992126 -0.114204 1.000000
tan -0.070866 1.000000 -0.040486 1.000000
tan -0.062992 1.000000 -0.055118 1.000000
tan -0.055118 1.000000 -0.000000 1.000000
tan -0.039370 1.000000 -0.000000 1.000000
tan -0.062992 1.000000 -0.015252 1.000000
tan -0.039370 1.000000 -0.078120 1.000000
tan -0.047244 1.000000 -0.023250 1.000000
tan -0.031496 1.000000 -0.008122 1.000000
tan -0.039370 1.000000 -0.015748 1.000000
tan -0.039370 1.000000 -0.015748 1.000000
tan -0.023622 1.000000 -0.047430 1.000000
tan 0.000000 1.000000 -0.000000 1.000000
tan 0.015624 0.992126 -0.053506 1.000000
tan -0.007874 1.000000 -0.007936 1.000000
tan -0.023250 0.984252 -0.180544 1.000000
tan -0.055118 1.000000 -0.023188 1.000000
tan -0.015748 1.000000 -0.047616 1.000000
tan -0.030504 0.968504 -0.217497 1.000000
tan 0.015748 1.000000 -0.000000 1.000000
tan -0.055118 1.000000 -0.006138 1.000000
tan -0.054684 0.992126 -0.090148 1.000000
tan -0.062992 1.000000 0.026598 1.000000
tan -0.047244 1.000000 0.000372 1.000000
tan -0.045756 0.968504 -0.251225 1.000000
tan -0.015748 1.000000 0.015872 1.000000
tan 0.039370 1.000000 0.000310 1.000000
tan 0.015748 1.000000 0.055118 1.000000
tan 0.047244 1.000000 0.000372 1.000000
tan 0.054684 0.992126 0.014384 1.000000
tan 0.015500 0.984252 -0.108376 1.000000
tan 0.047244 1.000000 -0.000000 1.000000
tan 0.046500 0.984252 -0.160146 1.000000
tan 0.110236 0.992126 -0.000000 1.000000
tan 0.045756 0.968504 0.226424 1.000000
tan 0.055118 1.000000 -0.000000 1.000000
tan 0.037200 0.944882 -0.260277 1.000000
tan 0.118110 0.992126 -0.000000 1.000000
tan 0.102362 0.992126 0.009424 1.000000
tan 0.086614 1.000000 -0.000000 1.000000
tan 0.110236 0.992126 -0.000000 1.000000
tan 0.023622 1.000000 -0.000000 1.000000
tan 0.039370 1.000000 -0.046004 1.000000
tan 0.094488 0.992126 -0.014136 1.000000
tan -0.015748 1.000000 -0.007874 1.000000
tan 0.094488 0.992126 -0.026040 1.000000
tan 0.118110 0.992126 -0.016926 1.000000
tan 0.118110 0.992126 -0.000000 1.000000
tan 0.110236 0.992126 -0.000000 1.000000
tan 0.102362 0.992126 -0.000000 1.000000
tan 0.102362 0.992126 0.002418 1.000000
tan 0.102362 0.992126 0.000806 1.000000
tan 0.094488 0.992126 -0.000000 1.000000
tan 0.086614 1.000000 -0.000000 1.000000
tan 0.062992 1.000000 -0.000000 1.000000
tan 0.023622 1.000000 -0.000000 1.000000
tan 0.055118 1.000000 -0.000000 1.000000
tan 0.062992 1.000000 -0.000000 1.000000
f 3/3/3 2/2/2 1/1/1
f 1/1/1 2/2/2 4/4/4
f 5/5/5 4/4/4 2/2/2
f 4/4/4 5/5/5 6/6/6
f 7/7/7 6/6/6 5/5/5
f 8/8/8 5/5/5 2/2/2
f 9/9/9 7/7/7 5/5/5
f 11/11/11 10/10/10 8/8/8
f 8/8/8 10/10/10 5/5/5
f 10/10/10 12/12/12 5/5/5
f 14/14/14 13/13/13 9/9/9
f 14/14/14 9/9/9 5/5/5
f 16/16/16 14/14/14 15/15/15
f 5/5/5 17/17/17 14/14/14
f 14/14/14 17/17/17 15/15/15
f 12/12/12 18/18/18 5/5/5
f 12/12/12 19/19/19 18/18/18
f 17/17/17 5/5/5 20/20/20
f 21/21/21 18/18/18 19/19/19
f 19/19/19 22/22/22 21/21/21
f 22/22/22 23/23/23 21/21/21
f 21/21/21 24/24/24 18/18/18
f 18/18/18 24/24/24 25/25/25
f 25/25/25 26/26/26 18/18/18
f 27/27/27 18/18/18 26/26/26
f 27/27/27 28/28/28 18/18/18
f 29/29/29 18/18/18 28/28/28
f 28/28/28 30/30/30 29/29/29
f 31/31/31 29/29/29 30/30/30
f 18/18/18 29/29/29 32/32/32
f 32/32/32 29/29/29 33/33/33
f 33/33/33 34/34/34 32/32/32
f 34/34/34 35/35/35 32/32/32
f 36/36/36 32/32/32 35/35/35
f 32/32/32 36/36/36 37/37/37
f 38/38/38 37/37/37 36/36/36
f 39/39/39 37/37/37 38/38/38
f 41/41/41 40/40/40 39/39/39
f 32/32/32 37/37/37 42/42/42
f 32/32/32 42/42/42 18/18/18
f 40/40/40 43/43/43 39/39/39
f 37/37/37 39/39/39 43/43/43
f 40/40/40 44/44/44 43/43/43
f 44/44/44 45/45/45 43/43/43
f 45/45/45 46/46/46 43/43/43
f 46/46/46 47/47/47 43/43/43
f 47/47/47 48/48/48 43/43/43
f 42/42/42 37/37/37 49/49/49
f 43/43/43 49/49/49 37/37/37
f 48/48/48 50/50/50 43/43/43
f 48/48/48 51/51/51 50/50/50
f 51/51/51 52/52/52 50/50/50
f 43/43/43 50/50/50 53/53/53
f 53/53/53 50/50/50 54/54/54
f 53/53/53 54/54/54 55/55/55
f 56/56/56 53/53/53 55/55/55
f 53/53/53 56/56/56 57/57/57
f 59/59/59 57/57/57 58/58/58
f 53/53/53 57/57/57 59/59/59
f 53/53/53 59/59/59 60/60/60
f 53/53/53 60/60/60 61/61/61
f 61/61/61 63/63/63 62/62/62
f 64/64/64 61/61/61 62/62/62
f 65/65/65 64/64/64 62/62/62
f 64/64/64 53/53/53 61/61/61
f 67/67/67 66/66/66 64/64/64
f 69/69/69 66/66/66 68/68/68
f 69/69/69 70/70/70 66/66/66
f 71/71/71 64/64/64 66/66/66
f 70/70/70 71/71/71 66/66/66
f 64/64/64 71/71/71 72/72/72
f 72/72/72 53/53/53 64/64/64
f 74/74/74 70/70/70 73/73/73
f 74/74/74 75/75/75 70/70/70
f 75/75/75 76/76/76 70/70/70
f 77/77/77 70/70/70 76/76/76
f 77/77/77 78/78/78 70/70/70
f 78/78/78 80/80/80 79/79/79
f 79/79/79 70/70/70 78/78/78
f 79/79/79 81/81/81 70/70/70
f 71/71/71 70/70/70 81/81/81
f 82/82/82 72/72/72 71/71/71
f 81/81/81 82/82/82 71/71/71
f 82/82/82 83/83/83 72/72/72
f 84/84/84 82/82/82 81/81/81
f 83/83/83 82/82/82 84/84/84
f 85/85/85 72/72/72 83/83/83
f 72/72/72 85/85/85 53/53/53
f 83/83/83 84/84/84 86/86/86
f 81/81/81 86/86/86 84/84/84
f 83/83/83 87/87/87 85/85/85
f 87/87/87 53/53/53 85/85/85
f 88/88/88 53/53/53 87/87/87
f 89/89/89 88/88/88 87/87/87
f 89/89/89 53/53/53 88/88/88
f 89/89/89 87/87/87 83/83/83
f 43/43/43 53/53/53 89/89/89
f 49/49/49 43/43/43 89/89/89
f 83/83/83 90/90/90 89/89/89
f 86/86/86 90/90/90 83/83/83
f 49/49/49 89/89/89 91/91/91
f 89/89/89 90/90/90 91/91/91
f 91/91/91 90/90/90 49/49/49
f 92/92/92 49/49/49 90/90/90
f 42/42/42 49/49/49 92/92/92
f 42/42/42 92/92/92 18/18/18
f 93/93/93 92/92/92 90/90/90
f 93/93/93 90/90/90 86/86/86
f 92/92/92 94/94/94 18/18/18
f 94/94/94 92/92/92 93/93/93
f 5/5/5 18/18/18 94/94/94
f 20/20/20 5/5/5 94/94/94
f 94/94/94 93/93/93 20/20/20
f 20/20/20 93/93/93 95/95/95
f 93/93/93 86/86/86 95/95/95
f 17/17/17 20/20/20 95/95/95
f 96/96/96 95/95/95 86/86/86
f 96/96/96 86/86/86 97/97/97
f 97/97/97 86/86/86 81/81/81
f 97/97/97 98/98/98 96/96/96
f 98/98/98 97/97/97 81/81/81
f 95/95/95 96/96/96 99/99/99
f 81/81/81 100/100/100 98/98/98
f 95/95/95 99/99/99 101/101/101
f 102/102/102 96/96/96 98/98/98
f 96/96/96 102/102/102 99/99/99
f 101/101/101 99/99/99 102/102/102
f 100/100/100 102/102/102 98/98/98
f 101/101/101 103/103/103 95/95/95
f 102/102/102 103/103/103 101/101/101
f 17/17/17 95/95/95 103/103/103
f 102/102/102 17/17/17 103/103/103
f 105/105/105 104/104/104 100/100/100
f 106/106/106 17/17/17 102/102/102
f 107/107/107 105/105/105 100/100/100
f 15/15/15 17/17/17 106/106/106
f 100/100/100 81/81/81 107/107/107
f 79/79/79 107/107/107 81/81/81
f 107/107/107 79/79/79 108/108/108
f 108/108/108 109/109/109 107/107/107
f 109/109/109 111/111/111 110/110/110
f 109/109/109 110/110/110 107/107/107
f 110/110/110 112/112/112 107/107/107
f 113/113/113 107/107/107 112/112/112
f 100/100/100 115/115/115 114/114/114
f 100/100/100 114/114/114 116/116/116
f 114/114/114 117/117/117 116/116/116
f 116/116/116 102/102/102 100/100/100
f 116/116/116 106/106/106 102/102/102
f 118/118/118 106/106/106 116/116/116
f 118/118/118 119/119/119 106/106/106
f 121/121/121 106/106/106 120/120/120
f 106/106/106 121/121/121 15/15/15
f 15/15/15 121/121/121 122/122/122
f 122/122/122 121/121/121 123/123/123
f 123/123/123 121/121/121 124/124/124
