mtllib SM_Painting1_LOD3.mtl
g SM_Painting1_LOD3
#Vertices 64
#Indices 264
#Section 0 Offset 0 NumIndices 264 MaterialIndex 0 MI_paintings
v 0.395678 -0.089739 -0.607987
v 0.406085 -0.054682 -0.431674
v 0.404497 -0.079059 -0.615085
v 0.401779 -0.092246 0.284185
v 0.400516 0.063703 -0.612246
v 0.405329 -0.045623 0.519088
v 0.401919 -0.080914 0.616640
v 0.396569 0.078561 0.604481
v 0.406081 0.065134 -0.441784
v 0.395480 0.084985 -0.599765
v 0.392645 0.089345 -0.414335
v 0.405428 0.046726 0.501354
v 0.403082 0.073068 0.347801
v 0.394158 0.089867 0.599347
v -0.355383 -0.048921 0.620925
v -0.358905 -0.091279 0.601754
v -0.400102 -0.084337 0.601792
v 0.377577 -0.088056 0.612390
v -0.383111 0.065860 0.597850
v 0.216919 -0.067459 0.620520
v 0.401919 -0.080914 0.616640
v -0.360065 0.057618 0.613090
v -0.369820 0.085919 0.596696
v -0.145701 0.047463 0.621099
v -0.120372 0.083973 0.618876
v -0.168985 0.090060 0.597020
v 0.394158 0.089867 0.599347
v 0.203639 0.057812 0.621344
v 0.371936 0.065060 0.617315
v 0.396569 0.078561 0.604481
v 0.392645 0.089345 -0.414335
v 0.394158 0.089867 0.599347
v 0.179231 0.090203 -0.441587
v -0.168985 0.090060 0.597020
v 0.395480 0.084985 -0.599765
v -0.380265 0.090493 0.473482
v -0.369820 0.085919 0.596696
v -0.383111 0.065860 0.597850
v 0.191327 0.090091 -0.600889
v -0.384170 0.090189 -0.438386
v 0.214756 0.068217 -0.620737
v 0.400516 0.063703 -0.612246
v -0.377735 0.089685 -0.596069
v -0.108548 0.078425 -0.616520
v 0.195459 -0.046686 -0.620783
v 0.404497 -0.079059 -0.615085
v 0.395678 -0.089739 -0.607987
v -0.342870 -0.055698 -0.622886
v -0.384370 -0.087990 -0.603732
v -0.392955 -0.066242 -0.610949
v -0.161708 0.042601 -0.620776
v -0.363863 0.075941 -0.616579
v -0.392663 0.075599 -0.612451
v -0.404748 0.079985 -0.385513
v -0.405562 0.046922 -0.434141
v -0.402743 0.078461 0.462456
v -0.392955 -0.066242 -0.610949
v -0.405547 0.044436 0.478899
v -0.406180 -0.046646 0.541078
v -0.400102 -0.084337 0.601792
v -0.405394 -0.047077 -0.431910
v -0.399593 -0.091598 0.475244
v -0.405049 -0.082704 -0.409785
v -0.384370 -0.087990 -0.603732
vt 0.979004 0.050293
vt 0.969727 0.100098
vt 0.973633 0.048340
vt 0.980469 0.296875
vt 0.933594 0.050781
vt 0.967773 0.361816
vt 0.977051 0.389648
vt 0.931641 0.384766
vt 0.936523 0.097656
vt 0.928223 0.055664
vt 0.929688 0.105469
vt 0.942383 0.356445
vt 0.934570 0.314453
vt 0.928711 0.382812
vt 0.722656 0.420410
vt 0.720703 0.432617
vt 0.708984 0.427246
vt 0.925781 0.434570
vt 0.715820 0.384766
vt 0.880859 0.428223
vt 0.932129 0.431641
vt 0.724121 0.388672
vt 0.722168 0.380371
vt 0.781250 0.396484
vt 0.789062 0.386719
vt 0.775879 0.380371
vt 0.928711 0.382812
vt 0.876953 0.394043
vt 0.922852 0.391602
vt 0.930664 0.387207
vt 0.929688 0.105469
vt 0.928711 0.383301
vt 0.871582 0.098145
vt 0.775879 0.380859
vt 0.930176 0.055664
vt 0.718750 0.347656
vt 0.721680 0.380371
vt 0.715332 0.382324
vt 0.875000 0.055176
vt 0.718262 0.099121
vt 0.881348 0.046875
vt 0.931641 0.048828
vt 0.719238 0.056641
vt 0.792969 0.049316
vt 0.876953 0.016113
vt 0.934570 0.008301
vt 0.932617 0.003418
vt 0.728027 0.012695
vt 0.715820 0.002441
vt 0.713379 0.010742
vt 0.778320 0.039551
vt 0.722656 0.050293
vt 0.713867 0.051758
vt 0.711426 0.113770
vt 0.703125 0.100098
vt 0.711914 0.344727
vt 0.673828 0.050781
vt 0.703125 0.350098
vt 0.678711 0.368652
vt 0.670898 0.387695
vt 0.676758 0.100098
vt 0.665527 0.350098
vt 0.666992 0.105957
vt 0.664062 0.052246
vt1 0.985352 0.121582
vt1 0.956055 0.232910
vt1 0.968750 0.116211
vt1 0.989258 0.676758
vt1 0.845215 0.122559
vt1 0.950684 0.822632
vt1 0.978516 0.885742
vt1 0.838379 0.875000
vt1 0.854492 0.228027
vt1 0.828613 0.132324
vt1 0.832520 0.245117
vt1 0.872070 0.810913
vt1 0.849121 0.716064
vt1 0.829590 0.870361
vt1 0.194824 0.954254
vt1 0.188232 0.982101
vt1 0.152954 0.970566
vt1 0.820801 0.987144
vt1 0.174927 0.874512
vt1 0.683105 0.973053
vt1 0.840332 0.980331
vt1 0.198853 0.883179
vt1 0.192871 0.864258
vt1 0.376221 0.900940
vt1 0.398926 0.879272
vt1 0.359375 0.864990
vt1 0.830566 0.870728
vt1 0.670898 0.895508
vt1 0.812500 0.889587
vt1 0.836426 0.879456
vt1 0.833984 0.245605
vt1 0.830566 0.870483
vt1 0.653320 0.229492
vt1 0.359131 0.865845
vt1 0.833984 0.132324
vt1 0.183594 0.791260
vt1 0.192871 0.864746
vt1 0.172485 0.868896
vt1 0.663574 0.132324
vt1 0.180664 0.230469
vt1 0.683594 0.113770
vt1 0.840332 0.117188
vt1 0.184814 0.135254
vt1 0.411377 0.119141
vt1 0.669434 0.042969
vt1 0.848145 0.026855
vt1 0.841797 0.015137
vt1 0.211182 0.036133
vt1 0.174072 0.013184
vt1 0.166748 0.031738
vt1 0.366211 0.096680
vt1 0.195068 0.120605
vt1 0.168091 0.124512
vt1 0.160889 0.262695
vt1 0.133911 0.232910
vt1 0.161743 0.785034
vt1 0.045471 0.121582
vt1 0.134521 0.796143
vt1 0.059143 0.837646
vt1 0.036102 0.880981
vt1 0.053406 0.232910
vt1 0.018112 0.796875
vt1 0.024200 0.246094
vt1 0.014107 0.125000
vn 0.748031 -0.653543 -0.094488
vn 1.000000 -0.039370 0.000000
vn 0.850394 -0.149606 -0.503937
vn 0.881890 -0.472441 0.000000
vn 0.905512 0.133858 -0.401575
vn 1.000000 0.000000 0.000000
vn 0.944882 0.031496 0.322835
vn 0.937008 0.157480 0.299213
vn 0.992126 0.102362 -0.015748
vn 0.669291 0.700787 -0.236221
vn 0.503937 0.858268 -0.023622
vn 1.000000 0.031496 0.007874
vn 0.960630 0.283465 -0.023622
vn 0.425197 0.905512 0.070866
vn -0.125984 -0.078740 0.992126
vn -0.094488 -0.755905 0.645669
vn -0.472441 -0.181102 0.866142
vn 0.055118 -0.559055 0.826772
vn -0.716535 0.322835 0.622047
vn 0.007874 -0.078740 1.000000
vn 0.307087 -0.078740 0.952756
vn -0.259843 0.236221 0.937008
vn -0.267717 0.811024 0.527559
vn 0.000000 0.031496 1.000000
vn 0.000000 0.551181 0.834646
vn -0.007874 0.992126 0.094488
vn 0.110236 0.937008 0.322834
vn 0.015748 0.141732 0.992126
vn 0.322835 0.102362 0.944882
vn 0.598425 0.133858 0.787401
vn 0.094488 0.992126 -0.000000
vn 0.023622 1.000000 0.007874
vn 0.007874 1.000000 -0.000000
vn -0.007874 1.000000 0.007874
vn 0.259843 0.905512 -0.338583
vn -0.015748 1.000000 -0.000000
vn -0.259843 0.913386 0.307086
vn -0.834646 0.362205 0.417323
vn 0.007874 0.992126 -0.141732
vn -0.007874 1.000000 -0.000000
vn 0.023622 0.141732 -0.992126
vn 0.393701 0.157480 -0.905512
vn -0.062992 0.976378 -0.196850
vn 0.007874 0.566929 -0.826772
vn 0.000000 -0.031496 -1.000000
vn 0.448819 -0.244095 -0.858268
vn 0.102362 -0.763779 -0.645669
vn -0.078740 -0.086614 -0.992126
vn -0.133858 -0.842520 -0.527559
vn -0.708661 -0.086614 -0.700787
vn 0.000000 0.055118 -1.000000
vn -0.196850 0.188976 -0.960630
vn -0.795276 0.173228 -0.582677
vn -0.889764 0.456693 0.015748
vn -1.000000 0.031496 -0.007874
vn -0.921260 0.385827 0.007874
vn -0.889764 -0.173228 -0.425197
vn -1.000000 0.031496 0.007874
vn -1.000000 0.007874 0.015748
vn -0.881890 -0.173228 0.433071
vn -1.000000 -0.023622 -0.007874
vn -0.874016 -0.496063 -0.015748
vn -0.842520 -0.535433 0.000000
vn -0.488189 -0.866142 -0.118110
tan -0.516833 -0.494513 -0.671213 1.000000
tan -0.000310 -0.007874 -1.000000 1.000000
tan -0.507471 -0.020088 -0.850394 1.000000
tan 0.052080 0.097216 -0.882386 1.000000
tan -0.396305 -0.035650 -0.905512 1.000000
tan 0.000000 0.015748 -1.000000 1.000000
tan 0.322339 0.014880 -0.944882 1.000000
tan 0.294253 0.029512 -0.937008 1.000000
tan -0.011718 -0.039060 -0.992126 1.000000
tan -0.150722 -0.181970 -0.966892 1.000000
tan -0.088040 0.028148 -0.855478 1.000000
tan 0.006882 0.031496 -1.000000 1.000000
tan -0.030318 0.022692 -0.960630 1.000000
tan 0.465125 -0.156798 -0.787215 1.000000
tan -0.054684 0.992126 0.071796 1.000000
tan -0.017856 0.647901 0.755905 1.000000
tan -0.102300 0.859322 0.123876 1.000000
tan 0.004402 0.827206 0.559055 1.000000
tan -0.451609 0.413293 -0.734702 1.000000
tan 0.000000 1.000000 0.078740 1.000000
tan -0.007502 0.952756 0.081158 1.000000
tan -0.167834 0.924298 -0.279559 1.000000
tan 0.030008 0.540207 -0.815240 1.000000
tan -0.039370 1.000000 -0.031496 1.000000
tan -0.006572 0.834646 -0.551181 1.000000
tan -0.015624 0.094364 -0.992126 1.000000
tan -0.029512 0.326306 -0.937008 1.000000
tan 0.015624 0.992126 -0.141980 1.000000
tan 0.103354 0.939984 -0.137144 1.000000
tan 0.490731 0.631161 -0.480253 1.000000
tan 0.007812 -0.000744 -0.992126 1.000000
tan -0.015748 0.008246 -1.000000 1.000000
tan 0.000000 -0.000000 -1.000000 1.000000
tan -0.015748 0.007750 -1.000000 1.000000
tan 0.042780 -0.350859 -0.905512 1.000000
tan 0.000000 -0.000000 -1.000000 1.000000
tan 0.079112 0.329593 -0.913386 1.000000
tan -0.376961 0.085436 -0.828074 1.000000
tan 0.000000 -0.141732 -0.992126 1.000000
tan 0.015748 0.000124 -1.000000 1.000000
tan -0.031248 -0.992126 -0.142476 1.000000
tan -0.219790 -0.880092 -0.248620 1.000000
tan -0.015376 -0.197842 -0.976378 1.000000
tan 0.000000 -0.826772 -0.566929 1.000000
tan -0.023622 -1.000000 0.031496 1.000000
tan 0.072416 -0.861802 0.282969 1.000000
tan -0.012028 -0.647281 0.763779 1.000000
tan 0.023436 -0.992126 0.084754 1.000000
tan 0.082088 -0.537107 0.836940 1.000000
tan -0.279745 -0.841899 0.386943 1.000000
tan 0.007874 -1.000000 -0.055118 1.000000
tan 0.090768 -0.953066 -0.206088 1.000000
tan 0.581313 -0.047554 -0.807552 1.000000
tan -0.040796 -0.047678 -0.922314 1.000000
tan 0.006882 -0.031496 -1.000000 1.000000
tan 0.019468 0.065286 -0.921260 1.000000
tan 0.430653 -0.024676 -0.891128 1.000000
tan -0.006138 0.055118 -1.000000 1.000000
tan -0.015376 0.047244 -1.000000 1.000000
tan -0.438527 0.027776 -0.881890 1.000000
tan 0.008618 -0.031496 -1.000000 1.000000
tan -0.042966 0.103602 -0.878852 1.000000
tan 0.029512 -0.046438 -0.890694 1.000000
tan 0.234360 -0.013392 -0.870482 1.000000
f 3/3/3 2/2/2 1/1/1
f 1/1/1 2/2/2 4/4/4
f 3/3/3 5/5/5 2/2/2
f 2/2/2 6/6/6 4/4/4
f 7/7/7 4/4/4 6/6/6
f 7/7/7 6/6/6 8/8/8
f 9/9/9 2/2/2 5/5/5
f 10/10/10 9/9/9 5/5/5
f 9/9/9 10/10/10 11/11/11
f 6/6/6 2/2/2 12/12/12
f 2/2/2 9/9/9 12/12/12
f 8/8/8 6/6/6 12/12/12
f 13/13/13 9/9/9 11/11/11
f 12/12/12 9/9/9 13/13/13
f 12/12/12 13/13/13 8/8/8
f 13/13/13 11/11/11 14/14/14
f 8/8/8 13/13/13 14/14/14
f 17/17/17 16/16/16 15/15/15
f 16/16/16 18/18/18 15/15/15
f 17/17/17 15/15/15 19/19/19
f 20/20/20 15/15/15 18/18/18
f 21/21/21 20/20/20 18/18/18
f 22/22/22 19/19/19 15/15/15
f 23/23/23 19/19/19 22/22/22
f 15/15/15 24/24/24 22/22/22
f 15/15/15 20/20/20 24/24/24
f 23/23/23 22/22/22 25/25/25
f 24/24/24 25/25/25 22/22/22
f 26/26/26 23/23/23 25/25/25
f 27/27/27 26/26/26 25/25/25
f 24/24/24 28/28/28 25/25/25
f 27/27/27 25/25/25 28/28/28
f 20/20/20 28/28/28 24/24/24
f 29/29/29 27/27/27 28/28/28
f 28/28/28 20/20/20 29/29/29
f 21/21/21 29/29/29 20/20/20
f 30/30/30 27/27/27 29/29/29
f 21/21/21 30/30/30 29/29/29
f 33/33/33 32/32/32 31/31/31
f 32/32/32 33/33/33 34/34/34
f 31/31/31 35/35/35 33/33/33
f 34/34/34 33/33/33 36/36/36
f 36/36/36 37/37/37 34/34/34
f 38/38/38 37/37/37 36/36/36
f 39/39/39 33/33/33 35/35/35
f 33/33/33 40/40/40 36/36/36
f 39/39/39 35/35/35 41/41/41
f 42/42/42 41/41/41 35/35/35
f 43/43/43 33/33/33 39/39/39
f 40/40/40 33/33/33 43/43/43
f 41/41/41 44/44/44 39/39/39
f 44/44/44 43/43/43 39/39/39
f 45/45/45 41/41/41 42/42/42
f 46/46/46 45/45/45 42/42/42
f 47/47/47 45/45/45 46/46/46
f 47/47/47 48/48/48 45/45/45
f 45/45/45 48/48/48 41/41/41
f 47/47/47 49/49/49 48/48/48
f 50/50/50 48/48/48 49/49/49
f 51/51/51 41/41/41 48/48/48
f 44/44/44 41/41/41 51/51/51
f 48/48/48 50/50/50 52/52/52
f 48/48/48 52/52/52 51/51/51
f 44/44/44 51/51/51 52/52/52
f 43/43/43 44/44/44 52/52/52
f 52/52/52 50/50/50 53/53/53
f 53/53/53 43/43/43 52/52/52
f 53/53/53 54/54/54 43/43/43
f 40/40/40 43/43/43 54/54/54
f 40/40/40 54/54/54 36/36/36
f 54/54/54 53/53/53 55/55/55
f 56/56/56 36/36/36 54/54/54
f 54/54/54 55/55/55 56/56/56
f 36/36/36 56/56/56 38/38/38
f 57/57/57 55/55/55 53/53/53
f 56/56/56 58/58/58 38/38/38
f 58/58/58 56/56/56 55/55/55
f 59/59/59 38/38/38 58/58/58
f 60/60/60 38/38/38 59/59/59
f 55/55/55 61/61/61 58/58/58
f 61/61/61 59/59/59 58/58/58
f 55/55/55 57/57/57 61/61/61
f 60/60/60 59/59/59 62/62/62
f 61/61/61 57/57/57 63/63/63
f 61/61/61 63/63/63 59/59/59
f 62/62/62 59/59/59 63/63/63
f 64/64/64 63/63/63 57/57/57
f 64/64/64 62/62/62 63/63/63
