mtllib SM_Painting3_LOD3.mtl
g SM_Painting3_LOD3
#Vertices 105
#Indices 390
#Section 0 Offset 0 NumIndices 390 MaterialIndex 0 MI_paintings
v 0.310503 1.173138 0.521268
v 0.119703 1.178162 0.502906
v 0.316924 1.150126 0.504014
v 0.142209 1.146893 0.494777
v 0.318166 1.012086 0.496538
v -0.184278 1.175198 0.493820
v 0.319425 0.678503 0.494433
v -0.535127 1.148561 0.494347
v -0.559258 1.175560 0.498405
v -0.707543 1.172238 0.507603
v -0.689455 1.142391 0.499205
v -0.713030 0.657359 0.495158
v -0.713074 0.157040 0.495389
v -0.553504 -0.373676 0.494400
v -0.688419 -0.376184 0.494102
v -0.709081 -0.502961 0.510795
v -0.689976 -0.507079 0.501332
v -0.543735 -0.506312 0.494903
v 0.151808 -0.390119 0.494388
v 0.322587 -0.163356 0.494670
v 0.063981 -0.504529 0.493788
v 0.179966 -0.507711 0.497095
v 0.327414 -0.356853 0.496961
v 0.298193 -0.502789 0.508927
v 0.316719 -0.499034 0.522166
v -0.714078 1.177999 0.513864
v -0.707543 1.172238 0.507603
v -0.559258 1.175560 0.498405
v -0.184278 1.175198 0.493820
v -0.090190 1.185635 0.509505
v 0.119703 1.178162 0.502906
v -0.502780 1.186746 0.526001
v 0.174971 1.186106 0.527431
v 0.310503 1.173138 0.521268
v 0.318695 1.179878 0.538150
v -0.552223 1.187469 0.628242
v -0.716014 1.183037 0.638318
v -0.706392 1.175072 0.650689
v 0.169779 1.188082 0.626965
v 0.326369 1.183030 0.633769
v 0.314290 1.173233 0.650986
v -0.708452 -0.499121 0.641254
v -0.554642 -0.503040 0.653121
v -0.718081 -0.510801 0.624775
v -0.541262 -0.517327 0.624346
v -0.714353 -0.509933 0.522868
v -0.090687 -0.516185 0.643388
v 0.318850 -0.504543 0.650861
v 0.182356 -0.517705 0.630968
v 0.327434 -0.510287 0.640513
v 0.329313 -0.511009 0.550835
v 0.298193 -0.502789 0.508927
v 0.316719 -0.499034 0.522166
v 0.170886 -0.517612 0.531338
v 0.179966 -0.507711 0.497095
v -0.502121 -0.517114 0.510999
v -0.095226 -0.516689 0.507557
v 0.063981 -0.504529 0.493788
v -0.689976 -0.507079 0.501332
v -0.709081 -0.502961 0.510795
v -0.543735 -0.506312 0.494903
v 0.318695 1.179878 0.538150
v 0.310503 1.173138 0.521268
v 0.316924 1.150126 0.504014
v 0.338945 1.148788 0.625949
v 0.326369 1.183030 0.633769
v 0.314290 1.173233 0.650986
v 0.315702 1.143648 0.651701
v 0.334435 0.903891 0.646712
v 0.318850 -0.504543 0.650861
v 0.337164 0.929032 0.527206
v 0.333589 -0.383726 0.648082
v 0.327434 -0.510287 0.640513
v 0.337830 0.922702 0.626091
v 0.337999 -0.382770 0.627198
v 0.329313 -0.511009 0.550835
v 0.338048 0.133053 0.522101
v 0.335492 -0.383538 0.527983
v 0.316719 -0.499034 0.522166
v 0.327414 -0.356853 0.496961
v 0.337602 -0.122104 0.504193
v 0.322587 -0.163356 0.494670
v 0.334526 0.957979 0.504899
v 0.318166 1.012086 0.496538
v 0.332299 0.629497 0.497173
v 0.319425 0.678503 0.494433
v -0.720381 -0.367065 0.518083
v -0.709081 -0.502961 0.510795
v -0.713074 0.157040 0.495389
v -0.714353 -0.509933 0.522868
v -0.713030 0.657359 0.495158
v -0.722280 -0.376528 0.617778
v -0.718081 -0.510801 0.624775
v -0.708452 -0.499121 0.641254
v -0.708860 -0.364557 0.649114
v -0.721038 0.614597 0.512246
v -0.721813 1.147297 0.527281
v -0.707543 1.172238 0.507603
v -0.714078 1.177999 0.513864
v -0.721894 1.148941 0.628238
v -0.716014 1.183037 0.638318
v -0.723658 0.046943 0.633267
v -0.707287 0.231753 0.650998
v -0.720253 1.147395 0.645133
v -0.706392 1.175072 0.650689
vt 0.053864 0.394043
vt 0.053864 0.329102
vt 0.063416 0.395020
vt 0.064270 0.336426
vt 0.109314 0.395508
vt 0.056122 0.228027
vt 0.221558 0.394531
vt 0.066467 0.112793
vt 0.057922 0.104004
vt 0.058990 0.055176
vt 0.068909 0.062012
vt 0.227661 0.055176
vt 0.391846 0.055664
vt 0.563965 0.107422
vt 0.563965 0.064941
vt 0.604980 0.057617
vt 0.604980 0.064453
vt 0.605469 0.110840
vt 0.570801 0.334961
vt 0.500000 0.391602
vt 0.606445 0.306641
vt 0.606445 0.343262
vt 0.560059 0.390137
vt 0.605957 0.380859
vt 0.606445 0.388184
vt 0.056488 0.053223
vt 0.059082 0.055664
vt 0.057983 0.104492
vt 0.055298 0.227539
vt 0.049591 0.258789
vt 0.053955 0.329102
vt 0.045044 0.121094
vt 0.045929 0.348145
vt 0.053558 0.394043
vt 0.047089 0.397949
vt 0.013329 0.104004
vt 0.015404 0.048828
vt 0.005337 0.050781
vt 0.010979 0.347656
vt 0.013725 0.402344
vt 0.003979 0.398438
vt 0.651367 0.053711
vt 0.658691 0.104004
vt 0.643555 0.051758
vt 0.649902 0.108887
vt 0.609863 0.055176
vt 0.656738 0.257324
vt 0.657227 0.393066
vt 0.648926 0.347168
vt 0.648438 0.395508
vt 0.618164 0.393066
vt 0.605469 0.381348
vt 0.606934 0.388672
vt 0.617676 0.342285
vt 0.605957 0.343262
vt 0.612793 0.123535
vt 0.612305 0.255371
vt 0.606934 0.306152
vt 0.605469 0.063965
vt 0.605469 0.058105
vt 0.605469 0.110352
vt 0.050354 0.402832
vt 0.054108 0.394531
vt 0.063293 0.393555
vt 0.059967 0.436035
vt 0.046753 0.437988
vt 0.048279 0.446289
vt 0.062805 0.458008
vt 0.146729 0.455078
vt 0.614746 0.440430
vt 0.136230 0.408691
vt 0.573730 0.437012
vt 0.615234 0.428711
vt 0.139282 0.446289
vt 0.572754 0.431152
vt 0.611328 0.398926
vt 0.403564 0.407227
vt 0.569336 0.397949
vt 0.606445 0.388672
vt 0.559570 0.388672
vt 0.486328 0.396973
vt 0.500000 0.390625
vt 0.127930 0.403809
vt 0.109314 0.395020
vt 0.237549 0.401367
vt 0.221558 0.397461
vt 0.562012 0.051270
vt 0.604980 0.057129
vt 0.391846 0.055664
vt 0.607422 0.055176
vt 0.227539 0.055176
vt 0.566406 0.018066
vt 0.610352 0.021484
vt 0.607422 0.014648
vt 0.562500 0.008301
vt 0.241821 0.048340
vt 0.067017 0.046875
vt 0.059021 0.054688
vt 0.056122 0.053223
vt 0.065796 0.012695
vt 0.053772 0.010742
vt 0.428467 0.010254
vt 0.367920 0.000488
vt 0.066040 0.006348
vt 0.056458 0.002930
vt1 0.088074 0.853027
vt1 0.088013 0.713867
vt1 0.102234 0.855469
vt1 0.103516 0.729736
vt1 0.170532 0.855835
vt1 0.091431 0.496094
vt1 0.336914 0.854858
vt1 0.106812 0.249512
vt1 0.094055 0.231445
vt1 0.095703 0.126465
vt1 0.110474 0.140137
vt1 0.346191 0.125488
vt1 0.589844 0.126953
vt1 0.845703 0.237793
vt1 0.846191 0.146484
vt1 0.906250 0.130371
vt1 0.907227 0.145508
vt1 0.907227 0.245117
vt1 0.855957 0.726074
vt1 0.750488 0.847900
vt1 0.908691 0.665527
vt1 0.908691 0.744385
vt1 0.839844 0.844604
vt1 0.908203 0.824951
vt1 0.908691 0.841187
vt1 0.091858 0.121094
vt1 0.095825 0.126465
vt1 0.094177 0.231445
vt1 0.090210 0.496094
vt1 0.081665 0.563477
vt1 0.088196 0.713867
vt1 0.074951 0.267578
vt1 0.076233 0.754639
vt1 0.087585 0.853027
vt1 0.077942 0.860474
vt1 0.027847 0.230469
vt1 0.030960 0.112305
vt1 0.015976 0.115723
vt1 0.024384 0.753662
vt1 0.028442 0.871338
vt1 0.013969 0.862671
vt1 0.975586 0.123047
vt1 0.986816 0.230957
vt1 0.963867 0.118164
vt1 0.973145 0.241699
vt1 0.913574 0.126465
vt1 0.983887 0.559570
vt1 0.983887 0.850830
vt1 0.972656 0.752563
vt1 0.971191 0.856079
vt1 0.926270 0.850708
vt1 0.907227 0.825073
vt1 0.909180 0.840942
vt1 0.925293 0.741455
vt1 0.908203 0.745117
vt1 0.918457 0.272461
vt1 0.917969 0.555420
vt1 0.909668 0.664795
vt1 0.907227 0.144531
vt1 0.907715 0.132324
vt1 0.906738 0.244141
vt1 0.082825 0.872314
vt1 0.088379 0.854492
vt1 0.102173 0.852173
vt1 0.097107 0.942719
vt1 0.077515 0.947388
vt1 0.079712 0.965088
vt1 0.101440 0.990738
vt1 0.226074 0.984398
vt1 0.920898 0.952454
vt1 0.210449 0.883911
vt1 0.860352 0.945496
vt1 0.922363 0.927185
vt1 0.215088 0.965027
vt1 0.858887 0.932678
vt1 0.916504 0.863159
vt1 0.607422 0.881531
vt1 0.854004 0.861450
vt1 0.908691 0.841431
vt1 0.839844 0.842407
vt1 0.730469 0.859131
vt1 0.750488 0.845947
vt1 0.198120 0.874146
vt1 0.170410 0.854858
vt1 0.360840 0.869141
vt1 0.337158 0.860352
vt1 0.842773 0.117676
vt1 0.906738 0.129883
vt1 0.589844 0.126953
vt1 0.910645 0.125488
vt1 0.345947 0.125488
vt1 0.849609 0.045898
vt1 0.914551 0.053223
vt1 0.910156 0.039551
vt1 0.844238 0.024902
vt1 0.366943 0.111328
vt1 0.107666 0.108398
vt1 0.095764 0.125488
vt1 0.091309 0.121582
vt1 0.105774 0.034180
vt1 0.087952 0.030762
vt1 0.644043 0.029297
vt1 0.554199 0.009277
vt1 0.106262 0.020996
vt1 0.091919 0.014160
vn 0.362205 0.606299 -0.708661
vn 0.015748 0.511811 -0.858268
vn 0.196850 0.188976 -0.960630
vn 0.007874 0.039370 -1.000000
vn 0.102362 0.039370 -0.992126
vn 0.000000 0.015748 -1.000000
vn 0.000000 -0.000000 -1.000000
vn 0.000000 0.007874 -1.000000
vn -0.039370 0.314960 -0.944882
vn -0.354331 0.251968 -0.897638
vn -0.204724 0.070866 -0.976378
vn -0.062992 -0.007874 -1.000000
vn -0.094488 0.007874 -0.992126
vn 0.000000 -0.000000 -1.000000
vn -0.212598 -0.007874 -0.976378
vn -0.653543 -0.157480 -0.740157
vn -0.307087 -0.299213 -0.905512
vn 0.000000 -0.078740 -1.000000
vn 0.000000 -0.000000 -1.000000
vn 0.047244 -0.007874 -1.000000
vn 0.000000 -0.086614 -1.000000
vn 0.039370 -0.314961 -0.944882
vn 0.228346 -0.015748 -0.976378
vn 0.299213 -0.409449 -0.866142
vn 0.551181 -0.559055 -0.622047
vn -0.149606 0.968504 -0.196850
vn -0.165354 0.897638 -0.401575
vn -0.031496 0.669291 -0.748031
vn 0.023622 0.503937 -0.866142
vn 0.007874 0.984252 -0.181102
vn 0.023622 0.811023 -0.582677
vn -0.007874 1.000000 -0.000000
vn 0.015748 1.000000 -0.070866
vn 0.259843 0.763779 -0.590551
vn 0.275591 0.952756 -0.141732
vn 0.000000 1.000000 0.031496
vn -0.346457 0.937008 0.102362
vn -0.039370 0.614173 0.787401
vn 0.000000 1.000000 0.047244
vn 0.307087 0.937008 0.149606
vn 0.047244 0.574803 0.811023
vn -0.212598 -0.708661 0.677165
vn -0.015748 -0.590551 0.803150
vn -0.417323 -0.881890 0.212599
vn 0.000000 -1.000000 0.055118
vn -0.291339 -0.944882 -0.141732
vn 0.000000 -0.787401 0.622047
vn 0.047244 -0.559055 0.826772
vn 0.007874 -0.992126 0.086614
vn 0.377953 -0.897638 0.220473
vn 0.354331 -0.921260 -0.141732
vn 0.267717 -0.740157 -0.622047
vn 0.511811 -0.669291 -0.535433
vn 0.007874 -1.000000 -0.055118
vn 0.047244 -0.677165 -0.732283
vn 0.000000 -1.000000 -0.047244
vn 0.000000 -0.984252 -0.181102
vn 0.039370 -0.425197 -0.905512
vn -0.110236 -0.771653 -0.629921
vn -0.496063 -0.755905 -0.433071
vn -0.023622 -0.519685 -0.850394
vn 0.692913 0.677165 -0.244095
vn 0.622047 0.559055 -0.551181
vn 0.826772 0.196850 -0.527559
vn 0.992126 0.118110 0.086614
vn 0.677165 0.716535 0.165354
vn 0.669291 0.433071 0.598425
vn 0.196850 0.000000 0.984252
vn 0.716535 0.000000 0.692913
vn 0.283465 -0.023622 0.960630
vn 0.992126 0.023622 -0.094488
vn 0.700787 -0.015748 0.708661
vn 0.818898 -0.480315 0.314961
vn 1.000000 0.000000 0.047244
vn 1.000000 -0.007874 0.047244
vn 0.858268 -0.488189 -0.173228
vn 1.000000 -0.007874 0.000000
vn 0.992126 -0.023622 -0.125984
vn 0.748031 -0.370079 -0.551181
vn 0.748031 -0.039370 -0.661417
vn 0.944882 -0.007874 -0.330709
vn 0.338583 -0.007874 -0.944882
vn 0.905512 0.031496 -0.417323
vn 0.385827 0.047244 -0.921260
vn 0.535433 -0.000000 -0.842520
vn 0.212598 -0.000000 -0.976378
vn -0.992126 -0.007874 -0.141732
vn -0.866142 -0.118110 -0.480315
vn -0.771654 -0.000000 -0.637795
vn -0.913386 -0.370079 -0.173228
vn -0.661417 -0.007874 -0.748031
vn -1.000000 -0.007874 0.047244
vn -0.913386 -0.377953 0.157480
vn -0.771654 -0.196850 0.606299
vn -0.740157 -0.015748 0.669291
vn -1.000000 -0.000000 -0.047244
vn -0.984252 0.055118 -0.141732
vn -0.755906 0.110236 -0.645669
vn -0.724409 0.661417 -0.188976
vn -1.000000 0.000000 0.039370
vn -0.732283 0.661417 0.157480
vn -0.976378 0.000000 0.220472
vn -0.464567 0.000000 0.889764
vn -0.787402 0.015748 0.614173
vn -0.425197 0.039370 0.905512
tan -0.883564 0.006076 -0.446401 1.000000
tan -0.893112 -0.126914 -0.092070 1.000000
tan -0.960630 -0.052948 -0.207266 1.000000
tan -1.000000 -0.000000 -0.007874 1.000000
tan -0.992126 -0.007812 -0.102672 1.000000
tan -1.000000 0.007874 0.000124 1.000000
tan -1.000000 -0.007874 0.000000 1.000000
tan -1.000000 0.007874 0.000062 1.000000
tan -0.947362 -0.037510 0.026970 1.000000
tan -0.897638 0.007068 0.356315 1.000000
tan -0.976378 0.015376 0.205840 1.000000
tan -1.000000 0.000000 0.062992 1.000000
tan -0.992126 0.007812 0.094550 1.000000
tan -1.000000 0.000000 0.000000 1.000000
tan -0.976378 0.007688 0.212536 1.000000
tan -0.743877 0.003782 0.656023 1.000000
tan -0.905512 -0.049910 0.323579 1.000000
tan -1.000000 -0.007874 0.000620 1.000000
tan -1.000000 -0.023622 0.000000 1.000000
tan -1.000000 -0.039370 -0.046934 1.000000
tan -1.000000 0.007874 -0.000682 1.000000
tan -0.947362 0.036890 -0.051770 1.000000
tan -0.976378 -0.023064 -0.227974 1.000000
tan -0.878666 0.074524 -0.338769 1.000000
tan -0.758386 -0.025420 -0.649141 1.000000
tan -0.960878 -0.125178 0.114390 1.000000
tan -0.876434 -0.079236 0.183768 1.000000
tan -0.945192 0.196664 0.215760 1.000000
tan -0.932978 -0.111848 -0.090520 1.000000
tan -0.984252 0.007874 -0.000000 1.000000
tan -0.932296 0.027466 0.000434 1.000000
tan -1.000000 -0.007874 0.062992 1.000000
tan -1.000000 0.011842 -0.055118 1.000000
tan -0.886354 0.115878 -0.240126 1.000000
tan -0.952756 0.267778 -0.052514 1.000000
tan -1.000000 -0.000992 0.031496 1.000000
tan -0.937814 -0.355323 0.078430 1.000000
tan -0.622853 -0.522971 0.376775 1.000000
tan -1.000000 0.002976 -0.062992 1.000000
tan -0.937008 0.315333 -0.051646 1.000000
tan -0.817968 0.240002 -0.122450 1.000000
tan -0.853866 0.474239 0.228222 1.000000
tan -0.744931 0.497117 0.350921 1.000000
tan -0.885238 0.432389 0.055924 1.000000
tan -1.000000 0.003472 0.062992 1.000000
tan -0.937442 0.275653 0.089280 1.000000
tan -0.944820 -0.039184 -0.049600 1.000000
tan -0.777172 -0.333871 -0.181350 1.000000
tan -0.984314 -0.018042 -0.117180 1.000000
tan -0.899374 -0.390105 -0.046500 1.000000
tan -0.921260 -0.347635 -0.043524 1.000000
tan -0.764214 -0.004526 -0.323517 1.000000
tan -0.833716 -0.467667 -0.212350 1.000000
tan -1.000000 -0.005704 -0.039370 1.000000
tan -0.758262 0.445657 -0.461033 1.000000
tan -1.000000 -0.002232 0.047244 1.000000
tan -0.984252 0.007130 -0.038750 1.000000
tan -0.884122 0.178250 -0.122140 1.000000
tan -0.745613 -0.146444 0.309877 1.000000
tan -0.790874 0.485337 0.058776 1.000000
tan -0.781202 -0.380557 0.254263 1.000000
tan -0.698431 0.554343 -0.444789 1.000000
tan -0.755099 0.229462 -0.619443 1.000000
tan -0.545105 0.091140 -0.820262 1.000000
tan 0.077314 0.078120 -0.992126 1.000000
tan -0.354145 0.481741 -0.637237 1.000000
tan 0.612871 0.047926 -0.720131 1.000000
tan 0.984252 0.062000 -0.196850 1.000000
tan 0.692913 0.011098 -0.716535 1.000000
tan 0.953066 -0.083204 -0.283279 1.000000
tan -0.096162 0.070308 -0.992126 1.000000
tan 0.708413 -0.027776 -0.701159 1.000000
tan 0.376775 0.102176 -0.823795 1.000000
tan 0.047244 0.031496 -1.000000 1.000000
tan 0.046190 -0.086614 -0.992126 1.000000
tan -0.422469 -0.493335 -0.702833 1.000000
tan -0.000372 -0.047244 -1.000000 1.000000
tan -0.127596 -0.109368 -0.984314 1.000000
tan -0.621241 -0.141980 -0.747783 1.000000
tan -0.661727 -0.005890 -0.748031 1.000000
tan -0.330957 -0.029760 -0.944882 1.000000
tan -0.944882 -0.022320 -0.338397 1.000000
tan -0.418315 0.028520 -0.905512 1.000000
tan -0.921260 0.007254 -0.385455 1.000000
tan -0.842520 -0.000000 -0.535433 1.000000
tan -0.976378 -0.007688 -0.212598 1.000000
tan -0.141980 0.031248 0.992126 1.000000
tan -0.488685 0.061380 0.866142 1.000000
tan -0.637795 0.000000 0.771653 1.000000
tan -0.253642 0.208568 0.891810 1.000000
tan -0.748031 0.000000 0.661417 1.000000
tan 0.046872 0.047244 1.000000 1.000000
tan 0.169384 -0.028768 0.913386 1.000000
tan 0.609399 -0.002604 0.774753 1.000000
tan 0.669167 0.011098 0.740281 1.000000
tan -0.047244 0.000000 1.000000 1.000000
tan -0.144336 -0.046500 0.984252 1.000000
tan -0.651745 -0.036580 0.756773 1.000000
tan -0.644305 -0.575857 0.454337 1.000000
tan 0.039370 -0.031496 1.000000 1.000000
tan 0.259161 0.102920 0.772831 1.000000
tan 0.220472 0.015376 0.976378 1.000000
tan 0.889764 0.007006 0.464567 1.000000
tan 0.614049 -0.006200 0.787401 1.000000
tan 0.905512 -0.035650 0.426747 1.000000
f 3/3/3 2/2/2 1/1/1
f 4/4/4 2/2/2 3/3/3
f 5/5/5 4/4/4 3/3/3
f 6/6/6 2/2/2 4/4/4
f 4/4/4 5/5/5 7/7/7
f 4/4/4 8/8/8 6/6/6
f 7/7/7 8/8/8 4/4/4
f 8/8/8 9/9/9 6/6/6
f 8/8/8 10/10/10 9/9/9
f 11/11/11 10/10/10 8/8/8
f 10/10/10 11/11/11 12/12/12
f 12/12/12 11/11/11 8/8/8
f 12/12/12 8/8/8 13/13/13
f 8/8/8 7/7/7 14/14/14
f 14/14/14 13/13/13 8/8/8
f 13/13/13 14/14/14 15/15/15
f 16/16/16 13/13/13 15/15/15
f 15/15/15 17/17/17 16/16/16
f 15/15/15 14/14/14 17/17/17
f 18/18/18 17/17/17 14/14/14
f 19/19/19 14/14/14 7/7/7
f 14/14/14 19/19/19 18/18/18
f 7/7/7 20/20/20 19/19/19
f 21/21/21 18/18/18 19/19/19
f 21/21/21 19/19/19 22/22/22
f 23/23/23 19/19/19 20/20/20
f 19/19/19 24/24/24 22/22/22
f 24/24/24 19/19/19 23/23/23
f 24/24/24 23/23/23 25/25/25
f 28/28/28 27/27/27 26/26/26
f 26/26/26 29/29/29 28/28/28
f 26/26/26 30/30/30 29/29/29
f 31/31/31 29/29/29 30/30/30
f 32/32/32 30/30/30 26/26/26
f 31/31/31 30/30/30 33/33/33
f 33/33/33 30/30/30 32/32/32
f 33/33/33 34/34/34 31/31/31
f 34/34/34 33/33/33 35/35/35
f 26/26/26 36/36/36 32/32/32
f 37/37/37 36/36/36 26/26/26
f 37/37/37 38/38/38 36/36/36
f 39/39/39 33/33/33 32/32/32
f 39/39/39 32/32/32 36/36/36
f 33/33/33 39/39/39 35/35/35
f 36/36/36 38/38/38 39/39/39
f 40/40/40 35/35/35 39/39/39
f 41/41/41 39/39/39 38/38/38
f 40/40/40 39/39/39 41/41/41
f 44/44/44 43/43/43 42/42/42
f 43/43/43 44/44/44 45/45/45
f 44/44/44 46/46/46 45/45/45
f 47/47/47 43/43/43 45/45/45
f 48/48/48 43/43/43 47/47/47
f 49/49/49 48/48/48 47/47/47
f 45/45/45 49/49/49 47/47/47
f 50/50/50 48/48/48 49/49/49
f 50/50/50 49/49/49 51/51/51
f 53/53/53 51/51/51 52/52/52
f 51/51/51 49/49/49 54/54/54
f 51/51/51 54/54/54 52/52/52
f 49/49/49 45/45/45 54/54/54
f 55/55/55 52/52/52 54/54/54
f 54/54/54 45/45/45 56/56/56
f 56/56/56 45/45/45 46/46/46
f 55/55/55 54/54/54 57/57/57
f 54/54/54 56/56/56 57/57/57
f 58/58/58 55/55/55 57/57/57
f 59/59/59 56/56/56 46/46/46
f 56/56/56 59/59/59 57/57/57
f 58/58/58 57/57/57 59/59/59
f 46/46/46 60/60/60 59/59/59
f 61/61/61 58/58/58 59/59/59
f 64/64/64 63/63/63 62/62/62
f 62/62/62 65/65/65 64/64/64
f 65/65/65 62/62/62 66/66/66
f 65/65/65 66/66/66 67/67/67
f 68/68/68 65/65/65 67/67/67
f 65/65/65 68/68/68 69/69/69
f 68/68/68 70/70/70 69/69/69
f 65/65/65 71/71/71 64/64/64
f 72/72/72 69/69/69 70/70/70
f 73/73/73 72/72/72 70/70/70
f 69/69/69 74/74/74 65/65/65
f 65/65/65 74/74/74 71/71/71
f 75/75/75 69/69/69 72/72/72
f 72/72/72 73/73/73 75/75/75
f 74/74/74 69/69/69 75/75/75
f 73/73/73 76/76/76 75/75/75
f 71/71/71 74/74/74 77/77/77
f 77/77/77 74/74/74 75/75/75
f 78/78/78 75/75/75 76/76/76
f 77/77/77 75/75/75 78/78/78
f 79/79/79 78/78/78 76/76/76
f 78/78/78 79/79/79 80/80/80
f 80/80/80 81/81/81 78/78/78
f 81/81/81 77/77/77 78/78/78
f 81/81/81 80/80/80 82/82/82
f 71/71/71 77/77/77 83/83/83
f 83/83/83 77/77/77 81/81/81
f 71/71/71 83/83/83 64/64/64
f 84/84/84 64/64/64 83/83/83
f 82/82/82 85/85/85 81/81/81
f 85/85/85 83/83/83 81/81/81
f 83/83/83 85/85/85 84/84/84
f 85/85/85 82/82/82 86/86/86
f 86/86/86 84/84/84 85/85/85
f 89/89/89 88/88/88 87/87/87
f 90/90/90 87/87/87 88/88/88
f 91/91/91 89/89/89 87/87/87
f 87/87/87 90/90/90 92/92/92
f 93/93/93 92/92/92 90/90/90
f 93/93/93 94/94/94 92/92/92
f 95/95/95 92/92/92 94/94/94
f 87/87/87 96/96/96 91/91/91
f 87/87/87 92/92/92 96/96/96
f 91/91/91 96/96/96 97/97/97
f 98/98/98 91/91/91 97/97/97
f 97/97/97 99/99/99 98/98/98
f 96/96/96 100/100/100 97/97/97
f 97/97/97 100/100/100 99/99/99
f 92/92/92 100/100/100 96/96/96
f 101/101/101 99/99/99 100/100/100
f 92/92/92 95/95/95 102/102/102
f 92/92/92 102/102/102 100/100/100
f 103/103/103 102/102/102 95/95/95
f 100/100/100 104/104/104 101/101/101
f 102/102/102 104/104/104 100/100/100
f 102/102/102 103/103/103 104/104/104
f 104/104/104 105/105/105 101/101/101
f 105/105/105 104/104/104 103/103/103
