mtllib SM_Painting1_LOD2.mtl
g SM_Painting1_LOD2
#Vertices 119
#Indices 531
#Section 0 Offset 0 NumIndices 531 MaterialIndex 0 MI_paintings
v 0.222647 0.090166 0.597642
v 0.391599 0.089937 0.542025
v 0.392766 0.089335 0.599324
v 0.390589 0.090106 0.215184
v 0.166816 0.090175 0.137917
v 0.391854 0.087865 -0.046458
v -0.174605 0.090167 0.596191
v 0.391187 0.090141 -0.315699
v 0.178634 0.090144 -0.449215
v 0.392787 0.089254 -0.458657
v 0.395992 0.085598 -0.591435
v -0.174119 0.090187 0.510548
v -0.356020 0.087382 0.596703
v 0.191327 0.090091 -0.600889
v -0.356072 0.090185 0.510746
v 0.390900 0.077600 -0.604657
v -0.376929 0.078051 0.593403
v -0.382091 0.090207 0.395341
v -0.386669 0.087059 0.521089
v -0.383111 0.065860 0.597850
v -0.393110 0.089075 0.200208
v -0.402743 0.078461 0.462456
v -0.384170 0.090189 -0.438386
v -0.132237 0.089266 -0.593715
v -0.372320 0.089959 -0.598303
v -0.123503 0.083696 -0.608998
v 0.194101 0.078260 -0.618332
v -0.367916 0.082322 -0.609499
v 0.374466 0.056807 -0.617659
v 0.397765 0.058134 -0.609430
v -0.120437 0.071284 -0.619149
v 0.374433 -0.048208 -0.621018
v 0.394160 -0.074947 -0.605805
v 0.195421 0.045887 -0.620671
v 0.375725 -0.080692 -0.617809
v 0.392894 -0.089382 -0.604631
v 0.195459 -0.046686 -0.620783
v 0.197615 -0.081125 -0.618634
v -0.180393 -0.081674 -0.618499
v -0.357482 -0.090162 -0.602981
v -0.190035 -0.048046 -0.620665
v -0.359915 -0.056965 -0.622291
v -0.384970 -0.084972 -0.602961
v -0.389834 -0.058762 -0.607427
v -0.161708 0.042601 -0.620776
v -0.360830 0.066527 -0.617584
v -0.385378 0.076280 -0.604381
v -0.388883 0.085729 -0.594026
v -0.397904 0.088468 -0.403091
v -0.395202 0.073180 -0.596933
v -0.404725 0.075427 -0.400004
v -0.397317 -0.002050 -0.596613
v -0.389834 -0.058762 -0.607427
v -0.405562 0.046922 -0.434141
v -0.395518 -0.062493 -0.598687
v -0.384970 -0.084972 -0.602961
v -0.405547 0.044436 0.478899
v -0.405394 -0.047077 -0.431910
v -0.405049 -0.082704 -0.409785
v -0.386601 -0.090452 -0.427691
v -0.405349 -0.046428 0.510324
v -0.404844 -0.034909 0.585087
v -0.400102 -0.084337 0.601792
v -0.402101 -0.089464 0.514841
v -0.405084 -0.079888 0.200341
v -0.394300 -0.089960 0.246131
v 0.396065 -0.074151 0.610702
v 0.396569 0.078561 0.604481
v 0.403845 -0.081457 0.599373
v 0.405329 -0.045623 0.519088
v 0.404319 -0.086469 0.518063
v 0.401779 -0.092246 0.284185
v 0.405353 0.045779 0.511153
v 0.405312 -0.046137 -0.443913
v 0.405848 0.076051 0.444536
v 0.392766 0.089335 0.599324
v 0.391599 0.089937 0.542025
v 0.405146 0.040697 0.034800
v 0.399088 0.086609 0.154111
v 0.390589 0.090106 0.215184
v 0.391854 0.087865 -0.046458
v 0.401800 0.070824 0.100103
v 0.405636 0.076053 -0.401696
v 0.391187 0.090141 -0.315699
v 0.392787 0.089254 -0.458657
v 0.395992 0.085598 -0.591435
v 0.405399 0.045680 -0.444493
v 0.397765 0.058134 -0.609430
v 0.390900 0.077600 -0.604657
v 0.403523 -0.060816 -0.593561
v 0.394160 -0.074947 -0.605805
v 0.392894 -0.089382 -0.604631
v 0.405157 -0.078291 -0.442316
v 0.393544 -0.090203 -0.431274
v -0.376929 0.078051 0.593403
v -0.356020 0.087382 0.596703
v -0.383111 0.065860 0.597850
v -0.360065 0.057618 0.613090
v -0.368443 -0.045891 0.617096
v -0.400102 -0.084337 0.601792
v -0.371888 -0.090766 0.601608
v -0.175202 -0.080815 0.618955
v -0.126327 -0.090303 0.604738
v 0.377577 -0.088056 0.612390
v -0.193485 -0.043165 0.620746
v 0.197992 -0.077433 0.619762
v 0.381243 -0.070504 0.618235
v 0.396065 -0.074151 0.610702
v 0.396569 0.078561 0.604481
v 0.209562 -0.043301 0.620646
v 0.371936 0.065060 0.617315
v 0.392766 0.089335 0.599324
v -0.145701 0.047463 0.621099
v 0.197595 0.048949 0.620670
v 0.199192 0.080245 0.615688
v 0.222647 0.090166 0.597642
v -0.163664 0.080782 0.618593
v -0.114078 0.090803 0.606741
v -0.174605 0.090167 0.596191
vt 0.882324 0.382324
vt 0.928223 0.367188
vt 0.928711 0.383301
vt 0.928711 0.277832
vt 0.868164 0.256348
vt 0.930176 0.206543
vt 0.773926 0.380859
vt 0.928711 0.132324
vt 0.871094 0.096191
vt 0.929199 0.093750
vt 0.930176 0.057617
vt 0.774902 0.357422
vt 0.725586 0.380371
vt 0.875000 0.055176
vt 0.726074 0.356934
vt 0.928711 0.053223
vt 0.719238 0.379883
vt 0.718750 0.326660
vt 0.717773 0.360352
vt 0.715332 0.382324
vt 0.715332 0.273438
vt 0.711914 0.344727
vt 0.718262 0.099121
vt 0.786621 0.056641
vt 0.720703 0.056152
vt 0.788574 0.051758
vt 0.875488 0.049805
vt 0.721680 0.052734
vt 0.924805 0.046387
vt 0.931641 0.047852
vt 0.789551 0.047363
vt 0.925781 0.017090
vt 0.933105 0.009277
vt 0.876465 0.040527
vt 0.926758 0.007812
vt 0.932129 0.002441
vt 0.876953 0.016113
vt 0.877930 0.005859
vt 0.772461 0.005371
vt 0.723633 0.001465
vt 0.770020 0.014648
vt 0.723145 0.013184
vt 0.714844 0.004883
vt 0.713867 0.012695
vt 0.778320 0.039551
vt 0.723145 0.047363
vt 0.715820 0.051270
vt 0.716797 0.057129
vt 0.714355 0.108887
vt 0.712402 0.056152
vt 0.710449 0.109375
vt 0.691895 0.055176
vt 0.675781 0.050781
vt 0.703125 0.100098
vt 0.674805 0.054199
vt 0.667969 0.052246
vt 0.703125 0.350098
vt 0.676758 0.100098
vt 0.666992 0.105957
vt 0.662109 0.100586
vt 0.678223 0.359863
vt 0.685059 0.381348
vt 0.670898 0.387695
vt 0.667969 0.362305
vt 0.667480 0.273926
vt 0.663574 0.286621
vt 0.974609 0.389160
vt 0.931641 0.384766
vt 0.977051 0.385254
vt 0.967773 0.361816
vt 0.979004 0.361816
vt 0.980469 0.296875
vt 0.942383 0.359375
vt 0.967285 0.096680
vt 0.934570 0.340820
vt 0.928223 0.383301
vt 0.928223 0.367188
vt 0.943359 0.228516
vt 0.931641 0.261719
vt 0.928711 0.278320
vt 0.929688 0.206055
vt 0.934570 0.246582
vt 0.934082 0.108887
vt 0.928223 0.132324
vt 0.928711 0.093750
vt 0.928223 0.057617
vt 0.942383 0.096680
vt 0.935547 0.051758
vt 0.928711 0.053711
vt 0.968750 0.054688
vt 0.973145 0.049805
vt 0.977539 0.050781
vt 0.976074 0.096680
vt 0.980957 0.099609
vt 0.719727 0.381348
vt 0.726074 0.380371
vt 0.715820 0.384766
vt 0.724121 0.388672
vt 0.719238 0.416992
vt 0.708984 0.427246
vt 0.717285 0.429688
vt 0.771484 0.431641
vt 0.784668 0.437012
vt 0.925781 0.434570
vt 0.767578 0.420898
vt 0.875977 0.431152
vt 0.926270 0.428711
vt 0.931152 0.429688
vt 0.930664 0.387207
vt 0.878906 0.421875
vt 0.922852 0.391602
vt 0.928711 0.382812
vt 0.781250 0.396484
vt 0.875488 0.396484
vt 0.875488 0.387695
vt 0.881836 0.382324
vt 0.776855 0.387207
vt 0.790527 0.383301
vt 0.774414 0.380371
vt1 0.686523 0.868652
vt1 0.829102 0.835083
vt1 0.830566 0.870361
vt1 0.830078 0.634521
vt1 0.643066 0.585938
vt1 0.834961 0.472168
vt1 0.354004 0.865234
vt1 0.830566 0.305664
vt1 0.652344 0.224609
vt1 0.831543 0.218750
vt1 0.834473 0.137695
vt1 0.355957 0.813110
vt1 0.204346 0.864624
vt1 0.663574 0.132324
vt1 0.205200 0.812622
vt1 0.831055 0.127441
vt1 0.184814 0.864014
vt1 0.182129 0.743408
vt1 0.180420 0.818970
vt1 0.172485 0.868896
vt1 0.171509 0.624023
vt1 0.161743 0.785034
vt1 0.180664 0.230469
vt1 0.391357 0.135254
vt1 0.189453 0.134277
vt1 0.398682 0.125000
vt1 0.666016 0.119629
vt1 0.192505 0.125488
vt1 0.818359 0.111816
vt1 0.839355 0.114746
vt1 0.401367 0.115234
vt1 0.821777 0.045898
vt1 0.843750 0.028320
vt1 0.667969 0.099609
vt1 0.823730 0.025391
vt1 0.839844 0.012695
vt1 0.669434 0.042969
vt1 0.672363 0.021484
vt1 0.349121 0.019531
vt1 0.197388 0.011230
vt1 0.341309 0.040527
vt1 0.196411 0.037109
vt1 0.171387 0.018066
vt1 0.167847 0.036621
vt1 0.366211 0.096680
vt1 0.197388 0.114746
vt1 0.173218 0.123535
vt1 0.175659 0.136719
vt1 0.169556 0.251953
vt1 0.164307 0.134277
vt1 0.157227 0.253906
vt1 0.100159 0.131836
vt1 0.051300 0.122559
vt1 0.133911 0.232910
vt1 0.048187 0.128906
vt1 0.027496 0.125000
vt1 0.134521 0.796143
vt1 0.053406 0.232910
vt1 0.024200 0.246094
vt1 0.008171 0.234863
vt1 0.058228 0.818115
vt1 0.078247 0.866699
vt1 0.036102 0.880981
vt1 0.025620 0.823608
vt1 0.024948 0.625000
vt1 0.012741 0.653564
vt1 0.971680 0.883911
vt1 0.838379 0.875000
vt1 0.979004 0.875122
vt1 0.950684 0.822632
vt1 0.984863 0.823120
vt1 0.989258 0.676758
vt1 0.873047 0.816895
vt1 0.948242 0.225586
vt1 0.848145 0.775513
vt1 0.828613 0.870728
vt1 0.828613 0.835083
vt1 0.875488 0.522461
vt1 0.838379 0.596924
vt1 0.830078 0.634521
vt1 0.833008 0.472168
vt1 0.849609 0.562988
vt1 0.846680 0.252930
vt1 0.830078 0.305664
vt1 0.830566 0.218750
vt1 0.828613 0.137207
vt1 0.870605 0.226074
vt1 0.850098 0.124023
vt1 0.830078 0.127930
vt1 0.954102 0.130371
vt1 0.965820 0.119629
vt1 0.980469 0.122070
vt1 0.976074 0.225586
vt1 0.991211 0.232422
vt1 0.185791 0.866821
vt1 0.204346 0.864014
vt1 0.174927 0.874512
vt1 0.198853 0.883179
vt1 0.184570 0.946716
vt1 0.152954 0.970566
vt1 0.177979 0.975647
vt1 0.346436 0.979324
vt1 0.386963 0.991890
vt1 0.820801 0.987144
vt1 0.332520 0.955444
vt1 0.666992 0.979492
vt1 0.822754 0.973923
vt1 0.836426 0.976242
vt1 0.836426 0.879456
vt1 0.676758 0.958038
vt1 0.812500 0.889587
vt1 0.830566 0.870483
vt1 0.376221 0.900940
vt1 0.666016 0.901062
vt1 0.666992 0.881531
vt1 0.686035 0.868896
vt1 0.363037 0.880127
vt1 0.404297 0.871338
vt1 0.354736 0.864380
vn 0.000000 1.000000 -0.000000
vn 0.039370 1.000000 0.015748
vn 0.149606 0.984252 0.055118
vn 0.039370 1.000000 -0.007874
vn 0.000000 1.000000 -0.000000
vn 0.157480 0.984252 -0.000000
vn 0.000000 1.000000 0.007874
vn 0.039370 1.000000 -0.000000
vn 0.007874 1.000000 -0.000000
vn 0.133858 0.992126 -0.023622
vn 0.259843 0.921260 -0.291339
vn 0.000000 1.000000 -0.000000
vn -0.212598 0.937008 0.283464
vn 0.007874 0.992126 -0.141732
vn -0.062992 1.000000 0.023622
vn 0.251969 0.685039 -0.685039
vn -0.527559 0.763779 0.370079
vn 0.000000 1.000000 -0.000000
vn -0.472441 0.881890 0.094488
vn -0.834646 0.362205 0.417323
vn -0.464567 0.889764 -0.000000
vn -0.921260 0.385827 0.007874
vn -0.007874 1.000000 -0.000000
vn 0.007874 0.984252 -0.181102
vn -0.078740 0.976378 -0.188976
vn 0.007874 0.818897 -0.566929
vn 0.023622 0.377953 -0.921260
vn -0.181102 0.488189 -0.858268
vn 0.299213 0.125984 -0.944882
vn 0.582677 0.094488 -0.803149
vn 0.007874 0.417323 -0.905512
vn 0.354331 -0.023622 -0.937008
vn 0.614173 -0.078740 -0.787401
vn 0.007874 0.055118 -1.000000
vn 0.330709 -0.448819 -0.826771
vn 0.070866 -0.842520 -0.535433
vn 0.000000 -0.031496 -1.000000
vn 0.000000 -0.574803 -0.818897
vn 0.000000 -0.527559 -0.850394
vn -0.039370 -0.881890 -0.472441
vn 0.000000 -0.039370 -1.000000
vn -0.228346 -0.102362 -0.968504
vn -0.661417 -0.433071 -0.614173
vn -0.692913 -0.070866 -0.724409
vn 0.000000 0.055118 -1.000000
vn -0.188976 0.133858 -0.976378
vn -0.535433 0.157480 -0.834646
vn -0.472441 0.803149 -0.362205
vn -0.614173 0.787401 0.015748
vn -0.897638 0.141732 -0.409449
vn -0.944882 0.330709 0.007874
vn -0.850394 0.015748 -0.527559
vn -0.700787 -0.062992 -0.708661
vn -1.000000 0.031496 -0.007874
vn -0.921260 -0.157480 -0.362205
vn -0.708661 -0.622047 -0.322835
vn -1.000000 0.031496 0.007874
vn -1.000000 -0.023622 -0.007874
vn -0.842520 -0.535433 0.000000
vn -0.425197 -0.905512 0.000000
vn -1.000000 0.007874 -0.000000
vn -0.960630 0.062992 0.259842
vn -0.881890 -0.173228 0.433071
vn -0.929134 -0.362205 -0.007874
vn -0.897638 -0.440945 0.000000
vn -0.748031 -0.661417 0.000000
vn 0.826772 0.055118 0.559055
vn 0.937008 0.157480 0.299213
vn 0.952756 0.000000 0.299213
vn 1.000000 0.000000 0.000000
vn 0.992126 -0.110236 -0.015748
vn 0.881890 -0.472441 0.000000
vn 1.000000 0.015748 0.007874
vn 1.000000 -0.007874 -0.007874
vn 0.984252 0.188976 -0.000000
vn 0.614173 0.771653 0.181102
vn 0.259843 0.968504 0.015748
vn 1.000000 0.047244 -0.007874
vn 0.598425 0.803149 -0.023622
vn 0.370079 0.929134 -0.023622
vn 0.598425 0.795275 -0.000000
vn 0.952756 0.299213 -0.015748
vn 0.944882 0.322835 0.007874
vn 0.362205 0.929134 0.007874
vn 0.543307 0.834646 -0.039370
vn 0.669291 0.708661 -0.212598
vn 1.000000 0.023622 -0.007874
vn 0.913386 0.110236 -0.393701
vn 0.653543 0.511811 -0.559055
vn 0.905512 -0.055118 -0.425197
vn 0.716535 -0.070866 -0.692913
vn 0.795276 -0.574803 -0.196850
vn 0.929134 -0.362205 0.000000
vn 0.708661 -0.700787 0.000000
vn -0.551181 0.606299 0.566929
vn -0.228346 0.834646 0.503937
vn -0.716535 0.322835 0.622047
vn -0.259843 0.236221 0.937008
vn -0.244094 -0.062992 0.968504
vn -0.472441 -0.181102 0.866142
vn -0.157480 -0.637795 0.755905
vn -0.007874 -0.527559 0.850394
vn 0.015748 -0.842520 0.543307
vn 0.055118 -0.559055 0.826772
vn -0.007874 -0.039370 1.000000
vn 0.000000 -0.267716 0.960630
vn 0.251969 -0.055118 0.968504
vn 0.433071 0.015748 0.897638
vn 0.598425 0.133858 0.787401
vn 0.007874 -0.015748 1.000000
vn 0.322835 0.102362 0.944882
vn 0.204724 0.874016 0.440945
vn 0.000000 0.031496 1.000000
vn 0.007874 0.070866 1.000000
vn 0.015748 0.614173 0.787401
vn 0.007874 0.992126 0.149606
vn -0.015748 0.440945 0.897638
vn 0.007874 0.929134 0.370079
vn -0.007874 1.000000 0.070866
tan -0.007874 -0.000000 -1.000000 1.000000
tan -0.023622 0.016678 -1.000000 1.000000
tan -0.054250 0.063364 -0.984252 1.000000
tan -0.023622 -0.006944 -1.000000 1.000000
tan 0.000000 -0.000000 -1.000000 1.000000
tan 0.000000 -0.000000 -0.984252 1.000000
tan -0.015748 0.007874 -1.000000 1.000000
tan 0.007874 -0.000310 -1.000000 1.000000
tan 0.000000 -0.000000 -1.000000 1.000000
tan 0.023436 -0.026784 -0.992126 1.000000
tan 0.048484 -0.305661 -0.923306 1.000000
tan 0.000000 -0.000000 -1.000000 1.000000
tan 0.066402 0.298530 -0.937008 1.000000
tan 0.000000 -0.141732 -0.992126 1.000000
tan 0.023622 0.025110 -1.000000 1.000000
tan -0.026970 -0.690991 -0.700911 1.000000
tan 0.082770 0.452725 -0.816356 1.000000
tan -0.007874 -0.000000 -1.000000 1.000000
tan 0.143840 0.174840 -0.912642 1.000000
tan -0.376961 0.085436 -0.828074 1.000000
tan 0.007006 0.003658 -0.900738 1.000000
tan 0.019468 0.065286 -0.921260 1.000000
tan 0.015748 0.000124 -1.000000 1.000000
tan 0.007750 -0.181164 -0.984252 1.000000
tan -0.030752 -0.191456 -0.976378 1.000000
tan 0.000000 -0.566929 -0.818897 1.000000
tan -0.014508 -0.921260 -0.378325 1.000000
tan 0.077252 -0.852936 -0.501457 1.000000
tan -0.132928 -0.939798 -0.167400 1.000000
tan -0.364189 -0.763345 -0.354021 1.000000
tan 0.000000 -0.905512 -0.417323 1.000000
tan -0.014942 -0.939798 0.018042 1.000000
tan 0.081220 -0.902846 0.153636 1.000000
tan -0.031496 -1.000000 -0.055366 1.000000
tan -0.010974 -0.861926 0.463513 1.000000
tan -0.046438 -0.539339 0.842520 1.000000
tan -0.023622 -1.000000 0.031496 1.000000
tan -0.010974 -0.818897 0.574803 1.000000
tan 0.006696 -0.850394 0.527559 1.000000
tan 0.100936 -0.473061 0.874636 1.000000
tan 0.015748 -1.000000 0.039370 1.000000
tan -0.007626 -0.968504 0.104160 1.000000
tan -0.115754 -0.737305 0.644553 1.000000
tan -0.130138 -0.928018 0.215265 1.000000
tan 0.007874 -1.000000 -0.055118 1.000000
tan 0.076880 -0.976378 -0.148738 1.000000
tan 0.516709 -0.659061 -0.455825 1.000000
tan 0.141236 -0.321905 -0.898010 1.000000
tan -0.023932 0.000248 -0.945750 1.000000
tan 0.406101 -0.021204 -0.897638 1.000000
tan -0.018290 -0.029698 -0.947486 1.000000
tan 0.527187 -0.024242 -0.850518 1.000000
tan 0.708661 0.005580 -0.701283 1.000000
tan 0.006882 -0.031496 -1.000000 1.000000
tan 0.367165 -0.029016 -0.921260 1.000000
tan 0.450679 -0.056482 -0.880464 1.000000
tan -0.006138 0.055118 -1.000000 1.000000
tan 0.008618 -0.031496 -1.000000 1.000000
tan 0.029512 -0.046438 -0.890694 1.000000
tan 0.042780 -0.020088 -0.912208 1.000000
tan 0.000372 0.047244 -1.000000 1.000000
tan -0.256371 0.052948 -0.960630 1.000000
tan -0.438527 0.027776 -0.881890 1.000000
tan -0.034968 0.109802 -0.924670 1.000000
tan 0.006944 -0.014136 -0.904582 1.000000
tan -0.046872 0.053010 -0.983694 1.000000
tan 0.559055 -0.000000 -0.826772 1.000000
tan 0.294253 0.029512 -0.937008 1.000000
tan 0.299213 0.022506 -0.952756 1.000000
tan 0.000000 0.015748 -1.000000 1.000000
tan -0.009672 0.054684 -0.992126 1.000000
tan 0.052080 0.097216 -0.882386 1.000000
tan 0.007378 0.031496 -1.000000 1.000000
tan -0.008122 -0.031496 -1.000000 1.000000
tan -0.002976 0.015500 -0.984252 1.000000
tan 0.521359 -0.246575 -0.717465 1.000000
tan 0.221154 -0.043958 -0.945626 1.000000
tan -0.007502 -0.007874 -1.000000 1.000000
tan -0.113088 0.057412 -0.912890 1.000000
tan -0.124372 0.026102 -0.921818 1.000000
tan 0.131502 -0.098952 -0.913200 1.000000
tan -0.011036 -0.015004 -0.952756 1.000000
tan 0.018042 -0.029698 -0.947424 1.000000
tan -0.014570 0.013578 -0.931986 1.000000
tan -0.149234 0.055676 -0.879100 1.000000
tan -0.145638 -0.155682 -0.977432 1.000000
tan -0.006944 -0.039370 -1.000000 1.000000
tan -0.389361 -0.035960 -0.913386 1.000000
tan -0.533015 -0.154814 -0.764833 1.000000
tan -0.425631 -0.007130 -0.905512 1.000000
tan -0.692913 0.010912 -0.717651 1.000000
tan -0.379069 -0.247567 -0.808544 1.000000
tan -0.017112 -0.043896 -0.931986 1.000000
tan -0.099324 -0.100440 -0.987910 1.000000
tan -0.081964 0.638105 -0.762105 1.000000
tan 0.035464 0.514725 -0.836444 1.000000
tan -0.451609 0.413293 -0.734702 1.000000
tan -0.167834 0.924298 -0.279559 1.000000
tan -0.053382 0.968504 0.049538 1.000000
tan -0.102300 0.859322 0.123876 1.000000
tan -0.031062 0.762105 0.636555 1.000000
tan -0.020088 0.850394 0.527373 1.000000
tan -0.013268 0.543059 0.842520 1.000000
tan 0.004402 0.827206 0.559055 1.000000
tan -0.047244 1.000000 0.038998 1.000000
tan 0.007564 0.960630 0.267716 1.000000
tan -0.030504 0.968504 0.063054 1.000000
tan -0.014260 0.901048 -0.008928 1.000000
tan 0.490731 0.631161 -0.480253 1.000000
tan 0.000000 1.000000 0.015748 1.000000
tan 0.103354 0.939984 -0.137144 1.000000
tan -0.065348 0.457065 -0.875628 1.000000
tan -0.039370 1.000000 -0.031496 1.000000
tan 0.007874 1.000000 -0.070928 1.000000
tan 0.000000 0.787401 -0.614173 1.000000
tan -0.007812 0.149668 -0.992126 1.000000
tan -0.021204 0.897638 -0.441317 1.000000
tan -0.014632 0.370203 -0.929134 1.000000
tan -0.015748 0.070742 -1.000000 1.000000
f 3/3/3 2/2/2 1/1/1
f 2/2/2 4/4/4 1/1/1
f 5/5/5 1/1/1 4/4/4
f 4/4/4 6/6/6 5/5/5
f 1/1/1 5/5/5 7/7/7
f 6/6/6 8/8/8 5/5/5
f 9/9/9 5/5/5 8/8/8
f 9/9/9 7/7/7 5/5/5
f 8/8/8 10/10/10 9/9/9
f 10/10/10 11/11/11 9/9/9
f 7/7/7 9/9/9 12/12/12
f 7/7/7 12/12/12 13/13/13
f 14/14/14 9/9/9 11/11/11
f 15/15/15 13/13/13 12/12/12
f 11/11/11 16/16/16 14/14/14
f 17/17/17 13/13/13 15/15/15
f 18/18/18 15/15/15 12/12/12
f 12/12/12 9/9/9 18/18/18
f 15/15/15 19/19/19 17/17/17
f 15/15/15 18/18/18 19/19/19
f 20/20/20 17/17/17 19/19/19
f 18/18/18 21/21/21 19/19/19
f 19/19/19 22/22/22 20/20/20
f 22/22/22 19/19/19 21/21/21
f 9/9/9 23/23/23 18/18/18
f 21/21/21 18/18/18 23/23/23
f 24/24/24 9/9/9 14/14/14
f 23/23/23 9/9/9 25/25/25
f 24/24/24 25/25/25 9/9/9
f 26/26/26 24/24/24 14/14/14
f 26/26/26 25/25/25 24/24/24
f 27/27/27 26/26/26 14/14/14
f 14/14/14 16/16/16 27/27/27
f 25/25/25 26/26/26 28/28/28
f 29/29/29 27/27/27 16/16/16
f 30/30/30 29/29/29 16/16/16
f 26/26/26 27/27/27 31/31/31
f 26/26/26 31/31/31 28/28/28
f 30/30/30 32/32/32 29/29/29
f 33/33/33 32/32/32 30/30/30
f 34/34/34 27/27/27 29/29/29
f 35/35/35 32/32/32 33/33/33
f 33/33/33 36/36/36 35/35/35
f 32/32/32 37/37/37 29/29/29
f 37/37/37 34/34/34 29/29/29
f 35/35/35 38/38/38 32/32/32
f 35/35/35 36/36/36 38/38/38
f 38/38/38 37/37/37 32/32/32
f 36/36/36 39/39/39 38/38/38
f 38/38/38 39/39/39 37/37/37
f 36/36/36 40/40/40 39/39/39
f 37/37/37 41/41/41 34/34/34
f 41/41/41 37/37/37 39/39/39
f 40/40/40 42/42/42 39/39/39
f 39/39/39 42/42/42 41/41/41
f 40/40/40 43/43/43 42/42/42
f 44/44/44 42/42/42 43/43/43
f 45/45/45 34/34/34 41/41/41
f 34/34/34 45/45/45 27/27/27
f 31/31/31 27/27/27 45/45/45
f 42/42/42 46/46/46 41/41/41
f 41/41/41 46/46/46 45/45/45
f 42/42/42 44/44/44 46/46/46
f 31/31/31 45/45/45 46/46/46
f 46/46/46 28/28/28 31/31/31
f 46/46/46 44/44/44 47/47/47
f 46/46/46 47/47/47 28/28/28
f 47/47/47 48/48/48 28/28/28
f 25/25/25 28/28/28 48/48/48
f 25/25/25 48/48/48 23/23/23
f 23/23/23 48/48/48 49/49/49
f 23/23/23 49/49/49 21/21/21
f 48/48/48 47/47/47 50/50/50
f 50/50/50 49/49/49 48/48/48
f 49/49/49 51/51/51 21/21/21
f 49/49/49 50/50/50 51/51/51
f 22/22/22 21/21/21 51/51/51
f 50/50/50 47/47/47 52/52/52
f 53/53/53 52/52/52 47/47/47
f 51/51/51 50/50/50 54/54/54
f 52/52/52 54/54/54 50/50/50
f 51/51/51 54/54/54 22/22/22
f 53/53/53 55/55/55 52/52/52
f 55/55/55 54/54/54 52/52/52
f 55/55/55 53/53/53 56/56/56
f 57/57/57 22/22/22 54/54/54
f 22/22/22 57/57/57 20/20/20
f 54/54/54 55/55/55 58/58/58
f 54/54/54 58/58/58 57/57/57
f 56/56/56 59/59/59 55/55/55
f 58/58/58 55/55/55 59/59/59
f 60/60/60 59/59/59 56/56/56
f 58/58/58 61/61/61 57/57/57
f 58/58/58 59/59/59 61/61/61
f 62/62/62 20/20/20 57/57/57
f 57/57/57 61/61/61 62/62/62
f 63/63/63 20/20/20 62/62/62
f 63/63/63 62/62/62 64/64/64
f 61/61/61 64/64/64 62/62/62
f 65/65/65 61/61/61 59/59/59
f 61/61/61 65/65/65 64/64/64
f 60/60/60 65/65/65 59/59/59
f 65/65/65 66/66/66 64/64/64
f 66/66/66 65/65/65 60/60/60
f 69/69/69 68/68/68 67/67/67
f 69/69/69 70/70/70 68/68/68
f 70/70/70 69/69/69 71/71/71
f 71/71/71 72/72/72 70/70/70
f 68/68/68 70/70/70 73/73/73
f 74/74/74 70/70/70 72/72/72
f 70/70/70 74/74/74 73/73/73
f 73/73/73 75/75/75 68/68/68
f 68/68/68 75/75/75 76/76/76
f 77/77/77 76/76/76 75/75/75
f 73/73/73 78/78/78 75/75/75
f 74/74/74 78/78/78 73/73/73
f 75/75/75 79/79/79 77/77/77
f 80/80/80 77/77/77 79/79/79
f 79/79/79 81/81/81 80/80/80
f 75/75/75 82/82/82 79/79/79
f 79/79/79 82/82/82 81/81/81
f 78/78/78 82/82/82 75/75/75
f 82/82/82 83/83/83 81/81/81
f 84/84/84 81/81/81 83/83/83
f 83/83/83 85/85/85 84/84/84
f 83/83/83 86/86/86 85/85/85
f 78/78/78 87/87/87 82/82/82
f 87/87/87 83/83/83 82/82/82
f 74/74/74 87/87/87 78/78/78
f 86/86/86 83/83/83 88/88/88
f 83/83/83 87/87/87 88/88/88
f 88/88/88 89/89/89 86/86/86
f 87/87/87 74/74/74 88/88/88
f 90/90/90 88/88/88 74/74/74
f 88/88/88 90/90/90 91/91/91
f 91/91/91 90/90/90 92/92/92
f 93/93/93 90/90/90 74/74/74
f 90/90/90 93/93/93 92/92/92
f 72/72/72 93/93/93 74/74/74
f 94/94/94 92/92/92 93/93/93
f 94/94/94 93/93/93 72/72/72
f 97/97/97 96/96/96 95/95/95
f 96/96/96 97/97/97 98/98/98
f 98/98/98 97/97/97 99/99/99
f 100/100/100 99/99/99 97/97/97
f 100/100/100 101/101/101 99/99/99
f 101/101/101 102/102/102 99/99/99
f 102/102/102 101/101/101 103/103/103
f 103/103/103 104/104/104 102/102/102
f 102/102/102 105/105/105 99/99/99
f 99/99/99 105/105/105 98/98/98
f 106/106/106 102/102/102 104/104/104
f 102/102/102 106/106/106 105/105/105
f 107/107/107 106/106/106 104/104/104
f 104/104/104 108/108/108 107/107/107
f 107/107/107 108/108/108 109/109/109
f 106/106/106 110/110/110 105/105/105
f 110/110/110 106/106/106 107/107/107
f 107/107/107 109/109/109 111/111/111
f 107/107/107 111/111/111 110/110/110
f 109/109/109 112/112/112 111/111/111
f 105/105/105 110/110/110 113/113/113
f 105/105/105 113/113/113 98/98/98
f 114/114/114 110/110/110 111/111/111
f 110/110/110 114/114/114 113/113/113
f 111/111/111 112/112/112 115/115/115
f 115/115/115 114/114/114 111/111/111
f 116/116/116 115/115/115 112/112/112
f 113/113/113 114/114/114 117/117/117
f 113/113/113 117/117/117 98/98/98
f 114/114/114 115/115/115 117/117/117
f 96/96/96 98/98/98 117/117/117
f 116/116/116 118/118/118 115/115/115
f 118/118/118 117/117/117 115/115/115
f 117/117/117 118/118/118 96/96/96
f 116/116/116 119/119/119 118/118/118
f 119/119/119 96/96/96 118/118/118
