mtllib SM_Painting3_LOD5.mtl
g SM_Painting3_LOD5
#Vertices 41
#Indices 96
#Section 0 Offset 0 NumIndices 96 MaterialIndex 0 MI_paintings
v -0.400360 1.174418 0.493884
v 0.316552 1.182544 0.509382
v -0.718023 1.181608 0.499848
v 0.337980 1.187451 0.634441
v -0.724979 1.179793 0.636637
v -0.706392 1.175072 0.650689
v 0.315856 1.174384 0.650515
v 0.325658 -0.345159 0.494720
v 0.049737 -0.505690 0.494349
v 0.336621 -0.513272 0.512080
v 0.321000 1.136229 0.494900
v -0.528370 -0.506131 0.494465
v 0.316552 1.182544 0.509382
v -0.400360 1.174418 0.493884
v -0.713014 0.421329 0.494669
v -0.718023 1.181608 0.499848
v -0.716234 -0.512798 0.500033
v -0.716234 -0.512798 0.500033
v 0.049737 -0.505690 0.494349
v -0.528370 -0.506131 0.494465
v 0.336621 -0.513272 0.512080
v -0.723250 -0.513057 0.630636
v 0.334351 -0.514871 0.638107
v 0.321236 -0.513159 0.652975
v -0.708873 -0.498597 0.647751
v -0.708873 -0.498597 0.647751
v -0.724979 1.179793 0.636637
v -0.706392 1.175072 0.650689
v -0.723250 -0.513057 0.630636
v -0.718023 1.181608 0.499848
v -0.716234 -0.512798 0.500033
v -0.713014 0.421329 0.494669
v 0.337980 1.187451 0.634441
v 0.321236 -0.513159 0.652975
v 0.315856 1.174384 0.650515
v 0.334351 -0.514871 0.638107
v 0.336621 -0.513272 0.512080
v 0.335906 0.945193 0.510185
v 0.325658 -0.345159 0.494720
v 0.321000 1.136229 0.494900
v 0.316552 1.182544 0.509382
vt 0.056274 0.155762
vt 0.052124 0.395508
vt 0.056915 0.049805
vt 0.009209 0.404785
vt 0.012207 0.045410
vt 0.005337 0.050781
vt 0.004250 0.398926
vt 0.558594 0.391113
vt 0.607910 0.301270
vt 0.608887 0.393066
vt 0.070984 0.395996
vt 0.606934 0.115234
vt 0.052704 0.395508
vt 0.057831 0.157227
vt 0.305420 0.055664
vt 0.056183 0.052246
vt 0.607422 0.056641
vt 0.606934 0.054688
vt 0.606934 0.301758
vt 0.605469 0.115723
vt 0.610352 0.395508
vt 0.650879 0.049805
vt 0.649414 0.397461
vt 0.657715 0.393555
vt 0.656250 0.053223
vt 0.607422 0.005859
vt 0.055542 0.009766
vt 0.056458 0.002930
vt 0.611328 0.014648
vt 0.056061 0.052246
vt 0.608887 0.059082
vt 0.305176 0.054688
vt 0.050201 0.448730
vt 0.617188 0.438965
vt 0.052246 0.457520
vt 0.616699 0.431641
vt 0.616211 0.396484
vt 0.131348 0.403320
vt 0.558594 0.390137
vt 0.069031 0.395508
vt 0.050140 0.391113
vt1 0.091614 0.342285
vt1 0.085449 0.855469
vt1 0.092590 0.114746
vt1 0.021744 0.875793
vt1 0.026184 0.104980
vt1 0.015976 0.115723
vt1 0.014374 0.863647
vt1 0.837891 0.846924
vt1 0.911133 0.654297
vt1 0.912598 0.851440
vt1 0.113342 0.857788
vt1 0.909668 0.254883
vt1 0.086304 0.856079
vt1 0.093994 0.344727
vt1 0.461670 0.126465
vt1 0.091553 0.120117
vt1 0.911133 0.128418
vt1 0.909668 0.125000
vt1 0.910156 0.655029
vt1 0.907227 0.254883
vt1 0.914551 0.856323
vt1 0.975098 0.114258
vt1 0.973145 0.859863
vt1 0.984863 0.851685
vt1 0.983398 0.122070
vt1 0.910645 0.020508
vt1 0.090576 0.028320
vt1 0.091919 0.014160
vt1 0.916016 0.038574
vt1 0.091309 0.119629
vt1 0.912598 0.134766
vt1 0.461182 0.125000
vt1 0.082642 0.969894
vt1 0.924805 0.949615
vt1 0.085693 0.988930
vt1 0.923828 0.933411
vt1 0.923340 0.858032
vt1 0.203247 0.873169
vt1 0.837891 0.844849
vt1 0.110596 0.856079
vt1 0.082520 0.847290
vn -0.023622 0.511811 -0.858268
vn 0.110236 0.968504 -0.212599
vn -0.070866 0.984252 -0.149606
vn 0.070866 0.992126 0.086614
vn -0.110236 0.984252 0.110236
vn -0.039370 0.614173 0.787401
vn 0.047244 0.598425 0.795275
vn 0.110236 -0.007874 -0.992126
vn -0.007874 -0.015748 -1.000000
vn 0.370079 -0.551181 -0.740157
vn 0.015748 0.015748 -1.000000
vn 0.000000 -0.007874 -1.000000
vn 0.220472 0.700787 -0.685039
vn 0.015748 -0.000000 -1.000000
vn -0.055118 -0.007874 -1.000000
vn -0.267717 0.173228 -0.944882
vn -0.401575 -0.125984 -0.905512
vn -0.141732 -0.968504 -0.188976
vn 0.039370 -0.464567 -0.881890
vn -0.015748 -0.503937 -0.866142
vn 0.086614 -0.976378 -0.204724
vn -0.102362 -0.984252 0.125984
vn 0.149606 -0.976378 0.133858
vn 0.031496 -0.622047 0.779527
vn -0.094488 -0.645669 0.755905
vn -0.653543 -0.039370 0.755905
vn -0.992126 0.015748 0.141732
vn -0.425197 0.039370 0.905512
vn -0.992126 -0.055118 0.094488
vn -0.984252 0.070866 -0.165354
vn -0.944882 -0.110236 -0.314961
vn -0.692913 0.007874 -0.716535
vn 0.984252 0.062992 0.157480
vn 0.409449 -0.031496 0.913386
vn 0.251969 0.031496 0.968504
vn 0.984252 -0.110236 0.125984
vn 0.992126 -0.078740 -0.110236
vn 0.976378 0.031496 -0.212598
vn 0.677165 -0.023622 -0.740157
vn 0.582677 0.118110 -0.803149
vn 0.622047 0.685039 -0.370079
tan -0.898568 -0.028892 0.007502 1.000000
tan -0.968504 0.093496 -0.076260 1.000000
tan -0.976502 -0.052638 0.116250 1.000000
tan -0.984314 0.078492 -0.093744 1.000000
tan -0.976502 -0.120652 0.100750 1.000000
tan -0.622853 -0.522971 0.376775 1.000000
tan -0.751565 0.353649 -0.221464 1.000000
tan -0.992126 -0.039060 -0.109926 1.000000
tan -1.000000 -0.015748 0.008122 1.000000
tan -0.735569 0.201066 -0.517515 1.000000
tan -1.000000 -0.000000 -0.015748 1.000000
tan -1.000000 -0.007874 0.000062 1.000000
tan -0.623783 -0.431459 -0.642135 1.000000
tan -1.000000 0.007874 -0.015748 1.000000
tan -1.000000 0.007874 0.055056 1.000000
tan -0.944882 0.007440 0.269080 1.000000
tan -0.905512 -0.007130 0.402567 1.000000
tan -0.953252 0.103788 0.183024 1.000000
tan -0.854486 0.235476 -0.162192 1.000000
tan -0.725773 -0.463885 0.283093 1.000000
tan -0.945626 -0.032302 -0.246016 1.000000
tan -0.976502 0.117428 0.124000 1.000000
tan -0.968690 -0.168454 -0.146072 1.000000
tan -0.631967 -0.563519 -0.424143 1.000000
tan -0.472317 0.673321 0.516089 1.000000
tan 0.755906 0.000000 0.653543 1.000000
tan 0.141236 -0.031248 0.992126 1.000000
tan 0.905512 -0.035650 0.426747 1.000000
tan 0.092318 0.039060 0.992126 1.000000
tan -0.169818 -0.062000 0.984252 1.000000
tan -0.323641 0.074400 0.944882 1.000000
tan -0.716535 0.000000 0.692913 1.000000
tan 0.152024 0.085250 -0.984252 1.000000
tan 0.913386 -0.050344 -0.411185 1.000000
tan 0.968504 0.068634 -0.254200 1.000000
tan 0.116436 -0.085250 -0.984252 1.000000
tan -0.122760 -0.179676 -0.976502 1.000000
tan -0.214582 0.061504 -0.976378 1.000000
tan -0.740344 -0.005332 -0.677165 1.000000
tan -0.804080 0.004588 -0.582677 1.000000
tan -0.720441 0.596751 -0.106330 1.000000
f 3/3/3 2/2/2 1/1/1
f 4/4/4 2/2/2 3/3/3
f 4/4/4 3/3/3 5/5/5
f 5/5/5 6/6/6 4/4/4
f 7/7/7 4/4/4 6/6/6
f 10/10/10 9/9/9 8/8/8
f 11/11/11 8/8/8 9/9/9
f 9/9/9 12/12/12 11/11/11
f 14/14/14 13/13/13 11/11/11
f 14/14/14 11/11/11 12/12/12
f 12/12/12 15/15/15 14/14/14
f 15/15/15 16/16/16 14/14/14
f 15/15/15 12/12/12 17/17/17
f 20/20/20 19/19/19 18/18/18
f 19/19/19 21/21/21 18/18/18
f 21/21/21 22/22/22 18/18/18
f 23/23/23 22/22/22 21/21/21
f 22/22/22 23/23/23 24/24/24
f 24/24/24 25/25/25 22/22/22
f 28/28/28 27/27/27 26/26/26
f 29/29/29 26/26/26 27/27/27
f 29/29/29 27/27/27 30/30/30
f 31/31/31 29/29/29 30/30/30
f 31/31/31 30/30/30 32/32/32
f 35/35/35 34/34/34 33/33/33
f 36/36/36 33/33/33 34/34/34
f 37/37/37 33/33/33 36/36/36
f 38/38/38 33/33/33 37/37/37
f 38/38/38 37/37/37 39/39/39
f 40/40/40 38/38/38 39/39/39
f 33/33/33 38/38/38 40/40/40
f 41/41/41 33/33/33 40/40/40
