mtllib SM_Painting3_LOD4.mtl
g SM_Painting3_LOD4
#Vertices 62
#Indices 198
#Section 0 Offset 0 NumIndices 198 MaterialIndex 0 MI_paintings
v 0.325674 -0.507855 0.521896
v 0.330648 -0.390095 0.497825
v 0.277999 -0.506079 0.504961
v 0.049737 -0.505690 0.494349
v 0.322587 -0.163356 0.494670
v 0.320503 1.017883 0.494556
v -0.528370 -0.506131 0.494465
v -0.535127 1.148561 0.494347
v 0.318873 1.142203 0.498301
v 0.316552 1.182544 0.509382
v -0.184278 1.175198 0.493820
v -0.711533 1.174313 0.503796
v -0.713014 0.421329 0.494669
v -0.688419 -0.376184 0.494102
v -0.712189 -0.507966 0.506371
v -0.708873 -0.498597 0.647751
v -0.720639 1.181000 0.644515
v -0.706392 1.175072 0.650689
v -0.721885 -0.509408 0.627604
v -0.721894 1.148941 0.628238
v -0.714692 1.182959 0.515362
v -0.721813 1.147297 0.527281
v -0.711533 1.174313 0.503796
v -0.713014 0.421329 0.494669
v -0.721038 0.614597 0.512246
v -0.720381 -0.367065 0.518083
v -0.712189 -0.507966 0.506371
v -0.711533 1.174313 0.503796
v -0.184278 1.175198 0.493820
v -0.714692 1.182959 0.515362
v 0.316552 1.182544 0.509382
v 0.326386 1.186884 0.629315
v -0.552223 1.187469 0.628242
v -0.720639 1.181000 0.644515
v -0.706392 1.175072 0.650689
v 0.315856 1.174384 0.650515
v -0.712189 -0.507966 0.506371
v 0.049737 -0.505690 0.494349
v -0.528370 -0.506131 0.494465
v -0.413091 -0.517913 0.508631
v 0.277999 -0.506079 0.504961
v -0.541262 -0.517327 0.624346
v -0.721885 -0.509408 0.627604
v -0.708873 -0.498597 0.647751
v 0.321236 -0.513159 0.652975
v 0.326316 -0.514720 0.637339
v 0.170886 -0.517612 0.531338
v 0.325674 -0.507855 0.521896
v 0.330648 -0.390095 0.497825
v 0.320503 1.017883 0.494556
v 0.322587 -0.163356 0.494670
v 0.335906 0.945193 0.510185
v 0.318873 1.142203 0.498301
v 0.337614 -0.348057 0.526992
v 0.325674 -0.507855 0.521896
v 0.340064 1.142628 0.627014
v 0.316552 1.182544 0.509382
v 0.326386 1.186884 0.629315
v 0.315856 1.174384 0.650515
v 0.321236 -0.513159 0.652975
v 0.337999 -0.382770 0.627198
v 0.326316 -0.514720 0.637339
vt 0.608887 0.390625
vt 0.570312 0.390625
vt 0.606445 0.374512
vt 0.607910 0.301270
vt 0.500000 0.391602
vt 0.109985 0.395996
vt 0.606934 0.115234
vt 0.066467 0.112793
vt 0.065552 0.395020
vt 0.052704 0.395508
vt 0.056122 0.228027
vt 0.058533 0.054688
vt 0.305420 0.055664
vt 0.563965 0.064941
vt 0.605957 0.057129
vt 0.607422 0.005859
vt 0.054993 0.006348
vt 0.056458 0.002930
vt 0.610352 0.015625
vt 0.065796 0.012695
vt 0.054443 0.052734
vt 0.067017 0.046875
vt 0.058380 0.055176
vt 0.305176 0.054688
vt 0.241821 0.048340
vt 0.562012 0.051270
vt 0.606445 0.059570
vt 0.058716 0.054199
vt 0.055298 0.227539
vt 0.051849 0.051270
vt 0.052124 0.395508
vt 0.010933 0.400879
vt 0.013329 0.104004
vt 0.013329 0.046875
vt 0.005337 0.050781
vt 0.004250 0.398926
vt 0.604980 0.056152
vt 0.606934 0.301758
vt 0.605469 0.115723
vt 0.612793 0.152832
vt 0.606445 0.375000
vt 0.649902 0.108887
vt 0.644043 0.050293
vt 0.656250 0.053223
vt 0.657715 0.393555
vt 0.648926 0.394531
vt 0.617676 0.342285
vt 0.608887 0.391113
vt 0.573242 0.391113
vt 0.109070 0.399902
vt 0.500000 0.390625
vt 0.131348 0.403320
vt 0.066162 0.392090
vt 0.562012 0.403809
vt 0.609375 0.389648
vt 0.065308 0.446289
vt 0.050140 0.391113
vt 0.045227 0.435059
vt 0.052246 0.457520
vt 0.617188 0.438965
vt 0.572754 0.431152
vt 0.616699 0.427246
vt1 0.912598 0.846558
vt1 0.854980 0.846191
vt1 0.909180 0.811157
vt1 0.911133 0.654297
vt1 0.750488 0.847900
vt1 0.171265 0.856934
vt1 0.909668 0.254883
vt1 0.106812 0.249512
vt1 0.105469 0.855713
vt1 0.086304 0.856079
vt1 0.091431 0.496094
vt1 0.095032 0.124512
vt1 0.461670 0.126465
vt1 0.846191 0.146484
vt1 0.908203 0.130371
vt1 0.910645 0.020508
vt1 0.089844 0.021484
vt1 0.091919 0.014160
vt1 0.914551 0.040527
vt1 0.105774 0.034180
vt1 0.088867 0.121094
vt1 0.107666 0.108398
vt1 0.094788 0.126465
vt1 0.461182 0.125000
vt1 0.366943 0.111328
vt1 0.842773 0.117676
vt1 0.909180 0.135254
vt1 0.095276 0.124023
vt1 0.090210 0.496094
vt1 0.085022 0.117188
vt1 0.085449 0.855469
vt1 0.024307 0.867432
vt1 0.027847 0.230469
vt1 0.027863 0.108398
vt1 0.015976 0.115723
vt1 0.014374 0.863647
vt1 0.906250 0.128906
vt1 0.910156 0.655029
vt1 0.907227 0.254883
vt1 0.918457 0.334961
vt1 0.909180 0.812500
vt1 0.973145 0.241699
vt1 0.965332 0.115234
vt1 0.983398 0.122070
vt1 0.984863 0.851685
vt1 0.972656 0.854126
vt1 0.925293 0.741455
vt1 0.912598 0.846558
vt1 0.859375 0.846924
vt1 0.170044 0.865234
vt1 0.750488 0.845947
vt1 0.203247 0.873169
vt1 0.106384 0.848633
vt1 0.842773 0.873535
vt1 0.913574 0.843384
vt1 0.105103 0.965149
vt1 0.082520 0.847290
vt1 0.075256 0.941437
vt1 0.085693 0.988930
vt1 0.924805 0.949615
vt1 0.858887 0.932678
vt1 0.924316 0.924194
vn 0.606299 -0.606299 -0.519685
vn 0.267717 -0.062992 -0.960630
vn 0.220472 -0.409449 -0.881890
vn -0.007874 -0.015748 -1.000000
vn 0.047244 -0.007874 -1.000000
vn 0.007874 0.007874 -1.000000
vn 0.000000 -0.007874 -1.000000
vn 0.000000 0.007874 -1.000000
vn 0.078740 0.094488 -0.992126
vn 0.220472 0.700787 -0.685039
vn 0.000000 0.015748 -1.000000
vn -0.259843 0.173228 -0.952756
vn -0.055118 -0.007874 -1.000000
vn -0.212598 -0.007874 -0.976378
vn -0.519685 -0.244095 -0.818897
vn -0.653543 -0.039370 0.755905
vn -0.811024 0.055118 0.582677
vn -0.425197 0.039370 0.905512
vn -0.992126 -0.055118 0.086614
vn -1.000000 0.000000 0.039370
vn -0.692913 0.708661 -0.141732
vn -0.984252 0.055118 -0.141732
vn -0.740157 0.118110 -0.661417
vn -0.692913 0.007874 -0.716535
vn -1.000000 -0.000000 -0.047244
vn -0.992126 -0.007874 -0.141732
vn -0.905512 -0.299213 -0.307087
vn -0.110236 0.842520 -0.527559
vn 0.023622 0.503937 -0.866142
vn -0.070866 0.992126 -0.070866
vn 0.110236 0.968504 -0.212599
vn 0.070866 0.992126 0.055118
vn 0.000000 1.000000 0.031496
vn -0.354331 0.921260 0.149606
vn -0.039370 0.614173 0.787401
vn 0.047244 0.598425 0.795275
vn -0.244094 -0.929134 -0.267716
vn 0.039370 -0.464567 -0.881890
vn -0.015748 -0.503937 -0.866142
vn 0.007874 -1.000000 -0.039370
vn 0.110236 -0.748031 -0.653543
vn 0.000000 -1.000000 0.055118
vn -0.417323 -0.874016 0.236221
vn -0.094488 -0.645669 0.755905
vn 0.031496 -0.622047 0.779527
vn 0.149606 -0.976378 0.133858
vn 0.007874 -1.000000 -0.055118
vn 0.346457 -0.889764 -0.283464
vn 0.811024 -0.031496 -0.582677
vn 0.236220 0.023622 -0.968504
vn 0.338583 -0.007874 -0.944882
vn 0.976378 0.031496 -0.212598
vn 0.811024 0.181102 -0.559055
vn 1.000000 -0.015748 -0.007874
vn 0.811024 -0.464567 -0.354331
vn 0.992126 0.031496 0.094488
vn 0.622047 0.685039 -0.370079
vn 0.637795 0.755905 0.125984
vn 0.251969 0.031496 0.968504
vn 0.409449 -0.031496 0.913386
vn 1.000000 -0.007874 0.047244
vn 0.818898 -0.496063 0.291339
tan -0.721557 -0.140492 -0.677909 1.000000
tan -0.960630 -0.007564 -0.267220 1.000000
tan -0.878170 0.081592 -0.257424 1.000000
tan -1.000000 -0.015748 0.008122 1.000000
tan -1.000000 -0.039370 -0.046934 1.000000
tan -1.000000 -0.000000 -0.007874 1.000000
tan -1.000000 -0.007874 0.000062 1.000000
tan -1.000000 0.007874 0.000062 1.000000
tan -0.992126 -0.015624 -0.080228 1.000000
tan -0.623783 -0.431459 -0.642135 1.000000
tan -1.000000 0.007874 0.000124 1.000000
tan -0.952756 0.007502 0.261206 1.000000
tan -1.000000 0.007874 0.055056 1.000000
tan -0.976378 0.007688 0.212536 1.000000
tan -0.820820 -0.021700 0.527373 1.000000
tan 0.755906 0.000000 0.653543 1.000000
tan 0.582677 0.000000 0.811023 1.000000
tan 0.905512 -0.035650 0.426747 1.000000
tan 0.084444 0.039060 0.992126 1.000000
tan 0.039370 -0.031496 1.000000 1.000000
tan -0.719821 -0.656829 0.234981 1.000000
tan -0.144336 -0.046500 0.984252 1.000000
tan -0.665137 -0.023312 0.740157 1.000000
tan -0.716535 0.000000 0.692913 1.000000
tan -0.047244 0.000000 1.000000 1.000000
tan -0.141980 0.031248 0.992126 1.000000
tan -0.358795 0.171120 0.891252 1.000000
tan -0.823610 0.144584 0.403001 1.000000
tan -0.932978 -0.111848 -0.090520 1.000000
tan -0.984314 -0.063054 0.101556 1.000000
tan -0.968504 0.093496 -0.076260 1.000000
tan -0.984314 0.075516 -0.093744 1.000000
tan -1.000000 -0.000992 0.031496 1.000000
tan -0.915184 -0.366855 0.091512 1.000000
tan -0.622853 -0.522971 0.376775 1.000000
tan -0.751565 0.353649 -0.221464 1.000000
tan -0.912394 0.198090 0.144398 1.000000
tan -0.854486 0.235476 -0.162192 1.000000
tan -0.725773 -0.463885 0.283093 1.000000
tan -1.000000 -0.011284 0.086614 1.000000
tan -0.560109 0.449501 -0.608965 1.000000
tan -1.000000 0.003472 0.062992 1.000000
tan -0.875876 0.435923 0.065534 1.000000
tan -0.472317 0.673321 0.516089 1.000000
tan -0.631967 -0.563519 -0.424143 1.000000
tan -0.968690 -0.168454 -0.146072 1.000000
tan -1.000000 -0.005704 -0.039370 1.000000
tan -0.884990 -0.308017 -0.114824 1.000000
tan -0.583421 -0.019158 -0.811023 1.000000
tan -0.968504 -0.000000 -0.236220 1.000000
tan -0.944882 -0.022320 -0.338397 1.000000
tan -0.214582 0.061504 -0.976378 1.000000
tan -0.569037 0.044702 -0.811023 1.000000
tan -0.009424 -0.102362 -0.992126 1.000000
tan -0.558063 -0.469775 -0.661417 1.000000
tan 0.093000 0.046872 -0.992126 1.000000
tan -0.720441 0.596751 -0.106330 1.000000
tan -0.650753 0.608407 -0.356005 1.000000
tan 0.968504 0.068634 -0.254200 1.000000
tan 0.913386 -0.050344 -0.411185 1.000000
tan 0.046190 -0.086614 -0.992126 1.000000
tan 0.364871 0.126666 -0.809907 1.000000
f 3/3/3 2/2/2 1/1/1
f 3/3/3 4/4/4 2/2/2
f 2/2/2 4/4/4 5/5/5
f 6/6/6 5/5/5 4/4/4
f 4/4/4 7/7/7 6/6/6
f 8/8/8 6/6/6 7/7/7
f 6/6/6 8/8/8 9/9/9
f 11/11/11 10/10/10 9/9/9
f 9/9/9 8/8/8 11/11/11
f 8/8/8 12/12/12 11/11/11
f 13/13/13 12/12/12 8/8/8
f 7/7/7 13/13/13 8/8/8
f 13/13/13 7/7/7 14/14/14
f 15/15/15 13/13/13 14/14/14
f 14/14/14 7/7/7 15/15/15
f 18/18/18 17/17/17 16/16/16
f 19/19/19 16/16/16 17/17/17
f 19/19/19 17/17/17 20/20/20
f 17/17/17 21/21/21 20/20/20
f 22/22/22 20/20/20 21/21/21
f 22/22/22 21/21/21 23/23/23
f 23/23/23 24/24/24 22/22/22
f 25/25/25 20/20/20 22/22/22
f 24/24/24 25/25/25 22/22/22
f 19/19/19 20/20/20 25/25/25
f 26/26/26 25/25/25 24/24/24
f 26/26/26 19/19/19 25/25/25
f 24/24/24 27/27/27 26/26/26
f 26/26/26 27/27/27 19/19/19
f 30/30/30 29/29/29 28/28/28
f 30/30/30 31/31/31 29/29/29
f 32/32/32 31/31/31 30/30/30
f 32/32/32 30/30/30 33/33/33
f 34/34/34 33/33/33 30/30/30
f 34/34/34 35/35/35 33/33/33
f 33/33/33 35/35/35 32/32/32
f 36/36/36 32/32/32 35/35/35
f 39/39/39 38/38/38 37/37/37
f 38/38/38 40/40/40 37/37/37
f 38/38/38 41/41/41 40/40/40
f 40/40/40 42/42/42 37/37/37
f 43/43/43 37/37/37 42/42/42
f 44/44/44 43/43/43 42/42/42
f 45/45/45 44/44/44 42/42/42
f 42/42/42 46/46/46 45/45/45
f 41/41/41 47/47/47 40/40/40
f 47/47/47 42/42/42 40/40/40
f 46/46/46 42/42/42 47/47/47
f 48/48/48 47/47/47 41/41/41
f 48/48/48 46/46/46 47/47/47
f 51/51/51 50/50/50 49/49/49
f 50/50/50 52/52/52 49/49/49
f 50/50/50 53/53/53 52/52/52
f 52/52/52 54/54/54 49/49/49
f 54/54/54 55/55/55 49/49/49
f 56/56/56 52/52/52 53/53/53
f 52/52/52 56/56/56 54/54/54
f 57/57/57 56/56/56 53/53/53
f 56/56/56 57/57/57 58/58/58
f 56/56/56 58/58/58 59/59/59
f 59/59/59 60/60/60 56/56/56
f 54/54/54 56/56/56 61/61/61
f 61/61/61 56/56/56 60/60/60
f 54/54/54 61/61/61 55/55/55
f 60/60/60 62/62/62 61/61/61
f 62/62/62 55/55/55 61/61/61
