mtllib SM_Structure_LOD1.mtl
g SM_Structure_LOD1
#Vertices 91
#Indices 135
#Section 0 Offset 0 NumIndices 135 MaterialIndex 0 MI_Structure
v -3.226385 1.656186 1.466416
v -3.226954 0.642703 2.138099
v -3.228923 0.653730 2.293780
v -1.998110 1.656183 2.703488
v -2.825362 0.653774 2.706039
v -2.669832 0.642693 2.704062
v -1.997270 1.656185 -3.132904
v -2.668952 0.642703 -3.133473
v -2.824634 0.653730 -3.135442
v -3.233290 1.640085 -1.926690
v -3.236486 0.653184 -2.724570
v -3.232551 0.644607 -2.575031
v -3.298986 2.064484 2.107460
v -3.298986 -1.582226 2.107460
v -3.169915 2.064484 2.107460
v -3.169915 -1.582226 2.107460
v -2.639926 2.064484 2.637450
v -2.639926 -1.582226 2.637450
v -2.639926 -1.582226 2.753223
v -2.639926 2.064484 2.753222
v -3.063926 2.064484 2.213449
v -3.063926 -1.582226 2.213450
v -3.063926 -1.582226 2.425472
v -3.063926 2.064484 2.425471
v -2.745915 -1.582226 2.531461
v -2.745915 2.064484 2.531460
v -2.957936 2.064484 2.531460
v -2.957936 -1.582226 2.531461
v -3.063926 2.064484 2.425471
v -3.063926 -1.582226 2.425472
v -2.957936 2.064484 2.531460
v -2.957936 -1.582226 2.531461
v -3.169915 2.064484 2.107460
v -3.169915 -1.582226 2.107460
v -3.063926 2.064484 2.213449
v -3.063926 -1.582226 2.213450
v -2.745915 2.064484 2.531460
v -2.745915 -1.582226 2.531461
v -2.639926 2.064484 2.637450
v -2.639926 -1.582226 2.637450
v -2.646575 -1.582227 -3.073055
v -2.646575 2.064483 -3.073056
v -2.646575 -1.582227 -3.197247
v -2.646575 2.064483 -3.197247
v -3.292337 -1.582227 -2.538186
v -3.181445 2.064484 -2.538187
v -3.181445 -1.582227 -2.538186
v -3.292337 2.064484 -2.538187
v -2.757445 2.064484 -2.962186
v -2.757445 -1.582227 -2.962186
v -3.070575 -1.582227 -2.962186
v -3.070575 2.064484 -2.962186
v -3.070575 2.064484 -2.962186
v -3.070575 -1.582227 -2.962186
v -3.070575 -1.582227 -2.649056
v -3.070575 2.064484 -2.649056
v -2.757445 2.064484 -2.962186
v -2.646575 -1.582227 -3.073055
v -2.757445 -1.582227 -2.962186
v -2.646575 2.064483 -3.073056
v -3.181445 2.064484 -2.538187
v -3.070575 -1.582227 -2.649056
v -3.181445 -1.582227 -2.538186
v -3.070575 2.064484 -2.649056
v 4.628369 1.382248 2.694428
v -3.289989 1.382248 2.694428
v -3.289989 1.382248 2.784552
v 4.628369 1.382248 2.784552
v 4.628370 1.382247 -3.201267
v -3.289989 1.382247 -3.201267
v -3.289989 1.382247 -3.111143
v 4.628370 1.382247 -3.111143
v -3.268553 1.320835 -3.048350
v -3.358677 1.320836 2.715971
v -3.268553 1.320836 2.715971
v -3.358677 1.320835 -3.048350
v -3.268553 1.320835 -3.048350
v -3.126430 1.641003 2.715699
v -3.153636 1.641222 -3.048341
v -3.268553 1.320836 2.715971
v 4.628369 1.739503 2.604323
v -3.289989 1.739503 2.604323
v -3.289989 1.488716 2.603322
v 4.628312 1.485096 2.601674
v -3.289989 1.382248 2.694428
v 4.628369 1.382248 2.694428
v 4.628370 1.382247 -3.111143
v -3.289989 1.382247 -3.111143
v 4.628311 1.493671 -3.018708
v -3.289977 1.736587 -2.995554
v 4.628370 1.739502 -3.021037
vt 0.289307 1.166748
vt 0.196777 -0.160156
vt 0.338867 -0.253906
vt 0.973145 0.442383
vt -0.448242 0.398926
vt -0.353516 0.540527
vt -0.442139 0.472168
vt 0.884277 0.374023
vt 0.979004 0.515625
vt 0.302490 1.143555
vt 0.324951 -0.266602
vt 0.188110 -0.171875
vt -0.214966 2.389648
vt -0.214600 -1.597656
vt -0.073853 2.389648
vt -0.073547 -1.599609
vt 1.085938 2.389648
vt 1.085938 -1.599609
vt 1.212891 -1.599609
vt 1.211914 2.389648
vt 0.157959 2.389648
vt 0.158203 -1.599609
vt 0.390137 -1.599609
vt 0.389893 2.389648
vt 0.854004 -1.599609
vt 0.854004 2.389648
vt 0.621582 2.389648
vt 0.622070 -1.599609
vt 0.389893 2.389648
vt 0.390137 -1.599609
vt 0.621582 2.389648
vt 0.622070 -1.599609
vt -0.073853 2.389648
vt -0.073547 -1.599609
vt 0.157959 2.389648
vt 0.158203 -1.599609
vt 0.854004 2.389648
vt 0.854004 -1.599609
vt 1.085938 2.389648
vt 1.085938 -1.599609
vt 2.498047 -0.173828
vt -1.483398 -0.170898
vt 2.509766 -0.322266
vt -1.484375 -0.306641
vt 2.484375 1.122192
vt -1.481445 0.995979
vt 2.484375 1.001574
vt -1.481445 1.116699
vt -1.483398 0.071289
vt 2.486328 0.079590
vt 2.486328 0.419922
vt -1.482422 0.413086
vt -1.482422 0.413086
vt 2.486328 0.419922
vt 2.486328 0.760498
vt -1.482422 0.754395
vt -1.483398 0.071289
vt 2.498047 -0.173828
vt 2.486328 0.079590
vt -1.483398 -0.170898
vt -1.481445 0.995979
vt 2.486328 0.760498
vt 2.484375 1.001574
vt -1.482422 0.754395
vt 0.694824 4.728516
vt 0.695801 -3.933594
vt 0.794434 -3.933594
vt 0.793457 4.728516
vt 0.205322 4.728516
vt 0.206299 -3.933594
vt 0.304932 -3.933594
vt 0.303955 4.728516
vt 0.676758 -2.757812
vt 0.774414 3.548828
vt 0.675781 3.548828
vt 0.775391 -2.757812
vt 0.676758 -2.757812
vt 0.195557 3.548828
vt 0.219971 -2.757812
vt 0.675781 3.548828
vt 0.205322 4.728516
vt 0.206299 -3.933594
vt 0.480957 -3.933594
vt 0.482666 4.728516
vt 0.695801 -3.933594
vt 0.694824 4.728516
vt 0.303955 4.728516
vt 0.304932 -3.933594
vt 0.524414 4.728516
vt 0.798340 -3.933594
vt 0.793457 4.728516
vt1 0.909668 0.983643
vt1 0.892578 0.702637
vt1 0.918457 0.682617
vt1 0.313721 0.073242
vt1 0.012665 0.065430
vt1 0.032715 0.091309
vt1 0.354980 0.083984
vt1 0.636230 0.065918
vt1 0.656250 0.091797
vt1 0.684570 0.053711
vt1 0.978516 0.057617
vt1 0.958984 0.032227
vt1 0.008095 0.442383
vt1 0.853027 0.442383
vt1 0.008095 0.468262
vt1 0.853027 0.468262
vt1 0.008064 0.678711
vt1 0.853027 0.678711
vt1 0.853027 0.701660
vt1 0.008064 0.701660
vt1 0.008087 0.510010
vt1 0.853516 0.510254
vt1 0.853027 0.552246
vt1 0.008080 0.552246
vt1 0.853027 0.636475
vt1 0.008064 0.636475
vt1 0.008072 0.594482
vt1 0.853027 0.594482
vt1 0.008080 0.552246
vt1 0.853027 0.552246
vt1 0.008072 0.594482
vt1 0.853027 0.594482
vt1 0.008095 0.468262
vt1 0.853027 0.468262
vt1 0.008087 0.510010
vt1 0.853516 0.510254
vt1 0.008064 0.636475
vt1 0.853027 0.636475
vt1 0.008064 0.678711
vt1 0.853027 0.678711
vt1 0.855469 0.745850
vt1 0.008133 0.746338
vt1 0.857910 0.717529
vt1 0.008064 0.720459
vt1 0.853027 0.991936
vt1 0.008545 0.967987
vt1 0.853027 0.969040
vt1 0.008545 0.990898
vt1 0.008255 0.792358
vt1 0.853027 0.793945
vt1 0.853027 0.858643
vt1 0.008408 0.857300
vt1 0.008408 0.857300
vt1 0.853027 0.858643
vt1 0.853027 0.923279
vt1 0.008507 0.922119
vt1 0.008255 0.792358
vt1 0.855469 0.745850
vt1 0.853027 0.793945
vt1 0.008133 0.746338
vt1 0.008545 0.967987
vt1 0.853027 0.923279
vt1 0.853027 0.969040
vt1 0.008507 0.922119
vt1 0.008064 0.190430
vt1 0.991699 0.190430
vt1 0.991699 0.201660
vt1 0.008064 0.201660
vt1 0.008072 0.231934
vt1 0.991699 0.231934
vt1 0.991699 0.243164
vt1 0.008064 0.243164
vt1 0.991699 0.395996
vt1 0.008064 0.411621
vt1 0.008064 0.395996
vt1 0.991699 0.411621
vt1 0.991699 0.395996
vt1 0.008148 0.321289
vt1 0.991699 0.324707
vt1 0.008064 0.395996
vt1 0.008072 0.134766
vt1 0.991699 0.135254
vt1 0.991699 0.166016
vt1 0.008072 0.166504
vt1 0.991699 0.190430
vt1 0.008064 0.190430
vt1 0.008064 0.243164
vt1 0.991699 0.243164
vt1 0.008072 0.268066
vt1 0.991699 0.298828
vt1 0.008064 0.298340
vn 1.000000 0.000000 0.000000
vn 1.000000 0.000000 0.000000
vn 1.000000 0.000000 0.000000
vn 0.000000 -0.000000 -1.000000
vn 0.000000 -0.000000 -1.000000
vn 0.000000 -0.000000 -1.000000
vn 0.000000 0.000000 1.000000
vn 0.000000 0.000000 1.000000
vn 0.000000 0.000000 1.000000
vn 1.000000 0.000000 0.000000
vn 1.000000 0.000000 0.000000
vn 1.000000 0.000000 0.000000
vn 0.000000 -0.000000 -1.000000
vn 0.000000 -0.000000 -1.000000
vn 0.000000 -0.000000 -1.000000
vn 0.000000 -0.000000 -1.000000
vn 1.000000 0.000000 0.000000
vn 1.000000 0.000000 0.000000
vn 1.000000 0.000000 0.000000
vn 1.000000 0.000000 0.000000
vn 1.000000 0.000000 0.000000
vn 1.000000 0.000000 0.000000
vn 1.000000 0.000000 0.000000
vn 1.000000 0.000000 0.000000
vn 0.000000 -0.000000 -1.000000
vn 0.000000 -0.000000 -1.000000
vn 0.000000 -0.000000 -1.000000
vn 0.000000 -0.000000 -1.000000
vn 0.708661 -0.000000 -0.708661
vn 0.708661 -0.000000 -0.708661
vn 0.708661 -0.000000 -0.708661
vn 0.708661 -0.000000 -0.708661
vn 0.708661 -0.000000 -0.708661
vn 0.708661 -0.000000 -0.708661
vn 0.708661 -0.000000 -0.708661
vn 0.708661 -0.000000 -0.708661
vn 0.708661 -0.000000 -0.708661
vn 0.708661 -0.000000 -0.708661
vn 0.708661 -0.000000 -0.708661
vn 0.708661 -0.000000 -0.708661
vn 1.000000 0.000000 0.000000
vn 1.000000 0.000000 0.000000
vn 1.000000 0.000000 0.000000
vn 1.000000 0.000000 0.000000
vn 0.000000 0.000000 1.000000
vn 0.000000 0.000000 1.000000
vn 0.000000 0.000000 1.000000
vn 0.000000 0.000000 1.000000
vn 0.000000 0.000000 1.000000
vn 0.000000 0.000000 1.000000
vn 0.000000 0.000000 1.000000
vn 0.000000 0.000000 1.000000
vn 1.000000 0.000000 0.000000
vn 1.000000 0.000000 0.000000
vn 1.000000 0.000000 0.000000
vn 1.000000 0.000000 0.000000
vn 0.708661 0.000000 0.708661
vn 0.708661 0.000000 0.708661
vn 0.708661 0.000000 0.708661
vn 0.708661 0.000000 0.708661
vn 0.708661 0.000000 0.708661
vn 0.708661 0.000000 0.708661
vn 0.708661 0.000000 0.708661
vn 0.708661 0.000000 0.708661
vn 0.000000 -1.000000 0.000000
vn 0.000000 -1.000000 0.000000
vn 0.000000 -1.000000 0.000000
vn 0.000000 -1.000000 0.000000
vn 0.000000 -1.000000 0.000000
vn 0.000000 -1.000000 0.000000
vn 0.000000 -1.000000 0.000000
vn 0.000000 -1.000000 0.000000
vn 0.000000 -1.000000 0.000000
vn 0.000000 -1.000000 0.000000
vn 0.000000 -1.000000 0.000000
vn 0.000000 -1.000000 0.000000
vn 0.708661 -0.708661 0.000000
vn 1.000000 0.086614 -0.000000
vn 1.000000 0.062992 -0.000000
vn 0.708661 -0.708661 0.000000
vn 0.000000 -0.000000 -1.000000
vn 0.000000 -0.000000 -1.000000
vn 0.000000 -0.259843 -0.968504
vn 0.000000 -0.330709 -0.944882
vn 0.000000 -0.708661 -0.708661
vn 0.000000 -0.708661 -0.708661
vn 0.000000 -0.708661 0.708661
vn 0.000000 -0.708661 0.708661
vn 0.000000 -0.299212 0.952756
vn 0.000000 0.055118 1.000000
vn 0.000000 0.000000 1.000000
tan 0.000000 -0.795275 0.606299 1.000000
tan 0.000000 -0.795275 0.606299 1.000000
tan 0.000000 -0.795275 0.606299 1.000000
tan -0.787402 0.614173 -0.000000 1.000000
tan -0.787402 0.614173 -0.000000 1.000000
tan -0.787402 0.614173 -0.000000 1.000000
tan 0.787402 -0.614173 0.000000 1.000000
tan 0.787402 -0.614173 0.000000 1.000000
tan 0.787402 -0.614173 0.000000 1.000000
tan 0.000000 -0.787401 -0.614173 1.000000
tan 0.000000 -0.787401 -0.614173 1.000000
tan 0.000000 -0.787401 -0.614173 1.000000
tan 0.000000 -1.000000 0.000000 1.000000
tan 0.007874 -1.000000 0.000000 1.000000
tan 0.000000 -1.000000 0.000000 1.000000
tan 0.007874 -1.000000 0.000000 1.000000
tan 0.000000 -1.000000 0.000000 1.000000
tan 0.000000 -1.000000 0.000000 1.000000
tan 0.000000 -1.000000 0.000000 1.000000
tan 0.000000 -1.000000 0.000000 1.000000
tan 0.000000 -1.000000 0.000000 1.000000
tan 0.000000 -1.000000 0.000000 1.000000
tan 0.000000 -1.000000 0.000000 1.000000
tan 0.000000 -1.000000 0.000000 1.000000
tan 0.000000 -1.000000 0.000000 1.000000
tan 0.000000 -1.000000 0.000000 1.000000
tan 0.000000 -1.000000 0.000000 1.000000
tan 0.000000 -1.000000 0.000000 1.000000
tan 0.000000 -1.004402 0.000000 1.000000
tan 0.000000 -1.004402 0.000000 1.000000
tan 0.000000 -1.004402 0.000000 1.000000
tan 0.000000 -1.004402 0.000000 1.000000
tan 0.000000 -1.004402 0.000000 1.000000
tan 0.005580 -1.004402 0.005580 1.000000
tan 0.000000 -1.004402 0.000000 1.000000
tan 0.005580 -1.004402 0.005580 1.000000
tan 0.000000 -1.004402 0.000000 1.000000
tan 0.000000 -1.004402 0.000000 1.000000
tan 0.000000 -1.004402 0.000000 1.000000
tan 0.000000 -1.004402 0.000000 1.000000
tan 0.000000 -0.000000 -1.000000 1.000000
tan 0.000000 -0.000000 -1.000000 1.000000
tan 0.000000 -0.000000 -1.000000 1.000000
tan 0.000000 -0.000000 -1.000000 1.000000
tan 1.000000 0.000000 0.000000 1.000000
tan 1.000000 0.000000 0.000000 1.000000
tan 1.000000 0.000000 0.000000 1.000000
tan 1.000000 0.000000 0.000000 1.000000
tan 1.000000 0.000000 0.000000 1.000000
tan 1.000000 0.000000 0.000000 1.000000
tan 1.000000 0.000000 0.000000 1.000000
tan 1.000000 0.000000 0.000000 1.000000
tan 0.000000 -0.000000 -1.000000 1.000000
tan 0.000000 -0.000000 -1.000000 1.000000
tan 0.000000 -0.000000 -1.000000 1.000000
tan 0.000000 -0.000000 -1.000000 1.000000
tan 0.708661 -0.000000 -0.708661 1.000000
tan 0.708661 -0.000000 -0.708661 1.000000
tan 0.708661 -0.000000 -0.708661 1.000000
tan 0.708661 -0.000000 -0.708661 1.000000
tan 0.708661 -0.000000 -0.708661 1.000000
tan 0.708661 -0.000000 -0.708661 1.000000
tan 0.708661 -0.000000 -0.708661 1.000000
tan 0.708661 -0.000000 -0.708661 1.000000
tan -1.000000 0.000000 0.000000 1.000000
tan -1.000000 0.000000 0.000000 1.000000
tan -1.000000 0.000000 0.000000 1.000000
tan -1.000000 0.000000 0.000000 1.000000
tan -1.000000 0.000000 0.000000 1.000000
tan -1.000000 0.000000 0.000000 1.000000
tan -1.000000 0.000000 0.000000 1.000000
tan -1.000000 0.000000 0.000000 1.000000
tan 0.000000 -0.000000 -1.000000 1.000000
tan 0.000000 -0.000000 -1.000000 1.000000
tan 0.000000 -0.000000 -1.000000 1.000000
tan 0.000000 -0.000000 -1.000000 1.000000
tan 0.000000 -0.000000 -1.004402 1.000000
tan 0.000000 -0.000000 -1.000000 1.000000
tan 0.000000 -0.000000 -1.000000 1.000000
tan 0.000000 -0.000000 -1.004402 1.000000
tan -1.000000 0.000000 0.000000 1.000000
tan -1.000000 0.000000 0.000000 1.000000
tan -0.968504 0.000000 0.000000 1.000000
tan -0.947486 0.000000 0.000000 1.000000
tan -1.004402 0.000000 0.000000 1.000000
tan -1.004402 0.000000 0.000000 1.000000
tan -1.004402 0.000000 0.000000 1.000000
tan -1.004402 0.000000 0.000000 1.000000
tan -0.955112 0.000000 0.000000 1.000000
tan -1.000000 0.000000 0.000000 1.000000
tan -1.000000 0.000000 0.000000 1.000000
f 3/3/3 2/2/2 1/1/1
f 6/6/6 5/5/5 4/4/4
f 9/9/9 8/8/8 7/7/7
f 12/12/12 11/11/11 10/10/10
f 15/15/15 14/14/14 13/13/13
f 16/16/16 14/14/14 15/15/15
f 19/19/19 18/18/18 17/17/17
f 20/20/20 19/19/19 17/17/17
f 23/23/23 22/22/22 21/21/21
f 24/24/24 23/23/23 21/21/21
f 27/27/27 26/26/26 25/25/25
f 25/25/25 28/28/28 27/27/27
f 31/31/31 30/30/30 29/29/29
f 32/32/32 30/30/30 31/31/31
f 35/35/35 34/34/34 33/33/33
f 36/36/36 34/34/34 35/35/35
f 39/39/39 38/38/38 37/37/37
f 40/40/40 38/38/38 39/39/39
f 43/43/43 42/42/42 41/41/41
f 42/42/42 43/43/43 44/44/44
f 47/47/47 46/46/46 45/45/45
f 48/48/48 45/45/45 46/46/46
f 51/51/51 50/50/50 49/49/49
f 49/49/49 52/52/52 51/51/51
f 55/55/55 54/54/54 53/53/53
f 56/56/56 55/55/55 53/53/53
f 59/59/59 58/58/58 57/57/57
f 60/60/60 57/57/57 58/58/58
f 63/63/63 62/62/62 61/61/61
f 64/64/64 61/61/61 62/62/62
f 67/67/67 66/66/66 65/65/65
f 68/68/68 67/67/67 65/65/65
f 71/71/71 70/70/70 69/69/69
f 72/72/72 71/71/71 69/69/69
f 75/75/75 74/74/74 73/73/73
f 76/76/76 73/73/73 74/74/74
f 79/79/79 78/78/78 77/77/77
f 80/80/80 77/77/77 78/78/78
f 83/83/83 82/82/82 81/81/81
f 84/84/84 83/83/83 81/81/81
f 85/85/85 83/83/83 84/84/84
f 86/86/86 85/85/85 84/84/84
f 89/89/89 88/88/88 87/87/87
f 88/88/88 89/89/89 90/90/90
f 91/91/91 90/90/90 89/89/89
