mtllib SM_Walls2_LOD5.mtl
g SM_Walls2_LOD5
#Vertices 4
#Indices 6
#Section 0 Offset 0 NumIndices 6 MaterialIndex 0 MI_Walls
v -3.061205 0.880670 3.034091
v -3.264816 1.493054 -3.180322
v -3.273710 -1.236659 2.687182
v -3.259543 -1.433339 -3.179829
vt 0.889648 0.868774
vt 0.013870 0.954956
vt 0.840820 0.570068
vt 0.013916 0.542480
vt1 0.908203 0.451660
vt1 0.008080 0.540527
vt1 0.857910 0.145020
vt1 0.008133 0.116699
vn 1.000000 0.000000 0.000000
vn 1.000000 0.000000 0.000000
vn 1.000000 0.000000 0.000000
vn 1.000000 0.000000 0.000000
tan 0.000000 -1.000000 0.000000 1.000000
tan 0.000000 -1.000000 0.000000 1.000000
tan 0.000000 -1.000000 0.000000 1.000000
tan 0.000000 -1.000000 0.000000 1.000000
f 3/3/3 2/2/2 1/1/1
f 2/2/2 3/3/3 4/4/4
