mtllib SM_Walls2_LOD1.mtl
g SM_Walls2_LOD1
#Vertices 32
#Indices 60
#Section 0 Offset 0 NumIndices 54 MaterialIndex 0 MI_Walls
#Section 1 Offset 54 NumIndices 6 MaterialIndex 2 MM_BasicFill
v -1.324698 1.591841 2.739878
v 4.683436 0.601273 2.739879
v 4.683436 1.493055 2.739878
v -1.342352 0.601273 2.739879
v -3.264816 0.601273 2.739879
v -3.264816 -0.785544 2.739879
v 4.683436 0.601273 2.739879
v -1.324698 1.591841 2.739878
v -0.155525 0.601273 2.739879
v 4.683436 -0.785544 2.739879
v -1.260329 -0.785544 2.739879
v -1.186250 -1.434644 2.716668
v -0.237548 -0.785544 2.739879
v 4.708446 -1.417325 2.732195
v -0.237548 -0.785544 2.739879
v 4.708446 -1.417325 2.732195
v 4.683436 -0.785544 2.739879
v -0.155525 0.601273 2.739879
v -1.324698 1.591841 2.739878
v -1.342352 0.601273 2.739879
v -3.264816 0.601273 2.739879
v -3.264816 1.493055 2.739878
v -3.264816 -0.785544 2.739879
v -1.260329 -0.785544 2.739879
v -3.235343 -1.438746 2.727058
v -1.186250 -1.434644 2.716668
v -3.264816 1.493055 2.739878
v -3.264816 1.493054 -3.180322
v -3.264816 0.601273 2.739879
v -3.264816 -0.785544 2.739879
v -3.259543 -1.433339 -3.179829
v -3.235343 -1.438746 2.727058
vt 0.349609 0.470703
vt 1.000000 0.319336
vt 1.000000 0.454102
vt 0.293701 0.321289
vt 0.001258 0.320801
vt 0.002010 0.109863
vt 1.000000 0.319336
vt 0.330811 0.471191
vt 0.472900 0.320801
vt 0.999512 0.110352
vt 0.306152 0.110840
vt 0.339600 0.013672
vt 0.460205 0.111816
vt 1.000977 0.015137
vt 0.460205 0.111816
vt 1.001953 0.015137
vt 0.999512 0.110352
vt 0.472900 0.320801
vt 0.297119 0.471680
vt 0.293701 0.321289
vt 0.001258 0.320801
vt 0.000808 0.457031
vt 0.002010 0.109863
vt 0.306152 0.110840
vt 0.006947 0.010742
vt 0.317627 0.012695
vt 0.848633 0.954926
vt 0.013870 0.954956
vt 0.848633 0.829224
vt 0.848145 0.633789
vt 0.013916 0.542480
vt 0.846680 0.541504
vt1 0.351318 1.005653
vt1 0.991211 0.856812
vt1 0.991699 0.989128
vt1 0.296387 0.858765
vt1 0.008507 0.858154
vt1 0.009247 0.650635
vt1 0.991211 0.856812
vt1 0.332764 1.005951
vt1 0.472656 0.858154
vt1 0.991211 0.651123
vt1 0.308594 0.651611
vt1 0.341553 0.555908
vt1 0.460205 0.652344
vt1 0.993164 0.557129
vt1 0.460205 0.652344
vt1 0.993652 0.557129
vt1 0.991211 0.651123
vt1 0.472656 0.858154
vt1 0.299561 1.006714
vt1 0.296387 0.858765
vt1 0.008507 0.858154
vt1 0.008064 0.991920
vt1 0.009247 0.650635
vt1 0.308594 0.651611
vt1 0.014107 0.552979
vt1 0.319824 0.555176
vt1 0.865723 0.540527
vt1 0.008080 0.540527
vt1 0.865723 0.411133
vt1 0.865723 0.210449
vt1 0.008133 0.116699
vt1 0.863770 0.115723
vn 0.000000 -0.000000 -1.000000
vn 0.000000 -0.000000 -1.000000
vn 0.000000 -0.000000 -1.000000
vn 0.000000 -0.000000 -1.000000
vn 0.000000 -0.000000 -1.000000
vn 0.000000 -0.000000 -1.000000
vn 0.000000 -0.000000 -1.000000
vn 0.000000 -0.000000 -1.000000
vn 0.000000 -0.000000 -1.000000
vn 0.000000 -0.000000 -1.000000
vn 0.000000 -0.000000 -1.000000
vn 0.000000 -0.000000 -1.000000
vn 0.000000 -0.000000 -1.000000
vn 0.000000 -0.000000 -1.000000
vn 0.000000 -0.000000 -1.000000
vn 0.000000 -0.000000 -1.000000
vn 0.000000 -0.000000 -1.000000
vn 0.000000 -0.000000 -1.000000
vn 0.000000 -0.000000 -1.000000
vn 0.000000 -0.000000 -1.000000
vn 0.000000 -0.000000 -1.000000
vn 0.000000 -0.000000 -1.000000
vn 0.000000 -0.000000 -1.000000
vn 0.000000 -0.000000 -1.000000
vn 0.000000 -0.000000 -1.000000
vn 0.000000 -0.000000 -1.000000
vn 1.000000 0.000000 0.000000
vn 1.000000 0.000000 0.000000
vn 1.000000 0.000000 0.000000
vn 1.000000 0.000000 0.000000
vn 1.000000 0.000000 0.000000
vn 1.000000 0.000000 0.000000
tan 0.000000 -1.000000 0.000000 1.000000
tan 0.000000 -1.000000 0.000000 1.000000
tan 0.000000 -1.000000 0.000000 1.000000
tan 0.000000 -1.000000 0.000000 1.000000
tan 0.000000 -1.000000 0.000000 1.000000
tan 0.000000 -1.000000 0.000000 1.000000
tan 0.000000 -1.000000 0.000000 1.000000
tan 0.007874 -1.000000 0.000000 1.000000
tan 0.000000 -1.000000 0.000000 1.000000
tan 0.000000 -1.000000 0.000000 1.000000
tan -0.007874 -1.000000 0.000000 1.000000
tan 0.000000 -1.000000 0.000000 1.000000
tan 0.000000 -1.000000 0.000000 1.000000
tan 0.000000 -1.000000 0.000000 1.000000
tan 0.000000 -1.000000 0.000000 1.000000
tan 0.000000 -1.000000 0.000000 1.000000
tan 0.000000 -1.000000 0.000000 1.000000
tan 0.000000 -1.000000 0.000000 1.000000
tan 0.000000 -1.000000 0.000000 1.000000
tan 0.000000 -1.000000 0.000000 1.000000
tan 0.000000 -1.000000 0.000000 1.000000
tan 0.000000 -1.000000 0.000000 1.000000
tan 0.000000 -1.000000 0.000000 1.000000
tan 0.000000 -1.000000 0.000000 1.000000
tan 0.000000 -1.000000 0.000000 1.000000
tan -0.007874 -1.000000 0.000000 1.000000
tan 0.000000 -1.000000 0.000000 1.000000
tan 0.000000 -1.000000 0.000000 1.000000
tan 0.000000 -1.000000 0.000000 1.000000
tan 0.000000 -1.000000 0.000000 1.000000
tan 0.000000 -1.000000 0.000000 1.000000
tan 0.000000 -1.000000 0.000000 1.000000
f 3/3/3 2/2/2 1/1/1
f 6/6/6 5/5/5 4/4/4
f 9/9/9 8/8/8 7/7/7
f 7/7/7 10/10/10 9/9/9
f 13/13/13 12/12/12 11/11/11
f 12/12/12 13/13/13 14/14/14
f 17/17/17 16/16/16 15/15/15
f 15/15/15 18/18/18 17/17/17
f 20/20/20 19/19/19 18/18/18
f 20/20/20 21/21/21 19/19/19
f 21/21/21 22/22/22 19/19/19
f 24/24/24 23/23/23 20/20/20
f 25/25/25 23/23/23 24/24/24
f 26/26/26 25/25/25 24/24/24
f 29/29/29 28/28/28 27/27/27
f 30/30/30 28/28/28 29/29/29
f 28/28/28 30/30/30 31/31/31
f 32/32/32 31/31/31 30/30/30
f 18/18/18 15/15/15 20/20/20
f 24/24/24 20/20/20 15/15/15
