mtllib SM_Walls_LOD2.mtl
g SM_Walls_LOD2
#Vertices 26
#Indices 30
#Section 0 Offset 0 NumIndices 30 MaterialIndex 0 MI_Walls
v -1.324698 1.591841 2.739878
v 4.683436 0.601273 2.739879
v 4.683436 1.493055 2.739878
v -1.324698 1.591841 2.739878
v -3.259760 1.156187 2.754805
v -0.869088 0.805983 2.742040
v -0.869088 0.805983 2.742040
v -3.259760 1.156187 2.754805
v -3.274077 -1.236751 2.686386
v -0.869088 0.805983 2.742040
v -3.274077 -1.236751 2.686386
v -1.205337 -1.360651 2.725053
v 4.965419 -1.202088 2.738724
v -0.869088 0.805983 2.742040
v -0.237548 -0.785544 2.739879
v 4.965419 -1.202088 2.738724
v -0.237548 -0.785544 2.739879
v -1.205337 -1.360651 2.725053
v 4.683436 0.601273 2.739879
v -1.324698 1.591841 2.739878
v -0.869088 0.805983 2.742040
v 4.965419 -1.202088 2.738724
v -3.259760 1.156187 2.754805
v -3.264816 1.493054 -3.180322
v -3.274077 -1.236751 2.686386
v -3.259543 -1.433339 -3.179829
vt 0.349609 0.470703
vt 1.000000 0.319336
vt 1.000000 0.454102
vt 0.297119 0.471680
vt 0.002041 0.405273
vt 0.365479 0.352539
vt 0.365479 0.352539
vt 0.001726 0.405273
vt 0.000846 0.041504
vt 0.365479 0.352539
vt 0.000784 0.041504
vt 0.314697 0.023926
vt 1.029297 0.047363
vt 0.395264 0.352051
vt 0.460205 0.111816
vt 1.035156 0.047363
vt 0.460205 0.111816
vt 0.337646 0.024902
vt 1.000000 0.319336
vt 0.330811 0.471191
vt 0.394043 0.352051
vt 1.030273 0.047363
vt 0.850586 0.907471
vt 0.013870 0.954956
vt 0.840820 0.570068
vt 0.013916 0.542480
vt1 0.351318 1.005653
vt1 0.991211 0.856812
vt1 0.991699 0.989128
vt1 0.299561 1.006714
vt1 0.009277 0.941315
vt1 0.366943 0.889282
vt1 0.367188 0.889465
vt1 0.008965 0.941223
vt1 0.008102 0.583252
vt1 0.366943 0.889587
vt1 0.008034 0.583252
vt1 0.316895 0.565918
vt1 1.020508 0.589111
vt1 0.396240 0.888733
vt1 0.460205 0.652344
vt1 1.026367 0.589111
vt1 0.460205 0.652344
vt1 0.339600 0.566895
vt1 0.991211 0.856812
vt1 0.332764 1.005951
vt1 0.395020 0.888794
vt1 1.020508 0.589111
vt1 0.869141 0.491699
vt1 0.008080 0.540527
vt1 0.858887 0.144531
vt1 0.008133 0.116211
vn 0.000000 -0.000000 -1.000000
vn 0.000000 -0.000000 -1.000000
vn 0.000000 -0.000000 -1.000000
vn 0.000000 -0.000000 -1.000000
vn 0.000000 -0.000000 -1.000000
vn 0.000000 -0.000000 -1.000000
vn 0.000000 -0.000000 -1.000000
vn 0.000000 -0.000000 -1.000000
vn 0.000000 -0.000000 -1.000000
vn 0.000000 -0.000000 -1.000000
vn 0.000000 -0.000000 -1.000000
vn 0.000000 -0.000000 -1.000000
vn 0.000000 -0.000000 -1.000000
vn 0.000000 -0.000000 -1.000000
vn 0.000000 -0.000000 -1.000000
vn 0.000000 -0.000000 -1.000000
vn 0.000000 -0.000000 -1.000000
vn 0.000000 -0.000000 -1.000000
vn 0.000000 -0.000000 -1.000000
vn 0.000000 -0.000000 -1.000000
vn 0.000000 -0.000000 -1.000000
vn 0.000000 -0.000000 -1.000000
vn 1.000000 0.000000 0.000000
vn 1.000000 0.000000 0.000000
vn 1.000000 0.000000 0.000000
vn 1.000000 0.000000 0.000000
tan 0.000000 -1.000000 0.000000 1.000000
tan 0.000000 -1.000000 0.000000 1.000000
tan 0.000000 -1.000000 0.000000 1.000000
tan 0.000000 -1.000000 0.000000 1.000000
tan 0.000000 -1.000000 0.000000 1.000000
tan 0.000000 -1.000000 0.000000 1.000000
tan 0.000000 -1.000000 0.000000 1.000000
tan 0.000000 -1.000000 0.000000 1.000000
tan 0.000000 -1.000000 0.000000 1.000000
tan 0.000000 -1.000000 0.000000 1.000000
tan 0.000000 -1.000000 0.000000 1.000000
tan -0.007874 -1.000000 0.000000 1.000000
tan 0.000000 -1.000000 0.000000 1.000000
tan 0.000000 -1.000000 0.000000 1.000000
tan 0.000000 -1.000000 0.000000 1.000000
tan 0.000000 -1.000000 0.000000 1.000000
tan 0.000000 -1.000000 0.000000 1.000000
tan 0.000000 -1.000000 0.000000 1.000000
tan 0.000000 -1.000000 0.000000 1.000000
tan 0.007874 -1.000000 0.000000 1.000000
tan 0.007874 -1.000000 0.000000 1.000000
tan 0.000000 -1.000000 0.000000 1.000000
tan 0.000000 -1.000000 0.000000 1.000000
tan 0.000000 -1.000000 0.000000 1.000000
tan 0.000000 -1.000000 0.000000 1.000000
tan 0.000000 -1.000000 0.000000 1.000000
f 3/3/3 2/2/2 1/1/1
f 6/6/6 5/5/5 4/4/4
f 9/9/9 8/8/8 7/7/7
f 12/12/12 11/11/11 10/10/10
f 15/15/15 14/14/14 13/13/13
f 18/18/18 17/17/17 16/16/16
f 21/21/21 20/20/20 19/19/19
f 19/19/19 22/22/22 21/21/21
f 25/25/25 24/24/24 23/23/23
f 24/24/24 25/25/25 26/26/26
