mtllib SM_Walls_LOD5.mtl
g SM_Walls_LOD5
#Vertices 4
#Indices 6
#Section 0 Offset 0 NumIndices 6 MaterialIndex 0 MI_Walls
v -3.007997 0.794172 3.070742
v -3.264816 1.493054 -3.180322
v -3.274077 -1.236751 2.686386
v -3.259543 -1.433339 -3.179829
vt 0.895020 0.856689
vt 0.013870 0.954956
vt 0.840820 0.570068
vt 0.013916 0.542480
vt1 0.915039 0.439453
vt1 0.008080 0.540527
vt1 0.858887 0.144531
vt1 0.008133 0.116211
vn 1.000000 0.000000 0.000000
vn 1.000000 0.000000 0.000000
vn 1.000000 0.000000 0.000000
vn 1.000000 0.000000 0.000000
tan 0.000000 -1.000000 0.000000 1.000000
tan 0.000000 -1.000000 0.000000 1.000000
tan 0.000000 -1.000000 0.000000 1.000000
tan 0.000000 -1.000000 0.000000 1.000000
f 3/3/3 2/2/2 1/1/1
f 2/2/2 3/3/3 4/4/4
