mtllib SM_Walls2_LOD3.mtl
g SM_Walls2_LOD3
#Vertices 12
#Indices 15
#Section 0 Offset 0 NumIndices 15 MaterialIndex 0 MI_Walls
v -0.923751 1.013458 2.742078
v -3.265704 1.200025 2.741008
v -3.273710 -1.236659 2.687182
v -0.923751 1.013458 2.742078
v -3.273710 -1.236659 2.687182
v -0.738781 -0.996433 2.738003
v 4.371885 -0.559798 2.739486
v -0.738781 -0.996433 2.738003
v -3.265704 1.200025 2.741008
v -3.264816 1.493054 -3.180322
v -3.273710 -1.236659 2.687182
v -3.259543 -1.433339 -3.179829
vt 0.357178 0.384277
vt 0.000798 0.412109
vt 0.000902 0.041504
vt 0.372803 0.383789
vt 0.000833 0.041504
vt 0.385254 0.079590
vt 0.960938 0.144531
vt 0.404541 0.080078
vt 0.848633 0.913635
vt 0.013870 0.954956
vt 0.840820 0.570068
vt 0.013916 0.542480
vt1 0.358887 0.920471
vt1 0.008049 0.947693
vt1 0.008156 0.583252
vt1 0.374268 0.919983
vt1 0.008087 0.583252
vt1 0.386475 0.620605
vt1 0.953125 0.684814
vt1 0.405518 0.621094
vt1 0.865723 0.498047
vt1 0.008080 0.540527
vt1 0.857910 0.145020
vt1 0.008133 0.116699
vn 0.000000 -0.000000 -1.000000
vn 0.000000 -0.000000 -1.000000
vn 0.000000 -0.000000 -1.000000
vn 0.000000 -0.000000 -1.000000
vn 0.000000 -0.000000 -1.000000
vn 0.000000 -0.000000 -1.000000
vn 0.000000 -0.000000 -1.000000
vn 0.000000 -0.000000 -1.000000
vn 1.000000 0.000000 0.000000
vn 1.000000 0.000000 0.000000
vn 1.000000 0.000000 0.000000
vn 1.000000 0.000000 0.000000
tan 0.000000 -1.000000 0.000000 1.000000
tan 0.000000 -1.000000 0.000000 1.000000
tan 0.000000 -1.000000 0.000000 1.000000
tan 0.000000 -1.000000 0.000000 1.000000
tan -0.007874 -1.000000 0.000000 1.000000
tan -0.007874 -1.000000 0.000000 1.000000
tan 0.000000 -1.000000 0.000000 1.000000
tan 0.000000 -1.000000 0.000000 1.000000
tan 0.000000 -1.000000 0.000000 1.000000
tan 0.000000 -1.000000 0.000000 1.000000
tan 0.000000 -1.000000 0.000000 1.000000
tan 0.000000 -1.000000 0.000000 1.000000
f 3/3/3 2/2/2 1/1/1
f 6/6/6 5/5/5 4/4/4
f 8/8/8 4/4/4 7/7/7
f 11/11/11 10/10/10 9/9/9
f 10/10/10 11/11/11 12/12/12
