mtllib SM_Walls_LOD4.mtl
g SM_Walls_LOD4
#Vertices 7
#Indices 9
#Section 0 Offset 0 NumIndices 9 MaterialIndex 0 MI_Walls
v -1.038391 0.295465 2.732856
v -3.259760 1.156187 2.754805
v -3.274077 -1.236751 2.686386
v -3.259760 1.156187 2.754805
v -3.264816 1.493054 -3.180322
v -3.274077 -1.236751 2.686386
v -3.259543 -1.433339 -3.179829
vt 0.340088 0.274902
vt 0.001726 0.405273
vt 0.000846 0.041504
vt 0.850586 0.907471
vt 0.013870 0.954956
vt 0.840820 0.570068
vt 0.013916 0.542480
vt1 0.342041 0.813110
vt1 0.008965 0.941223
vt1 0.008102 0.583252
vt1 0.869141 0.491699
vt1 0.008080 0.540527
vt1 0.858887 0.144531
vt1 0.008133 0.116211
vn 0.000000 -0.000000 -1.000000
vn 0.000000 -0.000000 -1.000000
vn 0.000000 -0.000000 -1.000000
vn 1.000000 0.000000 0.000000
vn 1.000000 0.000000 0.000000
vn 1.000000 0.000000 0.000000
vn 1.000000 0.000000 0.000000
tan 0.000000 -1.000000 0.000000 1.000000
tan 0.000000 -1.000000 0.000000 1.000000
tan 0.000000 -1.000000 0.000000 1.000000
tan 0.000000 -1.000000 0.000000 1.000000
tan 0.000000 -1.000000 0.000000 1.000000
tan 0.000000 -1.000000 0.000000 1.000000
tan 0.000000 -1.000000 0.000000 1.000000
f 3/3/3 2/2/2 1/1/1
f 6/6/6 5/5/5 4/4/4
f 5/5/5 6/6/6 7/7/7
