mtllib SM_Walls.mtl
g SM_Walls
#Vertices 66
#Indices 114
#Section 0 Offset 0 NumIndices 66 MaterialIndex 0 MI_Walls
#Section 1 Offset 66 NumIndices 48 MaterialIndex 1 MI_Structure
v -0.087331 1.493055 2.739878
v 4.683436 0.601273 2.739879
v 4.683436 1.493055 2.739878
v -1.342352 0.601273 2.739879
v -3.264816 0.601273 2.739879
v -3.264816 -0.785544 2.739879
v 4.683436 -0.785544 2.739879
v -0.155525 0.601273 2.739879
v -0.237548 -0.785544 2.739879
v 4.683436 -1.387149 2.739879
v -1.342352 0.601273 2.739879
v -3.264816 -0.785544 2.739879
v -1.260329 -0.785544 2.739879
v -3.264816 -1.387149 2.739879
v -1.198788 -1.387149 2.739879
v 4.683436 -1.387149 2.739879
v -0.237548 -0.785544 2.739879
v -0.299089 -1.387149 2.739879
v -1.260329 -0.785544 2.739879
v -1.198788 -1.387149 2.739879
v -3.264816 0.601272 -3.180322
v -3.264816 1.493055 2.739878
v -3.264816 1.493054 -3.180322
v -3.264816 0.601273 2.739879
v -3.264816 -0.785545 -3.180322
v -3.264816 -0.785544 2.739879
v -3.264816 -1.387150 -3.180321
v -3.264816 -1.387149 2.739879
v -1.410545 1.493055 2.739878
v -0.155525 0.601273 2.739879
v -0.087331 1.493055 2.739878
v 4.683436 0.601273 2.739879
v 4.683436 -0.785544 2.739879
v -0.155525 0.601273 2.739879
v -1.410545 1.493055 2.739878
v -1.342352 0.601273 2.739879
v -3.264816 0.601273 2.739879
v -3.264816 1.493055 2.739878
v -0.309922 -1.493054 2.663879
v -1.198788 -1.387149 2.663879
v -1.187954 -1.493054 2.663879
v -3.188816 -1.493055 -3.180321
v -3.188816 -1.387149 2.663879
v -3.188816 -1.387150 -3.180321
v -3.188816 -1.493054 2.663879
v -1.198788 -1.387149 2.663879
v -3.188816 -1.493054 2.663879
v -1.187954 -1.493054 2.663879
v -3.188816 -1.387149 2.663879
v -3.264816 -1.387150 -3.180321
v -3.188816 -1.387149 2.663879
v -3.264816 -1.387149 2.739879
v -3.188816 -1.387150 -3.180321
v -1.198788 -1.387149 2.663879
v -0.309922 -1.493054 2.663879
v -0.299089 -1.387149 2.663879
v 4.683436 -1.493054 2.663879
v 4.683436 -1.387149 2.663879
v -1.198788 -1.387149 2.739879
v -3.264816 -1.387149 2.739879
v -3.188816 -1.387149 2.663879
v -1.198788 -1.387149 2.663879
v -0.299089 -1.387149 2.739879
v -0.299089 -1.387149 2.663879
v 4.683436 -1.387149 2.739879
v 4.683436 -1.387149 2.663879
vt 0.483643 0.455566
vt 1.000000 0.319336
vt 1.000000 0.454102
vt 0.293701 0.321289
vt 0.001258 0.320801
vt 0.002010 0.109863
vt 0.999512 0.110352
vt 0.472900 0.320801
vt 0.460205 0.111816
vt 0.999512 0.019531
vt 0.293701 0.321289
vt 0.002010 0.109863
vt 0.306152 0.110840
vt 0.002439 0.018555
vt 0.315674 0.020020
vt 0.999512 0.019531
vt 0.460205 0.111816
vt 0.450928 0.020996
vt 0.306152 0.110840
vt 0.315674 0.020020
vt 0.013863 0.829224
vt 0.848633 0.954926
vt 0.013870 0.954956
vt 0.848633 0.829224
vt 0.013855 0.633789
vt 0.848145 0.633789
vt 0.013847 0.549072
vt 0.848145 0.548828
vt 0.283936 0.457031
vt 0.472900 0.320801
vt 0.483643 0.455566
vt 1.000000 0.319336
vt 0.999512 0.110352
vt 0.472900 0.320801
vt 0.283936 0.457031
vt 0.293701 0.321289
vt 0.001258 0.320801
vt 0.000808 0.457031
vt 0.316162 0.017090
vt 0.316162 0.017090
vt 0.316162 0.017090
vt 0.013855 0.500000
vt 0.837891 0.514893
vt 0.013855 0.514893
vt 0.837891 0.500000
vt 0.316162 0.017090
vt 0.317627 0.017090
vt 0.316162 0.017090
vt 0.317627 0.017090
vt 0.013855 0.525635
vt 0.837891 0.514893
vt 0.848633 0.525635
vt 0.013855 0.514893
vt 0.316162 0.017090
vt 0.316162 0.017090
vt 0.316162 0.017090
vt 0.314697 0.017090
vt 0.314697 0.017090
vt 0.316162 0.017090
vt 0.317627 0.017090
vt 0.317627 0.017090
vt 0.316162 0.017090
vt 0.316162 0.017090
vt 0.316162 0.017090
vt 0.314697 0.017090
vt 0.314697 0.017090
vt1 0.483154 0.990608
vt1 0.991211 0.856812
vt1 0.991699 0.989128
vt1 0.296387 0.858765
vt1 0.008507 0.858154
vt1 0.009247 0.650635
vt1 0.991211 0.651123
vt1 0.472656 0.858154
vt1 0.460205 0.652344
vt1 0.990723 0.561768
vt1 0.296387 0.858765
vt1 0.009247 0.650635
vt1 0.308594 0.651611
vt1 0.009666 0.560791
vt1 0.317871 0.562256
vt1 0.990723 0.561768
vt1 0.460205 0.652344
vt1 0.450928 0.562988
vt1 0.308594 0.651611
vt1 0.317871 0.562256
vt1 0.008072 0.411133
vt1 0.866699 0.540527
vt1 0.008080 0.540527
vt1 0.866699 0.411133
vt1 0.008064 0.209961
vt1 0.866699 0.209961
vt1 0.008064 0.122559
vt1 0.866699 0.122559
vt1 0.286621 0.991936
vt1 0.472656 0.858154
vt1 0.483154 0.990608
vt1 0.991211 0.856812
vt1 0.991211 0.651123
vt1 0.472656 0.858154
vt1 0.286621 0.991936
vt1 0.296387 0.858765
vt1 0.008507 0.858154
vt1 0.008064 0.991920
vt1 0.491455 0.085449
vt1 0.536133 0.072266
vt1 0.534668 0.090332
vt1 0.008064 0.014160
vt1 0.855957 0.029297
vt1 0.008064 0.029297
vt1 0.855957 0.014160
vt1 0.536133 0.072266
vt1 0.975098 0.104980
vt1 0.534668 0.090332
vt1 0.975098 0.081055
vt1 0.008064 0.040527
vt1 0.855957 0.029297
vt1 0.866699 0.040527
vt1 0.008064 0.029297
vt1 0.536133 0.072266
vt1 0.491455 0.085449
vt1 0.490723 0.075684
vt1 0.008064 0.086914
vt1 0.008553 0.077148
vt1 0.536133 0.072266
vt1 0.991699 0.065430
vt1 0.975098 0.081055
vt1 0.536133 0.072266
vt1 0.490967 0.068359
vt1 0.490723 0.075684
vt1 0.008347 0.069336
vt1 0.008553 0.077148
vn 0.000000 -0.000000 -1.000000
vn 0.000000 -0.000000 -1.000000
vn 0.000000 -0.000000 -1.000000
vn 0.000000 -0.000000 -1.000000
vn 0.000000 -0.000000 -1.000000
vn 0.000000 -0.000000 -1.000000
vn 0.000000 -0.000000 -1.000000
vn 0.000000 -0.000000 -1.000000
vn 0.000000 -0.000000 -1.000000
vn 0.000000 -0.000000 -1.000000
vn 0.000000 -0.000000 -1.000000
vn 0.000000 -0.000000 -1.000000
vn 0.000000 -0.000000 -1.000000
vn 0.000000 -0.000000 -1.000000
vn 0.000000 -0.000000 -1.000000
vn 0.000000 -0.000000 -1.000000
vn 0.000000 -0.000000 -1.000000
vn 0.000000 -0.000000 -1.000000
vn 0.000000 -0.000000 -1.000000
vn 0.000000 -0.000000 -1.000000
vn 1.000000 0.000000 0.000000
vn 1.000000 0.000000 0.000000
vn 1.000000 0.000000 0.000000
vn 1.000000 0.000000 0.000000
vn 1.000000 0.000000 0.000000
vn 1.000000 0.000000 0.000000
vn 1.000000 0.000000 0.000000
vn 1.000000 0.000000 0.000000
vn 0.000000 -0.000000 -1.000000
vn 0.000000 -0.000000 -1.000000
vn 0.000000 -0.000000 -1.000000
vn 0.000000 -0.000000 -1.000000
vn 0.000000 -0.000000 -1.000000
vn 0.000000 -0.000000 -1.000000
vn 0.000000 -0.000000 -1.000000
vn 0.000000 -0.000000 -1.000000
vn 0.000000 -0.000000 -1.000000
vn 0.000000 -0.000000 -1.000000
vn 0.000000 -0.000000 -1.000000
vn 0.000000 -0.000000 -1.000000
vn 0.000000 -0.000000 -1.000000
vn 1.000000 0.000000 0.000000
vn 1.000000 0.000000 0.000000
vn 1.000000 0.000000 0.000000
vn 1.000000 0.000000 0.000000
vn 0.000000 -0.000000 -1.000000
vn 0.000000 -0.000000 -1.000000
vn 0.000000 -0.000000 -1.000000
vn 0.000000 -0.000000 -1.000000
vn 0.000000 1.000000 -0.000000
vn 0.000000 1.000000 -0.000000
vn 0.000000 1.000000 -0.000000
vn 0.000000 1.000000 -0.000000
vn 0.000000 -0.000000 -1.000000
vn 0.000000 -0.000000 -1.000000
vn 0.000000 -0.000000 -1.000000
vn 0.000000 -0.000000 -1.000000
vn 0.000000 -0.000000 -1.000000
vn 0.000000 1.000000 -0.000000
vn 0.000000 1.000000 -0.000000
vn 0.000000 1.000000 -0.000000
vn 0.000000 1.000000 -0.000000
vn 0.000000 1.000000 -0.000000
vn 0.000000 1.000000 -0.000000
vn 0.000000 1.000000 -0.000000
vn 0.000000 1.000000 -0.000000
tan 0.000000 -1.000000 0.000000 1.000000
tan 0.000000 -1.000000 0.000000 1.000000
tan 0.000000 -1.000000 0.000000 1.000000
tan 0.000000 -1.000000 0.000000 1.000000
tan 0.000000 -1.000000 0.000000 1.000000
tan 0.000000 -1.000000 0.000000 1.000000
tan 0.000000 -1.000000 0.000000 1.000000
tan 0.000000 -1.000000 0.000000 1.000000
tan 0.000000 -1.000000 0.000000 1.000000
tan 0.000000 -1.000000 0.000000 1.000000
tan 0.000000 -1.000000 0.000000 1.000000
tan 0.000000 -1.000000 0.000000 1.000000
tan 0.000000 -1.000000 0.000000 1.000000
tan 0.000000 -1.000000 0.000000 1.000000
tan -0.007874 -1.000000 0.000000 1.000000
tan 0.000000 -1.000000 0.000000 1.000000
tan 0.000000 -1.000000 0.000000 1.000000
tan 0.000000 -1.000000 0.000000 1.000000
tan -0.007874 -1.000000 0.000000 1.000000
tan -0.007874 -1.000000 0.000000 1.000000
tan 0.000000 -1.000000 0.000000 1.000000
tan 0.000000 -1.000000 0.000000 1.000000
tan 0.000000 -1.000000 0.000000 1.000000
tan 0.000000 -1.000000 0.000000 1.000000
tan 0.000000 -1.000000 0.000000 1.000000
tan 0.000000 -1.000000 0.000000 1.000000
tan 0.000000 -1.000000 0.000000 1.000000
tan 0.000000 -1.000000 0.000000 1.000000
tan 0.007874 -1.000000 0.000000 1.000000
tan 0.000000 -1.000000 0.000000 1.000000
tan 0.007874 -1.000000 0.000000 1.000000
tan 0.000000 -1.000000 0.000000 1.000000
tan 0.000000 -1.000000 0.000000 1.000000
tan 0.000000 -1.000000 0.000000 1.000000
tan 0.000000 -1.000000 0.000000 1.000000
tan 0.000000 -1.000000 0.000000 1.000000
tan 0.000000 -1.000000 0.000000 1.000000
tan 0.000000 -1.000000 0.000000 1.000000
tan 0.031496 1.000000 -0.000000 1.000000
tan 0.031496 1.000000 -0.000000 1.000000
tan 0.031496 1.000000 -0.000000 1.000000
tan 0.000000 -1.000000 0.000000 1.000000
tan 0.000000 -1.000000 0.000000 1.000000
tan 0.000000 -1.000000 0.000000 1.000000
tan 0.000000 -1.000000 0.000000 1.000000
tan 0.039370 1.000000 -0.000000 1.000000
tan 0.023622 1.000000 -0.000000 1.000000
tan 0.039370 1.000000 -0.000000 1.000000
tan 0.015748 1.000000 -0.000000 1.000000
tan 1.000000 0.000000 0.000000 1.000000
tan 1.000000 0.000000 0.000000 1.000000
tan 1.000000 0.000000 0.000000 1.000000
tan 1.000000 0.000000 0.000000 1.000000
tan -0.039370 1.000000 -0.000000 1.000000
tan -0.023622 1.000000 -0.000000 1.000000
tan -0.015748 1.000000 -0.000000 1.000000
tan 0.000000 1.000000 -0.000000 1.000000
tan 0.000000 1.000000 -0.000000 1.000000
tan -0.015748 0.000000 1.000000 1.000000
tan -0.015748 0.000000 1.000000 1.000000
tan -0.015748 0.000000 1.000000 1.000000
tan -0.039370 0.000000 1.000000 1.000000
tan -0.015748 0.000000 1.000000 1.000000
tan -0.023622 0.000000 1.000000 1.000000
tan 0.000000 0.000000 1.000000 1.000000
tan 0.000000 0.000000 1.000000 1.000000
f 3/3/3 2/2/2 1/1/1
f 6/6/6 5/5/5 4/4/4
f 9/9/9 8/8/8 7/7/7
f 7/7/7 10/10/10 9/9/9
f 13/13/13 12/12/12 11/11/11
f 14/14/14 12/12/12 13/13/13
f 15/15/15 14/14/14 13/13/13
f 18/18/18 17/17/17 16/16/16
f 17/17/17 18/18/18 19/19/19
f 20/20/20 19/19/19 18/18/18
f 23/23/23 22/22/22 21/21/21
f 24/24/24 21/21/21 22/22/22
f 21/21/21 24/24/24 25/25/25
f 26/26/26 25/25/25 24/24/24
f 25/25/25 26/26/26 27/27/27
f 28/28/28 27/27/27 26/26/26
f 31/31/31 30/30/30 29/29/29
f 30/30/30 31/31/31 32/32/32
f 32/32/32 33/33/33 30/30/30
f 36/36/36 35/35/35 34/34/34
f 36/36/36 37/37/37 35/35/35
f 37/37/37 38/38/38 35/35/35
f 41/41/41 40/40/40 39/39/39
f 44/44/44 43/43/43 42/42/42
f 45/45/45 42/42/42 43/43/43
f 48/48/48 47/47/47 46/46/46
f 49/49/49 46/46/46 47/47/47
f 52/52/52 51/51/51 50/50/50
f 53/53/53 50/50/50 51/51/51
f 56/56/56 55/55/55 54/54/54
f 55/55/55 56/56/56 57/57/57
f 58/58/58 57/57/57 56/56/56
f 61/61/61 60/60/60 59/59/59
f 59/59/59 62/62/62 61/61/61
f 59/59/59 63/63/63 62/62/62
f 63/63/63 64/64/64 62/62/62
f 63/63/63 65/65/65 64/64/64
f 65/65/65 66/66/66 64/64/64
