mtllib SM_Walls_LOD1.mtl
g SM_Walls_LOD1
#Vertices 35
#Indices 57
#Section 0 Offset 0 NumIndices 57 MaterialIndex 0 MI_Walls
v -0.087331 1.493055 2.739878
v 4.683436 0.601273 2.739879
v 4.683436 1.493055 2.739878
v -1.342352 0.601273 2.739879
v -3.264816 0.601273 2.739879
v -3.264816 -0.785544 2.739879
v 4.683436 -0.785544 2.739879
v -0.155525 0.601273 2.739879
v -0.237548 -0.785544 2.739879
v 4.708446 -1.417325 2.732195
v -1.260329 -0.785544 2.739879
v -1.186250 -1.434644 2.716668
v -0.237548 -0.785544 2.739879
v 4.708446 -1.417325 2.732195
v -1.342352 0.601273 2.739879
v -3.264816 -0.785544 2.739879
v -1.260329 -0.785544 2.739879
v -3.235343 -1.438746 2.727058
v -1.186250 -1.434644 2.716668
v -3.264816 1.493055 2.739878
v -3.264816 1.493054 -3.180322
v -3.264816 0.601273 2.739879
v -3.264816 -0.785544 2.739879
v -3.259543 -1.433339 -3.179829
v -3.235343 -1.438746 2.727058
v -1.410545 1.493055 2.739878
v -0.155525 0.601273 2.739879
v -0.087331 1.493055 2.739878
v 4.683436 0.601273 2.739879
v 4.683436 -0.785544 2.739879
v -0.155525 0.601273 2.739879
v -1.410545 1.493055 2.739878
v -1.342352 0.601273 2.739879
v -3.264816 0.601273 2.739879
v -3.264816 1.493055 2.739878
vt 0.483643 0.455566
vt 1.000000 0.319336
vt 1.000000 0.454102
vt 0.293701 0.321289
vt 0.001258 0.320801
vt 0.002010 0.109863
vt 0.999512 0.110352
vt 0.472900 0.320801
vt 0.460205 0.111816
vt 1.001953 0.015137
vt 0.306152 0.110840
vt 0.339600 0.013672
vt 0.460205 0.111816
vt 1.000977 0.015137
vt 0.293701 0.321289
vt 0.002010 0.109863
vt 0.306152 0.110840
vt 0.006947 0.010742
vt 0.317627 0.012695
vt 0.848633 0.954926
vt 0.013870 0.954956
vt 0.848633 0.829224
vt 0.848145 0.633789
vt 0.013916 0.542480
vt 0.846680 0.541504
vt 0.283936 0.457031
vt 0.472900 0.320801
vt 0.483643 0.455566
vt 1.000000 0.319336
vt 0.999512 0.110352
vt 0.472900 0.320801
vt 0.283936 0.457031
vt 0.293701 0.321289
vt 0.001258 0.320801
vt 0.000808 0.457031
vt1 0.483154 0.990608
vt1 0.991211 0.856812
vt1 0.991699 0.989128
vt1 0.296387 0.858765
vt1 0.008507 0.858154
vt1 0.009247 0.650635
vt1 0.991211 0.651123
vt1 0.472656 0.858154
vt1 0.460205 0.652344
vt1 0.993652 0.557129
vt1 0.308594 0.651611
vt1 0.341553 0.555908
vt1 0.460205 0.652344
vt1 0.993164 0.557129
vt1 0.296387 0.858765
vt1 0.009247 0.650635
vt1 0.308594 0.651611
vt1 0.014107 0.552979
vt1 0.319824 0.555176
vt1 0.866699 0.540527
vt1 0.008080 0.540527
vt1 0.866699 0.411133
vt1 0.866699 0.209961
vt1 0.008133 0.116211
vt1 0.864746 0.115234
vt1 0.286621 0.991936
vt1 0.472656 0.858154
vt1 0.483154 0.990608
vt1 0.991211 0.856812
vt1 0.991211 0.651123
vt1 0.472656 0.858154
vt1 0.286621 0.991936
vt1 0.296387 0.858765
vt1 0.008507 0.858154
vt1 0.008064 0.991920
vn 0.000000 -0.000000 -1.000000
vn 0.000000 -0.000000 -1.000000
vn 0.000000 -0.000000 -1.000000
vn 0.000000 -0.000000 -1.000000
vn 0.000000 -0.000000 -1.000000
vn 0.000000 -0.000000 -1.000000
vn 0.000000 -0.000000 -1.000000
vn 0.000000 -0.000000 -1.000000
vn 0.000000 -0.000000 -1.000000
vn 0.000000 -0.000000 -1.000000
vn 0.000000 -0.000000 -1.000000
vn 0.000000 -0.000000 -1.000000
vn 0.000000 -0.000000 -1.000000
vn 0.000000 -0.000000 -1.000000
vn 0.000000 -0.000000 -1.000000
vn 0.000000 -0.000000 -1.000000
vn 0.000000 -0.000000 -1.000000
vn 0.000000 -0.000000 -1.000000
vn 0.000000 -0.000000 -1.000000
vn 1.000000 0.000000 0.000000
vn 1.000000 0.000000 0.000000
vn 1.000000 0.000000 0.000000
vn 1.000000 0.000000 0.000000
vn 1.000000 0.000000 0.000000
vn 1.000000 0.000000 0.000000
vn 0.000000 -0.000000 -1.000000
vn 0.000000 -0.000000 -1.000000
vn 0.000000 -0.000000 -1.000000
vn 0.000000 -0.000000 -1.000000
vn 0.000000 -0.000000 -1.000000
vn 0.000000 -0.000000 -1.000000
vn 0.000000 -0.000000 -1.000000
vn 0.000000 -0.000000 -1.000000
vn 0.000000 -0.000000 -1.000000
vn 0.000000 -0.000000 -1.000000
tan 0.000000 -1.000000 0.000000 1.000000
tan 0.000000 -1.000000 0.000000 1.000000
tan 0.000000 -1.000000 0.000000 1.000000
tan 0.000000 -1.000000 0.000000 1.000000
tan 0.000000 -1.000000 0.000000 1.000000
tan 0.000000 -1.000000 0.000000 1.000000
tan 0.000000 -1.000000 0.000000 1.000000
tan 0.000000 -1.000000 0.000000 1.000000
tan 0.000000 -1.000000 0.000000 1.000000
tan 0.000000 -1.000000 0.000000 1.000000
tan -0.007874 -1.000000 0.000000 1.000000
tan 0.000000 -1.000000 0.000000 1.000000
tan 0.000000 -1.000000 0.000000 1.000000
tan 0.000000 -1.000000 0.000000 1.000000
tan 0.000000 -1.000000 0.000000 1.000000
tan 0.000000 -1.000000 0.000000 1.000000
tan 0.000000 -1.000000 0.000000 1.000000
tan 0.000000 -1.000000 0.000000 1.000000
tan -0.007874 -1.000000 0.000000 1.000000
tan 0.000000 -1.000000 0.000000 1.000000
tan 0.000000 -1.000000 0.000000 1.000000
tan 0.000000 -1.000000 0.000000 1.000000
tan 0.000000 -1.000000 0.000000 1.000000
tan 0.000000 -1.000000 0.000000 1.000000
tan 0.000000 -1.000000 0.000000 1.000000
tan 0.007874 -1.000000 0.000000 1.000000
tan 0.000000 -1.000000 0.000000 1.000000
tan 0.007874 -1.000000 0.000000 1.000000
tan 0.000000 -1.000000 0.000000 1.000000
tan 0.000000 -1.000000 0.000000 1.000000
tan 0.000000 -1.000000 0.000000 1.000000
tan 0.000000 -1.000000 0.000000 1.000000
tan 0.000000 -1.000000 0.000000 1.000000
tan 0.000000 -1.000000 0.000000 1.000000
tan 0.000000 -1.000000 0.000000 1.000000
f 3/3/3 2/2/2 1/1/1
f 6/6/6 5/5/5 4/4/4
f 9/9/9 8/8/8 7/7/7
f 7/7/7 10/10/10 9/9/9
f 13/13/13 12/12/12 11/11/11
f 12/12/12 13/13/13 14/14/14
f 17/17/17 16/16/16 15/15/15
f 18/18/18 16/16/16 17/17/17
f 19/19/19 18/18/18 17/17/17
f 22/22/22 21/21/21 20/20/20
f 23/23/23 21/21/21 22/22/22
f 21/21/21 23/23/23 24/24/24
f 25/25/25 24/24/24 23/23/23
f 28/28/28 27/27/27 26/26/26
f 27/27/27 28/28/28 29/29/29
f 29/29/29 30/30/30 27/27/27
f 33/33/33 32/32/32 31/31/31
f 33/33/33 34/34/34 32/32/32
f 34/34/34 35/35/35 32/32/32
